<svg width="597" height="107" viewBox="0 0 597 107" fill="none" xmlns="http://www.w3.org/2000/svg">
<path d="M58.5887 2.29718L70.9013 30.3802C71.3645 31.4371 72.1028 32.3503 73.0393 33.0245C73.9757 33.6987 75.076 34.1092 76.2252 34.213L106.22 36.9024C109.614 37.3964 110.968 41.5585 108.507 43.9552L85.9125 62.9364C84.083 64.4732 83.2506 66.8882 83.7537 69.2208L90.3216 99.9658C90.8979 103.341 87.3578 105.921 84.3208 104.32L58.1405 88.9887C57.1531 88.4091 56.0289 88.1036 54.8839 88.1036C53.739 88.1036 52.6148 88.4091 51.6274 88.9887L25.4471 104.311C22.4192 105.903 18.87 103.332 19.4463 99.9566L26.0142 69.2116C26.5082 66.879 25.6849 64.4641 23.8554 62.9273L1.25174 43.9644C-1.19981 41.5768 0.154031 37.4056 3.53863 36.9116L33.5335 34.2222C34.6827 34.1183 35.783 33.7078 36.7195 33.0336C37.6559 32.3595 38.3943 31.4463 38.8574 30.3894L51.17 2.30633C52.6977 -0.767251 57.0702 -0.767251 58.5887 2.29718Z" fill="#FDD835"/>
<path d="M57.693 32.0625L55.6074 11.3707C55.5251 10.2181 55.2872 8.24219 57.135 8.24219C58.5986 8.24219 59.3945 11.2883 59.3945 11.2883L65.6514 27.9003C68.0115 34.2213 67.0418 36.3893 64.7641 37.6699C62.1479 39.1335 58.2876 37.9901 57.693 32.0625Z" fill="#FFFF8D"/>
<path d="M83.4972 61.0968L101.445 47.0919C102.332 46.3509 103.933 45.1709 102.652 43.8262C101.637 42.7651 98.8926 44.2927 98.8926 44.2927L83.1862 50.4308C78.5026 52.0499 75.3924 54.4465 75.118 57.4652C74.7613 61.4902 78.3746 64.5912 83.4972 61.0968Z" fill="#F4B400"/>
<path d="M423.884 2.29718L436.196 30.3802C436.659 31.4371 437.398 32.3503 438.334 33.0245C439.271 33.6987 440.371 34.1092 441.52 34.213L471.515 36.9024C474.909 37.3964 476.263 41.5585 473.802 43.9552L451.207 62.9364C449.378 64.4732 448.545 66.8882 449.049 69.2208L455.617 99.9658C456.193 103.341 452.653 105.921 449.616 104.32L423.435 88.9887C422.448 88.4091 421.324 88.1036 420.179 88.1036C419.034 88.1036 417.91 88.4091 416.922 88.9887L390.742 104.311C387.714 105.903 384.165 103.332 384.741 99.9566L391.309 69.2116C391.803 66.879 390.98 64.4641 389.15 62.9273L366.547 43.9644C364.095 41.5768 365.449 37.4056 368.834 36.9116L398.828 34.2222C399.978 34.1183 401.078 33.7078 402.014 33.0336C402.951 32.3595 403.689 31.4463 404.152 30.3894L416.465 2.30633C417.993 -0.767251 422.365 -0.767251 423.884 2.29718Z" fill="#FDD835"/>
<path d="M422.988 32.0625L420.902 11.3707C420.82 10.2181 420.582 8.24219 422.43 8.24219C423.894 8.24219 424.689 11.2883 424.689 11.2883L430.946 27.9003C433.306 34.2213 432.337 36.3893 430.059 37.6699C427.443 39.1335 423.583 37.9901 422.988 32.0625Z" fill="#FFFF8D"/>
<path d="M448.793 61.0968L466.741 47.0919C467.628 46.3509 469.229 45.1709 467.948 43.8262C466.933 42.7651 464.188 44.2927 464.188 44.2927L448.482 50.4308C443.799 52.0499 440.688 54.4465 440.414 57.4652C440.057 61.4902 443.67 64.5912 448.793 61.0968Z" fill="#F4B400"/>
<path d="M545.649 2.29718L557.962 30.3802C558.425 31.4371 559.163 32.3503 560.1 33.0245C561.036 33.6987 562.137 34.1092 563.286 34.213L593.281 36.9024C596.674 37.3964 598.028 41.5585 595.568 43.9552L572.973 62.9364C571.144 64.4732 570.311 66.8882 570.814 69.2208L577.382 99.9658C577.958 103.341 574.418 105.921 571.381 104.32L545.201 88.9887C544.214 88.4091 543.089 88.1036 541.944 88.1036C540.8 88.1036 539.675 88.4091 538.688 88.9887L512.508 104.311C509.48 105.903 505.931 103.332 506.507 99.9566L513.075 69.2116C513.569 66.879 512.745 64.4641 510.916 62.9273L488.312 43.9644C485.861 41.5768 487.215 37.4056 490.599 36.9116L520.594 34.2222C521.743 34.1183 522.844 33.7078 523.78 33.0336C524.716 32.3595 525.455 31.4463 525.918 30.3894L538.231 2.30633C539.758 -0.767251 544.131 -0.767251 545.649 2.29718Z" fill="#FDD835"/>
<path d="M544.753 32.0625L542.667 11.3707C542.585 10.2181 542.347 8.24219 544.195 8.24219C545.658 8.24219 546.454 11.2883 546.454 11.2883L552.711 27.9003C555.071 34.2213 554.101 36.3893 551.824 37.6699C549.207 39.1335 545.347 37.9901 544.753 32.0625Z" fill="#FFFF8D"/>
<path d="M570.558 61.0968L588.505 47.0919C589.393 46.3509 590.993 45.1709 589.713 43.8262C588.697 42.7651 585.953 44.2927 585.953 44.2927L570.247 50.4308C565.563 52.0499 562.453 54.4465 562.179 57.4652C561.822 61.4902 565.435 64.5912 570.558 61.0968Z" fill="#F4B400"/>
<path d="M180.354 2.29718L192.667 30.3802C193.13 31.4371 193.868 32.3503 194.805 33.0245C195.741 33.6987 196.842 34.1092 197.991 34.213L227.986 36.9024C231.379 37.3964 232.733 41.5585 230.273 43.9552L207.678 62.9364C205.849 64.4732 205.016 66.8882 205.519 69.2208L212.087 99.9658C212.664 103.341 209.123 105.921 206.086 104.32L179.906 88.9887C178.919 88.4091 177.794 88.1036 176.65 88.1036C175.505 88.1036 174.38 88.4091 173.393 88.9887L147.213 104.311C144.185 105.903 140.636 103.332 141.212 99.9566L147.78 69.2116C148.274 66.879 147.451 64.4641 145.621 62.9273L123.017 43.9644C120.566 41.5768 121.92 37.4056 125.304 36.9116L155.299 34.2222C156.448 34.1183 157.549 33.7078 158.485 33.0336C159.422 32.3595 160.16 31.4463 160.623 30.3894L172.936 2.30633C174.463 -0.767251 178.836 -0.767251 180.354 2.29718Z" fill="#FDD835"/>
<path d="M179.459 32.0625L177.373 11.3707C177.291 10.2181 177.053 8.24219 178.901 8.24219C180.364 8.24219 181.16 11.2883 181.16 11.2883L187.417 27.9003C189.777 34.2213 188.807 36.3893 186.53 37.6699C183.914 39.1335 180.053 37.9901 179.459 32.0625Z" fill="#FFFF8D"/>
<path d="M205.263 61.0968L223.21 47.0919C224.098 46.3509 225.698 45.1709 224.418 43.8262C223.402 42.7651 220.658 44.2927 220.658 44.2927L204.952 50.4308C200.268 52.0499 197.158 54.4465 196.884 57.4652C196.527 61.4902 200.14 64.5912 205.263 61.0968Z" fill="#F4B400"/>
<path d="M302.119 2.29718L314.432 30.3802C314.895 31.4371 315.633 32.3503 316.57 33.0245C317.506 33.6987 318.606 34.1092 319.755 34.213L349.75 36.9024C353.144 37.3964 354.498 41.5585 352.037 43.9552L329.443 62.9364C327.613 64.4732 326.781 66.8882 327.284 69.2208L333.852 99.9658C334.428 103.341 330.888 105.921 327.851 104.32L301.671 88.9887C300.683 88.4091 299.559 88.1036 298.414 88.1036C297.269 88.1036 296.145 88.4091 295.158 88.9887L268.977 104.311C265.949 105.903 262.4 103.332 262.977 99.9566L269.544 69.2116C270.038 66.879 269.215 64.4641 267.386 62.9273L244.782 43.9644C242.33 41.5768 243.684 37.4056 247.069 36.9116L277.064 34.2222C278.213 34.1183 279.313 33.7078 280.25 33.0336C281.186 32.3595 281.925 31.4463 282.388 30.3894L294.7 2.30633C296.228 -0.767251 300.6 -0.767251 302.119 2.29718Z" fill="#FDD835"/>
<path d="M301.222 32.0625L299.137 11.3707C299.054 10.2181 298.817 8.24219 300.664 8.24219C302.128 8.24219 302.924 11.2883 302.924 11.2883L309.181 27.9003C311.541 34.2213 310.571 36.3893 308.293 37.6699C305.677 39.1335 301.817 37.9901 301.222 32.0625Z" fill="#FFFF8D"/>
<path d="M327.027 61.0968L344.975 47.0919C345.862 46.3509 347.463 45.1709 346.182 43.8262C345.167 42.7651 342.423 44.2927 342.423 44.2927L326.716 50.4308C322.033 52.0499 318.923 54.4465 318.648 57.4652C318.292 61.4902 321.905 64.5912 327.027 61.0968Z" fill="#F4B400"/>
<g style="mix-blend-mode:hue">
<rect x="122" width="475" height="107" fill="white"/>
</g>
</svg>
