<svg width="597" height="491" viewBox="0 0 597 491" fill="none" xmlns="http://www.w3.org/2000/svg">
<path d="M58.5887 2.29718L70.9013 30.3802C71.3645 31.4371 72.1028 32.3503 73.0393 33.0245C73.9757 33.6987 75.076 34.1092 76.2252 34.213L106.22 36.9024C109.614 37.3964 110.968 41.5585 108.507 43.9552L85.9125 62.9364C84.083 64.4732 83.2506 66.8882 83.7537 69.2208L90.3216 99.9658C90.8979 103.341 87.3578 105.921 84.3208 104.32L58.1405 88.9887C57.1531 88.4091 56.0289 88.1036 54.8839 88.1036C53.739 88.1036 52.6148 88.4091 51.6274 88.9887L25.4471 104.311C22.4192 105.903 18.87 103.332 19.4463 99.9566L26.0142 69.2116C26.5082 66.879 25.6849 64.4641 23.8554 62.9273L1.25174 43.9644C-1.19981 41.5768 0.154031 37.4056 3.53863 36.9116L33.5335 34.2222C34.6827 34.1183 35.783 33.7078 36.7195 33.0336C37.6559 32.3595 38.3943 31.4463 38.8574 30.3894L51.17 2.30633C52.6977 -0.767251 57.0702 -0.767251 58.5887 2.29718Z" fill="#FDD835"/>
<path d="M57.693 32.0625L55.6074 11.3707C55.5251 10.2181 55.2872 8.24219 57.135 8.24219C58.5986 8.24219 59.3945 11.2883 59.3945 11.2883L65.6514 27.9003C68.0115 34.2213 67.0418 36.3893 64.7641 37.6699C62.1479 39.1335 58.2876 37.9901 57.693 32.0625Z" fill="#FFFF8D"/>
<path d="M83.4972 61.0968L101.445 47.0919C102.332 46.3509 103.933 45.1709 102.652 43.8262C101.637 42.7651 98.8926 44.2927 98.8926 44.2927L83.1862 50.4308C78.5026 52.0499 75.3924 54.4465 75.118 57.4652C74.7613 61.4902 78.3746 64.5912 83.4972 61.0968Z" fill="#F4B400"/>
<path d="M423.884 2.29718L436.196 30.3802C436.659 31.4371 437.398 32.3503 438.334 33.0245C439.271 33.6987 440.371 34.1092 441.52 34.213L471.515 36.9024C474.909 37.3964 476.263 41.5585 473.802 43.9552L451.207 62.9364C449.378 64.4732 448.545 66.8882 449.049 69.2208L455.617 99.9658C456.193 103.341 452.653 105.921 449.616 104.32L423.435 88.9887C422.448 88.4091 421.324 88.1036 420.179 88.1036C419.034 88.1036 417.91 88.4091 416.922 88.9887L390.742 104.311C387.714 105.903 384.165 103.332 384.741 99.9566L391.309 69.2116C391.803 66.879 390.98 64.4641 389.15 62.9273L366.547 43.9644C364.095 41.5768 365.449 37.4056 368.834 36.9116L398.828 34.2222C399.978 34.1183 401.078 33.7078 402.014 33.0336C402.951 32.3595 403.689 31.4463 404.152 30.3894L416.465 2.30633C417.993 -0.767251 422.365 -0.767251 423.884 2.29718Z" fill="#FDD835"/>
<path d="M422.988 32.0625L420.902 11.3707C420.82 10.2181 420.582 8.24219 422.43 8.24219C423.894 8.24219 424.689 11.2883 424.689 11.2883L430.946 27.9003C433.306 34.2213 432.337 36.3893 430.059 37.6699C427.443 39.1335 423.583 37.9901 422.988 32.0625Z" fill="#FFFF8D"/>
<path d="M448.793 61.0968L466.741 47.0919C467.628 46.3509 469.229 45.1709 467.948 43.8262C466.933 42.7651 464.188 44.2927 464.188 44.2927L448.482 50.4308C443.799 52.0499 440.688 54.4465 440.414 57.4652C440.057 61.4902 443.67 64.5912 448.793 61.0968Z" fill="#F4B400"/>
<path d="M545.649 2.29718L557.962 30.3802C558.425 31.4371 559.163 32.3503 560.1 33.0245C561.036 33.6987 562.137 34.1092 563.286 34.213L593.281 36.9024C596.674 37.3964 598.028 41.5585 595.568 43.9552L572.973 62.9364C571.144 64.4732 570.311 66.8882 570.814 69.2208L577.382 99.9658C577.958 103.341 574.418 105.921 571.381 104.32L545.201 88.9887C544.214 88.4091 543.089 88.1036 541.944 88.1036C540.8 88.1036 539.675 88.4091 538.688 88.9887L512.508 104.311C509.48 105.903 505.931 103.332 506.507 99.9566L513.075 69.2116C513.569 66.879 512.745 64.4641 510.916 62.9273L488.312 43.9644C485.861 41.5768 487.215 37.4056 490.599 36.9116L520.594 34.2222C521.743 34.1183 522.844 33.7078 523.78 33.0336C524.716 32.3595 525.455 31.4463 525.918 30.3894L538.231 2.30633C539.758 -0.767251 544.131 -0.767251 545.649 2.29718Z" fill="#FDD835"/>
<path d="M544.753 32.0625L542.667 11.3707C542.585 10.2181 542.347 8.24219 544.195 8.24219C545.658 8.24219 546.454 11.2883 546.454 11.2883L552.711 27.9003C555.071 34.2213 554.101 36.3893 551.824 37.6699C549.207 39.1335 545.347 37.9901 544.753 32.0625Z" fill="#FFFF8D"/>
<path d="M570.558 61.0968L588.505 47.0919C589.393 46.3509 590.993 45.1709 589.713 43.8262C588.697 42.7651 585.953 44.2927 585.953 44.2927L570.247 50.4308C565.563 52.0499 562.453 54.4465 562.179 57.4652C561.822 61.4902 565.435 64.5912 570.558 61.0968Z" fill="#F4B400"/>
<path d="M180.354 2.29718L192.667 30.3802C193.13 31.4371 193.868 32.3503 194.805 33.0245C195.741 33.6987 196.842 34.1092 197.991 34.213L227.986 36.9024C231.379 37.3964 232.733 41.5585 230.273 43.9552L207.678 62.9364C205.849 64.4732 205.016 66.8882 205.519 69.2208L212.087 99.9658C212.664 103.341 209.123 105.921 206.086 104.32L179.906 88.9887C178.919 88.4091 177.795 88.1036 176.65 88.1036C175.505 88.1036 174.38 88.4091 173.393 88.9887L147.213 104.311C144.185 105.903 140.636 103.332 141.212 99.9566L147.78 69.2116C148.274 66.879 147.451 64.4641 145.621 62.9273L123.017 43.9644C120.566 41.5768 121.92 37.4056 125.304 36.9116L155.299 34.2222C156.448 34.1183 157.549 33.7078 158.485 33.0336C159.422 32.3595 160.16 31.4463 160.623 30.3894L172.936 2.30633C174.463 -0.767251 178.836 -0.767251 180.354 2.29718Z" fill="#FDD835"/>
<path d="M179.459 32.0625L177.373 11.3707C177.291 10.2181 177.053 8.24219 178.901 8.24219C180.364 8.24219 181.16 11.2883 181.16 11.2883L187.417 27.9003C189.777 34.2213 188.807 36.3893 186.53 37.6699C183.914 39.1335 180.053 37.9901 179.459 32.0625Z" fill="#FFFF8D"/>
<path d="M205.263 61.0968L223.21 47.0919C224.098 46.3509 225.698 45.1709 224.418 43.8262C223.402 42.7651 220.658 44.2927 220.658 44.2927L204.952 50.4308C200.268 52.0499 197.158 54.4465 196.884 57.4652C196.527 61.4902 200.14 64.5912 205.263 61.0968Z" fill="#F4B400"/>
<path d="M302.119 2.29718L314.432 30.3802C314.895 31.4371 315.633 32.3503 316.57 33.0245C317.506 33.6987 318.606 34.1092 319.756 34.213L349.75 36.9024C353.144 37.3964 354.498 41.5585 352.037 43.9552L329.443 62.9364C327.613 64.4732 326.781 66.8882 327.284 69.2208L333.852 99.9658C334.428 103.341 330.888 105.921 327.851 104.32L301.671 88.9887C300.683 88.4091 299.559 88.1036 298.414 88.1036C297.269 88.1036 296.145 88.4091 295.158 88.9887L268.977 104.311C265.949 105.903 262.4 103.332 262.977 99.9566L269.544 69.2116C270.038 66.879 269.215 64.4641 267.386 62.9273L244.782 43.9644C242.33 41.5768 243.684 37.4056 247.069 36.9116L277.064 34.2222C278.213 34.1183 279.313 33.7078 280.25 33.0336C281.186 32.3595 281.925 31.4463 282.388 30.3894L294.7 2.30633C296.228 -0.767251 300.6 -0.767251 302.119 2.29718Z" fill="#FDD835"/>
<path d="M301.222 32.0625L299.137 11.3707C299.054 10.2181 298.817 8.24219 300.664 8.24219C302.128 8.24219 302.924 11.2883 302.924 11.2883L309.181 27.9003C311.541 34.2213 310.571 36.3893 308.293 37.6699C305.677 39.1335 301.817 37.9901 301.222 32.0625Z" fill="#FFFF8D"/>
<path d="M327.027 61.0968L344.975 47.0919C345.862 46.3509 347.463 45.1709 346.182 43.8262C345.167 42.7651 342.423 44.2927 342.423 44.2927L326.716 50.4308C322.033 52.0499 318.923 54.4465 318.648 57.4652C318.292 61.4902 321.905 64.5912 327.027 61.0968Z" fill="#F4B400"/>
<path d="M108 280C108 257.909 125.909 240 148 240H449C471.091 240 489 257.909 489 280V401C489 423.091 471.091 441 449 441H148C125.909 441 108 423.091 108 401V280Z" fill="#F4B400" fill-opacity="0.05"/>
<path fill-rule="evenodd" clip-rule="evenodd" d="M148 228H449C477.719 228 501 251.281 501 280V401C501 429.719 477.719 453 449 453H148C119.281 453 96 429.719 96 401V280C96 251.281 119.281 228 148 228ZM148 240C125.909 240 108 257.909 108 280V401C108 423.091 125.909 441 148 441H449C471.091 441 489 423.091 489 401V280C489 257.909 471.091 240 449 240H148Z" fill="#F4B400"/>
<path d="M392.131 403.256C391.469 403.256 390.755 403.235 389.987 403.192C389.24 403.149 388.504 403.096 387.779 403.032C387.053 402.968 386.392 402.893 385.795 402.808V399.608C386.115 399.629 386.488 399.661 386.915 399.704C387.363 399.725 387.843 399.747 388.355 399.768C388.867 399.789 389.368 399.81 389.859 399.832C390.349 399.853 390.808 399.864 391.235 399.864C392.216 399.864 392.92 399.821 393.347 399.736C393.795 399.629 394.083 399.458 394.211 399.224C394.339 398.968 394.403 398.637 394.403 398.232C394.403 397.805 394.36 397.496 394.275 397.304C394.189 397.09 394.029 396.952 393.795 396.888C393.56 396.824 393.176 396.76 392.643 396.696L388.835 396.216C387.832 396.088 387.075 395.821 386.563 395.416C386.072 395.01 385.731 394.466 385.539 393.784C385.368 393.101 385.283 392.291 385.283 391.352C385.283 390.243 385.443 389.368 385.763 388.728C386.104 388.066 386.563 387.576 387.139 387.256C387.736 386.914 388.44 386.69 389.251 386.584C390.083 386.477 390.979 386.424 391.939 386.424C392.579 386.424 393.24 386.445 393.923 386.488C394.605 386.531 395.256 386.594 395.875 386.68C396.515 386.744 397.048 386.829 397.475 386.936V390.104C396.984 390.04 396.44 389.997 395.843 389.976C395.245 389.933 394.659 389.901 394.083 389.88C393.507 389.837 392.995 389.816 392.547 389.816C391.736 389.816 391.085 389.848 390.595 389.912C390.125 389.955 389.795 390.083 389.603 390.296C389.411 390.509 389.315 390.861 389.315 391.352C389.315 391.736 389.347 392.035 389.411 392.248C389.475 392.44 389.613 392.579 389.827 392.664C390.04 392.728 390.381 392.792 390.851 392.856L394.979 393.368C395.725 393.453 396.355 393.624 396.867 393.88C397.379 394.136 397.752 394.584 397.987 395.224C398.243 395.864 398.371 396.835 398.371 398.136C398.371 399.267 398.232 400.173 397.955 400.856C397.677 401.517 397.251 402.029 396.675 402.392C396.12 402.733 395.459 402.957 394.691 403.064C393.944 403.192 393.091 403.256 392.131 403.256Z" fill="#5C4400"/>
<path d="M373.522 403V386.68H377.49L377.618 389.496H377.874C378.151 388.685 378.525 388.056 378.994 387.608C379.485 387.16 380.071 386.85 380.754 386.68C381.437 386.509 382.215 386.424 383.09 386.424V390.456C381.703 390.456 380.615 390.648 379.826 391.032C379.058 391.416 378.514 392.045 378.194 392.92C377.895 393.794 377.746 394.978 377.746 396.472V403H373.522Z" fill="#5C4400"/>
<path d="M359.428 403.256C358.383 403.256 357.497 403.106 356.772 402.808C356.047 402.488 355.492 401.976 355.108 401.272C354.745 400.547 354.564 399.597 354.564 398.424C354.564 397.165 354.713 396.173 355.012 395.448C355.311 394.701 355.833 394.168 356.58 393.848C357.327 393.506 358.361 393.336 359.684 393.336C359.897 393.336 360.196 393.346 360.58 393.368C360.964 393.368 361.401 393.378 361.892 393.4C362.383 393.4 362.873 393.411 363.364 393.432C363.855 393.432 364.303 393.443 364.708 393.464V392.824C364.708 392.12 364.655 391.565 364.548 391.16C364.441 390.755 364.239 390.456 363.94 390.264C363.641 390.072 363.204 389.955 362.628 389.912C362.052 389.869 361.305 389.848 360.388 389.848C359.919 389.848 359.375 389.859 358.756 389.88C358.137 389.901 357.54 389.933 356.964 389.976C356.388 390.018 355.929 390.061 355.588 390.104V386.904C356.505 386.754 357.497 386.637 358.564 386.552C359.631 386.467 360.708 386.424 361.796 386.424C363.076 386.424 364.143 386.509 364.996 386.68C365.871 386.829 366.564 387.074 367.076 387.416C367.609 387.757 368.004 388.194 368.26 388.728C368.537 389.24 368.719 389.858 368.804 390.584C368.889 391.288 368.932 392.099 368.932 393.016V403H364.996L364.868 401.016H364.612C364.249 401.677 363.769 402.168 363.172 402.488C362.596 402.808 361.977 403.01 361.316 403.096C360.676 403.202 360.047 403.256 359.428 403.256ZM361.444 399.992C361.913 399.992 362.319 399.96 362.66 399.896C363.023 399.832 363.332 399.725 363.588 399.576C363.865 399.405 364.079 399.192 364.228 398.936C364.377 398.659 364.495 398.317 364.58 397.912C364.665 397.507 364.708 397.016 364.708 396.44V395.96H360.836C360.239 395.96 359.78 396.002 359.46 396.088C359.14 396.173 358.927 396.365 358.82 396.664C358.713 396.963 358.66 397.41 358.66 398.008C358.66 398.562 358.724 398.989 358.852 399.288C358.98 399.565 359.247 399.757 359.652 399.864C360.057 399.949 360.655 399.992 361.444 399.992Z" fill="#5C4400"/>
<path d="M344.808 402.999V390.103H341.672V386.679H344.808V381.943H349.064V386.679H352.776V390.103H349.064V402.999H344.808Z" fill="#5C4400"/>
<path d="M333.443 403.256C332.782 403.256 332.067 403.235 331.299 403.192C330.553 403.149 329.817 403.096 329.091 403.032C328.366 402.968 327.705 402.893 327.107 402.808V399.608C327.427 399.629 327.801 399.661 328.227 399.704C328.675 399.725 329.155 399.747 329.667 399.768C330.179 399.789 330.681 399.81 331.171 399.832C331.662 399.853 332.121 399.864 332.547 399.864C333.529 399.864 334.233 399.821 334.659 399.736C335.107 399.629 335.395 399.458 335.523 399.224C335.651 398.968 335.715 398.637 335.715 398.232C335.715 397.805 335.673 397.496 335.587 397.304C335.502 397.09 335.342 396.952 335.107 396.888C334.873 396.824 334.489 396.76 333.955 396.696L330.147 396.216C329.145 396.088 328.387 395.821 327.875 395.416C327.385 395.01 327.043 394.466 326.851 393.784C326.681 393.101 326.595 392.291 326.595 391.352C326.595 390.243 326.755 389.368 327.075 388.728C327.417 388.066 327.875 387.576 328.451 387.256C329.049 386.914 329.753 386.69 330.563 386.584C331.395 386.477 332.291 386.424 333.251 386.424C333.891 386.424 334.553 386.445 335.235 386.488C335.918 386.531 336.569 386.594 337.187 386.68C337.827 386.744 338.361 386.829 338.787 386.936V390.104C338.297 390.04 337.753 389.997 337.155 389.976C336.558 389.933 335.971 389.901 335.395 389.88C334.819 389.837 334.307 389.816 333.859 389.816C333.049 389.816 332.398 389.848 331.907 389.912C331.438 389.955 331.107 390.083 330.915 390.296C330.723 390.509 330.627 390.861 330.627 391.352C330.627 391.736 330.659 392.035 330.723 392.248C330.787 392.44 330.926 392.579 331.139 392.664C331.353 392.728 331.694 392.792 332.163 392.856L336.291 393.368C337.038 393.453 337.667 393.624 338.179 393.88C338.691 394.136 339.065 394.584 339.299 395.224C339.555 395.864 339.683 396.835 339.683 398.136C339.683 399.267 339.545 400.173 339.267 400.856C338.99 401.517 338.563 402.029 337.987 402.392C337.433 402.733 336.771 402.957 336.003 403.064C335.257 403.192 334.403 403.256 333.443 403.256Z" fill="#5C4400"/>
<path d="M306.656 403.256C305.952 403.256 305.173 403.224 304.32 403.16C303.488 403.118 302.666 403.054 301.856 402.968C301.045 402.862 300.32 402.744 299.68 402.616V399.16C300.469 399.224 301.258 399.288 302.048 399.352C302.858 399.416 303.616 399.47 304.32 399.512C305.045 399.534 305.664 399.544 306.176 399.544C307.136 399.544 307.914 399.502 308.512 399.416C309.109 399.31 309.568 399.139 309.888 398.904C310.229 398.67 310.464 398.339 310.592 397.912C310.741 397.486 310.816 396.942 310.816 396.28C310.816 395.576 310.741 395.011 310.592 394.584C310.442 394.136 310.186 393.816 309.824 393.624C309.461 393.411 308.97 393.272 308.352 393.208C307.733 393.123 306.944 393.08 305.984 393.08C305.45 393.08 304.832 393.102 304.128 393.144C303.424 393.166 302.709 393.208 301.984 393.272C301.258 393.315 300.576 393.379 299.936 393.464V380.984H313.76V384.728H304V389.656C304.384 389.614 304.832 389.571 305.344 389.528C305.877 389.486 306.4 389.454 306.912 389.432C307.445 389.411 307.914 389.4 308.32 389.4C309.77 389.4 310.954 389.539 311.872 389.816C312.789 390.094 313.504 390.52 314.016 391.096C314.528 391.651 314.88 392.334 315.072 393.144C315.285 393.934 315.392 394.851 315.392 395.896C315.392 397.198 315.264 398.318 315.008 399.256C314.773 400.195 314.336 400.963 313.696 401.56C313.077 402.136 312.192 402.563 311.04 402.84C309.888 403.118 308.426 403.256 306.656 403.256Z" fill="#5C4400"/>
<path d="M280.34 403V390.104H277.204V386.68H280.34V385.176C280.34 384.024 280.415 383.085 280.564 382.36C280.713 381.613 280.969 381.037 281.332 380.632C281.716 380.205 282.217 379.896 282.836 379.704C283.476 379.512 284.265 379.395 285.204 379.352C286.164 379.288 287.305 379.256 288.628 379.256V382.328C287.732 382.328 287.017 382.349 286.484 382.392C285.951 382.435 285.545 382.531 285.268 382.68C285.012 382.829 284.831 383.053 284.724 383.352C284.639 383.629 284.596 384.013 284.596 384.504V386.68H288.628V390.104H284.596V403H280.34Z" fill="#5C4400"/>
<path d="M267.309 403.256C265.901 403.256 264.727 403.17 263.789 403C262.85 402.829 262.114 402.552 261.581 402.168C261.047 401.784 260.653 401.272 260.397 400.632C260.162 399.992 260.002 399.192 259.917 398.232C259.853 397.272 259.821 396.13 259.821 394.808C259.821 393.485 259.853 392.354 259.917 391.416C260.002 390.456 260.162 389.656 260.397 389.016C260.653 388.376 261.047 387.864 261.581 387.48C262.114 387.096 262.85 386.829 263.789 386.68C264.727 386.509 265.901 386.424 267.309 386.424C268.717 386.424 269.879 386.509 270.797 386.68C271.735 386.829 272.471 387.096 273.005 387.48C273.559 387.864 273.954 388.376 274.189 389.016C274.445 389.656 274.605 390.456 274.669 391.416C274.754 392.354 274.797 393.485 274.797 394.808C274.797 396.13 274.754 397.272 274.669 398.232C274.605 399.192 274.445 399.992 274.189 400.632C273.954 401.272 273.559 401.784 273.005 402.168C272.471 402.552 271.735 402.829 270.797 403C269.879 403.17 268.717 403.256 267.309 403.256ZM267.309 399.832C268.098 399.832 268.717 399.778 269.165 399.672C269.634 399.565 269.954 399.352 270.125 399.032C270.317 398.69 270.434 398.179 270.477 397.496C270.519 396.813 270.541 395.917 270.541 394.808C270.541 393.698 270.519 392.813 270.477 392.152C270.434 391.469 270.317 390.968 270.125 390.648C269.954 390.306 269.634 390.093 269.165 390.008C268.717 389.901 268.098 389.848 267.309 389.848C266.498 389.848 265.869 389.901 265.421 390.008C264.973 390.093 264.653 390.306 264.461 390.648C264.269 390.968 264.151 391.469 264.109 392.152C264.087 392.813 264.077 393.698 264.077 394.808C264.077 395.917 264.087 396.813 264.109 397.496C264.151 398.179 264.269 398.69 264.461 399.032C264.653 399.352 264.973 399.565 265.421 399.672C265.869 399.778 266.498 399.832 267.309 399.832Z" fill="#5C4400"/>
<path d="M241.558 402.999V390.103H238.422V386.679H241.558V381.943H245.814V386.679H249.526V390.103H245.814V402.999H241.558Z" fill="#5C4400"/>
<path d="M226.205 403.256C225.096 403.256 224.2 403.117 223.517 402.84C222.835 402.562 222.312 402.157 221.949 401.624C221.608 401.09 221.373 400.429 221.245 399.64C221.117 398.85 221.053 397.933 221.053 396.888V386.68H225.277V395.32C225.277 396.301 225.309 397.08 225.373 397.656C225.437 398.232 225.565 398.658 225.757 398.936C225.949 399.213 226.237 399.394 226.621 399.48C227.005 399.544 227.517 399.576 228.157 399.576C228.84 399.576 229.395 399.501 229.821 399.352C230.248 399.181 230.557 398.925 230.749 398.584C230.963 398.221 231.101 397.762 231.165 397.208C231.229 396.632 231.261 395.938 231.261 395.128V386.68H235.485V403H231.549L231.421 400.952H231.133C230.877 401.464 230.515 401.901 230.045 402.264C229.597 402.605 229.053 402.85 228.413 403C227.773 403.17 227.037 403.256 226.205 403.256Z" fill="#5C4400"/>
<path d="M207.452 403.255C205.66 403.255 204.177 403.148 203.004 402.935C201.852 402.721 200.945 402.369 200.284 401.879C199.623 401.367 199.143 400.684 198.844 399.831C198.545 398.956 198.353 397.879 198.268 396.599C198.183 395.319 198.14 393.783 198.14 391.991C198.14 390.199 198.183 388.663 198.268 387.383C198.353 386.103 198.545 385.036 198.844 384.183C199.143 383.308 199.623 382.625 200.284 382.135C200.945 381.623 201.852 381.26 203.004 381.047C204.177 380.833 205.66 380.727 207.452 380.727C209.244 380.727 210.716 380.833 211.868 381.047C213.041 381.26 213.959 381.623 214.62 382.135C215.281 382.625 215.761 383.308 216.06 384.183C216.38 385.036 216.583 386.103 216.668 387.383C216.753 388.663 216.796 390.199 216.796 391.991C216.796 393.783 216.753 395.319 216.668 396.599C216.583 397.879 216.38 398.956 216.06 399.831C215.761 400.684 215.281 401.367 214.62 401.879C213.959 402.369 213.041 402.721 211.868 402.935C210.716 403.148 209.244 403.255 207.452 403.255ZM207.452 399.543C208.391 399.543 209.148 399.511 209.724 399.447C210.321 399.383 210.791 399.233 211.132 398.999C211.473 398.764 211.719 398.38 211.868 397.847C212.039 397.313 212.145 396.577 212.188 395.639C212.231 394.7 212.252 393.484 212.252 391.991C212.252 390.497 212.231 389.281 212.188 388.343C212.145 387.404 212.039 386.668 211.868 386.135C211.719 385.601 211.473 385.217 211.132 384.983C210.791 384.748 210.321 384.599 209.724 384.535C209.148 384.471 208.391 384.439 207.452 384.439C206.535 384.439 205.777 384.471 205.18 384.535C204.604 384.599 204.145 384.748 203.804 384.983C203.463 385.217 203.207 385.601 203.036 386.135C202.887 386.668 202.791 387.404 202.748 388.343C202.705 389.281 202.684 390.497 202.684 391.991C202.684 393.484 202.705 394.7 202.748 395.639C202.791 396.577 202.887 397.313 203.036 397.847C203.207 398.38 203.463 398.764 203.804 398.999C204.145 399.233 204.604 399.383 205.18 399.447C205.777 399.511 206.535 399.543 207.452 399.543Z" fill="#5C4400"/>
<path d="M295.537 363.959C292.897 363.959 289.977 363.839 286.777 363.599C283.657 363.439 280.577 363.199 277.537 362.879C274.497 362.479 271.777 362.039 269.377 361.559V348.599C272.337 348.839 275.297 349.079 278.257 349.319C281.297 349.559 284.137 349.759 286.777 349.919C289.497 349.999 291.817 350.039 293.737 350.039C297.337 350.039 300.257 349.879 302.497 349.559C304.737 349.159 306.457 348.519 307.657 347.639C308.937 346.759 309.817 345.519 310.297 343.919C310.857 342.319 311.137 340.279 311.137 337.799C311.137 335.159 310.857 333.039 310.297 331.439C309.737 329.759 308.777 328.559 307.417 327.839C306.057 327.039 304.217 326.519 301.897 326.279C299.577 325.959 296.617 325.799 293.017 325.799C291.017 325.799 288.697 325.879 286.057 326.039C283.417 326.119 280.737 326.279 278.017 326.519C275.297 326.679 272.737 326.919 270.337 327.239V280.439H322.177V294.479H285.577V312.959C287.017 312.799 288.697 312.639 290.617 312.479C292.617 312.319 294.577 312.199 296.497 312.119C298.497 312.039 300.257 311.999 301.777 311.999C307.217 311.999 311.657 312.519 315.097 313.559C318.537 314.599 321.217 316.199 323.137 318.359C325.057 320.439 326.377 322.999 327.097 326.039C327.897 328.999 328.297 332.439 328.297 336.359C328.297 341.239 327.817 345.439 326.857 348.959C325.977 352.479 324.337 355.359 321.937 357.599C319.617 359.759 316.297 361.359 311.977 362.399C307.657 363.439 302.177 363.959 295.537 363.959Z" fill="#F4B400"/>
<path d="M191 484H405V491H191V484Z" fill="#0186C6"/>
<path d="M572.221 183.849C573.817 183.849 574.965 183.583 575.665 183.051C576.393 182.519 576.757 181.833 576.757 180.993C576.757 180.489 576.645 180.069 576.421 179.733C576.197 179.397 575.875 179.103 575.455 178.851C575.035 178.599 574.531 178.375 573.943 178.179C573.383 177.955 572.767 177.717 572.095 177.465C571.395 177.213 570.653 176.919 569.869 176.583C569.113 176.247 568.413 175.827 567.769 175.323C567.125 174.819 566.593 174.203 566.173 173.475C565.753 172.747 565.543 171.851 565.543 170.787C565.543 169.751 565.753 168.855 566.173 168.099C566.621 167.315 567.223 166.671 567.979 166.167C568.735 165.663 569.617 165.299 570.625 165.075C571.661 164.823 572.753 164.697 573.901 164.697C574.937 164.697 575.959 164.781 576.967 164.949C578.003 165.117 578.969 165.341 579.865 165.621L579.487 169.149C578.675 168.841 577.821 168.603 576.925 168.435C576.057 168.267 575.133 168.183 574.153 168.183C572.809 168.183 571.759 168.379 571.003 168.771C570.247 169.135 569.869 169.765 569.869 170.661C569.869 171.557 570.275 172.229 571.087 172.677C571.927 173.125 573.089 173.587 574.573 174.063C575.609 174.399 576.519 174.763 577.303 175.155C578.115 175.519 578.787 175.953 579.319 176.457C579.879 176.933 580.299 177.507 580.579 178.179C580.859 178.823 580.999 179.607 580.999 180.531C580.999 181.707 580.775 182.729 580.327 183.597C579.879 184.465 579.263 185.179 578.479 185.739C577.695 186.299 576.771 186.719 575.707 186.999C574.643 187.279 573.509 187.419 572.305 187.419C571.101 187.419 569.855 187.293 568.567 187.041C567.307 186.789 566.159 186.453 565.123 186.033L565.501 182.295C566.481 182.771 567.559 183.149 568.735 183.429C569.911 183.709 571.073 183.849 572.221 183.849Z" fill="#0186C6"/>
<path d="M554.246 165.076H558.572V187H554.246V165.076ZM558.656 161.338H554.162V157.096L558.656 155.92V161.338Z" fill="#0186C6"/>
<path d="M528.597 187.419C524.929 187.419 522.101 186.467 520.113 184.563C518.153 182.659 517.173 179.915 517.173 176.331C517.173 174.623 517.411 173.055 517.887 171.627C518.363 170.199 519.063 168.967 519.987 167.931C520.911 166.895 522.045 166.097 523.389 165.537C524.733 164.977 526.259 164.697 527.967 164.697C529.591 164.697 530.991 164.949 532.167 165.453C533.343 165.957 534.309 166.671 535.065 167.595C535.821 168.491 536.381 169.555 536.745 170.787C537.109 171.991 537.291 173.307 537.291 174.735C537.291 175.211 537.263 175.687 537.207 176.163C537.179 176.639 537.137 177.073 537.081 177.465H521.667C521.751 179.425 522.381 180.979 523.557 182.127C524.761 183.275 526.595 183.849 529.059 183.849C530.067 183.849 531.159 183.751 532.335 183.555C533.511 183.359 534.547 183.107 535.443 182.799L535.905 186.117C534.841 186.509 533.679 186.817 532.419 187.041C531.187 187.293 529.913 187.419 528.597 187.419ZM527.757 168.015C525.881 168.015 524.425 168.603 523.389 169.779C522.353 170.927 521.793 172.425 521.709 174.273H532.965V173.811C532.965 173.223 532.895 172.593 532.755 171.921C532.615 171.249 532.349 170.633 531.957 170.073C531.593 169.485 531.075 168.995 530.403 168.603C529.731 168.211 528.849 168.015 527.757 168.015Z" fill="#0186C6"/>
<path d="M506.145 168.141C507.097 167.245 508.231 166.489 509.547 165.873C510.891 165.229 512.361 164.837 513.957 164.697L513.621 168.939C512.277 169.051 510.975 169.317 509.715 169.737C508.483 170.157 507.363 170.731 506.355 171.459V186.999H502.029V165.075H505.851L506.145 168.141Z" fill="#0186C6"/>
<path d="M479.669 181.875C480.929 183.247 482.553 183.933 484.541 183.933C486.529 183.933 488.153 183.247 489.413 181.875C490.673 180.503 491.303 178.557 491.303 176.037C491.303 173.545 490.673 171.613 489.413 170.241C488.181 168.869 486.557 168.183 484.541 168.183C482.525 168.183 480.887 168.869 479.627 170.241C478.395 171.613 477.779 173.545 477.779 176.037C477.779 178.557 478.409 180.503 479.669 181.875ZM489.287 186.579C487.915 187.139 486.333 187.419 484.541 187.419C482.749 187.419 481.153 187.139 479.753 186.579C478.381 186.019 477.219 185.249 476.267 184.269C475.315 183.261 474.587 182.071 474.083 180.699C473.607 179.299 473.369 177.773 473.369 176.121C473.369 174.441 473.621 172.901 474.125 171.501C474.629 170.101 475.357 168.897 476.309 167.889C477.289 166.881 478.465 166.097 479.837 165.537C481.209 164.977 482.777 164.697 484.541 164.697C486.305 164.697 487.873 164.977 489.245 165.537C490.617 166.097 491.779 166.881 492.731 167.889C493.711 168.897 494.453 170.101 494.957 171.501C495.461 172.901 495.713 174.441 495.713 176.121C495.713 177.773 495.461 179.299 494.957 180.699C494.481 182.071 493.767 183.261 492.815 184.269C491.863 185.249 490.687 186.019 489.287 186.579Z" fill="#0186C6"/>
<path d="M469.245 186.075C468.321 186.467 467.313 186.789 466.221 187.041C465.129 187.293 463.953 187.419 462.693 187.419C460.929 187.419 459.319 187.167 457.863 186.663C456.435 186.131 455.203 185.375 454.167 184.395C453.131 183.415 452.333 182.225 451.773 180.825C451.213 179.425 450.933 177.843 450.933 176.079C450.933 174.287 451.227 172.691 451.815 171.291C452.403 169.863 453.229 168.659 454.293 167.679C455.357 166.699 456.617 165.957 458.073 165.453C459.557 164.949 461.181 164.697 462.945 164.697C464.065 164.697 465.129 164.795 466.137 164.991C467.145 165.187 468.097 165.453 468.993 165.789L468.405 169.317C467.677 169.009 466.879 168.757 466.011 168.561C465.171 168.365 464.261 168.267 463.281 168.267C460.817 168.267 458.871 168.953 457.443 170.325C456.043 171.697 455.343 173.587 455.343 175.995C455.343 177.115 455.511 178.165 455.847 179.145C456.183 180.097 456.673 180.923 457.317 181.623C457.989 182.323 458.815 182.869 459.795 183.261C460.775 183.653 461.909 183.849 463.197 183.849C464.205 183.849 465.185 183.737 466.137 183.513C467.117 183.289 467.985 183.009 468.741 182.673L469.245 186.075Z" fill="#0186C6"/>
<path d="M435.192 183.682C437.348 183.682 438.944 183.248 439.98 182.38C441.016 181.512 441.534 180.406 441.534 179.062C441.534 178.306 441.38 177.69 441.072 177.214C440.764 176.71 440.33 176.29 439.77 175.954C439.21 175.59 438.538 175.282 437.754 175.03C436.97 174.75 436.102 174.47 435.15 174.19C434.226 173.91 433.274 173.602 432.294 173.266C431.314 172.902 430.418 172.426 429.606 171.838C428.822 171.25 428.164 170.508 427.632 169.612C427.128 168.688 426.876 167.526 426.876 166.126C426.876 164.782 427.128 163.606 427.632 162.598C428.164 161.59 428.878 160.764 429.774 160.12C430.67 159.476 431.734 159 432.966 158.692C434.226 158.356 435.584 158.188 437.04 158.188C438.412 158.188 439.714 158.314 440.946 158.566C442.178 158.79 443.382 159.056 444.558 159.364L444.264 163.186C443.004 162.794 441.772 162.485 440.568 162.261C439.364 162.038 438.216 161.926 437.124 161.926C435.192 161.926 433.75 162.262 432.798 162.934C431.874 163.606 431.412 164.572 431.412 165.832C431.412 166.532 431.538 167.12 431.79 167.596C432.07 168.044 432.462 168.436 432.966 168.772C433.47 169.108 434.086 169.402 434.814 169.654C435.57 169.906 436.424 170.172 437.376 170.452C438.524 170.788 439.616 171.152 440.652 171.544C441.716 171.908 442.64 172.384 443.424 172.972C444.236 173.56 444.88 174.302 445.356 175.198C445.832 176.094 446.07 177.228 446.07 178.6C446.07 180.056 445.804 181.33 445.272 182.422C444.74 183.514 443.998 184.438 443.046 185.194C442.094 185.922 440.96 186.482 439.644 186.874C438.328 187.238 436.9 187.42 435.36 187.42C433.792 187.42 432.196 187.252 430.572 186.916C428.948 186.552 427.478 186.062 426.162 185.446L426.666 181.456C428.01 182.156 429.41 182.702 430.866 183.094C432.322 183.486 433.764 183.682 435.192 183.682Z" fill="#0186C6"/>
<path d="M402.145 164.699C404.637 164.699 406.499 165.399 407.731 166.799C408.319 167.443 408.767 168.255 409.075 169.235C409.383 170.215 409.537 171.377 409.537 172.721V187.001H405.211V173.183C405.211 171.699 404.931 170.579 404.371 169.823C403.979 169.263 403.461 168.871 402.817 168.647C402.201 168.423 401.529 168.311 400.801 168.311C399.737 168.311 398.645 168.507 397.525 168.899C396.433 169.263 395.481 169.725 394.669 170.285V187.001H390.343V157.391L394.669 156.215V166.925C395.901 166.197 397.119 165.651 398.323 165.287C399.555 164.895 400.829 164.699 402.145 164.699Z" fill="#0186C6"/>
<path d="M376.618 169.065V179.691C376.618 181.091 376.885 182.099 377.417 182.715C377.977 183.303 378.998 183.597 380.482 183.597C381.07 183.597 381.672 183.569 382.288 183.513C382.932 183.429 383.493 183.317 383.969 183.177L384.22 186.537C383.576 186.733 382.862 186.887 382.078 186.999C381.294 187.111 380.468 187.167 379.6 187.167C377.052 187.167 375.19 186.579 374.014 185.403C372.866 184.199 372.292 182.183 372.292 179.355V160.245L376.618 159.363V165.453H384.388L383.128 169.065H376.618Z" fill="#0186C6"/>
<path d="M364.65 187.001H360.324V157.391L364.65 156.215V187.001Z" fill="#0186C6"/>
<path d="M334.403 180.153C334.403 178.249 335.061 176.793 336.377 175.785C337.693 174.749 339.849 174.231 342.845 174.231H344.189C345.897 174.231 347.367 174.357 348.599 174.609V172.845C348.599 171.165 348.137 169.989 347.213 169.317C346.317 168.617 344.917 168.267 343.013 168.267C342.117 168.267 341.123 168.351 340.031 168.519C338.967 168.659 337.847 168.883 336.671 169.191L336.293 165.663C338.785 165.019 341.207 164.697 343.559 164.697C346.695 164.697 349.033 165.327 350.573 166.587C352.141 167.847 352.925 169.793 352.925 172.425V182.967V185.025C352.925 185.697 352.953 186.355 353.009 186.999H349.313L348.977 184.563H348.893C348.221 185.459 347.339 186.159 346.247 186.663C345.155 187.167 343.895 187.419 342.467 187.419C341.291 187.419 340.199 187.251 339.191 186.915C338.211 186.551 337.357 186.061 336.629 185.445C335.929 184.801 335.383 184.031 334.991 183.135C334.599 182.239 334.403 181.245 334.403 180.153ZM348.599 177.423H342.089C341.109 177.423 340.311 177.633 339.695 178.053C339.107 178.445 338.813 179.173 338.813 180.237C338.813 181.441 339.205 182.379 339.989 183.051C340.801 183.695 341.879 184.017 343.223 184.017C344.735 184.017 346.009 183.625 347.045 182.841C348.081 182.029 348.599 180.951 348.599 179.607V177.423Z" fill="#0186C6"/>
<path d="M321.017 187.419C317.349 187.419 314.521 186.467 312.533 184.563C310.573 182.659 309.593 179.915 309.593 176.331C309.593 174.623 309.831 173.055 310.307 171.627C310.783 170.199 311.483 168.967 312.407 167.931C313.331 166.895 314.465 166.097 315.809 165.537C317.153 164.977 318.679 164.697 320.387 164.697C322.011 164.697 323.411 164.949 324.587 165.453C325.763 165.957 326.729 166.671 327.485 167.595C328.241 168.491 328.801 169.555 329.165 170.787C329.529 171.991 329.711 173.307 329.711 174.735C329.711 175.211 329.683 175.687 329.627 176.163C329.599 176.639 329.557 177.073 329.501 177.465H314.087C314.171 179.425 314.801 180.979 315.977 182.127C317.181 183.275 319.015 183.849 321.479 183.849C322.487 183.849 323.579 183.751 324.755 183.555C325.931 183.359 326.967 183.107 327.863 182.799L328.325 186.117C327.261 186.509 326.099 186.817 324.839 187.041C323.607 187.293 322.333 187.419 321.017 187.419ZM320.177 168.015C318.301 168.015 316.845 168.603 315.809 169.779C314.773 170.927 314.213 172.425 314.129 174.273H325.385V173.811C325.385 173.223 325.315 172.593 325.175 171.921C325.035 171.249 324.769 170.633 324.377 170.073C324.013 169.485 323.495 168.995 322.823 168.603C322.151 168.211 321.269 168.015 320.177 168.015Z" fill="#0186C6"/>
<path d="M284.059 186.999H279.691V158.607H284.059V170.451H298.591V158.607H302.959V186.999H298.591V174.231H284.059V186.999Z" fill="#0186C6"/>
<path d="M260.962 187.001H256.636V157.391L260.962 156.215V187.001Z" fill="#0186C6"/>
<path d="M230.716 180.153C230.716 178.249 231.374 176.793 232.69 175.785C234.006 174.749 236.162 174.231 239.158 174.231H240.502C242.21 174.231 243.68 174.357 244.912 174.609V172.845C244.912 171.165 244.45 169.989 243.526 169.317C242.63 168.617 241.23 168.267 239.326 168.267C238.43 168.267 237.436 168.351 236.344 168.519C235.28 168.659 234.16 168.883 232.984 169.191L232.606 165.663C235.098 165.019 237.52 164.697 239.872 164.697C243.008 164.697 245.346 165.327 246.886 166.587C248.454 167.847 249.238 169.793 249.238 172.425V182.967V185.025C249.238 185.697 249.266 186.355 249.322 186.999H245.626L245.29 184.563H245.206C244.534 185.459 243.652 186.159 242.56 186.663C241.468 187.167 240.208 187.419 238.78 187.419C237.604 187.419 236.512 187.251 235.504 186.915C234.524 186.551 233.67 186.061 232.942 185.445C232.242 184.801 231.696 184.031 231.304 183.135C230.912 182.239 230.716 181.245 230.716 180.153ZM244.912 177.423H238.402C237.422 177.423 236.624 177.633 236.008 178.053C235.42 178.445 235.126 179.173 235.126 180.237C235.126 181.441 235.518 182.379 236.302 183.051C237.114 183.695 238.192 184.017 239.536 184.017C241.048 184.017 242.322 183.625 243.358 182.841C244.394 182.029 244.912 180.951 244.912 179.607V177.423Z" fill="#0186C6"/>
<path d="M218.708 169.065V179.691C218.708 181.091 218.974 182.099 219.506 182.715C220.066 183.303 221.088 183.597 222.572 183.597C223.16 183.597 223.762 183.569 224.378 183.513C225.022 183.429 225.582 183.317 226.058 183.177L226.31 186.537C225.666 186.733 224.952 186.887 224.168 186.999C223.384 187.111 222.558 187.167 221.69 187.167C219.142 187.167 217.28 186.579 216.104 185.403C214.956 184.199 214.382 182.183 214.382 179.355V160.245L218.708 159.363V165.453H226.478L225.218 169.065H218.708Z" fill="#0186C6"/>
<path d="M199.856 164.697C200.948 164.697 201.942 164.851 202.838 165.159C203.762 165.439 204.546 165.901 205.19 166.545C205.834 167.189 206.338 168.029 206.702 169.065C207.066 170.073 207.248 171.291 207.248 172.719V186.999H202.922V173.181C202.922 171.557 202.558 170.339 201.83 169.527C201.13 168.715 200.024 168.309 198.512 168.309C197.392 168.309 196.286 168.505 195.194 168.897C194.13 169.261 193.192 169.723 192.38 170.283V186.999H188.054V165.075H191.876L192.212 167.049C193.248 166.349 194.424 165.789 195.74 165.369C197.056 164.921 198.428 164.697 199.856 164.697Z" fill="#0186C6"/>
<path d="M173.156 187.419C169.488 187.419 166.66 186.467 164.672 184.563C162.712 182.659 161.732 179.915 161.732 176.331C161.732 174.623 161.97 173.055 162.446 171.627C162.922 170.199 163.622 168.967 164.546 167.931C165.47 166.895 166.604 166.097 167.948 165.537C169.292 164.977 170.818 164.697 172.526 164.697C174.15 164.697 175.55 164.949 176.726 165.453C177.902 165.957 178.868 166.671 179.624 167.595C180.38 168.491 180.94 169.555 181.304 170.787C181.668 171.991 181.85 173.307 181.85 174.735C181.85 175.211 181.822 175.687 181.766 176.163C181.738 176.639 181.696 177.073 181.64 177.465H166.226C166.31 179.425 166.94 180.979 168.116 182.127C169.32 183.275 171.154 183.849 173.618 183.849C174.626 183.849 175.718 183.751 176.894 183.555C178.07 183.359 179.106 183.107 180.002 182.799L180.464 186.117C179.4 186.509 178.238 186.817 176.978 187.041C175.746 187.293 174.472 187.419 173.156 187.419ZM172.316 168.015C170.44 168.015 168.984 168.603 167.948 169.779C166.912 170.927 166.352 172.425 166.268 174.273H177.524V173.811C177.524 173.223 177.454 172.593 177.314 171.921C177.174 171.249 176.908 170.633 176.516 170.073C176.152 169.485 175.634 168.995 174.962 168.603C174.29 168.211 173.408 168.015 172.316 168.015Z" fill="#0186C6"/>
<path d="M140.928 158.607C143.392 158.607 145.576 158.873 147.48 159.405C149.412 159.937 151.036 160.763 152.352 161.883C153.668 163.003 154.676 164.445 155.376 166.209C156.076 167.945 156.426 170.017 156.426 172.425C156.426 174.665 156.118 176.695 155.502 178.515C154.886 180.307 153.92 181.833 152.604 183.093C151.316 184.353 149.678 185.319 147.69 185.991C145.702 186.663 143.336 186.999 140.592 186.999H130.722V158.607H140.928ZM151.89 172.383C151.89 168.771 150.966 166.209 149.118 164.697C147.27 163.157 144.47 162.387 140.718 162.387H135.09V183.219H141.18C144.848 183.219 147.55 182.295 149.286 180.447C151.022 178.571 151.89 175.883 151.89 172.383Z" fill="#0186C6"/>
<path d="M108.539 168.141C109.491 167.245 110.625 166.489 111.941 165.873C113.285 165.229 114.755 164.837 116.351 164.697L116.015 168.939C114.671 169.051 113.369 169.317 112.109 169.737C110.877 170.157 109.757 170.731 108.749 171.459V186.999H104.423V165.075H108.245L108.539 168.141Z" fill="#0186C6"/>
<path d="M87.4964 187.42C84.3324 187.42 81.9524 186.748 80.3564 185.404C78.7604 184.032 77.9624 181.792 77.9624 178.684V165.076H82.2884V178.684C82.2884 182.156 84.0244 183.892 87.4964 183.892C89.2324 183.892 90.5344 183.444 91.4024 182.548C92.2704 181.652 92.7044 180.364 92.7044 178.684V165.076H97.0304V178.684C97.0304 181.484 96.2324 183.64 94.6364 185.152C93.0684 186.664 90.6884 187.42 87.4964 187.42Z" fill="#0186C6"/>
<path d="M55.8542 181.875C57.1142 183.247 58.7382 183.933 60.7262 183.933C62.7142 183.933 64.3382 183.247 65.5982 181.875C66.8582 180.503 67.4882 178.557 67.4882 176.037C67.4882 173.545 66.8582 171.613 65.5982 170.241C64.3662 168.869 62.7422 168.183 60.7262 168.183C58.7102 168.183 57.0722 168.869 55.8122 170.241C54.5802 171.613 53.9642 173.545 53.9642 176.037C53.9642 178.557 54.5942 180.503 55.8542 181.875ZM65.4722 186.579C64.1002 187.139 62.5182 187.419 60.7262 187.419C58.9342 187.419 57.3382 187.139 55.9382 186.579C54.5662 186.019 53.4042 185.249 52.4522 184.269C51.5002 183.261 50.7722 182.071 50.2682 180.699C49.7922 179.299 49.5542 177.773 49.5542 176.121C49.5542 174.441 49.8062 172.901 50.3102 171.501C50.8142 170.101 51.5422 168.897 52.4942 167.889C53.4742 166.881 54.6502 166.097 56.0222 165.537C57.3942 164.977 58.9622 164.697 60.7262 164.697C62.4902 164.697 64.0582 164.977 65.4302 165.537C66.8022 166.097 67.9642 166.881 68.9162 167.889C69.8962 168.897 70.6382 170.101 71.1422 171.501C71.6462 172.901 71.8982 174.441 71.8982 176.121C71.8982 177.773 71.6462 179.299 71.1422 180.699C70.6662 182.071 69.9522 183.261 69.0002 184.269C68.0482 185.249 66.8722 186.019 65.4722 186.579Z" fill="#0186C6"/>
<path d="M36.2397 172.131L43.6317 158.607H48.5457L38.2977 176.625V186.999H33.9297V176.541L23.5557 158.607H28.5957L36.1137 172.131H36.2397Z" fill="#0186C6"/>
<path fill-rule="evenodd" clip-rule="evenodd" d="M575.665 183.051C574.965 183.583 573.817 183.849 572.221 183.849C571.073 183.849 569.911 183.709 568.735 183.429C567.748 183.194 566.83 182.89 565.981 182.517C565.818 182.446 565.658 182.372 565.501 182.295L565.123 186.033C566.159 186.453 567.307 186.789 568.567 187.041C569.855 187.293 571.101 187.419 572.305 187.419C573.509 187.419 574.643 187.279 575.707 186.999C576.771 186.719 577.695 186.299 578.479 185.739C579.263 185.179 579.879 184.465 580.327 183.597C580.775 182.729 580.999 181.707 580.999 180.531C580.999 179.607 580.859 178.823 580.579 178.179C580.299 177.507 579.879 176.933 579.319 176.457C578.787 175.953 578.115 175.519 577.303 175.155C576.519 174.763 575.609 174.399 574.573 174.063C573.089 173.587 571.927 173.125 571.087 172.677C570.275 172.229 569.869 171.557 569.869 170.661C569.869 169.765 570.247 169.135 571.003 168.771C571.759 168.379 572.809 168.183 574.153 168.183C575.133 168.183 576.057 168.267 576.925 168.435C577.644 168.57 578.337 168.75 579.002 168.976C579.165 169.031 579.327 169.089 579.487 169.149L579.865 165.621C578.969 165.341 578.003 165.117 576.967 164.949C575.959 164.781 574.937 164.697 573.901 164.697C572.753 164.697 571.661 164.823 570.625 165.075C569.617 165.299 568.735 165.663 567.979 166.167C567.223 166.671 566.621 167.315 566.173 168.099C565.753 168.855 565.543 169.751 565.543 170.787C565.543 171.851 565.753 172.747 566.173 173.475C566.593 174.203 567.125 174.819 567.769 175.323C568.413 175.827 569.113 176.247 569.869 176.583C570.653 176.919 571.395 177.213 572.095 177.465C572.767 177.717 573.383 177.955 573.943 178.179C574.531 178.375 575.035 178.599 575.455 178.851C575.875 179.103 576.197 179.397 576.421 179.733C576.645 180.069 576.757 180.489 576.757 180.993C576.757 181.833 576.393 182.519 575.665 183.051ZM570.511 164.588C571.587 164.327 572.717 164.197 573.901 164.197C574.964 164.197 576.013 164.283 577.049 164.456C578.105 164.627 579.093 164.856 580.014 165.144L580.405 165.266L579.915 169.846L579.309 169.617C578.526 169.32 577.701 169.09 576.832 168.927L576.83 168.926C575.996 168.765 575.104 168.683 574.153 168.683C572.847 168.683 571.888 168.875 571.233 169.215L571.226 169.219L571.219 169.222C570.917 169.368 570.713 169.554 570.581 169.774C570.448 169.996 570.369 170.284 570.369 170.661C570.369 171.031 570.451 171.331 570.601 171.579C570.75 171.826 570.983 172.049 571.324 172.238C572.127 172.665 573.256 173.116 574.725 173.587L574.727 173.588C575.777 173.928 576.708 174.3 577.517 174.703C578.361 175.083 579.076 175.541 579.652 176.085C580.266 176.609 580.729 177.243 581.038 177.983C581.352 178.706 581.499 179.56 581.499 180.531C581.499 181.771 581.262 182.875 580.771 183.827C580.287 184.764 579.619 185.539 578.769 186.146C577.929 186.746 576.948 187.19 575.834 187.483C574.725 187.775 573.547 187.919 572.305 187.919C571.066 187.919 569.787 187.79 568.471 187.532L568.469 187.532C567.182 187.274 566.004 186.93 564.935 186.497L564.587 186.356L565.075 181.533L565.719 181.846C566.663 182.304 567.706 182.67 568.85 182.943C569.99 183.214 571.114 183.349 572.221 183.349C573.785 183.349 574.796 183.084 575.362 182.653L575.37 182.647C575.98 182.202 576.257 181.66 576.257 180.993C576.257 180.563 576.162 180.246 576.005 180.011C575.829 179.748 575.567 179.502 575.197 179.28C574.816 179.051 574.346 178.841 573.784 178.654L573.771 178.649L573.757 178.644C573.202 178.422 572.591 178.185 571.923 177.935C571.213 177.679 570.463 177.382 569.672 177.043L569.665 177.04C568.872 176.688 568.137 176.247 567.46 175.717C566.765 175.172 566.191 174.507 565.739 173.725C565.265 172.903 565.043 171.916 565.043 170.787C565.043 169.683 565.267 168.7 565.735 167.856L565.738 167.851C566.225 166.999 566.881 166.298 567.701 165.751C568.514 165.21 569.453 164.824 570.511 164.588Z" fill="#0186C6"/>
<path fill-rule="evenodd" clip-rule="evenodd" d="M553.746 164.575H559.072V187.499H553.746V164.575ZM559.156 161.837H553.662V156.709L559.156 155.271V161.837ZM558.656 161.337H554.162V157.095L558.656 155.919V161.337ZM554.246 165.075V186.999H558.572V165.075H554.246Z" fill="#0186C6"/>
<path fill-rule="evenodd" clip-rule="evenodd" d="M520.113 184.563C522.101 186.467 524.929 187.419 528.597 187.419C529.913 187.419 531.187 187.293 532.419 187.041C533.679 186.817 534.841 186.509 535.905 186.117L535.443 182.799C535.287 182.853 535.126 182.905 534.96 182.956C534.181 183.194 533.306 183.394 532.335 183.555C531.159 183.751 530.067 183.849 529.059 183.849C526.595 183.849 524.761 183.275 523.557 182.127C522.483 181.079 521.865 179.691 521.701 177.965C521.686 177.802 521.675 177.635 521.667 177.465H537.081C537.137 177.073 537.179 176.639 537.207 176.163C537.263 175.687 537.291 175.211 537.291 174.735C537.291 173.307 537.109 171.991 536.745 170.787C536.381 169.555 535.821 168.491 535.065 167.595C534.309 166.671 533.343 165.957 532.167 165.453C530.991 164.949 529.591 164.697 527.967 164.697C526.259 164.697 524.733 164.977 523.389 165.537C522.045 166.097 520.911 166.895 519.987 167.931C519.063 168.967 518.363 170.199 517.887 171.627C517.411 173.055 517.173 174.623 517.173 176.331C517.173 179.915 518.153 182.659 520.113 184.563ZM535.45 167.275C534.64 166.286 533.607 165.526 532.364 164.994C531.112 164.457 529.642 164.197 527.967 164.197C526.205 164.197 524.612 164.486 523.197 165.076C521.787 165.663 520.591 166.504 519.614 167.598C518.641 168.689 517.909 169.982 517.413 171.469C516.918 172.954 516.673 174.577 516.673 176.331C516.673 180.006 517.68 182.897 519.765 184.922L519.768 184.924C521.876 186.944 524.844 187.919 528.597 187.919C529.943 187.919 531.249 187.791 532.513 187.532C533.796 187.304 534.985 186.989 536.078 186.586L536.456 186.447L535.855 182.129L535.281 182.326C534.417 182.623 533.408 182.87 532.253 183.062C531.1 183.254 530.035 183.349 529.059 183.349C526.665 183.349 524.98 182.791 523.905 181.768C522.94 180.825 522.364 179.571 522.204 177.965H537.515L537.576 177.536C537.634 177.132 537.677 176.689 537.706 176.207C537.763 175.717 537.791 175.226 537.791 174.735C537.791 173.266 537.604 171.902 537.225 170.646C536.843 169.355 536.253 168.229 535.45 167.275ZM523.389 169.779C524.425 168.603 525.881 168.015 527.757 168.015C528.849 168.015 529.731 168.211 530.403 168.603C531.075 168.995 531.593 169.485 531.957 170.073C532.349 170.633 532.615 171.249 532.755 171.921C532.892 172.579 532.962 173.196 532.965 173.773M523.389 169.779C522.448 170.822 521.9 172.153 521.745 173.773ZM521.745 173.773C521.729 173.937 521.717 174.104 521.709 174.273ZM522.247 173.773C522.4 172.264 522.912 171.054 523.761 170.114L523.765 170.11C524.687 169.063 525.994 168.515 527.757 168.515C528.795 168.515 529.581 168.702 530.151 169.035C530.762 169.391 531.216 169.826 531.532 170.336L531.54 170.348L531.548 170.36C531.901 170.864 532.14 171.417 532.266 172.023C532.397 172.652 532.462 173.235 532.465 173.773H522.247ZM521.709 174.273H522.21ZM522.21 174.273H532.965V173.811" fill="#0186C6"/>
<path fill-rule="evenodd" clip-rule="evenodd" d="M506.608 167.728C506.449 167.862 506.295 167.999 506.145 168.14L505.851 165.074H502.029V186.998H506.355V171.458C507.363 170.73 508.483 170.156 509.715 169.736C510.975 169.316 512.277 169.05 513.621 168.938L513.957 164.696C513.787 164.711 513.618 164.729 513.451 164.75C512.049 164.923 510.748 165.297 509.547 165.872C508.438 166.391 507.458 167.01 506.608 167.728ZM506.55 167.128L506.305 164.574H501.529V187.498H506.855V171.717C507.766 171.089 508.773 170.586 509.875 170.21C511.096 169.803 512.358 169.545 513.662 169.436L514.086 169.401L514.502 164.146L513.913 164.198C512.263 164.343 510.734 164.749 509.333 165.42C508.301 165.903 507.373 166.472 506.55 167.128Z" fill="#0186C6"/>
<path fill-rule="evenodd" clip-rule="evenodd" d="M484.541 183.933C482.553 183.933 480.929 183.247 479.669 181.875C478.409 180.503 477.779 178.557 477.779 176.037C477.779 173.545 478.395 171.613 479.627 170.241C480.887 168.869 482.525 168.183 484.541 168.183C486.557 168.183 488.181 168.869 489.413 170.241C490.673 171.613 491.303 173.545 491.303 176.037C491.303 178.557 490.673 180.503 489.413 181.875C488.153 183.247 486.529 183.933 484.541 183.933ZM479.997 170.578C481.153 169.319 482.653 168.683 484.541 168.683C486.43 168.683 487.913 169.319 489.041 170.575L489.044 170.579C490.194 171.832 490.803 173.627 490.803 176.037C490.803 178.477 490.194 180.286 489.044 181.537C487.886 182.798 486.399 183.433 484.541 183.433C482.682 183.433 481.195 182.798 480.037 181.537C478.888 180.286 478.279 178.477 478.279 176.037C478.279 173.626 478.874 171.83 479.997 170.578ZM484.541 187.419C486.333 187.419 487.915 187.139 489.287 186.579C490.687 186.019 491.863 185.249 492.815 184.269C493.767 183.261 494.481 182.071 494.957 180.699C495.461 179.299 495.713 177.773 495.713 176.121C495.713 174.441 495.461 172.901 494.957 171.501C494.453 170.101 493.711 168.897 492.731 167.889C491.779 166.881 490.617 166.097 489.245 165.537C487.873 164.977 486.305 164.697 484.541 164.697C482.777 164.697 481.209 164.977 479.837 165.537C478.465 166.097 477.289 166.881 476.309 167.889C475.357 168.897 474.629 170.101 474.125 171.501C473.621 172.901 473.369 174.441 473.369 176.121C473.369 177.773 473.607 179.299 474.083 180.699C474.587 182.071 475.315 183.261 476.267 184.269C477.219 185.249 478.381 186.019 479.753 186.579C481.153 187.139 482.749 187.419 484.541 187.419ZM493.092 167.543C492.088 166.481 490.866 165.659 489.434 165.074C487.991 164.486 486.357 164.197 484.541 164.197C482.724 164.197 481.09 164.486 479.648 165.074C478.215 165.659 476.981 166.481 475.95 167.541L475.945 167.546C474.943 168.608 474.18 169.872 473.654 171.332C473.128 172.793 472.869 174.391 472.869 176.121C472.869 177.822 473.114 179.403 473.609 180.86L473.613 180.872C474.139 182.304 474.902 183.553 475.903 184.613L475.908 184.618C476.912 185.651 478.133 186.458 479.564 187.042L479.567 187.044C481.036 187.631 482.697 187.919 484.541 187.919C486.384 187.919 488.032 187.631 489.474 187.043M493.092 167.543C494.123 168.605 494.901 169.87 495.427 171.332C495.953 172.793 496.213 174.391 496.213 176.121C496.213 177.823 495.953 179.406 495.429 180.864" fill="#0186C6"/>
<path fill-rule="evenodd" clip-rule="evenodd" d="M466.221 187.041C467.313 186.789 468.321 186.467 469.245 186.075L468.741 182.673C468.587 182.742 468.428 182.808 468.265 182.872C467.627 183.121 466.917 183.335 466.137 183.513C465.185 183.737 464.205 183.849 463.197 183.849C461.909 183.849 460.775 183.653 459.795 183.261C458.815 182.869 457.989 182.323 457.317 181.623C456.673 180.923 456.183 180.097 455.847 179.145C455.511 178.165 455.343 177.115 455.343 175.995C455.343 173.587 456.043 171.697 457.443 170.325C458.871 168.953 460.817 168.267 463.281 168.267C464.261 168.267 465.171 168.365 466.011 168.561C466.694 168.715 467.334 168.904 467.93 169.128C468.091 169.188 468.25 169.252 468.405 169.317L468.993 165.789C468.097 165.453 467.145 165.187 466.137 164.991C465.129 164.795 464.065 164.697 462.945 164.697C461.181 164.697 459.557 164.949 458.073 165.453C456.617 165.957 455.357 166.699 454.293 167.679C453.229 168.659 452.403 169.863 451.815 171.291C451.227 172.691 450.933 174.287 450.933 176.079C450.933 177.843 451.213 179.425 451.773 180.825C452.333 182.225 453.131 183.415 454.167 184.395C455.203 185.375 456.435 186.131 457.863 186.663C459.319 187.167 460.929 187.419 462.693 187.419C463.953 187.419 465.129 187.293 466.221 187.041ZM457.792 170.683C459.105 169.423 460.915 168.767 463.281 168.767C464.228 168.767 465.099 168.862 465.897 169.048L465.901 169.049C466.744 169.239 467.513 169.483 468.21 169.778L468.794 170.025L469.554 165.466L469.169 165.321C468.245 164.975 467.266 164.701 466.233 164.5C465.19 164.298 464.094 164.197 462.945 164.197C461.133 164.197 459.454 164.456 457.912 164.98L457.91 164.981C456.393 165.506 455.072 166.282 453.954 167.311C452.834 168.344 451.968 169.609 451.354 171.099C451.354 171.098 451.354 171.099 451.354 171.099L451.815 171.291L451.353 171.101C451.353 171.1 451.353 171.099 451.354 171.099M457.792 170.683C456.51 171.94 455.843 173.689 455.843 175.995C455.843 177.064 456.003 178.059 456.32 178.983C456.634 179.872 457.089 180.636 457.682 181.281" fill="#0186C6"/>
<path fill-rule="evenodd" clip-rule="evenodd" d="M439.98 182.38C438.944 183.248 437.348 183.682 435.192 183.682C433.764 183.682 432.322 183.486 430.866 183.094C429.58 182.747 428.338 182.281 427.14 181.695C426.981 181.617 426.823 181.537 426.666 181.456L426.162 185.446C427.478 186.062 428.948 186.552 430.572 186.916C432.196 187.252 433.792 187.42 435.36 187.42C436.9 187.42 438.328 187.238 439.644 186.874C440.96 186.482 442.094 185.922 443.046 185.194C443.998 184.438 444.74 183.514 445.272 182.422C445.804 181.33 446.07 180.056 446.07 178.6C446.07 177.228 445.832 176.094 445.356 175.198C444.88 174.302 444.236 173.559 443.424 172.972C442.64 172.384 441.716 171.908 440.652 171.544C439.616 171.152 438.524 170.788 437.376 170.452C436.424 170.172 435.57 169.906 434.814 169.654C434.086 169.402 433.47 169.108 432.966 168.772C432.462 168.436 432.07 168.044 431.79 167.596C431.538 167.12 431.412 166.532 431.412 165.832C431.412 164.572 431.874 163.606 432.798 162.934C433.75 162.262 435.192 161.926 437.124 161.926C438.216 161.926 439.364 162.038 440.568 162.261C441.615 162.456 442.684 162.715 443.774 163.037C443.937 163.085 444.1 163.135 444.264 163.186L444.558 159.364C443.382 159.056 442.178 158.79 440.946 158.566C439.714 158.313 438.412 158.188 437.04 158.188C435.584 158.188 434.226 158.356 432.966 158.692C431.734 159 430.67 159.476 429.774 160.12C428.878 160.764 428.164 161.59 427.632 162.598C427.128 163.606 426.876 164.782 426.876 166.126C426.876 167.526 427.128 168.688 427.632 169.612C428.164 170.508 428.822 171.25 429.606 171.838C430.418 172.426 431.314 172.902 432.294 173.266C433.274 173.601 434.226 173.91 435.15 174.19C436.102 174.47 436.97 174.75 437.754 175.03C438.538 175.281 439.21 175.59 439.77 175.954C440.33 176.29 440.764 176.71 441.072 177.214C441.38 177.69 441.534 178.306 441.534 179.062C441.534 180.406 441.016 181.512 439.98 182.38ZM432.841 158.207C431.558 158.528 430.435 159.028 429.482 159.713C428.521 160.404 427.756 161.29 427.189 162.364L427.185 162.374C426.64 163.463 426.376 164.719 426.376 166.126C426.376 167.583 426.638 168.833 427.193 169.851L427.197 169.859L427.202 169.867C427.765 170.815 428.466 171.608 429.306 172.238L429.313 172.242C430.163 172.858 431.099 173.355 432.12 173.734L432.132 173.738C433.117 174.076 434.075 174.386 435.005 174.668L435.009 174.669C435.953 174.947 436.812 175.224 437.586 175.5L437.593 175.503L437.601 175.506C438.352 175.747 438.982 176.038 439.497 176.373L439.505 176.378L439.513 176.382C440.011 176.681 440.384 177.046 440.645 177.474L440.652 177.485C440.893 177.857 441.034 178.37 441.034 179.062C441.034 180.257 440.582 181.223 439.659 181.996C438.753 182.755 437.296 183.182 435.192 183.182C433.81 183.182 432.412 182.992 430.996 182.611C429.575 182.228 428.209 181.695 426.897 181.012L426.26 180.68L425.62 185.744L425.95 185.898C427.303 186.532 428.808 187.033 430.462 187.403L430.47 187.405C432.126 187.748 433.756 187.92 435.36 187.92C436.939 187.92 438.413 187.733 439.777 187.356L439.787 187.353C441.152 186.946 442.343 186.361 443.35 185.591L443.357 185.585C444.367 184.783 445.157 183.8 445.721 182.64C446.292 181.468 446.57 180.116 446.57 178.6C446.57 177.173 446.323 175.952 445.797 174.963C445.287 174.002 444.593 173.202 443.72 172.569C442.891 171.948 441.923 171.451 440.821 171.073C439.775 170.677 438.673 170.31 437.517 169.972C436.57 169.693 435.723 169.429 434.974 169.18C434.277 168.939 433.703 168.662 433.243 168.355C432.796 168.057 432.46 167.719 432.223 167.346C432.024 166.962 431.912 166.465 431.912 165.832C431.912 164.714 432.311 163.907 433.089 163.34C433.917 162.757 435.236 162.426 437.124 162.426C438.182 162.426 439.299 162.534 440.476 162.753C441.66 162.973 442.873 163.276 444.115 163.663L444.714 163.849L445.088 158.986L444.684 158.88C443.497 158.569 442.283 158.301 441.04 158.075C439.774 157.816 438.44 157.688 437.04 157.688C435.547 157.688 434.146 157.86 432.841 158.207Z" fill="#0186C6"/>
<path fill-rule="evenodd" clip-rule="evenodd" d="M394.669 166.923C394.836 166.824 395.003 166.729 395.169 166.637C396.231 166.05 397.282 165.599 398.323 165.285C399.555 164.893 400.829 164.697 402.145 164.697C404.637 164.697 406.499 165.397 407.731 166.797C408.319 167.441 408.767 168.253 409.075 169.233C409.383 170.213 409.537 171.375 409.537 172.719V186.999H405.211V173.181C405.211 171.697 404.931 170.577 404.371 169.821C403.979 169.261 403.461 168.869 402.817 168.645C402.201 168.421 401.529 168.309 400.801 168.309C399.737 168.309 398.645 168.505 397.525 168.897C396.433 169.261 395.481 169.723 394.669 170.283V186.999H390.343V157.389L394.669 156.213V166.923ZM395.169 170.55V187.499H389.843V157.006L395.169 155.559V166.068C396.176 165.53 397.178 165.109 398.175 164.807C399.456 164.4 400.78 164.197 402.145 164.197C404.728 164.197 406.747 164.924 408.103 166.463C408.747 167.169 409.227 168.047 409.552 169.083C409.879 170.124 410.037 171.339 410.037 172.719V187.499H404.711V173.181C404.711 171.746 404.438 170.751 403.97 170.118L403.962 170.107C403.63 169.633 403.198 169.306 402.653 169.117L402.646 169.115C402.091 168.913 401.477 168.809 400.801 168.809C399.8 168.809 398.763 168.993 397.69 169.369L397.683 169.371C396.726 169.69 395.889 170.084 395.169 170.55Z" fill="#0186C6"/>
<path fill-rule="evenodd" clip-rule="evenodd" d="M376.618 179.69V169.064H383.128L384.388 165.452H376.618V159.362L372.292 160.244V179.354C372.292 182.182 372.866 184.198 374.014 185.402C375.19 186.578 377.052 187.166 379.6 187.166C380.469 187.166 381.294 187.11 382.078 186.998C382.862 186.886 383.577 186.732 384.22 186.536L383.969 183.176C383.813 183.222 383.65 183.264 383.477 183.304C383.119 183.386 382.723 183.456 382.288 183.512C381.672 183.568 381.07 183.596 380.482 183.596C378.999 183.596 377.977 183.302 377.417 182.714C376.884 182.098 376.618 181.09 376.618 179.69ZM377.787 182.378C378.202 182.806 379.041 183.096 380.482 183.096C381.052 183.096 381.635 183.069 382.233 183.015C382.855 182.934 383.385 182.827 383.827 182.697L384.421 182.522L384.749 186.898L384.366 187.015C383.694 187.219 382.954 187.378 382.149 187.493C381.34 187.609 380.49 187.666 379.6 187.666C376.989 187.666 374.97 187.065 373.661 185.756L373.653 185.747C372.371 184.404 371.792 182.227 371.792 179.354V159.836L377.118 158.75V164.952H385.092L383.484 169.564H377.118V179.69C377.118 181.04 377.377 181.897 377.787 182.378Z" fill="#0186C6"/>
<path fill-rule="evenodd" clip-rule="evenodd" d="M365.15 187.499H359.824V157.006L365.15 155.559V187.499ZM364.65 186.999H360.324V157.389L364.65 156.213V186.999Z" fill="#0186C6"/>
<path fill-rule="evenodd" clip-rule="evenodd" d="M336.378 175.785C335.062 176.793 334.404 178.249 334.404 180.153C334.404 181.245 334.6 182.239 334.992 183.135C335.384 184.031 335.93 184.801 336.63 185.445C337.358 186.061 338.212 186.551 339.192 186.915C340.2 187.251 341.292 187.419 342.468 187.419C343.896 187.419 345.156 187.167 346.248 186.663C347.155 186.245 347.917 185.691 348.534 185.002C348.656 184.866 348.773 184.724 348.884 184.576C348.887 184.572 348.891 184.568 348.894 184.563H348.978L349.314 186.999H353.01C352.995 186.834 352.983 186.667 352.972 186.499C352.941 186.016 352.926 185.524 352.926 185.025V172.425C352.926 169.793 352.142 167.847 350.574 166.587C349.034 165.327 346.696 164.697 343.56 164.697C341.208 164.697 338.786 165.019 336.294 165.663L336.672 169.191C336.836 169.148 336.999 169.107 337.161 169.067C338.16 168.822 339.116 168.64 340.032 168.519C341.124 168.351 342.118 168.267 343.014 168.267C344.918 168.267 346.318 168.617 347.214 169.317C348.138 169.989 348.6 171.165 348.6 172.845V174.609C348.437 174.576 348.271 174.545 348.1 174.516C346.976 174.326 345.673 174.231 344.19 174.231H342.846C339.85 174.231 337.694 174.749 336.378 175.785ZM336.071 175.391C334.614 176.508 333.904 178.121 333.904 180.153C333.904 181.306 334.111 182.369 334.534 183.336C334.953 184.293 335.539 185.121 336.291 185.813L336.299 185.82L336.307 185.827C337.083 186.484 337.989 187.002 339.018 187.384L339.026 187.387L339.034 187.39C340.098 187.744 341.244 187.919 342.468 187.919C343.955 187.919 345.289 187.657 346.457 187.117C347.289 186.734 348.011 186.24 348.621 185.636L348.878 187.499H353.555L353.508 186.956C353.453 186.327 353.426 185.683 353.426 185.025V172.425C353.426 169.693 352.608 167.581 350.888 166.199C349.22 164.835 346.747 164.197 343.56 164.197C341.162 164.197 338.698 164.526 336.169 165.179L335.751 165.287L336.237 169.822L336.798 169.675C337.957 169.372 339.056 169.152 340.097 169.015L340.108 169.013C341.18 168.848 342.148 168.767 343.014 168.767C344.875 168.767 346.14 169.113 346.906 169.711L346.913 169.717L346.92 169.722C347.661 170.261 348.1 171.246 348.1 172.845V174.009C346.961 173.823 345.656 173.731 344.19 173.731H342.846C339.818 173.731 337.522 174.25 336.071 175.391ZM342.09 177.423H348.6V179.607C348.6 180.951 348.082 182.029 347.046 182.841C346.01 183.625 344.736 184.017 343.224 184.017C341.88 184.017 340.802 183.695 339.99 183.051C339.206 182.379 338.814 181.441 338.814 180.237C338.814 179.173 339.108 178.445 339.696 178.053C340.312 177.633 341.11 177.423 342.09 177.423ZM340.308 182.666C341.008 183.217 341.963 183.517 343.224 183.517C344.643 183.517 345.805 183.152 346.74 182.446C347.65 181.731 348.1 180.8 348.1 179.607V177.923H342.09C341.179 177.923 340.488 178.118 339.977 178.466L339.973 178.469C339.585 178.728 339.314 179.251 339.314 180.237C339.314 181.318 339.658 182.105 340.308 182.666Z" fill="#0186C6"/>
<path fill-rule="evenodd" clip-rule="evenodd" d="M312.533 184.563C314.521 186.467 317.349 187.419 321.017 187.419C322.333 187.419 323.607 187.293 324.839 187.041C326.099 186.817 327.261 186.509 328.325 186.117L327.863 182.799C327.707 182.853 327.546 182.905 327.38 182.956C326.601 183.194 325.726 183.394 324.755 183.555C323.579 183.751 322.487 183.849 321.479 183.849C319.015 183.849 317.181 183.275 315.977 182.127C314.903 181.079 314.284 179.691 314.121 177.965C314.106 177.802 314.095 177.635 314.087 177.465H329.501C329.557 177.073 329.599 176.639 329.627 176.163C329.683 175.687 329.711 175.211 329.711 174.735C329.711 173.307 329.529 171.991 329.165 170.787C328.801 169.555 328.241 168.491 327.485 167.595C326.729 166.671 325.763 165.957 324.587 165.453C323.411 164.949 322.011 164.697 320.387 164.697C318.679 164.697 317.153 164.977 315.809 165.537C314.465 166.097 313.331 166.895 312.407 167.931C311.483 168.967 310.783 170.199 310.307 171.627C309.831 173.055 309.593 174.623 309.593 176.331C309.593 179.915 310.573 182.659 312.533 184.563ZM327.869 167.275C327.059 166.286 326.027 165.526 324.784 164.994C323.532 164.457 322.061 164.197 320.387 164.197C318.625 164.197 317.031 164.486 315.617 165.076C314.207 165.663 313.01 166.504 312.034 167.598C311.061 168.689 310.329 169.982 309.833 171.469C309.338 172.954 309.093 174.577 309.093 176.331C309.093 180.006 310.1 182.897 312.185 184.922L312.187 184.924C314.296 186.944 317.264 187.919 321.017 187.919C322.363 187.919 323.668 187.791 324.933 187.532C326.216 187.304 327.405 186.989 328.498 186.586L328.876 186.447L328.275 182.129L327.701 182.326C326.837 182.623 325.828 182.87 324.673 183.062C323.519 183.254 322.455 183.349 321.479 183.349C319.085 183.349 317.4 182.791 316.325 181.768C315.36 180.825 314.784 179.571 314.624 177.965H329.935L329.996 177.536C330.054 177.132 330.097 176.689 330.126 176.207C330.183 175.717 330.211 175.226 330.211 174.735C330.211 173.265 330.024 171.899 329.644 170.643C329.262 169.353 328.673 168.228 327.869 167.275ZM315.809 169.779C316.845 168.603 318.301 168.015 320.177 168.015C321.269 168.015 322.151 168.211 322.823 168.603C323.495 168.995 324.013 169.485 324.377 170.073C324.769 170.633 325.035 171.249 325.175 171.921C325.312 172.579 325.382 173.196 325.385 173.773M325.385 173.811V174.273H314.129C314.137 174.104 314.149 173.937 314.164 173.773C314.32 172.153 314.868 170.822 315.809 169.779M314.667 173.773C314.82 172.264 315.332 171.054 316.18 170.114L316.184 170.11C317.107 169.063 318.414 168.515 320.177 168.515C321.215 168.515 322.001 168.702 322.571 169.035C323.182 169.391 323.636 169.826 323.952 170.336L323.96 170.348L323.968 170.36C324.321 170.864 324.56 171.417 324.686 172.023C324.817 172.652 324.882 173.235 324.885 173.773H314.667Z" fill="#0186C6"/>
<path fill-rule="evenodd" clip-rule="evenodd" d="M284.059 186.999V174.231H298.591V186.999H302.959V158.607H298.591V170.451H284.059V158.607H279.691V186.999H284.059ZM284.559 169.951V158.107H279.191V187.499H284.559V174.731H298.091V187.499H303.459V158.107H298.091V169.951H284.559Z" fill="#0186C6"/>
<path fill-rule="evenodd" clip-rule="evenodd" d="M261.462 187.499H256.136V157.006L261.462 155.559V187.499ZM260.962 186.999H256.636V157.389L260.962 156.213V186.999Z" fill="#0186C6"/>
<path fill-rule="evenodd" clip-rule="evenodd" d="M232.69 175.785C231.374 176.793 230.716 178.249 230.716 180.153C230.716 181.245 230.912 182.239 231.304 183.135C231.696 184.031 232.242 184.801 232.942 185.445C233.67 186.061 234.524 186.551 235.504 186.915C236.512 187.251 237.604 187.419 238.78 187.419C240.208 187.419 241.468 187.167 242.56 186.663C243.467 186.245 244.229 185.691 244.846 185.002C244.969 184.866 245.085 184.724 245.197 184.576C245.2 184.572 245.203 184.568 245.206 184.563H245.29L245.626 186.999H249.322C249.308 186.834 249.295 186.667 249.285 186.499C249.254 186.016 249.238 185.524 249.238 185.025V172.425C249.238 169.793 248.454 167.847 246.886 166.587C245.346 165.327 243.008 164.697 239.872 164.697C237.52 164.697 235.098 165.019 232.606 165.663L232.984 169.191C233.149 169.148 233.312 169.107 233.474 169.067C234.472 168.822 235.429 168.64 236.344 168.519C237.436 168.351 238.43 168.267 239.326 168.267C241.23 168.267 242.63 168.617 243.526 169.317C244.45 169.989 244.912 171.165 244.912 172.845V174.609C244.75 174.576 244.583 174.545 244.412 174.516C243.288 174.326 241.985 174.231 240.502 174.231H239.158C236.162 174.231 234.006 174.749 232.69 175.785ZM244.412 174.009V172.845C244.412 171.246 243.974 170.261 243.232 169.722L243.225 169.717L243.218 169.711C242.452 169.113 241.187 168.767 239.326 168.767C238.461 168.767 237.493 168.848 236.42 169.013L236.41 169.015C235.369 169.152 234.269 169.372 233.111 169.675L232.549 169.822L232.063 165.287L232.481 165.179C235.01 164.526 237.474 164.197 239.872 164.197C243.06 164.197 245.534 164.835 247.202 166.199C248.921 167.582 249.738 169.693 249.738 172.425V185.025C249.738 185.683 249.766 186.327 249.82 186.956L249.868 187.499H245.191L244.934 185.636C244.324 186.24 243.601 186.734 242.77 187.117C241.601 187.657 240.267 187.919 238.78 187.919C237.556 187.919 236.41 187.744 235.346 187.39L235.338 187.387L235.33 187.384C234.301 187.002 233.396 186.484 232.619 185.827L232.611 185.82L232.604 185.813C231.851 185.121 231.265 184.293 230.846 183.336C230.424 182.369 230.216 181.306 230.216 180.153C230.216 178.121 230.927 176.508 232.384 175.39C233.835 174.25 236.131 173.731 239.158 173.731H240.502C241.968 173.731 243.273 173.823 244.412 174.009ZM238.402 177.423H244.912V179.607C244.912 180.951 244.394 182.029 243.358 182.841C242.322 183.625 241.048 184.017 239.536 184.017C238.192 184.017 237.114 183.695 236.302 183.051C235.518 182.379 235.126 181.441 235.126 180.237C235.126 179.173 235.42 178.445 236.008 178.053C236.624 177.633 237.422 177.423 238.402 177.423ZM236.621 182.666C237.32 183.217 238.276 183.517 239.536 183.517C240.956 183.517 242.118 183.151 243.053 182.445C243.963 181.731 244.412 180.8 244.412 179.607V177.923H238.402C237.492 177.923 236.8 178.118 236.29 178.466L236.286 178.469C235.898 178.728 235.626 179.251 235.626 180.237C235.626 181.318 235.971 182.105 236.621 182.666Z" fill="#0186C6"/>
<path fill-rule="evenodd" clip-rule="evenodd" d="M218.708 179.69V169.064H225.218L226.478 165.452H218.708V159.362L214.382 160.244V179.354C214.382 182.182 214.956 184.198 216.104 185.402C217.28 186.578 219.142 187.166 221.69 187.166C222.558 187.166 223.384 187.11 224.168 186.998C224.952 186.886 225.666 186.732 226.31 186.536L226.058 183.176C225.903 183.222 225.739 183.264 225.567 183.304C225.209 183.386 224.813 183.456 224.378 183.512C223.762 183.568 223.16 183.596 222.572 183.596C221.088 183.596 220.066 183.302 219.506 182.714C218.974 182.098 218.708 181.09 218.708 179.69ZM219.877 182.378C220.292 182.806 221.131 183.096 222.572 183.096C223.141 183.096 223.725 183.069 224.323 183.015C224.945 182.934 225.475 182.827 225.917 182.697L226.511 182.522L226.839 186.898L226.456 187.015C225.784 187.219 225.044 187.378 224.239 187.493C223.43 187.609 222.58 187.666 221.69 187.666C219.079 187.666 217.06 187.065 215.751 185.756L215.742 185.747C214.461 184.404 213.882 182.227 213.882 179.354V159.836L219.208 158.75V164.952H227.182L225.573 169.564H219.208V179.69C219.208 181.04 219.467 181.897 219.877 182.378Z" fill="#0186C6"/>
<path fill-rule="evenodd" clip-rule="evenodd" d="M202.838 165.159C201.942 164.851 200.948 164.697 199.856 164.697C198.428 164.697 197.056 164.921 195.74 165.369C194.614 165.729 193.59 166.191 192.669 166.755C192.514 166.85 192.362 166.948 192.212 167.049L191.876 165.075H188.054V186.999H192.38V170.283C193.192 169.723 194.13 169.261 195.194 168.897C196.286 168.505 197.392 168.309 198.512 168.309C200.024 168.309 201.13 168.715 201.83 169.527C202.558 170.339 202.922 171.557 202.922 173.181V186.999H207.248V172.719C207.248 171.291 207.066 170.073 206.702 169.065C206.338 168.029 205.834 167.189 205.19 166.545C204.546 165.901 203.762 165.439 202.838 165.159ZM202.992 164.683C202.039 164.357 200.992 164.197 199.856 164.197C198.377 164.197 196.952 164.429 195.584 164.894C194.493 165.243 193.491 165.686 192.579 166.226L192.298 164.575H187.554V187.499H192.88V170.55C193.6 170.083 194.424 169.689 195.356 169.37L195.363 169.368C196.403 168.995 197.452 168.809 198.512 168.809C199.941 168.809 200.881 169.191 201.451 169.854L201.458 169.861C202.071 170.545 202.422 171.622 202.422 173.181V187.499H207.748V172.719C207.748 171.253 207.562 169.975 207.174 168.899C206.79 167.807 206.25 166.898 205.544 166.192C204.84 165.488 203.986 164.986 202.992 164.683Z" fill="#0186C6"/>
<path fill-rule="evenodd" clip-rule="evenodd" d="M164.672 184.563C166.66 186.467 169.488 187.419 173.156 187.419C174.472 187.419 175.746 187.293 176.978 187.041C178.238 186.817 179.4 186.509 180.464 186.117L180.002 182.799C179.845 182.853 179.684 182.905 179.519 182.956C178.739 183.194 177.864 183.394 176.894 183.555C175.718 183.751 174.626 183.849 173.618 183.849C171.154 183.849 169.32 183.275 168.116 182.127C167.042 181.079 166.423 179.691 166.26 177.965C166.245 177.802 166.233 177.635 166.226 177.465H181.64C181.696 177.073 181.738 176.639 181.766 176.163C181.822 175.687 181.85 175.211 181.85 174.735C181.85 173.307 181.668 171.991 181.304 170.787C180.94 169.555 180.38 168.491 179.624 167.595C178.868 166.671 177.902 165.957 176.726 165.453C175.55 164.949 174.15 164.697 172.526 164.697C170.818 164.697 169.292 164.977 167.948 165.537C166.604 166.097 165.47 166.895 164.546 167.931C163.622 168.967 162.922 170.199 162.446 171.627C161.97 173.055 161.732 174.623 161.732 176.331C161.732 179.915 162.712 182.659 164.672 184.563ZM180.009 167.276C179.198 166.287 178.166 165.527 176.923 164.994C175.67 164.457 174.2 164.197 172.526 164.197C170.763 164.197 169.17 164.486 167.756 165.076C166.346 165.663 165.149 166.504 164.173 167.598C163.2 168.689 162.467 169.982 161.972 171.469C161.476 172.954 161.232 174.577 161.232 176.331C161.232 180.006 162.239 182.897 164.324 184.922L164.326 184.924C166.435 186.944 169.403 187.919 173.156 187.919C174.502 187.919 175.807 187.791 177.072 187.532C178.355 187.304 179.544 186.989 180.637 186.586L181.015 186.447L180.413 182.129L179.839 182.326C178.975 182.623 177.967 182.87 176.812 183.062C175.658 183.254 174.594 183.349 173.618 183.349C171.223 183.349 169.538 182.791 168.463 181.767C167.499 180.825 166.923 179.57 166.762 177.965H182.074L182.135 177.536C182.193 177.132 182.236 176.689 182.264 176.207C182.321 175.717 182.35 175.226 182.35 174.735C182.35 173.265 182.163 171.9 181.783 170.644C181.402 169.354 180.812 168.228 180.009 167.276ZM167.948 169.779C168.984 168.603 170.44 168.015 172.316 168.015C173.408 168.015 174.29 168.211 174.962 168.603C175.634 168.995 176.152 169.485 176.516 170.073C176.908 170.633 177.174 171.249 177.314 171.921C177.451 172.579 177.521 173.196 177.524 173.773M177.524 173.811V174.273H166.268C166.276 174.104 166.287 173.937 166.303 173.773C166.459 172.153 167.007 170.822 167.948 169.779M166.805 173.773C166.959 172.264 167.471 171.054 168.319 170.114L168.323 170.11C169.245 169.063 170.553 168.515 172.316 168.515C173.353 168.515 174.139 168.702 174.71 169.035C175.32 169.391 175.775 169.826 176.091 170.336L176.098 170.348L176.106 170.36C176.459 170.864 176.698 171.417 176.824 172.023C176.955 172.652 177.021 173.235 177.024 173.773H166.805Z" fill="#0186C6"/>
<path fill-rule="evenodd" clip-rule="evenodd" d="M147.481 159.405C145.577 158.873 143.393 158.607 140.929 158.607H130.723V186.999H140.593C143.337 186.999 145.703 186.663 147.691 185.991C149.679 185.319 151.317 184.353 152.605 183.093C153.921 181.833 154.887 180.307 155.503 178.515C156.119 176.695 156.427 174.665 156.427 172.425C156.427 170.017 156.077 167.945 155.377 166.209C154.677 164.445 153.669 163.003 152.353 161.883C151.037 160.763 149.413 159.937 147.481 159.405ZM147.614 158.923C145.657 158.377 143.427 158.107 140.929 158.107H130.223V187.499H140.593C143.375 187.499 145.798 187.159 147.851 186.465C149.897 185.773 151.603 184.772 152.952 183.453C154.327 182.136 155.335 180.541 155.976 178.678L155.976 178.676C156.612 176.796 156.927 174.711 156.927 172.425C156.927 169.971 156.57 167.833 155.841 166.023M149.119 164.697C150.967 166.209 151.891 168.771 151.891 172.383C151.891 175.883 151.023 178.571 149.287 180.447C147.551 182.295 144.849 183.219 141.181 183.219H135.091V162.387H140.719C144.471 162.387 147.271 163.157 149.119 164.697ZM135.591 162.887H140.719C144.416 162.887 147.079 163.648 148.799 165.082L148.802 165.084C150.485 166.461 151.391 168.843 151.391 172.383C151.391 175.803 150.543 178.352 148.922 180.106C147.316 181.815 144.772 182.719 141.181 182.719H135.591V162.887Z" fill="#0186C6"/>
<path fill-rule="evenodd" clip-rule="evenodd" d="M109.002 167.728C108.843 167.862 108.689 167.999 108.539 168.14L108.245 165.074H104.423V186.998H108.749V171.458C109.757 170.73 110.877 170.156 112.109 169.736C113.369 169.316 114.671 169.05 116.015 168.938L116.351 164.696C116.181 164.711 116.013 164.729 115.846 164.75C114.444 164.923 113.142 165.297 111.941 165.872C110.832 166.391 109.853 167.01 109.002 167.728ZM108.945 167.128L108.7 164.574H103.923V187.498H109.249V171.717C110.161 171.089 111.167 170.586 112.269 170.21C113.49 169.803 114.752 169.545 116.057 169.436L116.48 169.401L116.896 164.146L116.308 164.198C114.657 164.343 113.129 164.749 111.727 165.42C110.696 165.903 109.767 166.472 108.945 167.128Z" fill="#0186C6"/>
<path fill-rule="evenodd" clip-rule="evenodd" d="M80.3564 185.402C81.9524 186.746 84.3324 187.418 87.4964 187.418C90.6884 187.418 93.0684 186.662 94.6364 185.15C96.2324 183.638 97.0304 181.482 97.0304 178.682V165.074H92.7044V178.682C92.7044 180.362 92.2704 181.65 91.4024 182.546C90.5344 183.442 89.2324 183.89 87.4964 183.89C84.0244 183.89 82.2884 182.154 82.2884 178.682V165.074H77.9624V178.682C77.9624 181.79 78.7604 184.03 80.3564 185.402ZM94.9819 185.512C96.7021 183.881 97.5304 181.579 97.5304 178.682V164.574H92.2044V178.682C92.2044 180.278 91.7932 181.424 91.0433 182.198C90.3015 182.964 89.1512 183.39 87.4964 183.39C85.8375 183.39 84.6851 182.976 83.944 182.235C83.2028 181.494 82.7884 180.341 82.7884 178.682V164.574H77.4624V178.682C77.4624 181.865 78.2797 184.276 80.0304 185.781L80.0343 185.785C81.7569 187.235 84.273 187.918 87.4964 187.918C90.7571 187.918 93.2851 187.147 94.9819 185.512Z" fill="#0186C6"/>
<path fill-rule="evenodd" clip-rule="evenodd" d="M60.7262 183.933C58.7382 183.933 57.1142 183.247 55.8542 181.875C54.5942 180.503 53.9642 178.557 53.9642 176.037C53.9642 173.545 54.5802 171.613 55.8122 170.241C57.0722 168.869 58.7102 168.183 60.7262 168.183C62.7422 168.183 64.3662 168.869 65.5982 170.241C66.8582 171.613 67.4882 173.545 67.4882 176.037C67.4882 178.557 66.8582 180.503 65.5982 181.875C64.3382 183.247 62.7142 183.933 60.7262 183.933ZM60.7262 187.419C62.5182 187.419 64.1002 187.139 65.4722 186.579C66.8722 186.019 68.0482 185.249 69.0002 184.269C69.9522 183.261 70.6662 182.071 71.1422 180.699C71.6462 179.299 71.8982 177.773 71.8982 176.121C71.8982 174.441 71.6462 172.901 71.1422 171.501C70.6382 170.101 69.8962 168.897 68.9162 167.889C67.9642 166.881 66.8022 166.097 65.4302 165.537C64.0582 164.977 62.4902 164.697 60.7262 164.697C58.9622 164.697 57.3942 164.977 56.0222 165.537C54.6502 166.097 53.4742 166.881 52.4942 167.889C51.5422 168.897 50.8142 170.101 50.3102 171.501C49.8062 172.901 49.5542 174.441 49.5542 176.121C49.5542 177.773 49.7922 179.299 50.2682 180.699C50.7722 182.071 51.5002 183.261 52.4522 184.269C53.4042 185.249 54.5662 186.019 55.9382 186.579C57.3382 187.139 58.9342 187.419 60.7262 187.419ZM69.2772 167.543C68.2734 166.481 67.0514 165.659 65.6191 165.074C64.1769 164.486 62.5429 164.197 60.7262 164.197C58.9095 164.197 57.2755 164.486 55.8333 165.074C54.401 165.659 53.1663 166.481 52.1357 167.541L52.1357 167.541L52.1307 167.546C51.1281 168.608 50.3653 169.872 49.8398 171.332C49.3138 172.793 49.0542 174.391 49.0542 176.121C49.0542 177.822 49.2993 179.403 49.7948 180.86L49.7947 180.86L49.7989 180.872C50.3249 182.304 51.0877 183.553 52.0887 184.613L52.0887 184.613L52.0936 184.618C53.0976 185.651 54.3189 186.458 55.7492 187.042L55.7525 187.044C57.2216 187.631 58.8823 187.919 60.7262 187.919C62.569 187.919 64.2167 187.631 65.6594 187.043C67.1171 186.46 68.3534 185.653 69.3588 184.618L69.3589 184.618L69.3637 184.613C70.366 183.551 71.1156 182.3 71.6136 180.866C72.1386 179.407 72.3982 177.824 72.3982 176.121C72.3982 174.391 72.1386 172.793 71.6126 171.332C71.0864 169.87 70.3085 168.605 69.2772 167.543ZM65.2262 170.575L65.2262 170.575C64.0985 169.319 62.6151 168.683 60.7262 168.683C58.8383 168.683 57.3389 169.319 56.1822 170.578C55.0592 171.83 54.4642 173.626 54.4642 176.037C54.4642 178.477 55.0733 180.286 56.2225 181.537C57.3809 182.798 58.8676 183.433 60.7262 183.433C62.5848 183.433 64.0715 182.798 65.2299 181.537C66.3791 180.286 66.9882 178.477 66.9882 176.037C66.9882 173.627 66.38 171.832 65.2299 170.579L65.2262 170.575Z" fill="#0186C6"/>
<path fill-rule="evenodd" clip-rule="evenodd" d="M36.2398 172.131H36.1138L28.5958 158.607H23.5558L33.9298 176.541V186.999H38.2978V176.625L48.5458 158.607H43.6318L36.2398 172.131ZM36.1737 171.21L28.8899 158.107H22.689L33.4298 176.676V187.499H38.7978V176.758L49.4054 158.107H43.3353L36.1737 171.21Z" fill="#0186C6"/>
</svg>
