<svg width="32" height="46" viewBox="0 0 32 46" fill="none" xmlns="http://www.w3.org/2000/svg">
<path d="M12.5073 30.46V45.9995H19.0068V30.46H12.5073Z" fill="white"/>
<path d="M7.98754 41.1914H23.527V34.6919H7.98754V41.1914ZM15.7554 0C24.4561 0 31.5107 7.05465 31.5107 15.7554C31.5107 24.4561 24.4561 31.5108 15.7554 31.5108C7.05463 31.5108 -1.33514e-05 24.4561 -1.33514e-05 15.7554C-1.33514e-05 7.05465 7.05463 0 15.7554 0ZM15.7554 25.0151C20.8671 25.0151 25.0151 20.871 25.0151 15.7554C25.0151 10.6436 20.8709 6.49567 15.7554 6.49567C10.6398 6.49567 6.49566 10.6398 6.49566 15.7554C6.49566 20.8671 10.6436 25.0151 15.7554 25.0151Z" fill="white"/>
</svg>
