<svg width="363" height="77" viewBox="0 0 363 77" fill="none" xmlns="http://www.w3.org/2000/svg">
<rect width="363" height="24" rx="8" transform="matrix(-1 0 0 1 363 0)" fill="url(#paint0_linear_24_723)"/>
<path d="M333.5 28L344.325 46.75H322.675L333.5 28Z" fill="#2A2A2A"/>
<path d="M296.6 72V57.4545H299.675V63.456H305.918V57.4545H308.987V72H305.918V65.9915H299.675V72H296.6ZM314.597 57.4545V72H311.522V57.4545H314.597ZM326.772 62.1562C326.673 61.8106 326.533 61.5052 326.353 61.2401C326.173 60.9702 325.953 60.7429 325.693 60.5582C325.437 60.3688 325.144 60.2244 324.812 60.125C324.485 60.0256 324.123 59.9759 323.725 59.9759C322.982 59.9759 322.329 60.1605 321.765 60.5298C321.207 60.8991 320.771 61.4366 320.458 62.142C320.146 62.8428 319.99 63.6998 319.99 64.7131C319.99 65.7263 320.144 66.5881 320.451 67.2983C320.759 68.0085 321.195 68.5507 321.758 68.9247C322.322 69.294 322.987 69.4787 323.754 69.4787C324.45 69.4787 325.044 69.3556 325.537 69.1094C326.034 68.8584 326.413 68.5057 326.673 68.0511C326.938 67.5966 327.071 67.0592 327.071 66.4389L327.696 66.5312H323.946V64.2159H330.032V66.0483C330.032 67.3267 329.762 68.4252 329.223 69.3438C328.683 70.2576 327.94 70.9631 326.993 71.4602C326.046 71.9527 324.961 72.1989 323.74 72.1989C322.376 72.1989 321.178 71.8982 320.146 71.2969C319.114 70.6908 318.309 69.8314 317.731 68.7188C317.158 67.6013 316.872 66.2756 316.872 64.7415C316.872 63.5625 317.042 62.5114 317.383 61.5881C317.729 60.66 318.212 59.8741 318.832 59.2301C319.452 58.5862 320.174 58.0961 320.998 57.7599C321.822 57.4238 322.715 57.2557 323.676 57.2557C324.5 57.2557 325.267 57.3764 325.977 57.6179C326.687 57.8546 327.317 58.1908 327.866 58.6264C328.42 59.062 328.872 59.5805 329.223 60.1818C329.573 60.7784 329.798 61.4366 329.897 62.1562H326.772ZM332.342 72V57.4545H335.418V63.456H341.661V57.4545H344.729V72H341.661V65.9915H335.418V72H332.342Z" fill="black"/>
<defs>
<linearGradient id="paint0_linear_24_723" x1="0" y1="12" x2="363" y2="12" gradientUnits="userSpaceOnUse">
<stop stop-color="#FF0000"/>
<stop offset="0.5" stop-color="#FFE600"/>
<stop offset="1" stop-color="#24FF00"/>
</linearGradient>
</defs>
</svg>
