<svg width="363" height="77" viewBox="0 0 363 77" fill="none" xmlns="http://www.w3.org/2000/svg">
<rect width="363" height="24" rx="8" transform="matrix(-1 0 0 1 363 0)" fill="url(#paint0_linear_24_721)"/>
<path d="M30.5 28L41.3253 46.75H19.6747L30.5 28Z" fill="#2A2A2A"/>
<path d="M14.2642 72V57.4545H17.3395V69.4645H23.5753V72H14.2642ZM38.4119 64.7273C38.4119 66.3134 38.1113 67.6629 37.5099 68.7756C36.9134 69.8883 36.099 70.7382 35.0668 71.3253C34.0393 71.9077 32.884 72.1989 31.6009 72.1989C30.3082 72.1989 29.1482 71.9053 28.1207 71.3182C27.0933 70.7311 26.2813 69.8812 25.6847 68.7685C25.0881 67.6558 24.7898 66.3087 24.7898 64.7273C24.7898 63.1411 25.0881 61.7917 25.6847 60.679C26.2813 59.5663 27.0933 58.7187 28.1207 58.1364C29.1482 57.5492 30.3082 57.2557 31.6009 57.2557C32.884 57.2557 34.0393 57.5492 35.0668 58.1364C36.099 58.7187 36.9134 59.5663 37.5099 60.679C38.1113 61.7917 38.4119 63.1411 38.4119 64.7273ZM35.294 64.7273C35.294 63.6998 35.1402 62.8333 34.8324 62.1278C34.5294 61.4223 34.1009 60.8873 33.5469 60.5227C32.9929 60.1581 32.3442 59.9759 31.6009 59.9759C30.8575 59.9759 30.2088 60.1581 29.6548 60.5227C29.1009 60.8873 28.67 61.4223 28.3622 62.1278C28.0592 62.8333 27.9077 63.6998 27.9077 64.7273C27.9077 65.7547 28.0592 66.6212 28.3622 67.3267C28.67 68.0322 29.1009 68.5672 29.6548 68.9318C30.2088 69.2964 30.8575 69.4787 31.6009 69.4787C32.3442 69.4787 32.9929 69.2964 33.5469 68.9318C34.1009 68.5672 34.5294 68.0322 34.8324 67.3267C35.1402 66.6212 35.294 65.7547 35.294 64.7273ZM43.4173 72L39.2553 57.4545H42.6147L45.0224 67.5611H45.1431L47.7994 57.4545H50.6758L53.3249 67.5824H53.4528L55.8604 57.4545H59.2198L55.0579 72H52.0607L49.2908 62.4901H49.1772L46.4144 72H43.4173Z" fill="black"/>
<defs>
<linearGradient id="paint0_linear_24_721" x1="0" y1="12" x2="363" y2="12" gradientUnits="userSpaceOnUse">
<stop stop-color="#FF0000"/>
<stop offset="0.5" stop-color="#FFE600"/>
<stop offset="1" stop-color="#24FF00"/>
</linearGradient>
</defs>
</svg>
