<svg width="46" height="46" viewBox="0 0 46 46" fill="none" xmlns="http://www.w3.org/2000/svg">
<path d="M46 0V17.25H40.25V9.84688L28.8219 21.2031C29.7323 22.5448 30.4271 23.9708 30.9062 25.4811C31.3854 26.9915 31.625 28.5603 31.625 30.1875C31.625 34.5958 30.0917 38.3333 27.025 41.4C23.9583 44.4667 20.2208 46 15.8125 46C11.4042 46 7.66667 44.4667 4.6 41.4C1.53333 38.3333 0 34.5958 0 30.1875C0 25.7792 1.53333 22.0417 4.6 18.975C7.66667 15.9083 11.4042 14.375 15.8125 14.375C17.3938 14.375 18.951 14.6021 20.4844 15.0564C22.0177 15.5106 23.4313 16.2179 24.725 17.1781L36.1531 5.75H28.75V0H46ZM15.8125 20.125C13.0333 20.125 10.6615 21.1073 8.69688 23.0719C6.73229 25.0365 5.75 27.4083 5.75 30.1875C5.75 32.9667 6.73229 35.3385 8.69688 37.3031C10.6615 39.2677 13.0333 40.25 15.8125 40.25C18.5917 40.25 20.9635 39.2677 22.9281 37.3031C24.8927 35.3385 25.875 32.9667 25.875 30.1875C25.875 27.4083 24.8927 25.0365 22.9281 23.0719C20.9635 21.1073 18.5917 20.125 15.8125 20.125Z" fill="white"/>
</svg>
