<svg width="363" height="77" viewBox="0 0 363 77" fill="none" xmlns="http://www.w3.org/2000/svg">
<rect width="363" height="24" rx="8" transform="matrix(-1 0 0 1 363 0)" fill="url(#paint0_linear_24_722)"/>
<path d="M182.5 28L193.325 46.75H171.675L182.5 28Z" fill="#2A2A2A"/>
<path d="M141.467 57.4545H145.26L149.266 67.2273H149.436L153.442 57.4545H157.234V72H154.251V62.5327H154.131L150.366 71.929H148.335L144.571 62.4972H144.45V72H141.467V57.4545ZM159.768 72V57.4545H169.569V59.9901H162.843V63.456H169.065V65.9915H162.843V69.4645H169.598V72H159.768ZM177.17 72H172.014V57.4545H177.213C178.676 57.4545 179.936 57.7457 180.991 58.3281C182.047 58.9058 182.859 59.7367 183.428 60.821C184 61.9053 184.287 63.2027 184.287 64.7131C184.287 66.2282 184 67.5303 183.428 68.6193C182.859 69.7083 182.043 70.544 180.977 71.1264C179.917 71.7088 178.648 72 177.17 72ZM175.089 69.3651H177.043C177.952 69.3651 178.716 69.2041 179.337 68.8821C179.962 68.5554 180.43 68.0511 180.743 67.3693C181.06 66.6828 181.219 65.7973 181.219 64.7131C181.219 63.6383 181.06 62.7599 180.743 62.0781C180.43 61.3963 179.964 60.8944 179.344 60.5724C178.723 60.2505 177.959 60.0895 177.05 60.0895H175.089V69.3651ZM189.64 57.4545V72H186.565V57.4545H189.64ZM201.155 57.4545H204.23V66.9006C204.23 67.9612 203.977 68.8892 203.47 69.6847C202.968 70.4801 202.265 71.1004 201.361 71.5455C200.456 71.9858 199.403 72.206 198.2 72.206C196.993 72.206 195.937 71.9858 195.033 71.5455C194.128 71.1004 193.425 70.4801 192.923 69.6847C192.421 68.8892 192.17 67.9612 192.17 66.9006V57.4545H195.246V66.6378C195.246 67.1918 195.366 67.6842 195.608 68.1151C195.854 68.5459 196.2 68.8845 196.645 69.1307C197.09 69.3769 197.608 69.5 198.2 69.5C198.797 69.5 199.315 69.3769 199.756 69.1307C200.201 68.8845 200.544 68.5459 200.786 68.1151C201.032 67.6842 201.155 67.1918 201.155 66.6378V57.4545ZM206.76 57.4545H210.553L214.559 67.2273H214.729L218.735 57.4545H222.527V72H219.544V62.5327H219.424L215.659 71.929H213.628L209.864 62.4972H209.743V72H206.76V57.4545Z" fill="black"/>
<defs>
<linearGradient id="paint0_linear_24_722" x1="0" y1="12" x2="363" y2="12" gradientUnits="userSpaceOnUse">
<stop stop-color="#FF0000"/>
<stop offset="0.5" stop-color="#FFE600"/>
<stop offset="1" stop-color="#24FF00"/>
</linearGradient>
</defs>
</svg>
