<svg width="44" height="46" viewBox="0 0 44 46" fill="none" xmlns="http://www.w3.org/2000/svg">
<path d="M21.9545 29.2727C23.9758 29.2727 25.7008 28.5583 27.1295 27.1295C28.5583 25.7008 29.2727 23.9758 29.2727 21.9545C29.2727 19.9333 28.5583 18.2083 27.1295 16.7795C25.7008 15.3508 23.9758 14.6364 21.9545 14.6364C19.9333 14.6364 18.2083 15.3508 16.7795 16.7795C15.3508 18.2083 14.6364 19.9333 14.6364 21.9545C14.6364 23.9758 15.3508 25.7008 16.7795 27.1295C18.2083 28.5583 19.9333 29.2727 21.9545 29.2727ZM19.8636 46V41.8182H15.6818V37.6364H19.8636V33.2455C17.1455 32.7576 14.8977 31.4508 13.1205 29.325C11.3432 27.1992 10.4545 24.7424 10.4545 21.9545C10.4545 20.8045 10.6204 19.672 10.9522 18.5568C11.2839 17.4417 11.7802 16.4136 12.4409 15.4727L11.0818 14.1136L8.15455 17.0409L5.22727 14.1136L8.15455 11.1341L4.18182 7.16136V12.5455H0V0H12.5455V4.18182H7.16136L11.1341 8.15455L14.1136 5.22727L17.0409 8.15455L14.1136 11.1341L15.4727 12.4932C16.4136 11.7962 17.4417 11.2825 18.5568 10.9522C19.672 10.6218 20.8045 10.4559 21.9545 10.4545C23.1045 10.4532 24.2371 10.619 25.3523 10.9522C26.4674 11.2853 27.4955 11.799 28.4364 12.4932L36.7477 4.18182H31.3636V0H43.9091V12.5455H39.7273V7.16136L31.4159 15.4205C32.078 16.3962 32.5833 17.4333 32.9318 18.5317C33.2803 19.6302 33.4545 20.7711 33.4545 21.9545C33.4545 24.7424 32.5659 27.1992 30.7886 29.325C29.0114 31.4508 26.7636 32.7576 24.0455 33.2455V37.6364H28.2273V41.8182H24.0455V46H19.8636Z" fill="white"/>
</svg>
