<svg width="326" height="84" viewBox="0 0 326 84" fill="none" xmlns="http://www.w3.org/2000/svg">
<rect width="326" height="84" rx="10" fill="#05A310"/>
<path d="M111.514 47.72H99.9544L97.4744 54H92.9544L104.074 26.88H107.474L118.434 54H113.994L111.514 47.72ZM101.354 44.12H110.114L105.914 33.24H105.594L101.354 44.12ZM143.136 43.2C143.136 46.72 142.123 49.4667 140.096 51.44C138.096 53.4133 135.27 54.4 131.616 54.4C130.79 54.4 129.95 54.3467 129.096 54.24C128.27 54.16 127.47 54.04 126.696 53.88C125.923 53.6933 125.19 53.4933 124.496 53.28C123.803 53.04 123.203 52.7867 122.696 52.52V25.8L126.816 24.68V35.44H126.936C127.683 34.6933 128.63 34.0667 129.776 33.56C130.923 33.0267 132.256 32.76 133.776 32.76C135.056 32.76 136.27 32.9867 137.416 33.44C138.563 33.8667 139.55 34.52 140.376 35.4C141.23 36.2533 141.896 37.3333 142.376 38.64C142.883 39.9467 143.136 41.4667 143.136 43.2ZM126.816 50C127.483 50.2933 128.23 50.5333 129.056 50.72C129.91 50.88 130.79 50.96 131.696 50.96C134.07 50.96 135.87 50.3067 137.096 49C138.323 47.6933 138.936 45.8267 138.936 43.4C138.936 41.0533 138.39 39.2667 137.296 38.04C136.203 36.7867 134.696 36.16 132.776 36.16C131.043 36.16 129.616 36.6667 128.496 37.68C127.376 38.6933 126.816 40.1333 126.816 42V50ZM154.702 51C156.222 51 157.315 50.7467 157.982 50.24C158.675 49.7333 159.022 49.08 159.022 48.28C159.022 47.8 158.915 47.4 158.702 47.08C158.488 46.76 158.182 46.48 157.782 46.24C157.382 46 156.902 45.7867 156.342 45.6C155.808 45.3867 155.222 45.16 154.582 44.92C153.915 44.68 153.208 44.4 152.462 44.08C151.742 43.76 151.075 43.36 150.462 42.88C149.848 42.4 149.342 41.8133 148.942 41.12C148.542 40.4267 148.342 39.5733 148.342 38.56C148.342 37.5733 148.542 36.72 148.942 36C149.368 35.2533 149.942 34.64 150.662 34.16C151.382 33.68 152.222 33.3333 153.182 33.12C154.168 32.88 155.208 32.76 156.302 32.76C157.288 32.76 158.262 32.84 159.222 33C160.208 33.16 161.128 33.3733 161.982 33.64L161.622 37C160.848 36.7067 160.035 36.48 159.182 36.32C158.355 36.16 157.475 36.08 156.542 36.08C155.262 36.08 154.262 36.2667 153.542 36.64C152.822 36.9867 152.462 37.5867 152.462 38.44C152.462 39.2933 152.848 39.9333 153.622 40.36C154.422 40.7867 155.528 41.2267 156.942 41.68C157.928 42 158.795 42.3467 159.542 42.72C160.315 43.0667 160.955 43.48 161.462 43.96C161.995 44.4133 162.395 44.96 162.662 45.6C162.928 46.2133 163.062 46.96 163.062 47.84C163.062 48.96 162.848 49.9333 162.422 50.76C161.995 51.5867 161.408 52.2667 160.662 52.8C159.915 53.3333 159.035 53.7333 158.022 54C157.008 54.2667 155.928 54.4 154.782 54.4C153.635 54.4 152.448 54.28 151.222 54.04C150.022 53.8 148.928 53.48 147.942 53.08L148.302 49.52C149.235 49.9733 150.262 50.3333 151.382 50.6C152.502 50.8667 153.608 51 154.702 51ZM178.351 54.4C174.858 54.4 172.164 53.4933 170.271 51.68C168.404 49.8667 167.471 47.2533 167.471 43.84C167.471 42.2133 167.698 40.72 168.151 39.36C168.604 38 169.271 36.8267 170.151 35.84C171.031 34.8533 172.111 34.0933 173.391 33.56C174.671 33.0267 176.124 32.76 177.751 32.76C179.298 32.76 180.631 33 181.751 33.48C182.871 33.96 183.791 34.64 184.511 35.52C185.231 36.3733 185.764 37.3867 186.111 38.56C186.458 39.7067 186.631 40.96 186.631 42.32C186.631 42.7733 186.604 43.2267 186.551 43.68C186.524 44.1333 186.484 44.5467 186.431 44.92H171.751C171.831 46.7867 172.431 48.2667 173.551 49.36C174.698 50.4533 176.444 51 178.791 51C179.751 51 180.791 50.9067 181.911 50.72C183.031 50.5333 184.018 50.2933 184.871 50L185.311 53.16C184.298 53.5333 183.191 53.8267 181.991 54.04C180.818 54.28 179.604 54.4 178.351 54.4ZM177.551 35.92C175.764 35.92 174.378 36.48 173.391 37.6C172.404 38.6933 171.871 40.12 171.791 41.88H182.511V41.44C182.511 40.88 182.444 40.28 182.311 39.64C182.178 39 181.924 38.4133 181.551 37.88C181.204 37.32 180.711 36.8533 180.071 36.48C179.431 36.1067 178.591 35.92 177.551 35.92ZM203.78 32.76C204.82 32.76 205.767 32.9067 206.62 33.2C207.5 33.4667 208.247 33.9067 208.86 34.52C209.473 35.1333 209.953 35.9333 210.3 36.92C210.647 37.88 210.82 39.04 210.82 40.4V54H206.7V40.84C206.7 39.2933 206.353 38.1333 205.66 37.36C204.993 36.5867 203.94 36.2 202.5 36.2C201.433 36.2 200.38 36.3867 199.34 36.76C198.327 37.1067 197.433 37.5467 196.66 38.08V54H192.54V33.12H196.18L196.5 35C197.487 34.3333 198.607 33.8 199.86 33.4C201.113 32.9733 202.42 32.76 203.78 32.76ZM221.734 36.92V47.04C221.734 48.3733 221.988 49.3333 222.494 49.92C223.028 50.48 224.001 50.76 225.414 50.76C225.974 50.76 226.548 50.7333 227.134 50.68C227.748 50.6 228.281 50.4933 228.734 50.36L228.974 53.56C228.361 53.7467 227.681 53.8933 226.934 54C226.188 54.1067 225.401 54.16 224.574 54.16C222.148 54.16 220.374 53.6 219.254 52.48C218.161 51.3333 217.614 49.4133 217.614 46.72V28.52L221.734 27.68V33.48H229.134L227.934 36.92H221.734Z" fill="white"/>
</svg>
