<svg width="326" height="84" viewBox="0 0 326 84" fill="none" xmlns="http://www.w3.org/2000/svg">
<rect width="326" height="84" rx="10" fill="#05A310"/>
<path d="M117.541 25.32V28H112.901V51H109.781V40.6H104.261C104.287 40.7867 104.301 41.08 104.301 41.48C104.301 43.4533 103.594 45.0533 102.181 46.28C100.794 47.5067 98.8608 48.12 96.3808 48.12C94.6474 48.12 93.0208 47.8 91.5008 47.16V44.2C93.1541 45.0267 94.7674 45.44 96.3408 45.44C97.6208 45.44 98.7408 45.1067 99.7008 44.44C100.687 43.7467 101.181 42.6667 101.181 41.2C101.181 40.0533 100.767 39.16 99.9408 38.52C99.1141 37.88 97.8608 37.56 96.1808 37.56H94.8208V34.76H96.1008C97.5141 34.76 98.5808 34.4533 99.3008 33.84C100.021 33.2267 100.381 32.4 100.381 31.36C100.381 29.1733 99.1274 28.08 96.6208 28.08C95.2074 28.08 93.9141 28.4 92.7408 29.04V26.08C93.8874 25.6 95.1941 25.36 96.6608 25.36C98.8474 25.36 100.527 25.8667 101.701 26.88C102.901 27.8933 103.501 29.2667 103.501 31C103.501 32.3333 103.154 33.44 102.461 34.32C101.794 35.2 100.914 35.7867 99.8208 36.08C101.181 36.2667 102.274 36.8667 103.101 37.88H109.781V28H106.141V25.32H117.541ZM115.788 25.32H137.148V28H132.548V51H129.388V37.84H122.308C121.828 37.84 121.495 37.96 121.308 38.2C121.121 38.44 121.028 38.84 121.028 39.4C121.028 40.3333 121.201 41.32 121.548 42.36H118.908C118.161 40.8667 117.788 39.48 117.788 38.2C117.788 36.2 118.948 35.2 121.268 35.2H129.388V28H115.788V25.32ZM119.317 57.2V53.64C120.464 54.8933 122.037 56.08 124.037 57.2C126.011 58.3467 127.891 58.92 129.677 58.92C130.957 58.92 131.944 58.6267 132.637 58.04C133.331 57.48 133.677 56.7467 133.677 55.84C133.677 54.9867 133.397 54.32 132.837 53.84C132.277 53.3867 131.517 53.16 130.557 53.16C129.411 53.16 128.104 53.6 126.637 54.48V51.64L127.077 51.44C127.344 51.3067 127.624 51.1867 127.917 51.08C128.211 50.9733 128.611 50.8667 129.117 50.76C129.597 50.6533 130.091 50.6 130.597 50.6C132.651 50.6 134.197 51.08 135.237 52.04C136.251 53 136.757 54.2667 136.757 55.84C136.757 57.5467 136.131 58.92 134.877 59.96C133.597 61.0267 131.904 61.56 129.797 61.56C127.957 61.56 126.051 61.1067 124.077 60.2C122.077 59.2933 120.491 58.2933 119.317 57.2ZM151.517 35.72V28H142.157V36.04C142.157 37.9333 142.504 39.3067 143.197 40.16C143.891 40.9867 144.957 41.4 146.397 41.4C147.811 41.4 149.011 40.8933 149.997 39.88C151.011 38.84 151.517 37.4533 151.517 35.72ZM159.277 25.32V28H154.677V51H151.517V41.48C150.291 43.1067 148.517 43.9333 146.197 43.96C141.397 43.96 138.997 41.3067 138.997 36V28H135.397V25.32H159.277ZM170.747 15.12C178.053 15.12 184.413 15.4933 189.827 16.24C195.24 16.96 200.453 18.0133 205.467 19.4V22.44C195.733 19.4267 184.187 17.92 170.827 17.92C167.12 17.92 165.267 19.3867 165.267 22.32V25.32H169.867V28H165.267V51H162.147V28H157.507V25.32H162.147V22.24C162.147 20.0533 162.907 18.32 164.427 17.04C165.947 15.76 168.053 15.12 170.747 15.12ZM203.332 25.32H211.012V28H206.452V51H203.332V42.8C202.825 43.76 201.865 44.6533 200.452 45.48C199.065 46.28 197.492 46.68 195.732 46.68C193.572 46.68 191.638 46.1333 189.932 45.04C188.225 43.92 187.025 42.24 186.332 40C184.998 40.2667 183.385 40.4 181.492 40.4H180.852C177.892 40.4 175.625 40.28 174.052 40.04L181.412 51H177.612L170.132 39.72V37.24H172.772C174.292 37.24 175.318 36.9467 175.852 36.36C176.412 35.7467 176.692 34.7867 176.692 33.48V28H168.132V25.32H185.052V28H179.812V33.72C179.812 35.4 179.452 36.72 178.732 37.68H181.452C182.918 37.68 184.452 37.5467 186.052 37.28C187.678 37.0133 189.252 36.6133 190.772 36.08C192.292 35.5467 193.545 34.8267 194.532 33.92C195.518 32.9867 196.012 31.9333 196.012 30.76C196.012 29.8533 195.785 29.12 195.332 28.56C194.905 28 194.238 27.72 193.332 27.72C192.452 27.72 191.785 27.9867 191.332 28.52C190.878 29.0267 190.652 29.68 190.652 30.48C190.652 31.3067 190.825 32.0533 191.172 32.72H188.092C187.745 32 187.572 31.1467 187.572 30.16C187.572 28.7733 188.105 27.5867 189.172 26.6C190.238 25.5867 191.625 25.08 193.332 25.08C195.118 25.08 196.518 25.6267 197.532 26.72C198.545 27.7867 199.052 29.12 199.052 30.72C199.052 34.88 195.838 37.7067 189.412 39.2C189.812 40.7467 190.558 41.9333 191.652 42.76C192.772 43.5867 194.172 44 195.852 44C197.905 44 199.665 43.3333 201.132 42C202.598 40.6667 203.332 38.7467 203.332 36.24V25.32ZM234.623 25.32V28H229.983V51H226.863V35.64H223.063C218.343 35.64 215.983 37.72 215.983 41.88C215.983 43.8533 216.463 45.4133 217.423 46.56C218.409 47.7067 219.849 48.28 221.743 48.28C222.196 48.28 222.503 48.2667 222.663 48.24V50.92C222.236 50.9733 221.836 51 221.463 51C218.796 51 216.689 50.1467 215.143 48.44C213.596 46.7333 212.823 44.5333 212.823 41.84C212.823 39.1733 213.663 37.0267 215.343 35.4C217.023 33.7467 219.476 32.92 222.703 32.92H226.863V28H209.343V25.32H234.623Z" fill="white"/>
</svg>
