<svg width="326" height="84" viewBox="0 0 326 84" fill="none" xmlns="http://www.w3.org/2000/svg">
<rect width="326" height="84" rx="10" fill="#05A310"/>
<path d="M59.4978 66.84C57.7645 66.84 56.2711 66.5333 55.0178 65.92C53.7911 65.3333 52.8445 64.48 52.1778 63.36C51.5378 62.24 51.2178 60.9067 51.2178 59.36C51.2178 57.4667 51.6978 55.8 52.6578 54.36C53.6445 52.92 54.9511 51.72 56.5778 50.76C58.1511 49.8267 59.9645 49.1333 62.0178 48.68C64.0711 48.2 66.2045 47.96 68.4178 47.96C70.5511 47.96 72.4845 48.1467 74.2178 48.52C75.9778 48.8667 77.5245 49.36 78.8578 50C80.3778 50.72 81.6445 51.5867 82.6578 52.6C83.6711 53.5867 84.4178 54.6533 84.8978 55.8C85.4045 56.9733 85.6578 58.16 85.6578 59.36C85.6578 61.68 84.9245 63.5067 83.4578 64.84C82.0178 66.1733 79.9245 66.84 77.1778 66.84C75.3111 66.84 73.4845 66.5733 71.6978 66.04C69.9378 65.5333 68.2311 64.76 66.5778 63.72C65.1911 63.0533 63.8445 62.1467 62.5378 61C61.2311 59.8533 60.0178 58.56 58.8978 57.12C57.8045 55.7067 56.8711 54.2667 56.0978 52.8C54.8711 50.5867 53.9245 48.36 53.2578 46.12C52.6178 43.8533 52.2978 41.4267 52.2978 38.84C52.2978 36.52 52.6845 34.2533 53.4578 32.04C54.2578 29.8267 55.4578 27.84 57.0578 26.08C58.6845 24.32 60.7245 22.92 63.1778 21.88C65.6578 20.8133 68.5778 20.28 71.9378 20.28C75.2178 20.28 78.0311 20.7333 80.3778 21.64C82.7511 22.5467 84.7111 23.9067 86.2578 25.72C87.2711 26.92 88.1111 28.2533 88.7778 29.72C89.4445 31.1867 89.9378 32.8533 90.2578 34.72C90.6045 36.56 90.7778 38.6933 90.7778 41.12V54H87.3378V43.12C87.3378 40.56 87.1911 38.28 86.8978 36.28C86.6045 34.28 86.1378 32.5333 85.4978 31.04C84.8578 29.52 84.0178 28.2267 82.9778 27.16C81.7245 25.8533 80.2045 24.88 78.4178 24.24C76.6311 23.6 74.4711 23.28 71.9378 23.28C69.6978 23.28 67.5911 23.6267 65.6178 24.32C63.6711 24.9867 61.9511 25.9867 60.4578 27.32C58.9911 28.6533 57.8311 30.2933 56.9778 32.24C56.1511 34.1867 55.7378 36.44 55.7378 39C55.7378 40.6533 55.8578 42.1733 56.0978 43.56C56.3378 44.92 56.6978 46.2267 57.1778 47.48C57.6578 48.7333 58.2311 50.0133 58.8978 51.32C59.5111 52.6267 60.3378 53.96 61.3778 55.32C62.4178 56.68 63.6311 57.96 65.0178 59.16C66.4045 60.36 67.8978 61.3867 69.4978 62.24C70.6445 62.88 71.8045 63.32 72.9778 63.56C74.1778 63.8267 75.4578 63.96 76.8178 63.96C78.7911 63.96 80.1778 63.5067 80.9778 62.6C81.8045 61.72 82.2178 60.5733 82.2178 59.16C82.2178 57.8 81.8045 56.56 80.9778 55.44C80.1511 54.32 79.0845 53.4267 77.7778 52.76C76.4978 52.0933 75.0445 51.6133 73.4178 51.32C71.8178 51 70.1778 50.84 68.4978 50.84C66.1511 50.84 64.0978 51.08 62.3378 51.56C60.6045 52.0133 59.1778 52.6133 58.0578 53.36C56.8845 54.1333 56.0178 55.0133 55.4578 56C54.8978 57.0133 54.6178 58.0533 54.6178 59.12C54.6178 60.5867 55.0311 61.76 55.8578 62.64C56.7111 63.52 58.0845 63.96 59.9778 63.96C61.1511 63.96 62.2711 63.8667 63.3378 63.68C64.4045 63.52 65.4578 63.1467 66.4978 62.56C68.1511 61.8133 69.6711 60.8 71.0578 59.52C72.4445 58.24 73.6311 56.8267 74.6178 55.28C75.6311 53.7333 76.3511 52.2 76.7778 50.68C77.1511 49.5867 77.4178 48.4933 77.5778 47.4C77.7645 46.28 77.8578 45.1467 77.8578 44C77.8578 42.08 77.5911 40.4667 77.0578 39.16C76.5511 37.8267 75.8845 36.7733 75.0578 36C74.2311 35.2267 73.3645 34.6933 72.4578 34.4L70.4578 34.2C70.2711 34.1733 70.0445 34.16 69.7778 34.16C69.5378 34.1333 69.2978 34.12 69.0578 34.12C68.0978 34.12 67.2311 34.2667 66.4578 34.56C65.7111 34.8267 65.1111 35.2533 64.6578 35.84C64.2045 36.4267 63.9778 37.16 63.9778 38.04C63.9778 39.0267 64.2711 39.8533 64.8578 40.52C65.4711 41.1867 66.3245 41.52 67.4178 41.52C68.4045 41.52 69.2045 41.2133 69.8178 40.6C70.4311 39.96 70.7378 39.0667 70.7378 37.92C70.7378 37.0667 70.5778 36.28 70.2578 35.56C69.9378 34.84 69.4311 34.12 68.7378 33.4L71.9378 33.6C72.3111 33.9733 72.6311 34.4133 72.8978 34.92C73.1911 35.4 73.4178 35.9333 73.5778 36.52C73.7645 37.08 73.8578 37.68 73.8578 38.32C73.8578 39.4667 73.6045 40.4933 73.0978 41.4C72.5911 42.28 71.8578 42.9733 70.8978 43.48C69.9378 43.9867 68.7511 44.24 67.3378 44.24C66.1378 44.24 65.0445 43.9867 64.0578 43.48C63.0711 42.9733 62.2845 42.2533 61.6978 41.32C61.1111 40.3867 60.8178 39.3067 60.8178 38.08C60.8178 36.56 61.2045 35.3067 61.9778 34.32C62.7778 33.3067 63.8578 32.56 65.2178 32.08C66.5778 31.6 68.0978 31.36 69.7778 31.36C72.3378 31.36 74.4711 31.88 76.1778 32.92C77.8845 33.96 79.1645 35.4133 80.0178 37.28C80.8978 39.1467 81.3378 41.3333 81.3378 43.84C81.3378 45.0133 81.2178 46.3867 80.9778 47.96C80.7378 49.5333 80.2845 51.08 79.6178 52.6C79.0311 54.2267 78.2578 55.7467 77.2978 57.16C76.3645 58.5733 75.2845 59.8533 74.0578 61C72.8311 62.1467 71.4978 63.1333 70.0578 63.96C68.3511 64.8667 66.6178 65.5733 64.8578 66.08C63.0978 66.5867 61.3111 66.84 59.4978 66.84ZM104.257 54.48C102.844 54.48 101.55 54.1333 100.377 53.44C99.2035 52.7467 98.2702 51.6533 97.5769 50.16C96.9102 48.64 96.5769 46.6933 96.5769 44.32C96.5769 42.16 96.8969 40.2667 97.5369 38.64C98.1769 37.0133 99.0569 35.6667 100.177 34.6C101.297 33.5067 102.577 32.6933 104.017 32.16C105.484 31.6267 107.03 31.36 108.657 31.36C109.937 31.36 111.244 31.5333 112.577 31.88C113.91 32.2267 115.084 32.9067 116.097 33.92C116.844 34.64 117.417 35.4667 117.817 36.4C118.244 37.3333 118.537 38.4133 118.697 39.64C118.884 40.8667 118.977 42.2933 118.977 43.92C118.977 44.8533 119.017 45.7067 119.097 46.48C119.204 47.2533 119.377 47.9467 119.617 48.56C119.857 49.1733 120.19 49.72 120.617 50.2C121.017 50.6267 121.497 50.96 122.057 51.2C122.617 51.4133 123.284 51.52 124.057 51.52C124.937 51.52 125.737 51.3067 126.457 50.88C127.177 50.4533 127.75 49.7333 128.177 48.72C128.604 47.7067 128.817 46.3067 128.817 44.52C128.817 42.76 128.604 41.1333 128.177 39.64C127.75 38.1467 127.15 36.7867 126.377 35.56C125.63 34.3067 124.777 33.16 123.817 32.12L126.937 30C128.59 32.1067 129.897 34.32 130.857 36.64C131.817 38.96 132.297 41.4933 132.297 44.24C132.297 46.5067 131.964 48.4 131.297 49.92C130.657 51.44 129.71 52.5867 128.457 53.36C127.204 54.1067 125.644 54.48 123.777 54.48C122.63 54.48 121.577 54.32 120.617 54C119.684 53.6533 118.87 53.1467 118.177 52.48C117.324 51.68 116.67 50.5733 116.217 49.16C115.764 47.7467 115.524 46.0267 115.497 44C115.497 43.04 115.444 42.0533 115.337 41.04C115.23 40.0267 115.017 39.0667 114.697 38.16C114.377 37.2267 113.87 36.44 113.177 35.8C112.644 35.32 112.004 34.96 111.257 34.72C110.51 34.4533 109.59 34.32 108.497 34.32C106.657 34.32 105.084 34.7733 103.777 35.68C102.47 36.56 101.47 37.7867 100.777 39.36C100.084 40.9067 99.7369 42.6933 99.7369 44.72C99.7369 46.4267 99.9369 47.8 100.337 48.84C100.764 49.88 101.324 50.6267 102.017 51.08C102.737 51.5333 103.537 51.76 104.417 51.76C105.137 51.76 105.75 51.6133 106.257 51.32C106.79 51 107.19 50.5467 107.457 49.96C107.75 49.3733 107.897 48.6533 107.897 47.8C107.897 46.4667 107.55 45.4533 106.857 44.76C106.164 44.04 105.27 43.68 104.177 43.68C103.11 43.68 102.11 43.96 101.177 44.52C100.244 45.08 99.3902 45.7867 98.6169 46.64L98.0169 44.08C98.8169 43.1467 99.8035 42.3867 100.977 41.8C102.177 41.1867 103.43 40.88 104.737 40.88C106.657 40.88 108.204 41.4667 109.377 42.64C110.577 43.8133 111.177 45.4 111.177 47.4C111.177 48.8667 110.897 50.1333 110.337 51.2C109.777 52.2667 108.977 53.08 107.937 53.64C106.924 54.2 105.697 54.48 104.257 54.48ZM114.577 26.88C113.804 26.88 113.164 26.64 112.657 26.16C112.15 25.6533 111.897 25 111.897 24.2C111.897 23.4267 112.15 22.7867 112.657 22.28C113.164 21.7733 113.804 21.52 114.577 21.52C115.35 21.52 115.99 21.7733 116.497 22.28C117.004 22.7867 117.257 23.4267 117.257 24.2C117.257 25 117.004 25.6533 116.497 26.16C115.99 26.64 115.35 26.88 114.577 26.88ZM144.765 54.48C143.351 54.48 142.058 54.1333 140.885 53.44C139.711 52.7467 138.778 51.6533 138.085 50.16C137.418 48.64 137.085 46.6933 137.085 44.32C137.085 42.16 137.405 40.2667 138.045 38.64C138.685 37.0133 139.565 35.6667 140.685 34.6C141.805 33.5067 143.085 32.6933 144.525 32.16C145.991 31.6267 147.538 31.36 149.165 31.36C150.445 31.36 151.751 31.5333 153.085 31.88C154.418 32.2267 155.591 32.9067 156.605 33.92C157.351 34.64 157.925 35.4667 158.325 36.4C158.751 37.3333 159.045 38.4133 159.205 39.64C159.391 40.8667 159.485 42.2933 159.485 43.92C159.485 44.8533 159.525 45.7067 159.605 46.48C159.711 47.2533 159.885 47.9467 160.125 48.56C160.365 49.1733 160.698 49.72 161.125 50.2C161.525 50.6267 162.005 50.96 162.565 51.2C163.125 51.4133 163.791 51.52 164.565 51.52C165.445 51.52 166.245 51.3067 166.965 50.88C167.685 50.4533 168.258 49.7333 168.685 48.72C169.111 47.7067 169.325 46.3067 169.325 44.52C169.325 42.76 169.111 41.1333 168.685 39.64C168.258 38.1467 167.658 36.7867 166.885 35.56C166.138 34.3067 165.285 33.16 164.325 32.12L167.445 30C169.098 32.1067 170.405 34.32 171.365 36.64C172.325 38.96 172.805 41.4933 172.805 44.24C172.805 46.5067 172.471 48.4 171.805 49.92C171.165 51.44 170.218 52.5867 168.965 53.36C167.711 54.1067 166.151 54.48 164.285 54.48C163.138 54.48 162.085 54.32 161.125 54C160.191 53.6533 159.378 53.1467 158.685 52.48C157.831 51.68 157.178 50.5733 156.725 49.16C156.271 47.7467 156.031 46.0267 156.005 44C156.005 43.04 155.951 42.0533 155.845 41.04C155.738 40.0267 155.525 39.0667 155.205 38.16C154.885 37.2267 154.378 36.44 153.685 35.8C153.151 35.32 152.511 34.96 151.765 34.72C151.018 34.4533 150.098 34.32 149.005 34.32C147.165 34.32 145.591 34.7733 144.285 35.68C142.978 36.56 141.978 37.7867 141.285 39.36C140.591 40.9067 140.245 42.6933 140.245 44.72C140.245 46.4267 140.445 47.8 140.845 48.84C141.271 49.88 141.831 50.6267 142.525 51.08C143.245 51.5333 144.045 51.76 144.925 51.76C145.645 51.76 146.258 51.6133 146.765 51.32C147.298 51 147.698 50.5467 147.965 49.96C148.258 49.3733 148.405 48.6533 148.405 47.8C148.405 46.4667 148.058 45.4533 147.365 44.76C146.671 44.04 145.778 43.68 144.685 43.68C143.618 43.68 142.618 43.96 141.685 44.52C140.751 45.08 139.898 45.7867 139.125 46.64L138.525 44.08C139.325 43.1467 140.311 42.3867 141.485 41.8C142.685 41.1867 143.938 40.88 145.245 40.88C147.165 40.88 148.711 41.4667 149.885 42.64C151.085 43.8133 151.685 45.4 151.685 47.4C151.685 48.8667 151.405 50.1333 150.845 51.2C150.285 52.2667 149.485 53.08 148.445 53.64C147.431 54.2 146.205 54.48 144.765 54.48ZM178.833 54V31.84H200.233V34.72H193.433V54H189.993V34.72H182.273V54H178.833ZM209.542 54.48C207.942 54.48 206.502 54.2267 205.222 53.72C203.942 53.2133 202.928 52.4667 202.182 51.48C201.435 50.4933 201.062 49.3067 201.062 47.92C201.062 46.48 201.435 45.24 202.182 44.2C202.955 43.1333 204.168 42.32 205.822 41.76C207.475 41.1733 209.662 40.88 212.382 40.88H218.182C220.502 40.88 222.568 41.1733 224.382 41.76C226.195 42.32 227.608 43.2667 228.622 44.6C229.662 45.9333 230.182 47.76 230.182 50.08C230.182 51.8667 229.848 53.36 229.182 54.56C228.515 55.7867 227.568 56.8533 226.342 57.76C225.462 58.3733 224.462 58.8667 223.342 59.24C222.248 59.6133 220.982 59.8667 219.542 60C218.102 60.16 216.422 60.24 214.502 60.24H209.982C208.862 60.24 207.995 60.32 207.382 60.48C206.768 60.64 206.235 60.8667 205.782 61.16C205.355 61.4533 205.022 61.8667 204.782 62.4C204.542 62.9333 204.422 63.64 204.422 64.52C204.422 64.92 204.435 65.2933 204.462 65.64C204.488 66.0133 204.515 66.36 204.542 66.68L201.262 66.84C201.182 66.36 201.115 65.8267 201.062 65.24C201.008 64.68 200.982 64.1733 200.982 63.72C200.982 62.5467 201.195 61.5467 201.622 60.72C202.048 59.92 202.595 59.2667 203.262 58.76C203.742 58.4133 204.235 58.1333 204.742 57.92C205.275 57.7333 205.875 57.5867 206.542 57.48C207.235 57.4 208.022 57.36 208.902 57.36H213.262C215.635 57.36 217.582 57.2533 219.102 57.04C220.622 56.8533 221.848 56.5467 222.782 56.12C223.715 55.72 224.488 55.1867 225.102 54.52C225.635 53.9333 226.035 53.2533 226.302 52.48C226.595 51.68 226.742 50.7867 226.742 49.8C226.742 48.4933 226.475 47.44 225.942 46.64C225.435 45.84 224.742 45.2267 223.862 44.8C223.008 44.3733 222.048 44.08 220.982 43.92C219.942 43.76 218.875 43.68 217.782 43.68H212.102C210.742 43.68 209.582 43.76 208.622 43.92C207.688 44.08 206.888 44.3467 206.222 44.72C205.635 45.0667 205.195 45.4933 204.902 46C204.635 46.48 204.502 47.1067 204.502 47.88C204.502 49.1067 205.008 50.04 206.022 50.68C207.035 51.2933 208.315 51.6 209.862 51.6C211.035 51.6 212.035 51.4267 212.862 51.08C213.715 50.7067 214.368 50.08 214.822 49.2C215.302 48.2933 215.542 47.0533 215.542 45.48V34.72H208.662V41.92L205.502 42.56V31.84H226.422V34.72H218.942V44.96C218.942 46.7467 218.782 48.1467 218.462 49.16C218.168 50.1733 217.742 51.0267 217.182 51.72C216.355 52.7333 215.288 53.4533 213.982 53.88C212.702 54.28 211.222 54.48 209.542 54.48ZM242.549 54.48C240.949 54.48 239.509 54.2267 238.229 53.72C236.949 53.2133 235.936 52.4667 235.189 51.48C234.443 50.4933 234.069 49.2933 234.069 47.88C234.069 46.4667 234.443 45.24 235.189 44.2C235.963 43.1333 237.176 42.32 238.829 41.76C240.483 41.1733 242.669 40.88 245.389 40.88H251.549C253.336 40.88 254.936 41.12 256.349 41.6C257.789 42.0533 259.016 42.7467 260.029 43.68C261.043 44.5867 261.816 45.72 262.349 47.08C262.883 48.4133 263.149 49.9467 263.149 51.68C263.149 52.8 263.029 53.8533 262.789 54.84C262.549 55.8533 262.216 56.7733 261.789 57.6L260.789 60.04C259.776 61.5067 258.496 62.7467 256.949 63.76C255.403 64.7733 253.603 65.5333 251.549 66.04C249.496 66.5733 247.189 66.84 244.629 66.84H244.109C242.243 66.84 240.509 66.6267 238.909 66.2C237.309 65.8 236.029 65.1467 235.069 64.24C234.109 63.3333 233.629 62.1467 233.629 60.68C233.629 60.0933 233.736 59.5867 233.949 59.16C234.163 58.7333 234.469 58.3867 234.869 58.12C235.243 57.8533 235.683 57.6533 236.189 57.52C236.696 57.4133 237.523 57.36 238.669 57.36H269.509V60.24H259.549H256.909H238.349C238.029 60.24 237.709 60.28 237.389 60.36C237.096 60.4667 236.949 60.7467 236.949 61.2C236.949 61.9733 237.523 62.6133 238.669 63.12C239.843 63.6533 241.616 63.92 243.989 63.92H244.509C246.456 63.92 248.189 63.7733 249.709 63.48C251.229 63.1867 252.576 62.7467 253.749 62.16C254.923 61.6 255.936 60.9067 256.789 60.08L258.189 57.6C258.509 57.04 258.763 56.4533 258.949 55.84C259.163 55.2267 259.323 54.5867 259.429 53.92C259.536 53.2533 259.589 52.5467 259.589 51.8C259.589 49.9333 259.243 48.4 258.549 47.2C257.856 46 256.856 45.12 255.549 44.56C254.269 43.9733 252.749 43.68 250.989 43.68H245.109C243.749 43.68 242.589 43.76 241.629 43.92C240.696 44.08 239.896 44.3467 239.229 44.72C238.643 45.0667 238.203 45.4933 237.909 46C237.643 46.48 237.509 47.1067 237.509 47.88C237.509 49.1067 238.016 50.04 239.029 50.68C240.043 51.2933 241.323 51.6 242.869 51.6C244.043 51.6 245.043 51.4267 245.869 51.08C246.723 50.7067 247.376 50.08 247.829 49.2C248.309 48.2933 248.549 47.0533 248.549 45.48V34.72H241.669V41.92L238.509 42.56V31.84H259.429V34.72H251.949V44.96C251.949 46.7467 251.789 48.1467 251.469 49.16C251.176 50.1733 250.749 51.0267 250.189 51.72C249.363 52.7333 248.296 53.4533 246.989 53.88C245.709 54.28 244.229 54.48 242.549 54.48ZM268.789 60.24V31.84H272.229V60.24H268.789Z" fill="white"/>
</svg>
