<svg width="266" height="54" viewBox="0 0 266 54" fill="none" xmlns="http://www.w3.org/2000/svg">
<rect width="266" height="54" rx="10" fill="#05A310"/>
<path d="M85.7521 30.976H76.5041L74.5201 36H70.9041L79.8001 14.304H82.5201L91.2881 36H87.7361L85.7521 30.976ZM77.6241 28.096H84.6321L81.2721 19.392H81.0161L77.6241 28.096ZM111.868 29.856C111.868 30.88 111.676 31.776 111.292 32.544C110.908 33.312 110.375 33.952 109.692 34.464C109.009 34.976 108.188 35.36 107.228 35.616C106.268 35.872 105.201 36 104.028 36H95.5161V14.368H103.324C108.145 14.368 110.556 16.1813 110.556 19.808C110.556 21.024 110.289 22.0053 109.756 22.752C109.244 23.4987 108.529 24.064 107.612 24.448V24.512C108.913 24.7893 109.948 25.376 110.716 26.272C111.484 27.168 111.868 28.3627 111.868 29.856ZM104.06 33.12C105.447 33.12 106.513 32.8533 107.26 32.32C108.028 31.7867 108.412 30.912 108.412 29.696C108.412 27.4347 106.929 26.304 103.964 26.304H98.8441V33.12H104.06ZM98.8441 23.456H103.516C104.689 23.456 105.596 23.2 106.236 22.688C106.897 22.1547 107.228 21.344 107.228 20.256C107.228 19.1893 106.908 18.4213 106.268 17.952C105.649 17.4827 104.721 17.248 103.484 17.248H98.8441V23.456ZM122.086 33.472C123.729 33.472 124.945 33.1413 125.734 32.48C126.524 31.8187 126.918 30.976 126.918 29.952C126.918 29.376 126.801 28.9067 126.566 28.544C126.332 28.16 126.001 27.84 125.574 27.584C125.148 27.3067 124.636 27.072 124.038 26.88C123.441 26.6667 122.78 26.4533 122.054 26.24C121.35 26.0267 120.625 25.792 119.878 25.536C119.132 25.2587 118.449 24.896 117.83 24.448C117.233 24 116.732 23.4347 116.326 22.752C115.942 22.048 115.75 21.1627 115.75 20.096C115.75 19.072 115.942 18.176 116.326 17.408C116.732 16.64 117.276 16.0107 117.958 15.52C118.641 15.0293 119.452 14.6667 120.39 14.432C121.35 14.176 122.385 14.048 123.494 14.048C124.54 14.048 125.532 14.144 126.47 14.336C127.409 14.5067 128.326 14.7093 129.222 14.944L128.998 17.856C128.038 17.5573 127.1 17.3227 126.182 17.152C125.265 16.9813 124.39 16.896 123.558 16.896C122.086 16.896 120.988 17.152 120.262 17.664C119.558 18.176 119.206 18.912 119.206 19.872C119.206 20.4053 119.302 20.8533 119.494 21.216C119.708 21.5573 120.006 21.856 120.39 22.112C120.774 22.368 121.244 22.592 121.798 22.784C122.374 22.976 123.025 23.1787 123.75 23.392C124.625 23.648 125.457 23.9253 126.246 24.224C127.057 24.5013 127.761 24.864 128.358 25.312C128.977 25.76 129.468 26.3253 129.83 27.008C130.193 27.6907 130.374 28.5547 130.374 29.6C130.374 30.7093 130.172 31.68 129.766 32.512C129.361 33.344 128.796 34.048 128.07 34.624C127.345 35.1787 126.481 35.6053 125.478 35.904C124.476 36.1813 123.388 36.32 122.214 36.32C121.02 36.32 119.804 36.192 118.566 35.936C117.329 35.6587 116.209 35.2853 115.206 34.816L115.59 31.776C116.614 32.3093 117.681 32.7253 118.79 33.024C119.9 33.3227 120.998 33.472 122.086 33.472ZM139.552 36C138.037 36 136.949 35.648 136.288 34.944C135.627 34.24 135.296 33.1627 135.296 31.712V14.368H149.728L148.736 17.248H138.624V24.064H147.488L147.36 26.912H138.624V30.912C138.624 31.4453 138.677 31.8613 138.784 32.16C138.912 32.4587 139.115 32.6827 139.392 32.832C139.669 32.96 140.021 33.0453 140.448 33.088C140.896 33.1093 141.429 33.12 142.048 33.12H149.76L148.768 36H139.552ZM172.971 36H170.667L158.027 20V36H154.891V14.368H157.419L169.835 29.984V14.368H172.971V36ZM194.529 17.248H187.681V36H184.353V17.248H177.057V14.368H195.521L194.529 17.248Z" fill="white"/>
</svg>
