<svg width="567" height="402" viewBox="0 0 567 402" fill="none" xmlns="http://www.w3.org/2000/svg">
<path d="M91.5988 4.30631L110.849 48.2119C111.573 49.8643 112.727 51.292 114.191 52.346C115.655 53.4001 117.375 54.0418 119.172 54.2042L166.067 58.4089C171.373 59.1812 173.489 65.6884 169.642 69.4353L134.317 99.111C131.457 101.514 130.156 105.289 130.942 108.936L141.211 157.003C142.112 162.281 136.577 166.314 131.829 163.811L90.898 139.842C89.3543 138.936 87.5967 138.458 85.8067 138.458C84.0167 138.458 82.2591 138.936 80.7154 139.842L39.7845 163.797C35.0507 166.285 29.5017 162.266 30.4027 156.989L40.6712 108.922C41.4434 105.275 40.1563 101.499 37.296 99.0967L1.957 69.4496C-1.87581 65.717 0.240815 59.1955 5.53237 58.4232L52.427 54.2186C54.2237 54.0561 55.9439 53.4144 57.408 52.3603C58.8721 51.3063 60.0264 49.8786 60.7505 48.2262L80.0003 4.32061C82.3887 -0.484693 89.2248 -0.484692 91.5988 4.30631Z" fill="#FDD835"/>
<path d="M90.1971 50.8437L86.9364 18.4937C86.8077 16.6917 86.4358 13.6025 89.3247 13.6025C91.613 13.6025 92.8572 18.3649 92.8572 18.3649L102.639 44.3365C106.329 54.2188 104.813 57.6083 101.252 59.6105C97.162 61.8987 91.1267 60.111 90.1971 50.8437Z" fill="#FFFF8D"/>
<path d="M130.542 96.236L158.601 74.3404C159.989 73.182 162.491 71.3371 160.489 69.2348C158.902 67.5758 154.611 69.9642 154.611 69.9642L130.056 79.5605C122.733 82.0918 117.871 85.8388 117.442 90.5583C116.884 96.851 122.533 101.699 130.542 96.236Z" fill="#F4B400"/>
<g opacity="0.25">
<path d="M289.294 4.30631L308.544 48.2119C309.268 49.8643 310.422 51.292 311.886 52.346C313.351 53.4001 315.071 54.0418 316.867 54.2042L363.762 58.4089C369.068 59.1812 371.185 65.6884 367.337 69.4353L332.013 99.111C329.152 101.514 327.851 105.289 328.638 108.936L338.906 157.003C339.807 162.281 334.272 166.314 329.524 163.811L288.593 139.842C287.05 138.936 285.292 138.458 283.502 138.458C281.712 138.458 279.954 138.936 278.411 139.842L237.48 163.797C232.746 166.285 227.197 162.266 228.098 156.989L238.366 108.922C239.139 105.275 237.852 101.499 234.991 99.0967L199.652 69.4496C195.82 65.717 197.936 59.1955 203.228 58.4232L250.122 54.2186C251.919 54.0561 253.639 53.4144 255.103 52.3603C256.567 51.3063 257.722 49.8786 258.446 48.2262L277.696 4.32061C280.084 -0.484693 286.92 -0.484692 289.294 4.30631Z" fill="#FDD835"/>
<path d="M287.892 50.8437L284.632 18.4937C284.503 16.6917 284.131 13.6025 287.02 13.6025C289.308 13.6025 290.553 18.3649 290.553 18.3649L300.335 44.3365C304.025 54.2188 302.509 57.6083 298.948 59.6105C294.857 61.8987 288.822 60.111 287.892 50.8437Z" fill="#FFFF8D"/>
<path d="M328.237 96.236L356.297 74.3404C357.684 73.182 360.187 71.3371 358.185 69.2348C356.597 67.5758 352.307 69.9642 352.307 69.9642L327.751 79.5605C320.429 82.0918 315.566 85.8388 315.137 90.5583C314.579 96.851 320.228 101.699 328.237 96.236Z" fill="#F4B400"/>
</g>
<g opacity="0.25">
<path d="M486.99 4.30631L506.24 48.2119C506.964 49.8643 508.118 51.292 509.582 52.346C511.046 53.4001 512.767 54.0418 514.563 54.2042L561.458 58.4089C566.764 59.1812 568.88 65.6884 565.033 69.4353L529.709 99.111C526.848 101.514 525.547 105.289 526.333 108.936L536.602 157.003C537.503 162.281 531.968 166.314 527.22 163.811L486.289 139.842C484.745 138.936 482.988 138.458 481.198 138.458C479.408 138.458 477.65 138.936 476.106 139.842L435.176 163.797C430.442 166.285 424.893 162.266 425.794 156.989L436.062 108.922C436.835 105.275 435.547 101.499 432.687 99.0967L397.348 69.4496C393.515 65.717 395.632 59.1955 400.923 58.4232L447.818 54.2186C449.615 54.0561 451.335 53.4144 452.799 52.3603C454.263 51.3063 455.418 49.8786 456.142 48.2262L475.391 4.32061C477.78 -0.484693 484.616 -0.484692 486.99 4.30631Z" fill="#FDD835"/>
<path d="M485.588 50.8437L482.327 18.4937C482.199 16.6917 481.827 13.6025 484.716 13.6025C487.004 13.6025 488.248 18.3649 488.248 18.3649L498.031 44.3365C501.72 54.2188 500.204 57.6083 496.643 59.6105C492.553 61.8987 486.518 60.111 485.588 50.8437Z" fill="#FFFF8D"/>
<path d="M525.933 96.236L553.993 74.3404C555.38 73.182 557.883 71.3371 555.88 69.2348C554.293 67.5758 550.002 69.9642 550.002 69.9642L525.447 79.5605C518.124 82.0918 513.262 85.8388 512.833 90.5583C512.275 96.851 517.924 101.699 525.933 96.236Z" fill="#F4B400"/>
</g>
<mask id="path-10-outside-1_50_438" maskUnits="userSpaceOnUse" x="162" y="254.572" width="244" height="32" fill="black">
<rect fill="white" x="162" y="254.572" width="244" height="32"/>
<path d="M192.46 264.028V266.172H188.748V284.572H186.252V266.172H180.267V284.572H177.772V276.252H173.356C173.377 276.402 173.388 276.636 173.388 276.956C173.388 278.535 172.822 279.815 171.692 280.796C170.582 281.778 169.036 282.268 167.052 282.268C165.665 282.268 164.364 282.012 163.148 281.5V279.132C164.47 279.794 165.761 280.124 167.02 280.124C168.044 280.124 168.94 279.858 169.708 279.324C170.497 278.77 170.892 277.906 170.892 276.732C170.892 275.815 170.561 275.1 169.9 274.588C169.238 274.076 168.236 273.82 166.891 273.82H165.804V271.58H166.828C167.958 271.58 168.812 271.335 169.388 270.844C169.964 270.354 170.252 269.692 170.252 268.86C170.252 267.111 169.249 266.236 167.244 266.236C166.113 266.236 165.078 266.492 164.14 267.004V264.636C165.057 264.252 166.102 264.06 167.276 264.06C169.025 264.06 170.369 264.466 171.308 265.276C172.268 266.087 172.748 267.186 172.748 268.572C172.748 269.639 172.47 270.524 171.916 271.228C171.382 271.932 170.678 272.402 169.804 272.636C170.892 272.786 171.766 273.266 172.428 274.076H177.772V266.172H174.86V264.028H192.46ZM203.942 272.348V266.172H196.454V272.604C196.454 274.119 196.731 275.218 197.286 275.9C197.841 276.562 198.694 276.892 199.846 276.892C200.977 276.892 201.937 276.487 202.726 275.676C203.537 274.844 203.942 273.735 203.942 272.348ZM210.15 264.028V266.172H206.47V284.572H203.942V276.956C202.961 278.258 201.542 278.919 199.686 278.94C195.846 278.94 193.926 276.818 193.926 272.572V266.172H191.046V264.028H210.15ZM234.814 266.172H223.038V270.748C224.019 269.724 225.267 269.212 226.782 269.212C228.531 269.212 229.95 269.746 231.038 270.812C232.126 271.879 232.67 273.276 232.67 275.004C232.67 276.86 232.062 278.343 230.846 279.452C229.63 280.562 228.115 281.116 226.302 281.116C226.067 281.116 225.822 281.095 225.566 281.052V278.908C225.779 278.951 225.992 278.972 226.206 278.972C227.336 278.972 228.275 278.62 229.022 277.916C229.768 277.212 230.142 276.242 230.142 275.004C230.142 273.916 229.8 273.031 229.118 272.348C228.456 271.644 227.582 271.292 226.494 271.292C225.555 271.292 224.744 271.623 224.062 272.284C223.379 272.924 223.038 273.735 223.038 274.716V284.572H220.51V279.964C219.571 280.946 218.334 281.436 216.798 281.436C215.048 281.436 213.63 280.914 212.542 279.868C211.454 278.802 210.91 277.404 210.91 275.676C210.91 273.82 211.518 272.338 212.734 271.228C213.95 270.098 215.454 269.532 217.246 269.532C217.587 269.532 217.832 269.564 217.982 269.628V271.74C217.875 271.719 217.672 271.708 217.374 271.708C216.222 271.708 215.272 272.06 214.526 272.764C213.779 273.468 213.406 274.428 213.406 275.644C213.406 276.732 213.747 277.628 214.43 278.332C215.112 279.036 215.998 279.388 217.086 279.388C218.024 279.388 218.824 279.058 219.486 278.396C220.168 277.735 220.51 276.914 220.51 275.932V266.172H208.733V264.028H234.814V266.172ZM233.421 266.172V264.028H243.341V266.172H239.629V284.572H237.133V266.172H233.421ZM249.733 264.028H268.742V266.172H264.902V271.516H259.27C257.819 271.516 256.678 271.89 255.846 272.636C255.014 273.383 254.598 274.428 254.598 275.772C254.598 277.159 254.971 278.247 255.718 279.036C256.464 279.826 257.467 280.22 258.726 280.22C259.984 280.22 260.987 279.868 261.734 279.164C262.502 278.46 262.907 277.554 262.95 276.444H265.35V284.892H262.854V280.636C261.979 281.746 260.539 282.3 258.534 282.3C256.55 282.3 254.95 281.682 253.734 280.444C252.518 279.207 251.91 277.682 251.91 275.868C251.91 273.97 252.539 272.423 253.798 271.228C255.056 270.012 256.816 269.404 259.078 269.404H262.406V266.172H249.733V264.028ZM262.37 260.732C262.029 260.412 261.858 260.007 261.858 259.516C261.858 259.026 262.029 258.61 262.37 258.268C262.69 257.927 263.096 257.756 263.586 257.756C264.077 257.756 264.493 257.927 264.834 258.268C265.176 258.61 265.346 259.026 265.346 259.516C265.346 260.007 265.176 260.412 264.834 260.732C264.493 261.052 264.077 261.212 263.586 261.212C263.096 261.212 262.69 261.052 262.37 260.732ZM287.551 264.028V266.172H283.839V284.572H281.343V272.284H278.303C274.527 272.284 272.639 273.948 272.639 277.276C272.639 278.855 273.023 280.103 273.791 281.02C274.581 281.938 275.733 282.396 277.247 282.396C277.61 282.396 277.855 282.386 277.983 282.364V284.508C277.642 284.551 277.322 284.572 277.023 284.572C274.89 284.572 273.205 283.89 271.967 282.524C270.73 281.159 270.111 279.399 270.111 277.244C270.111 275.111 270.783 273.394 272.127 272.092C273.471 270.77 275.434 270.108 278.015 270.108H281.343V266.172H267.327V264.028H287.551ZM319.841 274.556V266.172H303.265V270.748C303.265 272.092 302.977 273.148 302.401 273.916H308.673C309.014 272.572 309.729 271.495 310.817 270.684C311.926 269.852 313.26 269.436 314.817 269.436C315.606 269.436 316.278 269.522 316.833 269.692V271.9C316.3 271.708 315.67 271.612 314.945 271.612C313.814 271.612 312.876 271.975 312.129 272.7C311.382 273.404 311.009 274.343 311.009 275.516C311.009 276.754 311.382 277.746 312.129 278.492C312.897 279.239 313.846 279.612 314.977 279.612C316.47 279.612 317.654 279.111 318.529 278.108C319.404 277.106 319.841 275.922 319.841 274.556ZM326.049 264.028V266.172H322.337V284.572H319.841V279.26C318.732 280.86 317.025 281.66 314.721 281.66C313.1 281.66 311.692 281.159 310.497 280.156C309.302 279.154 308.641 277.799 308.513 276.092H304.097C301.729 276.092 299.916 275.996 298.657 275.804L304.545 284.572H301.505L295.521 275.548V273.564H297.633C298.849 273.564 299.67 273.33 300.097 272.86C300.545 272.37 300.769 271.602 300.769 270.556V266.172H293.921V264.028H326.049ZM324.64 266.172V264.028H334.56V266.172H330.848V284.572H328.352V266.172H324.64ZM373.556 273.884V266.172H367.572C368.105 266.983 368.372 267.975 368.372 269.148C368.372 271.687 366.782 273.436 363.604 274.396C363.881 275.57 364.468 276.54 365.364 277.308C366.26 278.055 367.337 278.428 368.596 278.428C370.068 278.428 371.262 278.023 372.18 277.212C373.097 276.38 373.556 275.271 373.556 273.884ZM360.66 264.028H379.732V266.172H376.02V284.572H373.556V278.364C372.468 279.836 370.74 280.572 368.372 280.572C366.153 280.572 364.34 279.783 362.932 278.204C360.884 280.146 358.441 281.116 355.604 281.116C353.79 281.116 352.158 280.679 350.708 279.804C349.257 278.908 348.254 277.564 347.7 275.772C346.633 275.986 345.342 276.092 343.828 276.092H343.316C340.948 276.092 339.134 275.996 337.876 275.804L343.764 284.572H340.724L334.74 275.548V273.564H336.852C338.068 273.564 338.889 273.33 339.316 272.86C339.764 272.37 339.988 271.602 339.988 270.556V266.172H333.14V264.028H346.676V266.172H342.484V270.748C342.484 272.092 342.196 273.148 341.62 273.916H343.796C344.969 273.916 346.196 273.81 347.476 273.596C348.777 273.383 350.036 273.063 351.252 272.636C352.468 272.21 353.47 271.634 354.26 270.908C355.049 270.162 355.444 269.319 355.444 268.38C355.444 267.655 355.262 267.068 354.9 266.62C354.558 266.172 354.025 265.948 353.3 265.948C352.596 265.948 352.062 266.162 351.7 266.588C351.337 266.994 351.156 267.516 351.156 268.156C351.156 268.818 351.294 269.415 351.572 269.948H349.108C348.83 269.372 348.692 268.69 348.692 267.9C348.692 266.791 349.118 265.842 349.972 265.052C350.825 264.242 351.934 263.836 353.3 263.836C354.729 263.836 355.849 264.274 356.66 265.148C357.47 266.002 357.876 267.068 357.876 268.348C357.876 271.676 355.305 273.938 350.164 275.132C350.484 276.327 351.134 277.266 352.116 277.948C353.097 278.631 354.27 278.972 355.636 278.972C358.004 278.972 360.041 278.14 361.748 276.476C361.214 275.474 360.852 274.258 360.66 272.828C362.366 272.572 363.657 272.103 364.532 271.42C365.428 270.738 365.876 269.938 365.876 269.02C365.876 267.911 365.545 266.962 364.884 266.172H360.66V264.028ZM400.924 271.196H393.244C392.049 271.196 391.452 271.676 391.452 272.636C391.452 273.191 391.601 273.692 391.9 274.14C392.198 274.567 392.55 274.876 392.956 275.068C393.852 274.748 394.886 274.588 396.06 274.588C397.809 274.588 399.153 275.015 400.092 275.868C401.03 276.7 401.5 277.703 401.5 278.876C401.5 279.58 401.382 280.178 401.148 280.668H398.684C398.982 280.263 399.132 279.708 399.132 279.004C399.132 278.322 398.865 277.767 398.332 277.34C397.82 276.892 397.052 276.668 396.028 276.668C394.62 276.668 393.521 276.978 392.732 277.596C391.942 278.215 391.548 278.962 391.548 279.836C391.548 280.903 392.006 281.778 392.924 282.46C393.841 283.122 395.238 283.452 397.116 283.452C398.417 283.452 399.75 283.26 401.116 282.876V285.02C399.644 285.383 398.246 285.564 396.924 285.564C394.406 285.564 392.465 284.988 391.1 283.836C389.734 282.684 389.052 281.34 389.052 279.804C389.052 278.29 389.724 277.031 391.068 276.028C389.638 275.09 388.924 273.852 388.924 272.316C388.924 271.292 389.286 270.503 390.012 269.948C390.737 269.394 391.676 269.116 392.828 269.116H398.46V266.172H386.14V264.028H404.54V266.172H400.924V271.196ZM397.761 258.844L401.249 264.252H397.889C396.695 263.356 395.692 262.706 394.881 262.3C394.071 261.895 393.207 261.692 392.289 261.692C391.628 261.692 391.009 261.788 390.433 261.98V259.74C390.945 259.57 391.521 259.484 392.161 259.484C393.057 259.484 393.857 259.666 394.561 260.028C395.265 260.37 396.087 260.946 397.025 261.756L399.009 263.516L396.065 259.74C395.127 258.546 393.868 257.948 392.289 257.948C391.649 257.948 391.031 258.023 390.433 258.172V255.996C390.817 255.868 391.468 255.804 392.385 255.804C394.668 255.804 396.46 256.818 397.761 258.844Z"/>
</mask>
<path d="M192.46 264.028V266.172H188.748V284.572H186.252V266.172H180.267V284.572H177.772V276.252H173.356C173.377 276.402 173.388 276.636 173.388 276.956C173.388 278.535 172.822 279.815 171.692 280.796C170.582 281.778 169.036 282.268 167.052 282.268C165.665 282.268 164.364 282.012 163.148 281.5V279.132C164.47 279.794 165.761 280.124 167.02 280.124C168.044 280.124 168.94 279.858 169.708 279.324C170.497 278.77 170.892 277.906 170.892 276.732C170.892 275.815 170.561 275.1 169.9 274.588C169.238 274.076 168.236 273.82 166.891 273.82H165.804V271.58H166.828C167.958 271.58 168.812 271.335 169.388 270.844C169.964 270.354 170.252 269.692 170.252 268.86C170.252 267.111 169.249 266.236 167.244 266.236C166.113 266.236 165.078 266.492 164.14 267.004V264.636C165.057 264.252 166.102 264.06 167.276 264.06C169.025 264.06 170.369 264.466 171.308 265.276C172.268 266.087 172.748 267.186 172.748 268.572C172.748 269.639 172.47 270.524 171.916 271.228C171.382 271.932 170.678 272.402 169.804 272.636C170.892 272.786 171.766 273.266 172.428 274.076H177.772V266.172H174.86V264.028H192.46ZM203.942 272.348V266.172H196.454V272.604C196.454 274.119 196.731 275.218 197.286 275.9C197.841 276.562 198.694 276.892 199.846 276.892C200.977 276.892 201.937 276.487 202.726 275.676C203.537 274.844 203.942 273.735 203.942 272.348ZM210.15 264.028V266.172H206.47V284.572H203.942V276.956C202.961 278.258 201.542 278.919 199.686 278.94C195.846 278.94 193.926 276.818 193.926 272.572V266.172H191.046V264.028H210.15ZM234.814 266.172H223.038V270.748C224.019 269.724 225.267 269.212 226.782 269.212C228.531 269.212 229.95 269.746 231.038 270.812C232.126 271.879 232.67 273.276 232.67 275.004C232.67 276.86 232.062 278.343 230.846 279.452C229.63 280.562 228.115 281.116 226.302 281.116C226.067 281.116 225.822 281.095 225.566 281.052V278.908C225.779 278.951 225.992 278.972 226.206 278.972C227.336 278.972 228.275 278.62 229.022 277.916C229.768 277.212 230.142 276.242 230.142 275.004C230.142 273.916 229.8 273.031 229.118 272.348C228.456 271.644 227.582 271.292 226.494 271.292C225.555 271.292 224.744 271.623 224.062 272.284C223.379 272.924 223.038 273.735 223.038 274.716V284.572H220.51V279.964C219.571 280.946 218.334 281.436 216.798 281.436C215.048 281.436 213.63 280.914 212.542 279.868C211.454 278.802 210.91 277.404 210.91 275.676C210.91 273.82 211.518 272.338 212.734 271.228C213.95 270.098 215.454 269.532 217.246 269.532C217.587 269.532 217.832 269.564 217.982 269.628V271.74C217.875 271.719 217.672 271.708 217.374 271.708C216.222 271.708 215.272 272.06 214.526 272.764C213.779 273.468 213.406 274.428 213.406 275.644C213.406 276.732 213.747 277.628 214.43 278.332C215.112 279.036 215.998 279.388 217.086 279.388C218.024 279.388 218.824 279.058 219.486 278.396C220.168 277.735 220.51 276.914 220.51 275.932V266.172H208.733V264.028H234.814V266.172ZM233.421 266.172V264.028H243.341V266.172H239.629V284.572H237.133V266.172H233.421ZM249.733 264.028H268.742V266.172H264.902V271.516H259.27C257.819 271.516 256.678 271.89 255.846 272.636C255.014 273.383 254.598 274.428 254.598 275.772C254.598 277.159 254.971 278.247 255.718 279.036C256.464 279.826 257.467 280.22 258.726 280.22C259.984 280.22 260.987 279.868 261.734 279.164C262.502 278.46 262.907 277.554 262.95 276.444H265.35V284.892H262.854V280.636C261.979 281.746 260.539 282.3 258.534 282.3C256.55 282.3 254.95 281.682 253.734 280.444C252.518 279.207 251.91 277.682 251.91 275.868C251.91 273.97 252.539 272.423 253.798 271.228C255.056 270.012 256.816 269.404 259.078 269.404H262.406V266.172H249.733V264.028ZM262.37 260.732C262.029 260.412 261.858 260.007 261.858 259.516C261.858 259.026 262.029 258.61 262.37 258.268C262.69 257.927 263.096 257.756 263.586 257.756C264.077 257.756 264.493 257.927 264.834 258.268C265.176 258.61 265.346 259.026 265.346 259.516C265.346 260.007 265.176 260.412 264.834 260.732C264.493 261.052 264.077 261.212 263.586 261.212C263.096 261.212 262.69 261.052 262.37 260.732ZM287.551 264.028V266.172H283.839V284.572H281.343V272.284H278.303C274.527 272.284 272.639 273.948 272.639 277.276C272.639 278.855 273.023 280.103 273.791 281.02C274.581 281.938 275.733 282.396 277.247 282.396C277.61 282.396 277.855 282.386 277.983 282.364V284.508C277.642 284.551 277.322 284.572 277.023 284.572C274.89 284.572 273.205 283.89 271.967 282.524C270.73 281.159 270.111 279.399 270.111 277.244C270.111 275.111 270.783 273.394 272.127 272.092C273.471 270.77 275.434 270.108 278.015 270.108H281.343V266.172H267.327V264.028H287.551ZM319.841 274.556V266.172H303.265V270.748C303.265 272.092 302.977 273.148 302.401 273.916H308.673C309.014 272.572 309.729 271.495 310.817 270.684C311.926 269.852 313.26 269.436 314.817 269.436C315.606 269.436 316.278 269.522 316.833 269.692V271.9C316.3 271.708 315.67 271.612 314.945 271.612C313.814 271.612 312.876 271.975 312.129 272.7C311.382 273.404 311.009 274.343 311.009 275.516C311.009 276.754 311.382 277.746 312.129 278.492C312.897 279.239 313.846 279.612 314.977 279.612C316.47 279.612 317.654 279.111 318.529 278.108C319.404 277.106 319.841 275.922 319.841 274.556ZM326.049 264.028V266.172H322.337V284.572H319.841V279.26C318.732 280.86 317.025 281.66 314.721 281.66C313.1 281.66 311.692 281.159 310.497 280.156C309.302 279.154 308.641 277.799 308.513 276.092H304.097C301.729 276.092 299.916 275.996 298.657 275.804L304.545 284.572H301.505L295.521 275.548V273.564H297.633C298.849 273.564 299.67 273.33 300.097 272.86C300.545 272.37 300.769 271.602 300.769 270.556V266.172H293.921V264.028H326.049ZM324.64 266.172V264.028H334.56V266.172H330.848V284.572H328.352V266.172H324.64ZM373.556 273.884V266.172H367.572C368.105 266.983 368.372 267.975 368.372 269.148C368.372 271.687 366.782 273.436 363.604 274.396C363.881 275.57 364.468 276.54 365.364 277.308C366.26 278.055 367.337 278.428 368.596 278.428C370.068 278.428 371.262 278.023 372.18 277.212C373.097 276.38 373.556 275.271 373.556 273.884ZM360.66 264.028H379.732V266.172H376.02V284.572H373.556V278.364C372.468 279.836 370.74 280.572 368.372 280.572C366.153 280.572 364.34 279.783 362.932 278.204C360.884 280.146 358.441 281.116 355.604 281.116C353.79 281.116 352.158 280.679 350.708 279.804C349.257 278.908 348.254 277.564 347.7 275.772C346.633 275.986 345.342 276.092 343.828 276.092H343.316C340.948 276.092 339.134 275.996 337.876 275.804L343.764 284.572H340.724L334.74 275.548V273.564H336.852C338.068 273.564 338.889 273.33 339.316 272.86C339.764 272.37 339.988 271.602 339.988 270.556V266.172H333.14V264.028H346.676V266.172H342.484V270.748C342.484 272.092 342.196 273.148 341.62 273.916H343.796C344.969 273.916 346.196 273.81 347.476 273.596C348.777 273.383 350.036 273.063 351.252 272.636C352.468 272.21 353.47 271.634 354.26 270.908C355.049 270.162 355.444 269.319 355.444 268.38C355.444 267.655 355.262 267.068 354.9 266.62C354.558 266.172 354.025 265.948 353.3 265.948C352.596 265.948 352.062 266.162 351.7 266.588C351.337 266.994 351.156 267.516 351.156 268.156C351.156 268.818 351.294 269.415 351.572 269.948H349.108C348.83 269.372 348.692 268.69 348.692 267.9C348.692 266.791 349.118 265.842 349.972 265.052C350.825 264.242 351.934 263.836 353.3 263.836C354.729 263.836 355.849 264.274 356.66 265.148C357.47 266.002 357.876 267.068 357.876 268.348C357.876 271.676 355.305 273.938 350.164 275.132C350.484 276.327 351.134 277.266 352.116 277.948C353.097 278.631 354.27 278.972 355.636 278.972C358.004 278.972 360.041 278.14 361.748 276.476C361.214 275.474 360.852 274.258 360.66 272.828C362.366 272.572 363.657 272.103 364.532 271.42C365.428 270.738 365.876 269.938 365.876 269.02C365.876 267.911 365.545 266.962 364.884 266.172H360.66V264.028ZM400.924 271.196H393.244C392.049 271.196 391.452 271.676 391.452 272.636C391.452 273.191 391.601 273.692 391.9 274.14C392.198 274.567 392.55 274.876 392.956 275.068C393.852 274.748 394.886 274.588 396.06 274.588C397.809 274.588 399.153 275.015 400.092 275.868C401.03 276.7 401.5 277.703 401.5 278.876C401.5 279.58 401.382 280.178 401.148 280.668H398.684C398.982 280.263 399.132 279.708 399.132 279.004C399.132 278.322 398.865 277.767 398.332 277.34C397.82 276.892 397.052 276.668 396.028 276.668C394.62 276.668 393.521 276.978 392.732 277.596C391.942 278.215 391.548 278.962 391.548 279.836C391.548 280.903 392.006 281.778 392.924 282.46C393.841 283.122 395.238 283.452 397.116 283.452C398.417 283.452 399.75 283.26 401.116 282.876V285.02C399.644 285.383 398.246 285.564 396.924 285.564C394.406 285.564 392.465 284.988 391.1 283.836C389.734 282.684 389.052 281.34 389.052 279.804C389.052 278.29 389.724 277.031 391.068 276.028C389.638 275.09 388.924 273.852 388.924 272.316C388.924 271.292 389.286 270.503 390.012 269.948C390.737 269.394 391.676 269.116 392.828 269.116H398.46V266.172H386.14V264.028H404.54V266.172H400.924V271.196ZM397.761 258.844L401.249 264.252H397.889C396.695 263.356 395.692 262.706 394.881 262.3C394.071 261.895 393.207 261.692 392.289 261.692C391.628 261.692 391.009 261.788 390.433 261.98V259.74C390.945 259.57 391.521 259.484 392.161 259.484C393.057 259.484 393.857 259.666 394.561 260.028C395.265 260.37 396.087 260.946 397.025 261.756L399.009 263.516L396.065 259.74C395.127 258.546 393.868 257.948 392.289 257.948C391.649 257.948 391.031 258.023 390.433 258.172V255.996C390.817 255.868 391.468 255.804 392.385 255.804C394.668 255.804 396.46 256.818 397.761 258.844Z" fill="#0186C6"/>
<path d="M192.46 264.028H192.96V263.528H192.46V264.028ZM192.46 266.172V266.672H192.96V266.172H192.46ZM188.748 266.172V265.672H188.248V266.172H188.748ZM188.748 284.572V285.072H189.248V284.572H188.748ZM186.252 284.572H185.752V285.072H186.252V284.572ZM186.252 266.172H186.752V265.672H186.252V266.172ZM180.267 266.172V265.672H179.767V266.172H180.267ZM180.267 284.572V285.072H180.767V284.572H180.267ZM177.772 284.572H177.272V285.072H177.772V284.572ZM177.772 276.252H178.272V275.752H177.772V276.252ZM173.356 276.252V275.752H172.779L172.861 276.323L173.356 276.252ZM171.692 280.796L171.364 280.419L171.36 280.422L171.692 280.796ZM163.148 281.5H162.648V281.832L162.953 281.961L163.148 281.5ZM163.148 279.132L163.371 278.685L162.648 278.323V279.132H163.148ZM169.708 279.324L169.993 279.735L169.995 279.733L169.708 279.324ZM169.9 274.588L169.593 274.984L169.593 274.984L169.9 274.588ZM165.804 273.82H165.304V274.32H165.804V273.82ZM165.804 271.58V271.08H165.304V271.58H165.804ZM164.14 267.004H163.64V267.847L164.379 267.443L164.14 267.004ZM164.14 264.636L163.946 264.175L163.64 264.304V264.636H164.14ZM171.308 265.276L170.981 265.655L170.985 265.658L171.308 265.276ZM171.916 271.228L171.523 270.919L171.517 270.926L171.916 271.228ZM169.804 272.636L169.674 272.153L169.736 273.132L169.804 272.636ZM172.428 274.076L172.04 274.392L172.19 274.576H172.428V274.076ZM177.772 274.076V274.576H178.272V274.076H177.772ZM177.772 266.172H178.272V265.672H177.772V266.172ZM174.86 266.172H174.36V266.672H174.86V266.172ZM174.86 264.028V263.528H174.36V264.028H174.86ZM191.96 264.028V266.172H192.96V264.028H191.96ZM192.46 265.672H188.748V266.672H192.46V265.672ZM188.248 266.172V284.572H189.248V266.172H188.248ZM188.748 284.072H186.252V285.072H188.748V284.072ZM186.752 284.572V266.172H185.752V284.572H186.752ZM186.252 265.672H180.267V266.672H186.252V265.672ZM179.767 266.172V284.572H180.767V266.172H179.767ZM180.267 284.072H177.772V285.072H180.267V284.072ZM178.272 284.572V276.252H177.272V284.572H178.272ZM177.772 275.752H173.356V276.752H177.772V275.752ZM172.861 276.323C172.877 276.435 172.888 276.64 172.888 276.956H173.888C173.888 276.633 173.877 276.368 173.85 276.182L172.861 276.323ZM172.888 276.956C172.888 278.399 172.378 279.538 171.364 280.419L172.019 281.174C173.266 280.092 173.888 278.671 173.888 276.956H172.888ZM171.36 280.422C170.369 281.298 168.955 281.768 167.052 281.768V282.768C169.116 282.768 170.795 282.257 172.023 281.171L171.36 280.422ZM167.052 281.768C165.728 281.768 164.493 281.524 163.342 281.039L162.953 281.961C164.234 282.5 165.602 282.768 167.052 282.768V281.768ZM163.648 281.5V279.132H162.648V281.5H163.648ZM162.924 279.579C164.304 280.269 165.671 280.624 167.02 280.624V279.624C165.851 279.624 164.636 279.318 163.371 278.685L162.924 279.579ZM167.02 280.624C168.135 280.624 169.133 280.332 169.993 279.735L169.422 278.914C168.746 279.383 167.952 279.624 167.02 279.624V280.624ZM169.995 279.733C170.947 279.064 171.392 278.029 171.392 276.732H170.392C170.392 277.783 170.047 278.475 169.42 278.915L169.995 279.733ZM171.392 276.732C171.392 275.677 171.002 274.81 170.206 274.193L169.593 274.984C170.119 275.391 170.392 275.952 170.392 276.732H171.392ZM170.206 274.193C169.418 273.583 168.284 273.32 166.891 273.32V274.32C168.187 274.32 169.059 274.57 169.593 274.984L170.206 274.193ZM166.891 273.32H165.804V274.32H166.891V273.32ZM166.304 273.82V271.58H165.304V273.82H166.304ZM165.804 272.08H166.828V271.08H165.804V272.08ZM166.828 272.08C168.02 272.08 169.01 271.823 169.712 271.225L169.063 270.464C168.613 270.847 167.896 271.08 166.828 271.08V272.08ZM169.712 271.225C170.411 270.629 170.752 269.822 170.752 268.86H169.752C169.752 269.562 169.516 270.078 169.063 270.464L169.712 271.225ZM170.752 268.86C170.752 267.889 170.47 267.075 169.828 266.515C169.199 265.967 168.308 265.736 167.244 265.736V266.736C168.185 266.736 168.797 266.943 169.171 267.269C169.532 267.584 169.752 268.082 169.752 268.86H170.752ZM167.244 265.736C166.034 265.736 164.916 266.011 163.9 266.565L164.379 267.443C165.24 266.974 166.192 266.736 167.244 266.736V265.736ZM164.64 267.004V264.636H163.64V267.004H164.64ZM164.333 265.097C165.179 264.743 166.157 264.56 167.276 264.56V263.56C166.048 263.56 164.935 263.761 163.946 264.175L164.333 265.097ZM167.276 264.56C168.954 264.56 170.164 264.949 170.981 265.655L171.634 264.898C170.574 263.982 169.096 263.56 167.276 263.56V264.56ZM170.985 265.658C171.82 266.363 172.248 267.316 172.248 268.572H173.248C173.248 267.056 172.715 265.81 171.63 264.894L170.985 265.658ZM172.248 268.572C172.248 269.549 171.995 270.319 171.523 270.919L172.308 271.538C172.945 270.73 173.248 269.729 173.248 268.572H172.248ZM171.517 270.926C171.053 271.539 170.444 271.947 169.674 272.153L169.933 273.119C170.912 272.857 171.712 272.325 172.314 271.53L171.517 270.926ZM169.736 273.132C170.705 273.265 171.463 273.685 172.04 274.392L172.815 273.76C172.069 272.846 171.078 272.307 169.871 272.141L169.736 273.132ZM172.428 274.576H177.772V273.576H172.428V274.576ZM178.272 274.076V266.172H177.272V274.076H178.272ZM177.772 265.672H174.86V266.672H177.772V265.672ZM175.36 266.172V264.028H174.36V266.172H175.36ZM174.86 264.528H192.46V263.528H174.86V264.528ZM203.942 266.172H204.442V265.672H203.942V266.172ZM196.454 266.172V265.672H195.954V266.172H196.454ZM197.286 275.9L196.898 276.216L196.903 276.222L197.286 275.9ZM202.726 275.676L202.368 275.327L202.368 275.327L202.726 275.676ZM210.15 264.028H210.65V263.528H210.15V264.028ZM210.15 266.172V266.672H210.65V266.172H210.15ZM206.47 266.172V265.672H205.97V266.172H206.47ZM206.47 284.572V285.072H206.97V284.572H206.47ZM203.942 284.572H203.442V285.072H203.942V284.572ZM203.942 276.956H204.442V275.463L203.543 276.655L203.942 276.956ZM199.686 278.94V279.44L199.692 279.44L199.686 278.94ZM193.926 266.172H194.426V265.672H193.926V266.172ZM191.046 266.172H190.546V266.672H191.046V266.172ZM191.046 264.028V263.528H190.546V264.028H191.046ZM204.442 272.348V266.172H203.442V272.348H204.442ZM203.942 265.672H196.454V266.672H203.942V265.672ZM195.954 266.172V272.604H196.954V266.172H195.954ZM195.954 272.604C195.954 274.159 196.235 275.399 196.898 276.216L197.674 275.585C197.228 275.036 196.954 274.079 196.954 272.604H195.954ZM196.903 276.222C197.582 277.031 198.599 277.392 199.846 277.392V276.392C198.789 276.392 198.099 276.092 197.669 275.579L196.903 276.222ZM199.846 277.392C201.112 277.392 202.201 276.932 203.084 276.025L202.368 275.327C201.672 276.042 200.842 276.392 199.846 276.392V277.392ZM203.084 276.025C204.003 275.082 204.442 273.838 204.442 272.348H203.442C203.442 273.632 203.07 274.606 202.368 275.327L203.084 276.025ZM209.65 264.028V266.172H210.65V264.028H209.65ZM210.15 265.672H206.47V266.672H210.15V265.672ZM205.97 266.172V284.572H206.97V266.172H205.97ZM206.47 284.072H203.942V285.072H206.47V284.072ZM204.442 284.572V276.956H203.442V284.572H204.442ZM203.543 276.655C202.669 277.815 201.406 278.42 199.68 278.44L199.692 279.44C201.678 279.417 203.253 278.701 204.341 277.257L203.543 276.655ZM199.686 278.44C197.857 278.44 196.573 277.937 195.737 277.013C194.892 276.079 194.426 274.63 194.426 272.572H193.426C193.426 274.76 193.92 276.495 194.995 277.684C196.079 278.882 197.675 279.44 199.686 279.44V278.44ZM194.426 272.572V266.172H193.426V272.572H194.426ZM193.926 265.672H191.046V266.672H193.926V265.672ZM191.546 266.172V264.028H190.546V266.172H191.546ZM191.046 264.528H210.15V263.528H191.046V264.528ZM234.814 266.172V266.672H235.314V266.172H234.814ZM223.038 266.172V265.672H222.538V266.172H223.038ZM223.038 270.748H222.538V271.993L223.398 271.094L223.038 270.748ZM231.038 270.812L230.687 271.169L230.687 271.169L231.038 270.812ZM230.846 279.452L230.509 279.083L230.509 279.083L230.846 279.452ZM225.566 281.052H225.066V281.476L225.483 281.545L225.566 281.052ZM225.566 278.908L225.664 278.418L225.066 278.298V278.908H225.566ZM229.022 277.916L229.365 278.28L229.365 278.28L229.022 277.916ZM229.118 272.348L228.753 272.691L228.758 272.696L228.764 272.702L229.118 272.348ZM224.062 272.284L224.404 272.649L224.409 272.643L224.062 272.284ZM223.038 284.572V285.072H223.538V284.572H223.038ZM220.51 284.572H220.01V285.072H220.51V284.572ZM220.51 279.964H221.01V278.718L220.148 279.619L220.51 279.964ZM212.542 279.868L212.191 280.225L212.195 280.229L212.542 279.868ZM212.734 271.228L213.07 271.598L213.074 271.594L212.734 271.228ZM217.982 269.628H218.482V269.299L218.178 269.169L217.982 269.628ZM217.982 271.74L217.883 272.231L218.482 272.35V271.74H217.982ZM214.526 272.764L214.869 273.128L214.869 273.128L214.526 272.764ZM214.43 278.332L214.071 278.68L214.071 278.68L214.43 278.332ZM219.486 278.396L219.138 278.037L219.132 278.043L219.486 278.396ZM220.51 266.172H221.01V265.672H220.51V266.172ZM208.733 266.172H208.233V266.672H208.733V266.172ZM208.733 264.028V263.528H208.233V264.028H208.733ZM234.814 264.028H235.314V263.528H234.814V264.028ZM234.814 265.672H223.038V266.672H234.814V265.672ZM222.538 266.172V270.748H223.538V266.172H222.538ZM223.398 271.094C224.279 270.176 225.393 269.712 226.782 269.712V268.712C225.141 268.712 223.759 269.273 222.677 270.402L223.398 271.094ZM226.782 269.712C228.421 269.712 229.707 270.208 230.687 271.169L231.388 270.455C230.192 269.283 228.641 268.712 226.782 268.712V269.712ZM230.687 271.169C231.666 272.129 232.17 273.391 232.17 275.004H233.17C233.17 273.162 232.585 271.629 231.388 270.455L230.687 271.169ZM232.17 275.004C232.17 276.74 231.607 278.081 230.509 279.083L231.182 279.822C232.516 278.605 233.17 276.981 233.17 275.004H232.17ZM230.509 279.083C229.394 280.099 228.004 280.616 226.302 280.616V281.616C228.226 281.616 229.865 281.024 231.182 279.822L230.509 279.083ZM226.302 280.616C226.097 280.616 225.879 280.598 225.648 280.559L225.483 281.545C225.764 281.592 226.037 281.616 226.302 281.616V280.616ZM226.066 281.052V278.908H225.066V281.052H226.066ZM225.467 279.399C225.712 279.448 225.959 279.472 226.206 279.472V278.472C226.026 278.472 225.845 278.454 225.664 278.418L225.467 279.399ZM226.206 279.472C227.45 279.472 228.515 279.081 229.365 278.28L228.678 277.552C228.034 278.16 227.223 278.472 226.206 278.472V279.472ZM229.365 278.28C230.232 277.462 230.642 276.349 230.642 275.004H229.642C229.642 276.134 229.305 276.962 228.678 277.552L229.365 278.28ZM230.642 275.004C230.642 273.802 230.26 272.783 229.471 271.995L228.764 272.702C229.341 273.278 229.642 274.031 229.642 275.004H230.642ZM229.482 272.006C228.714 271.188 227.7 270.792 226.494 270.792V271.792C227.463 271.792 228.199 272.1 228.753 272.691L229.482 272.006ZM226.494 270.792C225.423 270.792 224.488 271.175 223.714 271.925L224.409 272.643C225 272.071 225.687 271.792 226.494 271.792V270.792ZM223.72 271.919C222.931 272.659 222.538 273.604 222.538 274.716H223.538C223.538 273.866 223.827 273.189 224.403 272.649L223.72 271.919ZM222.538 274.716V284.572H223.538V274.716H222.538ZM223.038 284.072H220.51V285.072H223.038V284.072ZM221.01 284.572V279.964H220.01V284.572H221.01ZM220.148 279.619C219.317 280.488 218.217 280.936 216.798 280.936V281.936C218.45 281.936 219.825 281.403 220.871 280.31L220.148 279.619ZM216.798 280.936C215.155 280.936 213.868 280.449 212.888 279.508L212.195 280.229C213.391 281.378 214.941 281.936 216.798 281.936V280.936ZM212.892 279.511C211.913 278.552 211.41 277.29 211.41 275.676H210.41C210.41 277.519 210.994 279.052 212.191 280.225L212.892 279.511ZM211.41 275.676C211.41 273.941 211.972 272.6 213.07 271.598L212.397 270.859C211.063 272.076 210.41 273.7 210.41 275.676H211.41ZM213.074 271.594C214.19 270.557 215.569 270.032 217.246 270.032V269.032C215.338 269.032 213.709 269.638 212.393 270.862L213.074 271.594ZM217.246 270.032C217.577 270.032 217.735 270.067 217.785 270.088L218.178 269.169C217.929 269.062 217.596 269.032 217.246 269.032V270.032ZM217.482 269.628V271.74H218.482V269.628H217.482ZM218.08 271.25C217.917 271.218 217.667 271.208 217.374 271.208V272.208C217.677 272.208 217.832 272.22 217.883 272.231L218.08 271.25ZM217.374 271.208C216.111 271.208 215.034 271.598 214.182 272.4L214.869 273.128C215.511 272.522 216.332 272.208 217.374 272.208V271.208ZM214.182 272.4C213.317 273.216 212.906 274.318 212.906 275.644H213.906C213.906 274.538 214.241 273.72 214.869 273.128L214.182 272.4ZM212.906 275.644C212.906 276.847 213.287 277.872 214.071 278.68L214.788 277.984C214.207 277.384 213.906 276.618 213.906 275.644H212.906ZM214.071 278.68C214.858 279.493 215.879 279.888 217.086 279.888V278.888C216.116 278.888 215.366 278.58 214.788 277.984L214.071 278.68ZM217.086 279.888C218.156 279.888 219.084 279.505 219.839 278.75L219.132 278.043C218.565 278.61 217.892 278.888 217.086 278.888V279.888ZM219.833 278.755C220.617 277.996 221.01 277.044 221.01 275.932H220.01C220.01 276.783 219.72 277.473 219.138 278.037L219.833 278.755ZM221.01 275.932V266.172H220.01V275.932H221.01ZM220.51 265.672H208.733V266.672H220.51V265.672ZM209.233 266.172V264.028H208.233V266.172H209.233ZM208.733 264.528H234.814V263.528H208.733V264.528ZM234.314 264.028V266.172H235.314V264.028H234.314ZM233.421 266.172H232.921V266.672H233.421V266.172ZM233.421 264.028V263.528H232.921V264.028H233.421ZM243.341 264.028H243.841V263.528H243.341V264.028ZM243.341 266.172V266.672H243.841V266.172H243.341ZM239.629 266.172V265.672H239.129V266.172H239.629ZM239.629 284.572V285.072H240.129V284.572H239.629ZM237.133 284.572H236.633V285.072H237.133V284.572ZM237.133 266.172H237.633V265.672H237.133V266.172ZM233.921 266.172V264.028H232.921V266.172H233.921ZM233.421 264.528H243.341V263.528H233.421V264.528ZM242.841 264.028V266.172H243.841V264.028H242.841ZM243.341 265.672H239.629V266.672H243.341V265.672ZM239.129 266.172V284.572H240.129V266.172H239.129ZM239.629 284.072H237.133V285.072H239.629V284.072ZM237.633 284.572V266.172H236.633V284.572H237.633ZM237.133 265.672H233.421V266.672H237.133V265.672ZM249.733 264.028V263.528H249.233V264.028H249.733ZM268.742 264.028H269.242V263.528H268.742V264.028ZM268.742 266.172V266.672H269.242V266.172H268.742ZM264.902 266.172V265.672H264.402V266.172H264.902ZM264.902 271.516V272.016H265.402V271.516H264.902ZM255.846 272.636L256.179 273.008L256.179 273.008L255.846 272.636ZM261.734 279.164L261.396 278.796L261.39 278.8L261.734 279.164ZM262.95 276.444V275.944H262.468L262.45 276.425L262.95 276.444ZM265.35 276.444H265.85V275.944H265.35V276.444ZM265.35 284.892V285.392H265.85V284.892H265.35ZM262.854 284.892H262.354V285.392H262.854V284.892ZM262.854 280.636H263.354V279.195L262.461 280.327L262.854 280.636ZM253.734 280.444L254.09 280.094L254.09 280.094L253.734 280.444ZM253.798 271.228L254.142 271.591L254.145 271.588L253.798 271.228ZM262.406 269.404V269.904H262.906V269.404H262.406ZM262.406 266.172H262.906V265.672H262.406V266.172ZM249.733 266.172H249.233V266.672H249.733V266.172ZM249.733 264.528H268.742V263.528H249.733V264.528ZM268.242 264.028V266.172H269.242V264.028H268.242ZM268.742 265.672H264.902V266.672H268.742V265.672ZM264.402 266.172V271.516H265.402V266.172H264.402ZM264.902 271.016H259.27V272.016H264.902V271.016ZM259.27 271.016C257.733 271.016 256.46 271.413 255.512 272.264L256.179 273.008C256.895 272.366 257.904 272.016 259.27 272.016V271.016ZM255.512 272.264C254.553 273.125 254.098 274.318 254.098 275.772H255.098C255.098 274.539 255.474 273.641 256.179 273.008L255.512 272.264ZM254.098 275.772C254.098 277.25 254.497 278.474 255.354 279.38L256.081 278.693C255.444 278.02 255.098 277.068 255.098 275.772H254.098ZM255.354 279.38C256.211 280.285 257.353 280.72 258.726 280.72V279.72C257.58 279.72 256.718 279.366 256.081 278.693L255.354 279.38ZM258.726 280.72C260.081 280.72 261.217 280.338 262.077 279.528L261.39 278.8C260.757 279.398 259.887 279.72 258.726 279.72V280.72ZM262.071 279.533C262.945 278.732 263.402 277.696 263.449 276.463L262.45 276.425C262.412 277.411 262.058 278.188 261.396 278.796L262.071 279.533ZM262.95 276.944H265.35V275.944H262.95V276.944ZM264.85 276.444V284.892H265.85V276.444H264.85ZM265.35 284.392H262.854V285.392H265.35V284.392ZM263.354 284.892V280.636H262.354V284.892H263.354ZM262.461 280.327C261.716 281.271 260.453 281.8 258.534 281.8V282.8C260.625 282.8 262.242 282.22 263.246 280.946L262.461 280.327ZM258.534 281.8C256.663 281.8 255.198 281.221 254.09 280.094L253.377 280.795C254.701 282.142 256.436 282.8 258.534 282.8V281.8ZM254.09 280.094C252.971 278.955 252.41 277.557 252.41 275.868H251.41C251.41 277.806 252.064 279.459 253.377 280.795L254.09 280.094ZM252.41 275.868C252.41 274.092 252.992 272.682 254.142 271.591L253.453 270.866C252.085 272.164 251.41 273.847 251.41 275.868H252.41ZM254.145 271.588C255.285 270.486 256.906 269.904 259.078 269.904V268.904C256.726 268.904 254.827 269.539 253.45 270.869L254.145 271.588ZM259.078 269.904H262.406V268.904H259.078V269.904ZM262.906 269.404V266.172H261.906V269.404H262.906ZM262.406 265.672H249.733V266.672H262.406V265.672ZM250.233 266.172V264.028H249.233V266.172H250.233ZM262.37 260.732L262.724 260.379L262.718 260.373L262.712 260.367L262.37 260.732ZM262.37 258.268L262.724 258.622L262.73 258.616L262.735 258.61L262.37 258.268ZM264.834 258.268L264.481 258.622L264.481 258.622L264.834 258.268ZM264.834 260.732L264.492 260.367L264.492 260.367L264.834 260.732ZM262.712 260.367C262.477 260.147 262.358 259.876 262.358 259.516H261.358C261.358 260.138 261.581 260.677 262.028 261.097L262.712 260.367ZM262.358 259.516C262.358 259.156 262.478 258.868 262.724 258.622L262.017 257.915C261.58 258.352 261.358 258.895 261.358 259.516H262.358ZM262.735 258.61C262.955 258.375 263.226 258.256 263.586 258.256V257.256C262.965 257.256 262.425 257.479 262.005 257.926L262.735 258.61ZM263.586 258.256C263.947 258.256 264.235 258.376 264.481 258.622L265.188 257.915C264.751 257.478 264.207 257.256 263.586 257.256V258.256ZM264.481 258.622C264.727 258.868 264.846 259.156 264.846 259.516H265.846C265.846 258.895 265.625 258.352 265.188 257.915L264.481 258.622ZM264.846 259.516C264.846 259.876 264.727 260.147 264.492 260.367L265.176 261.097C265.624 260.677 265.846 260.138 265.846 259.516H264.846ZM264.492 260.367C264.248 260.596 263.957 260.712 263.586 260.712V261.712C264.197 261.712 264.737 261.508 265.176 261.097L264.492 260.367ZM263.586 260.712C263.216 260.712 262.942 260.597 262.724 260.379L262.017 261.086C262.439 261.508 262.975 261.712 263.586 261.712V260.712ZM287.551 264.028H288.051V263.528H287.551V264.028ZM287.551 266.172V266.672H288.051V266.172H287.551ZM283.839 266.172V265.672H283.339V266.172H283.839ZM283.839 284.572V285.072H284.339V284.572H283.839ZM281.343 284.572H280.843V285.072H281.343V284.572ZM281.343 272.284H281.843V271.784H281.343V272.284ZM273.791 281.02L273.408 281.341L273.412 281.346L273.791 281.02ZM277.983 282.364H278.483V281.774L277.901 281.871L277.983 282.364ZM277.983 284.508L278.045 285.004L278.483 284.95V284.508H277.983ZM271.967 282.524L271.597 282.86L271.597 282.86L271.967 282.524ZM272.127 272.092L272.475 272.451L272.478 272.449L272.127 272.092ZM281.343 270.108V270.608H281.843V270.108H281.343ZM281.343 266.172H281.843V265.672H281.343V266.172ZM267.327 266.172H266.827V266.672H267.327V266.172ZM267.327 264.028V263.528H266.827V264.028H267.327ZM287.051 264.028V266.172H288.051V264.028H287.051ZM287.551 265.672H283.839V266.672H287.551V265.672ZM283.339 266.172V284.572H284.339V266.172H283.339ZM283.839 284.072H281.343V285.072H283.839V284.072ZM281.843 284.572V272.284H280.843V284.572H281.843ZM281.343 271.784H278.303V272.784H281.343V271.784ZM278.303 271.784C276.353 271.784 274.796 272.213 273.725 273.157C272.641 274.112 272.139 275.518 272.139 277.276H273.139C273.139 275.707 273.582 274.616 274.386 273.907C275.202 273.188 276.478 272.784 278.303 272.784V271.784ZM272.139 277.276C272.139 278.934 272.543 280.309 273.408 281.341L274.175 280.699C273.503 279.897 273.139 278.775 273.139 277.276H272.139ZM273.412 281.346C274.32 282.401 275.627 282.896 277.247 282.896V281.896C275.839 281.896 274.841 281.474 274.17 280.694L273.412 281.346ZM277.247 282.896C277.605 282.896 277.891 282.887 278.065 282.857L277.901 281.871C277.82 281.885 277.615 281.896 277.247 281.896V282.896ZM277.483 282.364V284.508H278.483V282.364H277.483ZM277.921 284.012C277.597 284.053 277.298 284.072 277.023 284.072V285.072C277.345 285.072 277.686 285.049 278.045 285.004L277.921 284.012ZM277.023 284.072C275.007 284.072 273.465 283.432 272.338 282.189L271.597 282.86C272.944 284.347 274.773 285.072 277.023 285.072V284.072ZM272.338 282.189C271.198 280.93 270.611 279.297 270.611 277.244H269.611C269.611 279.501 270.262 281.387 271.597 282.86L272.338 282.189ZM270.611 277.244C270.611 275.226 271.242 273.645 272.475 272.451L271.779 271.733C270.324 273.142 269.611 274.996 269.611 277.244H270.611ZM272.478 272.449C273.698 271.248 275.516 270.608 278.015 270.608V269.608C275.352 269.608 273.244 270.292 271.777 271.736L272.478 272.449ZM278.015 270.608H281.343V269.608H278.015V270.608ZM281.843 270.108V266.172H280.843V270.108H281.843ZM281.343 265.672H267.327V266.672H281.343V265.672ZM267.827 266.172V264.028H266.827V266.172H267.827ZM267.327 264.528H287.551V263.528H267.327V264.528ZM319.841 266.172H320.341V265.672H319.841V266.172ZM303.265 266.172V265.672H302.765V266.172H303.265ZM302.401 273.916L302.001 273.616L301.401 274.416H302.401V273.916ZM308.673 273.916V274.416H309.062L309.158 274.039L308.673 273.916ZM310.817 270.684L311.116 271.085L311.117 271.084L310.817 270.684ZM316.833 269.692H317.333V269.323L316.98 269.214L316.833 269.692ZM316.833 271.9L316.664 272.371L317.333 272.612V271.9H316.833ZM312.129 272.7L312.472 273.064L312.477 273.059L312.129 272.7ZM312.129 278.492L311.775 278.846L311.78 278.851L312.129 278.492ZM326.049 264.028H326.549V263.528H326.049V264.028ZM326.049 266.172V266.672H326.549V266.172H326.049ZM322.337 266.172V265.672H321.837V266.172H322.337ZM322.337 284.572V285.072H322.837V284.572H322.337ZM319.841 284.572H319.341V285.072H319.841V284.572ZM319.841 279.26H320.341V277.662L319.43 278.975L319.841 279.26ZM310.497 280.156L310.176 280.539L310.176 280.539L310.497 280.156ZM308.513 276.092L309.012 276.055L308.977 275.592H308.513V276.092ZM298.657 275.804L298.732 275.31L297.608 275.138L298.242 276.083L298.657 275.804ZM304.545 284.572V285.072H305.483L304.96 284.294L304.545 284.572ZM301.505 284.572L301.088 284.849L301.237 285.072H301.505V284.572ZM295.521 275.548H295.021V275.699L295.104 275.825L295.521 275.548ZM295.521 273.564V273.064H295.021V273.564H295.521ZM300.097 272.86L299.728 272.523L299.727 272.524L300.097 272.86ZM300.769 266.172H301.269V265.672H300.769V266.172ZM293.921 266.172H293.421V266.672H293.921V266.172ZM293.921 264.028V263.528H293.421V264.028H293.921ZM320.341 274.556V266.172H319.341V274.556H320.341ZM319.841 265.672H303.265V266.672H319.841V265.672ZM302.765 266.172V270.748H303.765V266.172H302.765ZM302.765 270.748C302.765 272.026 302.491 272.963 302.001 273.616L302.801 274.216C303.463 273.333 303.765 272.158 303.765 270.748H302.765ZM302.401 274.416H308.673V273.416H302.401V274.416ZM309.158 274.039C309.471 272.804 310.122 271.826 311.116 271.085L310.518 270.283C309.336 271.164 308.557 272.341 308.188 273.793L309.158 274.039ZM311.117 271.084C312.129 270.325 313.354 269.936 314.817 269.936V268.936C313.165 268.936 311.723 269.379 310.517 270.284L311.117 271.084ZM314.817 269.936C315.573 269.936 316.193 270.018 316.686 270.17L316.98 269.214C316.364 269.025 315.64 268.936 314.817 268.936V269.936ZM316.333 269.692V271.9H317.333V269.692H316.333ZM317.002 271.43C316.402 271.214 315.713 271.112 314.945 271.112V272.112C315.628 272.112 316.197 272.203 316.664 272.371L317.002 271.43ZM314.945 271.112C313.697 271.112 312.629 271.517 311.781 272.342L312.477 273.059C313.122 272.432 313.932 272.112 314.945 272.112V271.112ZM311.786 272.336C310.924 273.149 310.509 274.227 310.509 275.516H311.509C311.509 274.459 311.84 273.66 312.472 273.064L311.786 272.336ZM310.509 275.516C310.509 276.862 310.919 277.989 311.775 278.846L312.483 278.139C311.846 277.502 311.509 276.646 311.509 275.516H310.509ZM311.78 278.851C312.647 279.694 313.724 280.112 314.977 280.112V279.112C313.968 279.112 313.147 278.784 312.478 278.134L311.78 278.851ZM314.977 280.112C316.595 280.112 317.924 279.563 318.906 278.437L318.152 277.78C317.385 278.659 316.346 279.112 314.977 279.112V280.112ZM318.906 278.437C319.862 277.341 320.341 276.039 320.341 274.556H319.341C319.341 275.804 318.945 276.871 318.152 277.78L318.906 278.437ZM325.549 264.028V266.172H326.549V264.028H325.549ZM326.049 265.672H322.337V266.672H326.049V265.672ZM321.837 266.172V284.572H322.837V266.172H321.837ZM322.337 284.072H319.841V285.072H322.337V284.072ZM320.341 284.572V279.26H319.341V284.572H320.341ZM319.43 278.975C318.432 280.415 316.895 281.16 314.721 281.16V282.16C317.155 282.16 319.031 281.306 320.252 279.545L319.43 278.975ZM314.721 281.16C313.212 281.16 311.919 280.697 310.818 279.773L310.176 280.539C311.464 281.621 312.987 282.16 314.721 282.16V281.16ZM310.818 279.773C309.738 278.866 309.131 277.642 309.012 276.055L308.014 276.13C308.151 277.956 308.867 279.441 310.176 280.539L310.818 279.773ZM308.513 275.592H304.097V276.592H308.513V275.592ZM304.097 275.592C301.737 275.592 299.953 275.496 298.732 275.31L298.582 276.299C299.878 276.496 301.721 276.592 304.097 276.592V275.592ZM298.242 276.083L304.13 284.851L304.96 284.294L299.072 275.526L298.242 276.083ZM304.545 284.072H301.505V285.072H304.545V284.072ZM301.922 284.296L295.938 275.272L295.104 275.825L301.088 284.849L301.922 284.296ZM296.021 275.548V273.564H295.021V275.548H296.021ZM295.521 274.064H297.633V273.064H295.521V274.064ZM297.633 274.064C298.874 274.064 299.889 273.833 300.467 273.197L299.727 272.524C299.452 272.826 298.824 273.064 297.633 273.064V274.064ZM300.466 273.197C301.035 272.574 301.269 271.658 301.269 270.556H300.269C300.269 271.545 300.055 272.165 299.728 272.523L300.466 273.197ZM301.269 270.556V266.172H300.269V270.556H301.269ZM300.769 265.672H293.921V266.672H300.769V265.672ZM294.421 266.172V264.028H293.421V266.172H294.421ZM293.921 264.528H326.049V263.528H293.921V264.528ZM324.64 266.172H324.14V266.672H324.64V266.172ZM324.64 264.028V263.528H324.14V264.028H324.64ZM334.56 264.028H335.06V263.528H334.56V264.028ZM334.56 266.172V266.672H335.06V266.172H334.56ZM330.848 266.172V265.672H330.348V266.172H330.848ZM330.848 284.572V285.072H331.348V284.572H330.848ZM328.352 284.572H327.852V285.072H328.352V284.572ZM328.352 266.172H328.852V265.672H328.352V266.172ZM325.14 266.172V264.028H324.14V266.172H325.14ZM324.64 264.528H334.56V263.528H324.64V264.528ZM334.06 264.028V266.172H335.06V264.028H334.06ZM334.56 265.672H330.848V266.672H334.56V265.672ZM330.348 266.172V284.572H331.348V266.172H330.348ZM330.848 284.072H328.352V285.072H330.848V284.072ZM328.852 284.572V266.172H327.852V284.572H328.852ZM328.352 265.672H324.64V266.672H328.352V265.672ZM373.556 266.172H374.056V265.672H373.556V266.172ZM367.572 266.172V265.672H366.644L367.154 266.447L367.572 266.172ZM363.604 274.396L363.459 273.918L363.009 274.054L363.117 274.511L363.604 274.396ZM365.364 277.308L365.038 277.688L365.044 277.692L365.364 277.308ZM372.18 277.212L372.511 277.587L372.516 277.583L372.18 277.212ZM360.66 264.028V263.528H360.16V264.028H360.66ZM379.732 264.028H380.232V263.528H379.732V264.028ZM379.732 266.172V266.672H380.232V266.172H379.732ZM376.02 266.172V265.672H375.52V266.172H376.02ZM376.02 284.572V285.072H376.52V284.572H376.02ZM373.556 284.572H373.056V285.072H373.556V284.572ZM373.556 278.364H374.056V276.847L373.154 278.067L373.556 278.364ZM362.932 278.204L363.305 277.871L362.962 277.487L362.588 277.841L362.932 278.204ZM350.708 279.804L350.445 280.23L350.45 280.232L350.708 279.804ZM347.7 275.772L348.177 275.624L348.044 275.194L347.602 275.282L347.7 275.772ZM337.876 275.804L337.951 275.31L336.826 275.138L337.461 276.083L337.876 275.804ZM343.764 284.572V285.072H344.702L344.179 284.294L343.764 284.572ZM340.724 284.572L340.307 284.849L340.455 285.072H340.724V284.572ZM334.74 275.548H334.24V275.699L334.323 275.825L334.74 275.548ZM334.74 273.564V273.064H334.24V273.564H334.74ZM339.316 272.86L338.947 272.523L338.946 272.524L339.316 272.86ZM339.988 266.172H340.488V265.672H339.988V266.172ZM333.14 266.172H332.64V266.672H333.14V266.172ZM333.14 264.028V263.528H332.64V264.028H333.14ZM346.676 264.028H347.176V263.528H346.676V264.028ZM346.676 266.172V266.672H347.176V266.172H346.676ZM342.484 266.172V265.672H341.984V266.172H342.484ZM341.62 273.916L341.22 273.616L340.62 274.416H341.62V273.916ZM347.476 273.596L347.395 273.103L347.394 273.103L347.476 273.596ZM351.252 272.636L351.086 272.164L351.086 272.164L351.252 272.636ZM354.26 270.908L354.598 271.276L354.603 271.271L354.26 270.908ZM354.9 266.62L354.502 266.923L354.506 266.929L354.511 266.935L354.9 266.62ZM351.7 266.588L352.072 266.922L352.081 266.912L351.7 266.588ZM351.572 269.948V270.448H352.395L352.015 269.718L351.572 269.948ZM349.108 269.948L348.657 270.165L348.794 270.448H349.108V269.948ZM349.972 265.052L350.311 265.419L350.316 265.415L349.972 265.052ZM356.66 265.148L356.293 265.488L356.297 265.493L356.66 265.148ZM350.164 275.132L350.051 274.645L349.547 274.762L349.681 275.262L350.164 275.132ZM352.116 277.948L352.401 277.538L352.401 277.538L352.116 277.948ZM361.748 276.476L362.097 276.834L362.365 276.573L362.189 276.241L361.748 276.476ZM360.66 272.828L360.586 272.334L360.099 272.407L360.164 272.895L360.66 272.828ZM364.532 271.42L364.229 271.023L364.224 271.026L364.532 271.42ZM364.884 266.172L365.267 265.851L365.117 265.672H364.884V266.172ZM360.66 266.172H360.16V266.672H360.66V266.172ZM374.056 273.884V266.172H373.056V273.884H374.056ZM373.556 265.672H367.572V266.672H373.556V265.672ZM367.154 266.447C367.623 267.16 367.872 268.052 367.872 269.148H368.872C368.872 267.898 368.587 266.805 367.989 265.897L367.154 266.447ZM367.872 269.148C367.872 270.303 367.514 271.253 366.81 272.028C366.096 272.814 364.995 273.454 363.459 273.918L363.748 274.875C365.391 274.379 366.674 273.664 367.55 272.7C368.435 271.727 368.872 270.532 368.872 269.148H367.872ZM363.117 274.511C363.418 275.785 364.06 276.849 365.038 277.688L365.689 276.929C364.875 276.231 364.344 275.354 364.09 274.281L363.117 274.511ZM365.044 277.692C366.037 278.52 367.23 278.928 368.596 278.928V277.928C367.444 277.928 366.483 277.59 365.684 276.924L365.044 277.692ZM368.596 278.928C370.164 278.928 371.484 278.494 372.511 277.587L371.849 276.838C371.04 277.552 369.972 277.928 368.596 277.928V278.928ZM372.516 277.583C373.551 276.644 374.056 275.393 374.056 273.884H373.056C373.056 275.149 372.644 276.117 371.844 276.842L372.516 277.583ZM360.66 264.528H379.732V263.528H360.66V264.528ZM379.232 264.028V266.172H380.232V264.028H379.232ZM379.732 265.672H376.02V266.672H379.732V265.672ZM375.52 266.172V284.572H376.52V266.172H375.52ZM376.02 284.072H373.556V285.072H376.02V284.072ZM374.056 284.572V278.364H373.056V284.572H374.056ZM373.154 278.067C372.187 279.375 370.632 280.072 368.372 280.072V281.072C370.847 281.072 372.749 280.297 373.958 278.661L373.154 278.067ZM368.372 280.072C366.288 280.072 364.613 279.338 363.305 277.871L362.559 278.537C364.067 280.228 366.018 281.072 368.372 281.072V280.072ZM362.588 277.841C360.633 279.694 358.314 280.616 355.604 280.616V281.616C358.568 281.616 361.134 280.597 363.276 278.567L362.588 277.841ZM355.604 280.616C353.875 280.616 352.333 280.2 350.966 279.376L350.45 280.232C351.984 281.157 353.706 281.616 355.604 281.616V280.616ZM350.97 279.379C349.633 278.553 348.7 277.313 348.177 275.624L347.222 275.92C347.809 277.815 348.881 279.264 350.445 280.23L350.97 279.379ZM347.602 275.282C346.577 275.487 345.321 275.592 343.828 275.592V276.592C345.364 276.592 346.689 276.484 347.798 276.263L347.602 275.282ZM343.828 275.592H343.316V276.592H343.828V275.592ZM343.316 275.592C340.955 275.592 339.172 275.496 337.951 275.31L337.8 276.299C339.097 276.496 340.94 276.592 343.316 276.592V275.592ZM337.461 276.083L343.349 284.851L344.179 284.294L338.291 275.526L337.461 276.083ZM343.764 284.072H340.724V285.072H343.764V284.072ZM341.14 284.296L335.156 275.272L334.323 275.825L340.307 284.849L341.14 284.296ZM335.24 275.548V273.564H334.24V275.548H335.24ZM334.74 274.064H336.852V273.064H334.74V274.064ZM336.852 274.064C338.092 274.064 339.107 273.833 339.686 273.197L338.946 272.524C338.671 272.826 338.043 273.064 336.852 273.064V274.064ZM339.685 273.197C340.254 272.574 340.488 271.658 340.488 270.556H339.488C339.488 271.545 339.273 272.165 338.947 272.523L339.685 273.197ZM340.488 270.556V266.172H339.488V270.556H340.488ZM339.988 265.672H333.14V266.672H339.988V265.672ZM333.64 266.172V264.028H332.64V266.172H333.64ZM333.14 264.528H346.676V263.528H333.14V264.528ZM346.176 264.028V266.172H347.176V264.028H346.176ZM346.676 265.672H342.484V266.672H346.676V265.672ZM341.984 266.172V270.748H342.984V266.172H341.984ZM341.984 270.748C341.984 272.026 341.709 272.963 341.22 273.616L342.02 274.216C342.682 273.333 342.984 272.158 342.984 270.748H341.984ZM341.62 274.416H343.796V273.416H341.62V274.416ZM343.796 274.416C344.999 274.416 346.254 274.307 347.558 274.089L347.394 273.103C346.138 273.312 344.939 273.416 343.796 273.416V274.416ZM347.557 274.09C348.886 273.872 350.173 273.545 351.417 273.108L351.086 272.164C349.898 272.581 348.668 272.894 347.395 273.103L347.557 274.09ZM351.417 273.108C352.685 272.663 353.75 272.056 354.598 271.276L353.921 270.54C353.191 271.211 352.251 271.756 351.086 272.164L351.417 273.108ZM354.603 271.271C355.475 270.447 355.944 269.478 355.944 268.38H354.944C354.944 269.16 354.623 269.877 353.916 270.545L354.603 271.271ZM355.944 268.38C355.944 267.571 355.74 266.864 355.288 266.306L354.511 266.935C354.785 267.273 354.944 267.739 354.944 268.38H355.944ZM355.297 266.317C354.835 265.711 354.132 265.448 353.3 265.448V266.448C353.918 266.448 354.282 266.634 354.502 266.923L355.297 266.317ZM353.3 265.448C352.49 265.448 351.8 265.698 351.319 266.264L352.081 266.912C352.325 266.625 352.702 266.448 353.3 266.448V265.448ZM351.327 266.255C350.868 266.768 350.656 267.416 350.656 268.156H351.656C351.656 267.616 351.806 267.219 352.072 266.922L351.327 266.255ZM350.656 268.156C350.656 268.89 350.81 269.567 351.128 270.179L352.015 269.718C351.779 269.262 351.656 268.745 351.656 268.156H350.656ZM351.572 269.448H349.108V270.448H351.572V269.448ZM349.558 269.731C349.32 269.237 349.192 268.632 349.192 267.9H348.192C348.192 268.747 348.341 269.508 348.657 270.165L349.558 269.731ZM349.192 267.9C349.192 266.938 349.555 266.119 350.311 265.419L349.632 264.685C348.682 265.564 348.192 266.644 348.192 267.9H349.192ZM350.316 265.415C351.062 264.706 352.041 264.336 353.3 264.336V263.336C351.828 263.336 350.588 263.777 349.627 264.69L350.316 265.415ZM353.3 264.336C354.62 264.336 355.596 264.736 356.293 265.488L357.026 264.808C356.103 263.812 354.838 263.336 353.3 263.336V264.336ZM356.297 265.493C357.012 266.245 357.376 267.184 357.376 268.348H358.376C358.376 266.952 357.929 265.759 357.022 264.804L356.297 265.493ZM357.376 268.348C357.376 269.864 356.798 271.126 355.618 272.165C354.419 273.219 352.58 274.057 350.051 274.645L350.277 275.619C352.888 275.012 354.906 274.123 356.278 272.916C357.668 271.693 358.376 270.161 358.376 268.348H357.376ZM349.681 275.262C350.03 276.566 350.748 277.606 351.83 278.359L352.401 277.538C351.52 276.925 350.937 276.088 350.647 275.003L349.681 275.262ZM351.83 278.359C352.907 279.108 354.183 279.472 355.636 279.472V278.472C354.357 278.472 353.287 278.154 352.401 277.538L351.83 278.359ZM355.636 279.472C358.135 279.472 360.297 278.589 362.097 276.834L361.399 276.118C359.785 277.692 357.872 278.472 355.636 278.472V279.472ZM362.189 276.241C361.69 275.303 361.341 274.147 361.155 272.762L360.164 272.895C360.362 274.368 360.739 275.644 361.306 276.711L362.189 276.241ZM360.734 273.323C362.483 273.06 363.869 272.572 364.839 271.814L364.224 271.026C363.445 271.634 362.25 272.084 360.586 272.334L360.734 273.323ZM364.835 271.818C365.823 271.065 366.376 270.129 366.376 269.02H365.376C365.376 269.746 365.032 270.41 364.229 271.023L364.835 271.818ZM366.376 269.02C366.376 267.803 366.01 266.738 365.267 265.851L364.5 266.493C365.08 267.185 365.376 268.019 365.376 269.02H366.376ZM364.884 265.672H360.66V266.672H364.884V265.672ZM361.16 266.172V264.028H360.16V266.172H361.16ZM400.924 271.196V271.696H401.424V271.196H400.924ZM391.9 274.14L391.484 274.418L391.49 274.427L391.9 274.14ZM392.956 275.068L392.742 275.52L392.929 275.609L393.124 275.539L392.956 275.068ZM400.092 275.868L399.755 276.238L399.76 276.242L400.092 275.868ZM401.148 280.668V281.168H401.463L401.599 280.884L401.148 280.668ZM398.684 280.668L398.281 280.372L397.694 281.168H398.684V280.668ZM398.332 277.34L398.002 277.717L398.011 277.724L398.019 277.731L398.332 277.34ZM392.732 277.596L393.04 277.99L393.04 277.99L392.732 277.596ZM392.924 282.46L392.625 282.861L392.631 282.866L392.924 282.46ZM401.116 282.876H401.616V282.216L400.98 282.395L401.116 282.876ZM401.116 285.02L401.235 285.506L401.616 285.412V285.02H401.116ZM391.1 283.836L390.777 284.218L390.777 284.218L391.1 283.836ZM391.068 276.028L391.367 276.429L391.939 276.002L391.342 275.61L391.068 276.028ZM390.012 269.948L390.315 270.345L390.315 270.345L390.012 269.948ZM398.46 269.116V269.616H398.96V269.116H398.46ZM398.46 266.172H398.96V265.672H398.46V266.172ZM386.14 266.172H385.64V266.672H386.14V266.172ZM386.14 264.028V263.528H385.64V264.028H386.14ZM404.54 264.028H405.04V263.528H404.54V264.028ZM404.54 266.172V266.672H405.04V266.172H404.54ZM400.924 266.172V265.672H400.424V266.172H400.924ZM400.924 270.696H393.244V271.696H400.924V270.696ZM393.244 270.696C392.593 270.696 392.012 270.825 391.587 271.167C391.141 271.525 390.952 272.047 390.952 272.636H391.952C391.952 272.266 392.062 272.068 392.213 271.946C392.385 271.808 392.7 271.696 393.244 271.696V270.696ZM390.952 272.636C390.952 273.286 391.129 273.885 391.484 274.418L392.316 273.863C392.074 273.5 391.952 273.095 391.952 272.636H390.952ZM391.49 274.427C391.83 274.913 392.246 275.285 392.742 275.52L393.17 274.616C392.855 274.467 392.566 274.221 392.309 273.854L391.49 274.427ZM393.124 275.539C393.955 275.242 394.931 275.088 396.06 275.088V274.088C394.842 274.088 393.748 274.254 392.788 274.597L393.124 275.539ZM396.06 275.088C397.732 275.088 398.939 275.496 399.755 276.238L400.428 275.498C399.367 274.534 397.886 274.088 396.06 274.088V275.088ZM399.76 276.242C400.6 276.987 401 277.857 401 278.876H402C402 277.549 401.461 276.414 400.423 275.494L399.76 276.242ZM401 278.876C401 279.527 400.891 280.046 400.697 280.453L401.599 280.884C401.874 280.309 402 279.634 402 278.876H401ZM401.148 280.168H398.684V281.168H401.148V280.168ZM399.086 280.965C399.469 280.445 399.632 279.774 399.632 279.004H398.632C398.632 279.643 398.496 280.08 398.281 280.372L399.086 280.965ZM399.632 279.004C399.632 278.17 399.296 277.471 398.644 276.95L398.019 277.731C398.434 278.063 398.632 278.474 398.632 279.004H399.632ZM398.661 276.964C398.021 276.404 397.114 276.168 396.028 276.168V277.168C396.99 277.168 397.618 277.38 398.002 277.717L398.661 276.964ZM396.028 276.168C394.552 276.168 393.33 276.492 392.423 277.203L393.04 277.99C393.712 277.463 394.687 277.168 396.028 277.168V276.168ZM392.423 277.203C391.533 277.9 391.048 278.784 391.048 279.836H392.048C392.048 279.139 392.352 278.529 393.04 277.99L392.423 277.203ZM391.048 279.836C391.048 281.074 391.592 282.092 392.625 282.861L393.222 282.059C392.421 281.463 392.048 280.732 392.048 279.836H391.048ZM392.631 282.866C393.674 283.617 395.196 283.952 397.116 283.952V282.952C395.28 282.952 394.009 282.626 393.216 282.055L392.631 282.866ZM397.116 283.952C398.467 283.952 399.846 283.753 401.251 283.358L400.98 282.395C399.655 282.768 398.367 282.952 397.116 282.952V283.952ZM400.616 282.876V285.02H401.616V282.876H400.616ZM400.996 284.535C399.558 284.889 398.201 285.064 396.924 285.064V286.064C398.292 286.064 399.73 285.877 401.235 285.506L400.996 284.535ZM396.924 285.064C394.477 285.064 392.667 284.504 391.422 283.454L390.777 284.218C392.264 285.472 394.336 286.064 396.924 286.064V285.064ZM391.422 283.454C390.149 282.38 389.552 281.168 389.552 279.804H388.552C388.552 281.512 389.32 282.989 390.777 284.218L391.422 283.454ZM389.552 279.804C389.552 278.466 390.134 277.349 391.367 276.429L390.769 275.628C389.314 276.713 388.552 278.113 388.552 279.804H389.552ZM391.342 275.61C390.035 274.752 389.424 273.663 389.424 272.316H388.424C388.424 274.042 389.242 275.427 390.793 276.446L391.342 275.61ZM389.424 272.316C389.424 271.426 389.73 270.793 390.315 270.345L389.708 269.551C388.843 270.213 388.424 271.158 388.424 272.316H389.424ZM390.315 270.345C390.933 269.873 391.756 269.616 392.828 269.616V268.616C391.595 268.616 390.541 268.914 389.708 269.551L390.315 270.345ZM392.828 269.616H398.46V268.616H392.828V269.616ZM398.96 269.116V266.172H397.96V269.116H398.96ZM398.46 265.672H386.14V266.672H398.46V265.672ZM386.64 266.172V264.028H385.64V266.172H386.64ZM386.14 264.528H404.54V263.528H386.14V264.528ZM404.04 264.028V266.172H405.04V264.028H404.04ZM404.54 265.672H400.924V266.672H404.54V265.672ZM400.424 266.172V271.196H401.424V266.172H400.424ZM397.761 258.844L397.341 259.114L397.341 259.115L397.761 258.844ZM401.249 264.252V264.752H402.167L401.67 263.981L401.249 264.252ZM397.889 264.252L397.589 264.652L397.723 264.752H397.889V264.252ZM394.881 262.3L394.658 262.747L394.658 262.747L394.881 262.3ZM390.433 261.98H389.933V262.674L390.592 262.455L390.433 261.98ZM390.433 259.74L390.275 259.266L389.933 259.38V259.74H390.433ZM394.561 260.028L394.332 260.473L394.343 260.478L394.561 260.028ZM397.025 261.756L397.357 261.382L397.352 261.378L397.025 261.756ZM399.009 263.516L398.678 263.89L399.404 263.209L399.009 263.516ZM396.065 259.74L396.46 259.433L396.459 259.431L396.065 259.74ZM390.433 258.172H389.933V258.813L390.555 258.657L390.433 258.172ZM390.433 255.996L390.275 255.522L389.933 255.636V255.996H390.433ZM397.341 259.115L400.829 264.523L401.67 263.981L398.182 258.573L397.341 259.115ZM401.249 263.752H397.889V264.752H401.249V263.752ZM398.189 263.852C396.984 262.948 395.954 262.278 395.105 261.853L394.658 262.747C395.43 263.134 396.406 263.764 397.589 264.652L398.189 263.852ZM395.105 261.853C394.224 261.413 393.283 261.192 392.289 261.192V262.192C393.13 262.192 393.918 262.377 394.658 262.747L395.105 261.853ZM392.289 261.192C391.579 261.192 390.907 261.295 390.275 261.506L390.592 262.455C391.112 262.281 391.677 262.192 392.289 262.192V261.192ZM390.933 261.98V259.74H389.933V261.98H390.933ZM390.592 260.215C391.044 260.064 391.566 259.984 392.161 259.984V258.984C391.477 258.984 390.847 259.075 390.275 259.266L390.592 260.215ZM392.161 259.984C392.988 259.984 393.708 260.151 394.333 260.473L394.79 259.584C394.007 259.18 393.127 258.984 392.161 258.984V259.984ZM394.343 260.478C394.992 260.793 395.776 261.338 396.699 262.135L397.352 261.378C396.398 260.553 395.539 259.946 394.78 259.578L394.343 260.478ZM396.694 262.13L398.678 263.89L399.341 263.142L397.357 261.382L396.694 262.13ZM399.404 263.209L396.46 259.433L395.671 260.048L398.615 263.824L399.404 263.209ZM396.459 259.431C395.421 258.111 394.015 257.448 392.289 257.448V258.448C393.722 258.448 394.833 258.981 395.672 260.049L396.459 259.431ZM392.289 257.448C391.61 257.448 390.951 257.528 390.312 257.687L390.555 258.657C391.111 258.518 391.689 258.448 392.289 258.448V257.448ZM390.933 258.172V255.996H389.933V258.172H390.933ZM390.592 256.471C390.892 256.37 391.471 256.304 392.385 256.304V255.304C391.465 255.304 390.743 255.366 390.275 255.522L390.592 256.471ZM392.385 256.304C394.487 256.304 396.125 257.222 397.341 259.114L398.182 258.574C396.795 256.414 394.849 255.304 392.385 255.304V256.304Z" fill="#0186C6" mask="url(#path-10-outside-1_50_438)"/>
<path d="M115.41 328.072H451.592C466.656 328.072 478.5 338.303 478.5 350.257V377.888C478.5 389.842 466.656 400.072 451.592 400.072H115.41C100.346 400.072 88.5 389.842 88.5 377.888V350.257C88.5 338.303 100.346 328.072 115.41 328.072Z" fill="#FF0000" fill-opacity="0.05" stroke="#FF0000" stroke-width="3" stroke-linecap="square"/>
<mask id="path-13-outside-2_50_438" maskUnits="userSpaceOnUse" x="244" y="338.572" width="78" height="38" fill="black">
<rect fill="white" x="244" y="338.572" width="78" height="38"/>
<path d="M245.518 349.892H270.238V352.572H265.598V375.572H262.518V352.572H255.518V361.932C255.518 363.612 255.092 364.919 254.238 365.852C253.385 366.759 252.145 367.212 250.518 367.212C249.425 367.212 248.452 367.039 247.598 366.692V363.932C248.398 364.306 249.212 364.492 250.038 364.492C251.638 364.492 252.438 363.599 252.438 361.812V352.572H245.518V349.892ZM270.607 364.412V361.812H273.287C276.541 361.812 278.167 360.532 278.167 357.972V352.572H268.487V349.892H285.287V352.572H281.287V358.252C281.287 360.146 280.701 361.639 279.527 362.732C278.354 363.799 276.781 364.359 274.807 364.412H274.367L282.847 375.572H279.047L270.607 364.412ZM291.246 349.892H295.886V352.572H291.286V375.572H288.166V352.572H283.526V349.892H288.086V346.532C288.086 345.226 287.726 344.226 287.006 343.532C286.313 342.839 285.393 342.492 284.246 342.492C283.1 342.492 282.193 342.839 281.526 343.532C280.86 344.199 280.526 345.199 280.526 346.532V347.252H277.406V346.452C277.406 344.212 278.06 342.532 279.366 341.412C280.646 340.292 282.273 339.732 284.246 339.732C286.246 339.732 287.913 340.292 289.246 341.412C290.58 342.532 291.246 344.212 291.246 346.452V349.892ZM309.872 368.652L301.392 360.412C300.619 361.399 300.232 362.639 300.232 364.132C300.232 365.786 300.752 367.146 301.792 368.212C302.859 369.252 304.219 369.772 305.872 369.772C307.472 369.772 308.806 369.399 309.872 368.652ZM320.512 349.892V352.572H315.872V375.572H312.752V369.052C312.032 370.012 311.046 370.799 309.792 371.412C308.539 372.026 307.139 372.332 305.592 372.332C303.272 372.332 301.286 371.572 299.632 370.052C298.006 368.506 297.192 366.519 297.192 364.092C297.192 361.666 298.006 359.679 299.632 358.132C301.286 356.559 303.392 355.772 305.952 355.772C307.019 355.772 308.126 355.906 309.272 356.172V358.932C308.206 358.586 307.166 358.412 306.152 358.412C304.926 358.412 303.886 358.639 303.032 359.092L311.392 367.292C312.299 366.146 312.752 364.826 312.752 363.332V352.572H294.112V349.892H320.512Z"/>
</mask>
<path d="M245.518 349.892H270.238V352.572H265.598V375.572H262.518V352.572H255.518V361.932C255.518 363.612 255.092 364.919 254.238 365.852C253.385 366.759 252.145 367.212 250.518 367.212C249.425 367.212 248.452 367.039 247.598 366.692V363.932C248.398 364.306 249.212 364.492 250.038 364.492C251.638 364.492 252.438 363.599 252.438 361.812V352.572H245.518V349.892ZM270.607 364.412V361.812H273.287C276.541 361.812 278.167 360.532 278.167 357.972V352.572H268.487V349.892H285.287V352.572H281.287V358.252C281.287 360.146 280.701 361.639 279.527 362.732C278.354 363.799 276.781 364.359 274.807 364.412H274.367L282.847 375.572H279.047L270.607 364.412ZM291.246 349.892H295.886V352.572H291.286V375.572H288.166V352.572H283.526V349.892H288.086V346.532C288.086 345.226 287.726 344.226 287.006 343.532C286.313 342.839 285.393 342.492 284.246 342.492C283.1 342.492 282.193 342.839 281.526 343.532C280.86 344.199 280.526 345.199 280.526 346.532V347.252H277.406V346.452C277.406 344.212 278.06 342.532 279.366 341.412C280.646 340.292 282.273 339.732 284.246 339.732C286.246 339.732 287.913 340.292 289.246 341.412C290.58 342.532 291.246 344.212 291.246 346.452V349.892ZM309.872 368.652L301.392 360.412C300.619 361.399 300.232 362.639 300.232 364.132C300.232 365.786 300.752 367.146 301.792 368.212C302.859 369.252 304.219 369.772 305.872 369.772C307.472 369.772 308.806 369.399 309.872 368.652ZM320.512 349.892V352.572H315.872V375.572H312.752V369.052C312.032 370.012 311.046 370.799 309.792 371.412C308.539 372.026 307.139 372.332 305.592 372.332C303.272 372.332 301.286 371.572 299.632 370.052C298.006 368.506 297.192 366.519 297.192 364.092C297.192 361.666 298.006 359.679 299.632 358.132C301.286 356.559 303.392 355.772 305.952 355.772C307.019 355.772 308.126 355.906 309.272 356.172V358.932C308.206 358.586 307.166 358.412 306.152 358.412C304.926 358.412 303.886 358.639 303.032 359.092L311.392 367.292C312.299 366.146 312.752 364.826 312.752 363.332V352.572H294.112V349.892H320.512Z" fill="#FF0000"/>
<path d="M245.518 349.892V348.892H244.518V349.892H245.518ZM270.238 349.892H271.238V348.892H270.238V349.892ZM270.238 352.572V353.572H271.238V352.572H270.238ZM265.598 352.572V351.572H264.598V352.572H265.598ZM265.598 375.572V376.572H266.598V375.572H265.598ZM262.518 375.572H261.518V376.572H262.518V375.572ZM262.518 352.572H263.518V351.572H262.518V352.572ZM255.518 352.572V351.572H254.518V352.572H255.518ZM254.238 365.852L254.967 366.538L254.972 366.532L254.976 366.527L254.238 365.852ZM247.598 366.692H246.598V367.365L247.222 367.619L247.598 366.692ZM247.598 363.932L248.021 363.026L246.598 362.362V363.932H247.598ZM252.438 352.572H253.438V351.572H252.438V352.572ZM245.518 352.572H244.518V353.572H245.518V352.572ZM245.518 350.892H270.238V348.892H245.518V350.892ZM269.238 349.892V352.572H271.238V349.892H269.238ZM270.238 351.572H265.598V353.572H270.238V351.572ZM264.598 352.572V375.572H266.598V352.572H264.598ZM265.598 374.572H262.518V376.572H265.598V374.572ZM263.518 375.572V352.572H261.518V375.572H263.518ZM262.518 351.572H255.518V353.572H262.518V351.572ZM254.518 352.572V361.932H256.518V352.572H254.518ZM254.518 361.932C254.518 363.446 254.136 364.482 253.5 365.177L254.976 366.527C256.047 365.356 256.518 363.778 256.518 361.932H254.518ZM253.51 365.167C252.899 365.816 251.958 366.212 250.518 366.212V368.212C252.332 368.212 253.871 367.702 254.967 366.538L253.51 365.167ZM250.518 366.212C249.53 366.212 248.688 366.056 247.975 365.766L247.222 367.619C248.215 368.022 249.32 368.212 250.518 368.212V366.212ZM248.598 366.692V363.932H246.598V366.692H248.598ZM247.176 364.838C248.099 365.269 249.056 365.492 250.038 365.492V363.492C249.368 363.492 248.698 363.342 248.021 363.026L247.176 364.838ZM250.038 365.492C251.023 365.492 251.936 365.212 252.583 364.489C253.212 363.787 253.438 362.834 253.438 361.812H251.438C251.438 362.577 251.265 362.964 251.093 363.155C250.941 363.325 250.654 363.492 250.038 363.492V365.492ZM253.438 361.812V352.572H251.438V361.812H253.438ZM252.438 351.572H245.518V353.572H252.438V351.572ZM246.518 352.572V349.892H244.518V352.572H246.518ZM270.607 364.412H269.607V364.748L269.81 365.015L270.607 364.412ZM270.607 361.812V360.812H269.607V361.812H270.607ZM278.167 352.572H279.167V351.572H278.167V352.572ZM268.487 352.572H267.487V353.572H268.487V352.572ZM268.487 349.892V348.892H267.487V349.892H268.487ZM285.287 349.892H286.287V348.892H285.287V349.892ZM285.287 352.572V353.572H286.287V352.572H285.287ZM281.287 352.572V351.572H280.287V352.572H281.287ZM279.527 362.732L280.2 363.472L280.209 363.464L279.527 362.732ZM274.807 364.412V365.412H274.821L274.834 365.412L274.807 364.412ZM274.367 364.412V363.412H272.351L273.571 365.017L274.367 364.412ZM282.847 375.572V376.572H284.863L283.643 374.967L282.847 375.572ZM279.047 375.572L278.25 376.175L278.55 376.572H279.047V375.572ZM271.607 364.412V361.812H269.607V364.412H271.607ZM270.607 362.812H273.287V360.812H270.607V362.812ZM273.287 362.812C275.018 362.812 276.5 362.476 277.566 361.638C278.676 360.764 279.167 359.479 279.167 357.972H277.167C277.167 359.026 276.845 359.661 276.329 360.066C275.767 360.508 274.81 360.812 273.287 360.812V362.812ZM279.167 357.972V352.572H277.167V357.972H279.167ZM278.167 351.572H268.487V353.572H278.167V351.572ZM269.487 352.572V349.892H267.487V352.572H269.487ZM268.487 350.892H285.287V348.892H268.487V350.892ZM284.287 349.892V352.572H286.287V349.892H284.287ZM285.287 351.572H281.287V353.572H285.287V351.572ZM280.287 352.572V358.252H282.287V352.572H280.287ZM280.287 358.252C280.287 359.923 279.779 361.131 278.845 362.001L280.209 363.464C281.622 362.147 282.287 360.369 282.287 358.252H280.287ZM278.855 361.992C277.899 362.861 276.575 363.364 274.78 363.413L274.834 365.412C276.986 365.354 278.809 364.737 280.2 363.472L278.855 361.992ZM274.807 363.412H274.367V365.412H274.807V363.412ZM273.571 365.017L282.051 376.177L283.643 374.967L275.163 363.807L273.571 365.017ZM282.847 374.572H279.047V376.572H282.847V374.572ZM279.845 374.969L271.405 363.809L269.81 365.015L278.25 376.175L279.845 374.969ZM291.246 349.892H290.246V350.892H291.246V349.892ZM295.886 349.892H296.886V348.892H295.886V349.892ZM295.886 352.572V353.572H296.886V352.572H295.886ZM291.286 352.572V351.572H290.286V352.572H291.286ZM291.286 375.572V376.572H292.286V375.572H291.286ZM288.166 375.572H287.166V376.572H288.166V375.572ZM288.166 352.572H289.166V351.572H288.166V352.572ZM283.526 352.572H282.526V353.572H283.526V352.572ZM283.526 349.892V348.892H282.526V349.892H283.526ZM288.086 349.892V350.892H289.086V349.892H288.086ZM287.006 343.532L286.299 344.239L286.306 344.246L286.313 344.253L287.006 343.532ZM281.526 343.532L282.233 344.239L282.24 344.232L282.247 344.225L281.526 343.532ZM280.526 347.252V348.252H281.526V347.252H280.526ZM277.406 347.252H276.406V348.252H277.406V347.252ZM279.366 341.412L280.017 342.172L280.025 342.165L279.366 341.412ZM289.246 341.412L289.889 340.647L289.889 340.647L289.246 341.412ZM291.246 350.892H295.886V348.892H291.246V350.892ZM294.886 349.892V352.572H296.886V349.892H294.886ZM295.886 351.572H291.286V353.572H295.886V351.572ZM290.286 352.572V375.572H292.286V352.572H290.286ZM291.286 374.572H288.166V376.572H291.286V374.572ZM289.166 375.572V352.572H287.166V375.572H289.166ZM288.166 351.572H283.526V353.572H288.166V351.572ZM284.526 352.572V349.892H282.526V352.572H284.526ZM283.526 350.892H288.086V348.892H283.526V350.892ZM289.086 349.892V346.532H287.086V349.892H289.086ZM289.086 346.532C289.086 345.041 288.671 343.747 287.7 342.812L286.313 344.253C286.782 344.704 287.086 345.41 287.086 346.532H289.086ZM287.713 342.825C286.801 341.913 285.61 341.492 284.246 341.492V343.492C285.176 343.492 285.825 343.765 286.299 344.239L287.713 342.825ZM284.246 341.492C282.884 341.492 281.696 341.912 280.805 342.839L282.247 344.225C282.689 343.765 283.315 343.492 284.246 343.492V341.492ZM280.819 342.825C279.899 343.746 279.526 345.045 279.526 346.532H281.526C281.526 345.353 281.82 344.652 282.233 344.239L280.819 342.825ZM279.526 346.532V347.252H281.526V346.532H279.526ZM280.526 346.252H277.406V348.252H280.526V346.252ZM278.406 347.252V346.452H276.406V347.252H278.406ZM278.406 346.452C278.406 344.41 278.995 343.048 280.017 342.172L278.715 340.653C277.125 342.017 276.406 344.014 276.406 346.452H278.406ZM280.025 342.165C281.094 341.23 282.474 340.732 284.246 340.732V338.732C282.072 338.732 280.199 339.355 278.708 340.66L280.025 342.165ZM284.246 340.732C286.048 340.732 287.476 341.231 288.603 342.178L289.889 340.647C288.35 339.353 286.445 338.732 284.246 338.732V340.732ZM288.603 342.178C289.649 343.056 290.246 344.417 290.246 346.452H292.246C292.246 344.008 291.51 342.008 289.889 340.647L288.603 342.178ZM290.246 346.452V349.892H292.246V346.452H290.246ZM309.872 368.652L310.446 369.471L311.436 368.778L310.569 367.935L309.872 368.652ZM301.392 360.412L302.089 359.695L301.291 358.92L300.605 359.795L301.392 360.412ZM301.792 368.212L301.076 368.91L301.085 368.919L301.094 368.928L301.792 368.212ZM320.512 349.892H321.512V348.892H320.512V349.892ZM320.512 352.572V353.572H321.512V352.572H320.512ZM315.872 352.572V351.572H314.872V352.572H315.872ZM315.872 375.572V376.572H316.872V375.572H315.872ZM312.752 375.572H311.752V376.572H312.752V375.572ZM312.752 369.052H313.752V366.052L311.952 368.452L312.752 369.052ZM309.792 371.412L309.353 370.514L309.353 370.514L309.792 371.412ZM299.632 370.052L298.943 370.777L298.949 370.783L298.955 370.788L299.632 370.052ZM299.632 358.132L300.321 358.857L300.322 358.857L299.632 358.132ZM309.272 356.172H310.272V355.378L309.499 355.198L309.272 356.172ZM309.272 358.932L308.963 359.883L310.272 360.309V358.932H309.272ZM303.032 359.092L302.563 358.209L301.357 358.85L302.332 359.806L303.032 359.092ZM311.392 367.292L310.692 368.006L311.486 368.785L312.177 367.913L311.392 367.292ZM312.752 352.572H313.752V351.572H312.752V352.572ZM294.112 352.572H293.112V353.572H294.112V352.572ZM294.112 349.892V348.892H293.112V349.892H294.112ZM310.569 367.935L302.089 359.695L300.695 361.129L309.175 369.369L310.569 367.935ZM300.605 359.795C299.669 360.99 299.232 362.46 299.232 364.132H301.232C301.232 362.818 301.569 361.808 302.179 361.029L300.605 359.795ZM299.232 364.132C299.232 366.015 299.833 367.636 301.076 368.91L302.508 367.514C301.671 366.656 301.232 365.556 301.232 364.132H299.232ZM301.094 368.928C302.369 370.171 303.989 370.772 305.872 370.772V368.772C304.448 368.772 303.349 368.333 302.49 367.496L301.094 368.928ZM305.872 370.772C307.63 370.772 309.176 370.36 310.446 369.471L309.299 367.833C308.435 368.437 307.315 368.772 305.872 368.772V370.772ZM319.512 349.892V352.572H321.512V349.892H319.512ZM320.512 351.572H315.872V353.572H320.512V351.572ZM314.872 352.572V375.572H316.872V352.572H314.872ZM315.872 374.572H312.752V376.572H315.872V374.572ZM313.752 375.572V369.052H311.752V375.572H313.752ZM311.952 368.452C311.341 369.267 310.487 369.959 309.353 370.514L310.232 372.31C311.604 371.639 312.723 370.758 313.552 369.652L311.952 368.452ZM309.353 370.514C308.25 371.053 307.003 371.332 305.592 371.332V373.332C307.274 373.332 308.827 372.998 310.232 372.31L309.353 370.514ZM305.592 371.332C303.514 371.332 301.771 370.66 300.309 369.316L298.955 370.788C300.8 372.484 303.031 373.332 305.592 373.332V371.332ZM300.321 369.328C298.91 367.986 298.192 366.27 298.192 364.092H296.192C296.192 366.768 297.101 369.025 298.943 370.777L300.321 369.328ZM298.192 364.092C298.192 361.915 298.91 360.198 300.321 358.857L298.943 357.408C297.101 359.159 296.192 361.416 296.192 364.092H298.192ZM300.322 358.857C301.766 357.482 303.615 356.772 305.952 356.772V354.772C303.169 354.772 300.805 355.636 298.943 357.408L300.322 358.857ZM305.952 356.772C306.935 356.772 307.966 356.895 309.046 357.146L309.499 355.198C308.285 354.916 307.103 354.772 305.952 354.772V356.772ZM308.272 356.172V358.932H310.272V356.172H308.272ZM309.581 357.981C308.425 357.606 307.281 357.412 306.152 357.412V359.412C307.05 359.412 307.986 359.566 308.963 359.883L309.581 357.981ZM306.152 357.412C304.805 357.412 303.595 357.661 302.563 358.209L303.501 359.975C304.176 359.617 305.046 359.412 306.152 359.412V357.412ZM302.332 359.806L310.692 368.006L312.092 366.578L303.732 358.378L302.332 359.806ZM312.177 367.913C313.226 366.585 313.752 365.045 313.752 363.332H311.752C311.752 364.606 311.372 365.706 310.608 366.672L312.177 367.913ZM313.752 363.332V352.572H311.752V363.332H313.752ZM312.752 351.572H294.112V353.572H312.752V351.572ZM295.112 352.572V349.892H293.112V352.572H295.112ZM294.112 350.892H320.512V348.892H294.112V350.892Z" fill="#FF0000" mask="url(#path-13-outside-2_50_438)"/>
</svg>
