<svg width="567" height="402" viewBox="0 0 567 402" fill="none" xmlns="http://www.w3.org/2000/svg">
<path d="M91.5988 4.44889L110.849 48.3545C111.573 50.0069 112.727 51.4346 114.191 52.4886C115.655 53.5427 117.375 54.1844 119.172 54.3468L166.067 58.5515C171.373 59.3237 173.489 65.8309 169.642 69.5779L134.317 99.2535C131.457 101.656 130.156 105.432 130.942 109.079L141.211 157.146C142.112 162.423 136.577 166.456 131.829 163.954L90.898 139.984C89.3543 139.078 87.5967 138.6 85.8067 138.6C84.0167 138.6 82.2591 139.078 80.7154 139.984L39.7845 163.939C35.0507 166.428 29.5017 162.409 30.4027 157.132L40.6712 109.064C41.4434 105.417 40.1563 101.642 37.296 99.2392L1.957 69.5922C-1.87581 65.8595 0.240815 59.338 5.53237 58.5658L52.427 54.3611C54.2237 54.1987 55.9439 53.557 57.408 52.5029C58.8721 51.4489 60.0264 50.0212 60.7505 48.3688L80.0003 4.46319C82.3887 -0.342115 89.2248 -0.342114 91.5988 4.44889Z" fill="#FDD835"/>
<path d="M90.1971 50.9862L86.9364 18.6362C86.8077 16.8342 86.4358 13.7451 89.3247 13.7451C91.613 13.7451 92.8572 18.5075 92.8572 18.5075L102.639 44.4791C106.329 54.3614 104.813 57.7508 101.252 59.7531C97.162 62.0413 91.1267 60.2536 90.1971 50.9862Z" fill="#FFFF8D"/>
<path d="M130.542 96.3786L158.601 74.483C159.989 73.3246 162.491 71.4797 160.489 69.3774C158.902 67.7184 154.611 70.1067 154.611 70.1067L130.056 79.703C122.733 82.2344 117.871 85.9814 117.442 90.7009C116.884 96.9936 122.533 101.842 130.542 96.3786Z" fill="#F4B400"/>
<path d="M289.294 4.44889L308.544 48.3545C309.268 50.0069 310.422 51.4346 311.886 52.4886C313.351 53.5427 315.071 54.1844 316.867 54.3468L363.762 58.5515C369.068 59.3237 371.185 65.8309 367.337 69.5779L332.013 99.2535C329.152 101.656 327.851 105.432 328.638 109.079L338.906 157.146C339.807 162.423 334.272 166.456 329.524 163.954L288.593 139.984C287.05 139.078 285.292 138.6 283.502 138.6C281.712 138.6 279.954 139.078 278.411 139.984L237.48 163.939C232.746 166.428 227.197 162.409 228.098 157.132L238.366 109.064C239.139 105.417 237.852 101.642 234.991 99.2392L199.652 69.5922C195.82 65.8595 197.936 59.338 203.228 58.5658L250.122 54.3611C251.919 54.1987 253.639 53.557 255.103 52.5029C256.567 51.4489 257.722 50.0212 258.446 48.3688L277.696 4.46319C280.084 -0.342115 286.92 -0.342114 289.294 4.44889Z" fill="#FDD835"/>
<path d="M287.892 50.9862L284.632 18.6362C284.503 16.8342 284.131 13.7451 287.02 13.7451C289.308 13.7451 290.553 18.5075 290.553 18.5075L300.335 44.4791C304.025 54.3614 302.509 57.7508 298.948 59.7531C294.857 62.0413 288.822 60.2536 287.892 50.9862Z" fill="#FFFF8D"/>
<path d="M328.237 96.3786L356.297 74.483C357.684 73.3246 360.187 71.4797 358.185 69.3774C356.597 67.7184 352.307 70.1067 352.307 70.1067L327.751 79.703C320.429 82.2344 315.566 85.9814 315.137 90.7009C314.579 96.9936 320.228 101.842 328.237 96.3786Z" fill="#F4B400"/>
<g opacity="0.25">
<path d="M486.99 4.44889L506.24 48.3545C506.964 50.0069 508.118 51.4346 509.582 52.4886C511.046 53.5427 512.767 54.1844 514.563 54.3468L561.458 58.5515C566.764 59.3237 568.88 65.8309 565.033 69.5779L529.709 99.2535C526.848 101.656 525.547 105.432 526.333 109.079L536.602 157.146C537.503 162.423 531.968 166.456 527.22 163.954L486.289 139.984C484.745 139.078 482.988 138.6 481.198 138.6C479.408 138.6 477.65 139.078 476.106 139.984L435.176 163.939C430.442 166.428 424.893 162.409 425.794 157.132L436.062 109.064C436.835 105.417 435.547 101.642 432.687 99.2392L397.348 69.5922C393.515 65.8595 395.632 59.338 400.923 58.5658L447.818 54.3611C449.615 54.1987 451.335 53.557 452.799 52.5029C454.263 51.4489 455.418 50.0212 456.142 48.3688L475.391 4.46319C477.78 -0.342115 484.616 -0.342114 486.99 4.44889Z" fill="#FDD835"/>
<path d="M485.588 50.9862L482.327 18.6362C482.199 16.8342 481.827 13.7451 484.716 13.7451C487.004 13.7451 488.248 18.5075 488.248 18.5075L498.031 44.4791C501.72 54.3614 500.204 57.7508 496.643 59.7531C492.553 62.0413 486.518 60.2536 485.588 50.9862Z" fill="#FFFF8D"/>
<path d="M525.933 96.3786L553.993 74.483C555.38 73.3246 557.883 71.4797 555.88 69.3774C554.293 67.7184 550.002 70.1067 550.002 70.1067L525.447 79.703C518.124 82.2344 513.262 85.9814 512.833 90.7009C512.275 96.9936 517.924 101.842 525.933 96.3786Z" fill="#F4B400"/>
</g>
<mask id="path-10-outside-1_50_420" maskUnits="userSpaceOnUse" x="162" y="254.715" width="244" height="32" fill="black">
<rect fill="white" x="162" y="254.715" width="244" height="32"/>
<path d="M192.46 264.171V266.315H188.748V284.715H186.252V266.315H180.267V284.715H177.772V276.395H173.356C173.377 276.544 173.388 276.779 173.388 277.099C173.388 278.678 172.822 279.958 171.692 280.939C170.582 281.92 169.036 282.411 167.052 282.411C165.665 282.411 164.364 282.155 163.148 281.643V279.275C164.47 279.936 165.761 280.267 167.02 280.267C168.044 280.267 168.94 280 169.708 279.467C170.497 278.912 170.892 278.048 170.892 276.875C170.892 275.958 170.561 275.243 169.9 274.731C169.238 274.219 168.236 273.963 166.891 273.963H165.804V271.723H166.828C167.958 271.723 168.812 271.478 169.388 270.987C169.964 270.496 170.252 269.835 170.252 269.003C170.252 267.254 169.249 266.379 167.244 266.379C166.113 266.379 165.078 266.635 164.14 267.147V264.779C165.057 264.395 166.102 264.203 167.276 264.203C169.025 264.203 170.369 264.608 171.308 265.419C172.268 266.23 172.748 267.328 172.748 268.715C172.748 269.782 172.47 270.667 171.916 271.371C171.382 272.075 170.678 272.544 169.804 272.779C170.892 272.928 171.766 273.408 172.428 274.219H177.772V266.315H174.86V264.171H192.46ZM203.942 272.491V266.315H196.454V272.747C196.454 274.262 196.731 275.36 197.286 276.043C197.841 276.704 198.694 277.035 199.846 277.035C200.977 277.035 201.937 276.63 202.726 275.819C203.537 274.987 203.942 273.878 203.942 272.491ZM210.15 264.171V266.315H206.47V284.715H203.942V277.099C202.961 278.4 201.542 279.062 199.686 279.083C195.846 279.083 193.926 276.96 193.926 272.715V266.315H191.046V264.171H210.15ZM234.814 266.315H223.038V270.891C224.019 269.867 225.267 269.355 226.782 269.355C228.531 269.355 229.95 269.888 231.038 270.955C232.126 272.022 232.67 273.419 232.67 275.147C232.67 277.003 232.062 278.486 230.846 279.595C229.63 280.704 228.115 281.259 226.302 281.259C226.067 281.259 225.822 281.238 225.566 281.195V279.051C225.779 279.094 225.992 279.115 226.206 279.115C227.336 279.115 228.275 278.763 229.022 278.059C229.768 277.355 230.142 276.384 230.142 275.147C230.142 274.059 229.8 273.174 229.118 272.491C228.456 271.787 227.582 271.435 226.494 271.435C225.555 271.435 224.744 271.766 224.062 272.427C223.379 273.067 223.038 273.878 223.038 274.859V284.715H220.51V280.107C219.571 281.088 218.334 281.579 216.798 281.579C215.048 281.579 213.63 281.056 212.542 280.011C211.454 278.944 210.91 277.547 210.91 275.819C210.91 273.963 211.518 272.48 212.734 271.371C213.95 270.24 215.454 269.675 217.246 269.675C217.587 269.675 217.832 269.707 217.982 269.771V271.883C217.875 271.862 217.672 271.851 217.374 271.851C216.222 271.851 215.272 272.203 214.526 272.907C213.779 273.611 213.406 274.571 213.406 275.787C213.406 276.875 213.747 277.771 214.43 278.475C215.112 279.179 215.998 279.531 217.086 279.531C218.024 279.531 218.824 279.2 219.486 278.539C220.168 277.878 220.51 277.056 220.51 276.075V266.315H208.733V264.171H234.814V266.315ZM233.421 266.315V264.171H243.341V266.315H239.629V284.715H237.133V266.315H233.421ZM249.733 264.171H268.742V266.315H264.902V271.659H259.27C257.819 271.659 256.678 272.032 255.846 272.779C255.014 273.526 254.598 274.571 254.598 275.915C254.598 277.302 254.971 278.39 255.718 279.179C256.464 279.968 257.467 280.363 258.726 280.363C259.984 280.363 260.987 280.011 261.734 279.307C262.502 278.603 262.907 277.696 262.95 276.587H265.35V285.035H262.854V280.779C261.979 281.888 260.539 282.443 258.534 282.443C256.55 282.443 254.95 281.824 253.734 280.587C252.518 279.35 251.91 277.824 251.91 276.011C251.91 274.112 252.539 272.566 253.798 271.371C255.056 270.155 256.816 269.547 259.078 269.547H262.406V266.315H249.733V264.171ZM262.37 260.875C262.029 260.555 261.858 260.15 261.858 259.659C261.858 259.168 262.029 258.752 262.37 258.411C262.69 258.07 263.096 257.899 263.586 257.899C264.077 257.899 264.493 258.07 264.834 258.411C265.176 258.752 265.346 259.168 265.346 259.659C265.346 260.15 265.176 260.555 264.834 260.875C264.493 261.195 264.077 261.355 263.586 261.355C263.096 261.355 262.69 261.195 262.37 260.875ZM287.551 264.171V266.315H283.839V284.715H281.343V272.427H278.303C274.527 272.427 272.639 274.091 272.639 277.419C272.639 278.998 273.023 280.246 273.791 281.163C274.581 282.08 275.733 282.539 277.247 282.539C277.61 282.539 277.855 282.528 277.983 282.507V284.651C277.642 284.694 277.322 284.715 277.023 284.715C274.89 284.715 273.205 284.032 271.967 282.667C270.73 281.302 270.111 279.542 270.111 277.387C270.111 275.254 270.783 273.536 272.127 272.235C273.471 270.912 275.434 270.251 278.015 270.251H281.343V266.315H267.327V264.171H287.551ZM319.841 274.699V266.315H303.265V270.891C303.265 272.235 302.977 273.291 302.401 274.059H308.673C309.014 272.715 309.729 271.638 310.817 270.827C311.926 269.995 313.26 269.579 314.817 269.579C315.606 269.579 316.278 269.664 316.833 269.835V272.043C316.3 271.851 315.67 271.755 314.945 271.755C313.814 271.755 312.876 272.118 312.129 272.843C311.382 273.547 311.009 274.486 311.009 275.659C311.009 276.896 311.382 277.888 312.129 278.635C312.897 279.382 313.846 279.755 314.977 279.755C316.47 279.755 317.654 279.254 318.529 278.251C319.404 277.248 319.841 276.064 319.841 274.699ZM326.049 264.171V266.315H322.337V284.715H319.841V279.403C318.732 281.003 317.025 281.803 314.721 281.803C313.1 281.803 311.692 281.302 310.497 280.299C309.302 279.296 308.641 277.942 308.513 276.235H304.097C301.729 276.235 299.916 276.139 298.657 275.947L304.545 284.715H301.505L295.521 275.691V273.707H297.633C298.849 273.707 299.67 273.472 300.097 273.003C300.545 272.512 300.769 271.744 300.769 270.699V266.315H293.921V264.171H326.049ZM324.64 266.315V264.171H334.56V266.315H330.848V284.715H328.352V266.315H324.64ZM373.556 274.027V266.315H367.572C368.105 267.126 368.372 268.118 368.372 269.291C368.372 271.83 366.782 273.579 363.604 274.539C363.881 275.712 364.468 276.683 365.364 277.451C366.26 278.198 367.337 278.571 368.596 278.571C370.068 278.571 371.262 278.166 372.18 277.355C373.097 276.523 373.556 275.414 373.556 274.027ZM360.66 264.171H379.732V266.315H376.02V284.715H373.556V278.507C372.468 279.979 370.74 280.715 368.372 280.715C366.153 280.715 364.34 279.926 362.932 278.347C360.884 280.288 358.441 281.259 355.604 281.259C353.79 281.259 352.158 280.822 350.708 279.947C349.257 279.051 348.254 277.707 347.7 275.915C346.633 276.128 345.342 276.235 343.828 276.235H343.316C340.948 276.235 339.134 276.139 337.876 275.947L343.764 284.715H340.724L334.74 275.691V273.707H336.852C338.068 273.707 338.889 273.472 339.316 273.003C339.764 272.512 339.988 271.744 339.988 270.699V266.315H333.14V264.171H346.676V266.315H342.484V270.891C342.484 272.235 342.196 273.291 341.62 274.059H343.796C344.969 274.059 346.196 273.952 347.476 273.739C348.777 273.526 350.036 273.206 351.252 272.779C352.468 272.352 353.47 271.776 354.26 271.051C355.049 270.304 355.444 269.462 355.444 268.523C355.444 267.798 355.262 267.211 354.9 266.763C354.558 266.315 354.025 266.091 353.3 266.091C352.596 266.091 352.062 266.304 351.7 266.731C351.337 267.136 351.156 267.659 351.156 268.299C351.156 268.96 351.294 269.558 351.572 270.091H349.108C348.83 269.515 348.692 268.832 348.692 268.043C348.692 266.934 349.118 265.984 349.972 265.195C350.825 264.384 351.934 263.979 353.3 263.979C354.729 263.979 355.849 264.416 356.66 265.291C357.47 266.144 357.876 267.211 357.876 268.491C357.876 271.819 355.305 274.08 350.164 275.275C350.484 276.47 351.134 277.408 352.116 278.091C353.097 278.774 354.27 279.115 355.636 279.115C358.004 279.115 360.041 278.283 361.748 276.619C361.214 275.616 360.852 274.4 360.66 272.971C362.366 272.715 363.657 272.246 364.532 271.563C365.428 270.88 365.876 270.08 365.876 269.163C365.876 268.054 365.545 267.104 364.884 266.315H360.66V264.171ZM400.924 271.339H393.244C392.049 271.339 391.452 271.819 391.452 272.779C391.452 273.334 391.601 273.835 391.9 274.283C392.198 274.71 392.55 275.019 392.956 275.211C393.852 274.891 394.886 274.731 396.06 274.731C397.809 274.731 399.153 275.158 400.092 276.011C401.03 276.843 401.5 277.846 401.5 279.019C401.5 279.723 401.382 280.32 401.148 280.811H398.684C398.982 280.406 399.132 279.851 399.132 279.147C399.132 278.464 398.865 277.91 398.332 277.483C397.82 277.035 397.052 276.811 396.028 276.811C394.62 276.811 393.521 277.12 392.732 277.739C391.942 278.358 391.548 279.104 391.548 279.979C391.548 281.046 392.006 281.92 392.924 282.603C393.841 283.264 395.238 283.595 397.116 283.595C398.417 283.595 399.75 283.403 401.116 283.019V285.163C399.644 285.526 398.246 285.707 396.924 285.707C394.406 285.707 392.465 285.131 391.1 283.979C389.734 282.827 389.052 281.483 389.052 279.947C389.052 278.432 389.724 277.174 391.068 276.171C389.638 275.232 388.924 273.995 388.924 272.459C388.924 271.435 389.286 270.646 390.012 270.091C390.737 269.536 391.676 269.259 392.828 269.259H398.46V266.315H386.14V264.171H404.54V266.315H400.924V271.339ZM397.761 258.987L401.249 264.395H397.889C396.695 263.499 395.692 262.848 394.881 262.443C394.071 262.038 393.207 261.835 392.289 261.835C391.628 261.835 391.009 261.931 390.433 262.123V259.883C390.945 259.712 391.521 259.627 392.161 259.627C393.057 259.627 393.857 259.808 394.561 260.171C395.265 260.512 396.087 261.088 397.025 261.899L399.009 263.659L396.065 259.883C395.127 258.688 393.868 258.091 392.289 258.091C391.649 258.091 391.031 258.166 390.433 258.315V256.139C390.817 256.011 391.468 255.947 392.385 255.947C394.668 255.947 396.46 256.96 397.761 258.987Z"/>
</mask>
<path d="M192.46 264.171V266.315H188.748V284.715H186.252V266.315H180.267V284.715H177.772V276.395H173.356C173.377 276.544 173.388 276.779 173.388 277.099C173.388 278.678 172.822 279.958 171.692 280.939C170.582 281.92 169.036 282.411 167.052 282.411C165.665 282.411 164.364 282.155 163.148 281.643V279.275C164.47 279.936 165.761 280.267 167.02 280.267C168.044 280.267 168.94 280 169.708 279.467C170.497 278.912 170.892 278.048 170.892 276.875C170.892 275.958 170.561 275.243 169.9 274.731C169.238 274.219 168.236 273.963 166.891 273.963H165.804V271.723H166.828C167.958 271.723 168.812 271.478 169.388 270.987C169.964 270.496 170.252 269.835 170.252 269.003C170.252 267.254 169.249 266.379 167.244 266.379C166.113 266.379 165.078 266.635 164.14 267.147V264.779C165.057 264.395 166.102 264.203 167.276 264.203C169.025 264.203 170.369 264.608 171.308 265.419C172.268 266.23 172.748 267.328 172.748 268.715C172.748 269.782 172.47 270.667 171.916 271.371C171.382 272.075 170.678 272.544 169.804 272.779C170.892 272.928 171.766 273.408 172.428 274.219H177.772V266.315H174.86V264.171H192.46ZM203.942 272.491V266.315H196.454V272.747C196.454 274.262 196.731 275.36 197.286 276.043C197.841 276.704 198.694 277.035 199.846 277.035C200.977 277.035 201.937 276.63 202.726 275.819C203.537 274.987 203.942 273.878 203.942 272.491ZM210.15 264.171V266.315H206.47V284.715H203.942V277.099C202.961 278.4 201.542 279.062 199.686 279.083C195.846 279.083 193.926 276.96 193.926 272.715V266.315H191.046V264.171H210.15ZM234.814 266.315H223.038V270.891C224.019 269.867 225.267 269.355 226.782 269.355C228.531 269.355 229.95 269.888 231.038 270.955C232.126 272.022 232.67 273.419 232.67 275.147C232.67 277.003 232.062 278.486 230.846 279.595C229.63 280.704 228.115 281.259 226.302 281.259C226.067 281.259 225.822 281.238 225.566 281.195V279.051C225.779 279.094 225.992 279.115 226.206 279.115C227.336 279.115 228.275 278.763 229.022 278.059C229.768 277.355 230.142 276.384 230.142 275.147C230.142 274.059 229.8 273.174 229.118 272.491C228.456 271.787 227.582 271.435 226.494 271.435C225.555 271.435 224.744 271.766 224.062 272.427C223.379 273.067 223.038 273.878 223.038 274.859V284.715H220.51V280.107C219.571 281.088 218.334 281.579 216.798 281.579C215.048 281.579 213.63 281.056 212.542 280.011C211.454 278.944 210.91 277.547 210.91 275.819C210.91 273.963 211.518 272.48 212.734 271.371C213.95 270.24 215.454 269.675 217.246 269.675C217.587 269.675 217.832 269.707 217.982 269.771V271.883C217.875 271.862 217.672 271.851 217.374 271.851C216.222 271.851 215.272 272.203 214.526 272.907C213.779 273.611 213.406 274.571 213.406 275.787C213.406 276.875 213.747 277.771 214.43 278.475C215.112 279.179 215.998 279.531 217.086 279.531C218.024 279.531 218.824 279.2 219.486 278.539C220.168 277.878 220.51 277.056 220.51 276.075V266.315H208.733V264.171H234.814V266.315ZM233.421 266.315V264.171H243.341V266.315H239.629V284.715H237.133V266.315H233.421ZM249.733 264.171H268.742V266.315H264.902V271.659H259.27C257.819 271.659 256.678 272.032 255.846 272.779C255.014 273.526 254.598 274.571 254.598 275.915C254.598 277.302 254.971 278.39 255.718 279.179C256.464 279.968 257.467 280.363 258.726 280.363C259.984 280.363 260.987 280.011 261.734 279.307C262.502 278.603 262.907 277.696 262.95 276.587H265.35V285.035H262.854V280.779C261.979 281.888 260.539 282.443 258.534 282.443C256.55 282.443 254.95 281.824 253.734 280.587C252.518 279.35 251.91 277.824 251.91 276.011C251.91 274.112 252.539 272.566 253.798 271.371C255.056 270.155 256.816 269.547 259.078 269.547H262.406V266.315H249.733V264.171ZM262.37 260.875C262.029 260.555 261.858 260.15 261.858 259.659C261.858 259.168 262.029 258.752 262.37 258.411C262.69 258.07 263.096 257.899 263.586 257.899C264.077 257.899 264.493 258.07 264.834 258.411C265.176 258.752 265.346 259.168 265.346 259.659C265.346 260.15 265.176 260.555 264.834 260.875C264.493 261.195 264.077 261.355 263.586 261.355C263.096 261.355 262.69 261.195 262.37 260.875ZM287.551 264.171V266.315H283.839V284.715H281.343V272.427H278.303C274.527 272.427 272.639 274.091 272.639 277.419C272.639 278.998 273.023 280.246 273.791 281.163C274.581 282.08 275.733 282.539 277.247 282.539C277.61 282.539 277.855 282.528 277.983 282.507V284.651C277.642 284.694 277.322 284.715 277.023 284.715C274.89 284.715 273.205 284.032 271.967 282.667C270.73 281.302 270.111 279.542 270.111 277.387C270.111 275.254 270.783 273.536 272.127 272.235C273.471 270.912 275.434 270.251 278.015 270.251H281.343V266.315H267.327V264.171H287.551ZM319.841 274.699V266.315H303.265V270.891C303.265 272.235 302.977 273.291 302.401 274.059H308.673C309.014 272.715 309.729 271.638 310.817 270.827C311.926 269.995 313.26 269.579 314.817 269.579C315.606 269.579 316.278 269.664 316.833 269.835V272.043C316.3 271.851 315.67 271.755 314.945 271.755C313.814 271.755 312.876 272.118 312.129 272.843C311.382 273.547 311.009 274.486 311.009 275.659C311.009 276.896 311.382 277.888 312.129 278.635C312.897 279.382 313.846 279.755 314.977 279.755C316.47 279.755 317.654 279.254 318.529 278.251C319.404 277.248 319.841 276.064 319.841 274.699ZM326.049 264.171V266.315H322.337V284.715H319.841V279.403C318.732 281.003 317.025 281.803 314.721 281.803C313.1 281.803 311.692 281.302 310.497 280.299C309.302 279.296 308.641 277.942 308.513 276.235H304.097C301.729 276.235 299.916 276.139 298.657 275.947L304.545 284.715H301.505L295.521 275.691V273.707H297.633C298.849 273.707 299.67 273.472 300.097 273.003C300.545 272.512 300.769 271.744 300.769 270.699V266.315H293.921V264.171H326.049ZM324.64 266.315V264.171H334.56V266.315H330.848V284.715H328.352V266.315H324.64ZM373.556 274.027V266.315H367.572C368.105 267.126 368.372 268.118 368.372 269.291C368.372 271.83 366.782 273.579 363.604 274.539C363.881 275.712 364.468 276.683 365.364 277.451C366.26 278.198 367.337 278.571 368.596 278.571C370.068 278.571 371.262 278.166 372.18 277.355C373.097 276.523 373.556 275.414 373.556 274.027ZM360.66 264.171H379.732V266.315H376.02V284.715H373.556V278.507C372.468 279.979 370.74 280.715 368.372 280.715C366.153 280.715 364.34 279.926 362.932 278.347C360.884 280.288 358.441 281.259 355.604 281.259C353.79 281.259 352.158 280.822 350.708 279.947C349.257 279.051 348.254 277.707 347.7 275.915C346.633 276.128 345.342 276.235 343.828 276.235H343.316C340.948 276.235 339.134 276.139 337.876 275.947L343.764 284.715H340.724L334.74 275.691V273.707H336.852C338.068 273.707 338.889 273.472 339.316 273.003C339.764 272.512 339.988 271.744 339.988 270.699V266.315H333.14V264.171H346.676V266.315H342.484V270.891C342.484 272.235 342.196 273.291 341.62 274.059H343.796C344.969 274.059 346.196 273.952 347.476 273.739C348.777 273.526 350.036 273.206 351.252 272.779C352.468 272.352 353.47 271.776 354.26 271.051C355.049 270.304 355.444 269.462 355.444 268.523C355.444 267.798 355.262 267.211 354.9 266.763C354.558 266.315 354.025 266.091 353.3 266.091C352.596 266.091 352.062 266.304 351.7 266.731C351.337 267.136 351.156 267.659 351.156 268.299C351.156 268.96 351.294 269.558 351.572 270.091H349.108C348.83 269.515 348.692 268.832 348.692 268.043C348.692 266.934 349.118 265.984 349.972 265.195C350.825 264.384 351.934 263.979 353.3 263.979C354.729 263.979 355.849 264.416 356.66 265.291C357.47 266.144 357.876 267.211 357.876 268.491C357.876 271.819 355.305 274.08 350.164 275.275C350.484 276.47 351.134 277.408 352.116 278.091C353.097 278.774 354.27 279.115 355.636 279.115C358.004 279.115 360.041 278.283 361.748 276.619C361.214 275.616 360.852 274.4 360.66 272.971C362.366 272.715 363.657 272.246 364.532 271.563C365.428 270.88 365.876 270.08 365.876 269.163C365.876 268.054 365.545 267.104 364.884 266.315H360.66V264.171ZM400.924 271.339H393.244C392.049 271.339 391.452 271.819 391.452 272.779C391.452 273.334 391.601 273.835 391.9 274.283C392.198 274.71 392.55 275.019 392.956 275.211C393.852 274.891 394.886 274.731 396.06 274.731C397.809 274.731 399.153 275.158 400.092 276.011C401.03 276.843 401.5 277.846 401.5 279.019C401.5 279.723 401.382 280.32 401.148 280.811H398.684C398.982 280.406 399.132 279.851 399.132 279.147C399.132 278.464 398.865 277.91 398.332 277.483C397.82 277.035 397.052 276.811 396.028 276.811C394.62 276.811 393.521 277.12 392.732 277.739C391.942 278.358 391.548 279.104 391.548 279.979C391.548 281.046 392.006 281.92 392.924 282.603C393.841 283.264 395.238 283.595 397.116 283.595C398.417 283.595 399.75 283.403 401.116 283.019V285.163C399.644 285.526 398.246 285.707 396.924 285.707C394.406 285.707 392.465 285.131 391.1 283.979C389.734 282.827 389.052 281.483 389.052 279.947C389.052 278.432 389.724 277.174 391.068 276.171C389.638 275.232 388.924 273.995 388.924 272.459C388.924 271.435 389.286 270.646 390.012 270.091C390.737 269.536 391.676 269.259 392.828 269.259H398.46V266.315H386.14V264.171H404.54V266.315H400.924V271.339ZM397.761 258.987L401.249 264.395H397.889C396.695 263.499 395.692 262.848 394.881 262.443C394.071 262.038 393.207 261.835 392.289 261.835C391.628 261.835 391.009 261.931 390.433 262.123V259.883C390.945 259.712 391.521 259.627 392.161 259.627C393.057 259.627 393.857 259.808 394.561 260.171C395.265 260.512 396.087 261.088 397.025 261.899L399.009 263.659L396.065 259.883C395.127 258.688 393.868 258.091 392.289 258.091C391.649 258.091 391.031 258.166 390.433 258.315V256.139C390.817 256.011 391.468 255.947 392.385 255.947C394.668 255.947 396.46 256.96 397.761 258.987Z" fill="#0186C6"/>
<path d="M192.46 264.171H192.96V263.671H192.46V264.171ZM192.46 266.315V266.815H192.96V266.315H192.46ZM188.748 266.315V265.815H188.248V266.315H188.748ZM188.748 284.715V285.215H189.248V284.715H188.748ZM186.252 284.715H185.752V285.215H186.252V284.715ZM186.252 266.315H186.752V265.815H186.252V266.315ZM180.267 266.315V265.815H179.767V266.315H180.267ZM180.267 284.715V285.215H180.767V284.715H180.267ZM177.772 284.715H177.272V285.215H177.772V284.715ZM177.772 276.395H178.272V275.895H177.772V276.395ZM173.356 276.395V275.895H172.779L172.861 276.466L173.356 276.395ZM171.692 280.939L171.364 280.561L171.36 280.564L171.692 280.939ZM163.148 281.643H162.648V281.975L162.953 282.104L163.148 281.643ZM163.148 279.275L163.371 278.828L162.648 278.466V279.275H163.148ZM169.708 279.467L169.993 279.878L169.995 279.876L169.708 279.467ZM169.9 274.731L169.593 275.126L169.593 275.126L169.9 274.731ZM165.804 273.963H165.304V274.463H165.804V273.963ZM165.804 271.723V271.223H165.304V271.723H165.804ZM164.14 267.147H163.64V267.989L164.379 267.586L164.14 267.147ZM164.14 264.779L163.946 264.318L163.64 264.446V264.779H164.14ZM171.308 265.419L170.981 265.797L170.985 265.801L171.308 265.419ZM171.916 271.371L171.523 271.061L171.517 271.069L171.916 271.371ZM169.804 272.779L169.674 272.296L169.736 273.274L169.804 272.779ZM172.428 274.219L172.04 274.535L172.19 274.719H172.428V274.219ZM177.772 274.219V274.719H178.272V274.219H177.772ZM177.772 266.315H178.272V265.815H177.772V266.315ZM174.86 266.315H174.36V266.815H174.86V266.315ZM174.86 264.171V263.671H174.36V264.171H174.86ZM191.96 264.171V266.315H192.96V264.171H191.96ZM192.46 265.815H188.748V266.815H192.46V265.815ZM188.248 266.315V284.715H189.248V266.315H188.248ZM188.748 284.215H186.252V285.215H188.748V284.215ZM186.752 284.715V266.315H185.752V284.715H186.752ZM186.252 265.815H180.267V266.815H186.252V265.815ZM179.767 266.315V284.715H180.767V266.315H179.767ZM180.267 284.215H177.772V285.215H180.267V284.215ZM178.272 284.715V276.395H177.272V284.715H178.272ZM177.772 275.895H173.356V276.895H177.772V275.895ZM172.861 276.466C172.877 276.578 172.888 276.782 172.888 277.099H173.888C173.888 276.775 173.877 276.511 173.85 276.324L172.861 276.466ZM172.888 277.099C172.888 278.542 172.378 279.681 171.364 280.561L172.019 281.316C173.266 280.234 173.888 278.813 173.888 277.099H172.888ZM171.36 280.564C170.369 281.441 168.955 281.911 167.052 281.911V282.911C169.116 282.911 170.795 282.4 172.023 281.313L171.36 280.564ZM167.052 281.911C165.728 281.911 164.493 281.667 163.342 281.182L162.953 282.104C164.234 282.643 165.602 282.911 167.052 282.911V281.911ZM163.648 281.643V279.275H162.648V281.643H163.648ZM162.924 279.722C164.304 280.412 165.671 280.767 167.02 280.767V279.767C165.851 279.767 164.636 279.46 163.371 278.828L162.924 279.722ZM167.02 280.767C168.135 280.767 169.133 280.475 169.993 279.878L169.422 279.056C168.746 279.526 167.952 279.767 167.02 279.767V280.767ZM169.995 279.876C170.947 279.207 171.392 278.171 171.392 276.875H170.392C170.392 277.925 170.047 278.618 169.42 279.058L169.995 279.876ZM171.392 276.875C171.392 275.82 171.002 274.952 170.206 274.335L169.593 275.126C170.119 275.533 170.392 276.095 170.392 276.875H171.392ZM170.206 274.335C169.418 273.725 168.284 273.463 166.891 273.463V274.463C168.187 274.463 169.059 274.712 169.593 275.126L170.206 274.335ZM166.891 273.463H165.804V274.463H166.891V273.463ZM166.304 273.963V271.723H165.304V273.963H166.304ZM165.804 272.223H166.828V271.223H165.804V272.223ZM166.828 272.223C168.02 272.223 169.01 271.965 169.712 271.367L169.063 270.606C168.613 270.99 167.896 271.223 166.828 271.223V272.223ZM169.712 271.367C170.411 270.772 170.752 269.965 170.752 269.003H169.752C169.752 269.705 169.516 270.221 169.063 270.606L169.712 271.367ZM170.752 269.003C170.752 268.032 170.47 267.218 169.828 266.658C169.199 266.109 168.308 265.879 167.244 265.879V266.879C168.185 266.879 168.797 267.086 169.171 267.412C169.532 267.726 169.752 268.224 169.752 269.003H170.752ZM167.244 265.879C166.034 265.879 164.916 266.154 163.9 266.708L164.379 267.586C165.24 267.116 166.192 266.879 167.244 266.879V265.879ZM164.64 267.147V264.779H163.64V267.147H164.64ZM164.333 265.24C165.179 264.886 166.157 264.703 167.276 264.703V263.703C166.048 263.703 164.935 263.904 163.946 264.318L164.333 265.24ZM167.276 264.703C168.954 264.703 170.164 265.092 170.981 265.797L171.634 265.04C170.574 264.124 169.096 263.703 167.276 263.703V264.703ZM170.985 265.801C171.82 266.506 172.248 267.458 172.248 268.715H173.248C173.248 267.198 172.715 265.953 171.63 265.037L170.985 265.801ZM172.248 268.715C172.248 269.691 171.995 270.462 171.523 271.061L172.308 271.68C172.945 270.872 173.248 269.872 173.248 268.715H172.248ZM171.517 271.069C171.053 271.682 170.444 272.089 169.674 272.296L169.933 273.262C170.912 272.999 171.712 272.468 172.314 271.673L171.517 271.069ZM169.736 273.274C170.705 273.407 171.463 273.827 172.04 274.535L172.815 273.903C172.069 272.989 171.078 272.449 169.871 272.283L169.736 273.274ZM172.428 274.719H177.772V273.719H172.428V274.719ZM178.272 274.219V266.315H177.272V274.219H178.272ZM177.772 265.815H174.86V266.815H177.772V265.815ZM175.36 266.315V264.171H174.36V266.315H175.36ZM174.86 264.671H192.46V263.671H174.86V264.671ZM203.942 266.315H204.442V265.815H203.942V266.315ZM196.454 266.315V265.815H195.954V266.315H196.454ZM197.286 276.043L196.898 276.358L196.903 276.364L197.286 276.043ZM202.726 275.819L202.368 275.47L202.368 275.47L202.726 275.819ZM210.15 264.171H210.65V263.671H210.15V264.171ZM210.15 266.315V266.815H210.65V266.315H210.15ZM206.47 266.315V265.815H205.97V266.315H206.47ZM206.47 284.715V285.215H206.97V284.715H206.47ZM203.942 284.715H203.442V285.215H203.942V284.715ZM203.942 277.099H204.442V275.605L203.543 276.798L203.942 277.099ZM199.686 279.083V279.583L199.692 279.583L199.686 279.083ZM193.926 266.315H194.426V265.815H193.926V266.315ZM191.046 266.315H190.546V266.815H191.046V266.315ZM191.046 264.171V263.671H190.546V264.171H191.046ZM204.442 272.491V266.315H203.442V272.491H204.442ZM203.942 265.815H196.454V266.815H203.942V265.815ZM195.954 266.315V272.747H196.954V266.315H195.954ZM195.954 272.747C195.954 274.301 196.235 275.542 196.898 276.358L197.674 275.728C197.228 275.179 196.954 274.222 196.954 272.747H195.954ZM196.903 276.364C197.582 277.174 198.599 277.535 199.846 277.535V276.535C198.789 276.535 198.099 276.235 197.669 275.722L196.903 276.364ZM199.846 277.535C201.112 277.535 202.201 277.075 203.084 276.168L202.368 275.47C201.672 276.184 200.842 276.535 199.846 276.535V277.535ZM203.084 276.168C204.003 275.225 204.442 273.981 204.442 272.491H203.442C203.442 273.774 203.07 274.749 202.368 275.47L203.084 276.168ZM209.65 264.171V266.315H210.65V264.171H209.65ZM210.15 265.815H206.47V266.815H210.15V265.815ZM205.97 266.315V284.715H206.97V266.315H205.97ZM206.47 284.215H203.942V285.215H206.47V284.215ZM204.442 284.715V277.099H203.442V284.715H204.442ZM203.543 276.798C202.669 277.957 201.406 278.563 199.68 278.583L199.692 279.583C201.678 279.56 203.253 278.843 204.341 277.4L203.543 276.798ZM199.686 278.583C197.857 278.583 196.573 278.08 195.737 277.155C194.892 276.222 194.426 274.772 194.426 272.715H193.426C193.426 274.903 193.92 276.637 194.995 277.826C196.079 279.025 197.675 279.583 199.686 279.583V278.583ZM194.426 272.715V266.315H193.426V272.715H194.426ZM193.926 265.815H191.046V266.815H193.926V265.815ZM191.546 266.315V264.171H190.546V266.315H191.546ZM191.046 264.671H210.15V263.671H191.046V264.671ZM234.814 266.315V266.815H235.314V266.315H234.814ZM223.038 266.315V265.815H222.538V266.315H223.038ZM223.038 270.891H222.538V272.135L223.398 271.237L223.038 270.891ZM231.038 270.955L230.687 271.312L230.687 271.312L231.038 270.955ZM230.846 279.595L230.509 279.225L230.509 279.225L230.846 279.595ZM225.566 281.195H225.066V281.618L225.483 281.688L225.566 281.195ZM225.566 279.051L225.664 278.561L225.066 278.441V279.051H225.566ZM229.022 278.059L229.365 278.423L229.365 278.423L229.022 278.059ZM229.118 272.491L228.753 272.833L228.758 272.839L228.764 272.844L229.118 272.491ZM224.062 272.427L224.404 272.792L224.409 272.786L224.062 272.427ZM223.038 284.715V285.215H223.538V284.715H223.038ZM220.51 284.715H220.01V285.215H220.51V284.715ZM220.51 280.107H221.01V278.861L220.148 279.761L220.51 280.107ZM212.542 280.011L212.191 280.368L212.195 280.371L212.542 280.011ZM212.734 271.371L213.07 271.74L213.074 271.737L212.734 271.371ZM217.982 269.771H218.482V269.441L218.178 269.311L217.982 269.771ZM217.982 271.883L217.883 272.373L218.482 272.493V271.883H217.982ZM214.526 272.907L214.869 273.271L214.869 273.271L214.526 272.907ZM214.43 278.475L214.071 278.823L214.071 278.823L214.43 278.475ZM219.486 278.539L219.138 278.18L219.132 278.185L219.486 278.539ZM220.51 266.315H221.01V265.815H220.51V266.315ZM208.733 266.315H208.233V266.815H208.733V266.315ZM208.733 264.171V263.671H208.233V264.171H208.733ZM234.814 264.171H235.314V263.671H234.814V264.171ZM234.814 265.815H223.038V266.815H234.814V265.815ZM222.538 266.315V270.891H223.538V266.315H222.538ZM223.398 271.237C224.279 270.318 225.393 269.855 226.782 269.855V268.855C225.141 268.855 223.759 269.415 222.677 270.545L223.398 271.237ZM226.782 269.855C228.421 269.855 229.707 270.351 230.687 271.312L231.388 270.598C230.192 269.426 228.641 268.855 226.782 268.855V269.855ZM230.687 271.312C231.666 272.272 232.17 273.533 232.17 275.147H233.17C233.17 273.304 232.585 271.771 231.388 270.598L230.687 271.312ZM232.17 275.147C232.17 276.882 231.607 278.223 230.509 279.225L231.182 279.964C232.516 278.748 233.17 277.124 233.17 275.147H232.17ZM230.509 279.225C229.394 280.242 228.004 280.759 226.302 280.759V281.759C228.226 281.759 229.865 281.166 231.182 279.964L230.509 279.225ZM226.302 280.759C226.097 280.759 225.879 280.74 225.648 280.702L225.483 281.688C225.764 281.735 226.037 281.759 226.302 281.759V280.759ZM226.066 281.195V279.051H225.066V281.195H226.066ZM225.467 279.541C225.712 279.59 225.959 279.615 226.206 279.615V278.615C226.026 278.615 225.845 278.597 225.664 278.561L225.467 279.541ZM226.206 279.615C227.45 279.615 228.515 279.223 229.365 278.423L228.678 277.695C228.034 278.302 227.223 278.615 226.206 278.615V279.615ZM229.365 278.423C230.232 277.605 230.642 276.491 230.642 275.147H229.642C229.642 276.277 229.305 277.105 228.678 277.695L229.365 278.423ZM230.642 275.147C230.642 273.945 230.26 272.926 229.471 272.137L228.764 272.844C229.341 273.421 229.642 274.173 229.642 275.147H230.642ZM229.482 272.149C228.714 271.331 227.7 270.935 226.494 270.935V271.935C227.463 271.935 228.199 272.243 228.753 272.833L229.482 272.149ZM226.494 270.935C225.423 270.935 224.488 271.317 223.714 272.068L224.409 272.786C225 272.214 225.687 271.935 226.494 271.935V270.935ZM223.72 272.062C222.931 272.802 222.538 273.747 222.538 274.859H223.538C223.538 274.008 223.827 273.332 224.403 272.792L223.72 272.062ZM222.538 274.859V284.715H223.538V274.859H222.538ZM223.038 284.215H220.51V285.215H223.038V284.215ZM221.01 284.715V280.107H220.01V284.715H221.01ZM220.148 279.761C219.317 280.631 218.217 281.079 216.798 281.079V282.079C218.45 282.079 219.825 281.546 220.871 280.452L220.148 279.761ZM216.798 281.079C215.155 281.079 213.868 280.592 212.888 279.65L212.195 280.371C213.391 281.52 214.941 282.079 216.798 282.079V281.079ZM212.892 279.654C211.913 278.694 211.41 277.432 211.41 275.819H210.41C210.41 277.661 210.994 279.194 212.191 280.368L212.892 279.654ZM211.41 275.819C211.41 274.084 211.972 272.742 213.07 271.74L212.397 271.001C211.063 272.218 210.41 273.842 210.41 275.819H211.41ZM213.074 271.737C214.19 270.7 215.569 270.175 217.246 270.175V269.175C215.338 269.175 213.709 269.781 212.393 271.005L213.074 271.737ZM217.246 270.175C217.577 270.175 217.735 270.209 217.785 270.23L218.178 269.311C217.929 269.205 217.596 269.175 217.246 269.175V270.175ZM217.482 269.771V271.883H218.482V269.771H217.482ZM218.08 271.393C217.917 271.36 217.667 271.351 217.374 271.351V272.351C217.677 272.351 217.832 272.363 217.883 272.373L218.08 271.393ZM217.374 271.351C216.111 271.351 215.034 271.741 214.182 272.543L214.869 273.271C215.511 272.665 216.332 272.351 217.374 272.351V271.351ZM214.182 272.543C213.317 273.359 212.906 274.461 212.906 275.787H213.906C213.906 274.681 214.241 273.863 214.869 273.271L214.182 272.543ZM212.906 275.787C212.906 276.989 213.287 278.015 214.071 278.823L214.788 278.127C214.207 277.527 213.906 276.76 213.906 275.787H212.906ZM214.071 278.823C214.858 279.635 215.879 280.031 217.086 280.031V279.031C216.116 279.031 215.366 278.723 214.788 278.127L214.071 278.823ZM217.086 280.031C218.156 280.031 219.084 279.648 219.839 278.892L219.132 278.185C218.565 278.752 217.892 279.031 217.086 279.031V280.031ZM219.833 278.898C220.617 278.139 221.01 277.187 221.01 276.075H220.01C220.01 276.926 219.72 277.616 219.138 278.18L219.833 278.898ZM221.01 276.075V266.315H220.01V276.075H221.01ZM220.51 265.815H208.733V266.815H220.51V265.815ZM209.233 266.315V264.171H208.233V266.315H209.233ZM208.733 264.671H234.814V263.671H208.733V264.671ZM234.314 264.171V266.315H235.314V264.171H234.314ZM233.421 266.315H232.921V266.815H233.421V266.315ZM233.421 264.171V263.671H232.921V264.171H233.421ZM243.341 264.171H243.841V263.671H243.341V264.171ZM243.341 266.315V266.815H243.841V266.315H243.341ZM239.629 266.315V265.815H239.129V266.315H239.629ZM239.629 284.715V285.215H240.129V284.715H239.629ZM237.133 284.715H236.633V285.215H237.133V284.715ZM237.133 266.315H237.633V265.815H237.133V266.315ZM233.921 266.315V264.171H232.921V266.315H233.921ZM233.421 264.671H243.341V263.671H233.421V264.671ZM242.841 264.171V266.315H243.841V264.171H242.841ZM243.341 265.815H239.629V266.815H243.341V265.815ZM239.129 266.315V284.715H240.129V266.315H239.129ZM239.629 284.215H237.133V285.215H239.629V284.215ZM237.633 284.715V266.315H236.633V284.715H237.633ZM237.133 265.815H233.421V266.815H237.133V265.815ZM249.733 264.171V263.671H249.233V264.171H249.733ZM268.742 264.171H269.242V263.671H268.742V264.171ZM268.742 266.315V266.815H269.242V266.315H268.742ZM264.902 266.315V265.815H264.402V266.315H264.902ZM264.902 271.659V272.159H265.402V271.659H264.902ZM255.846 272.779L256.179 273.151L256.179 273.151L255.846 272.779ZM261.734 279.307L261.396 278.938L261.39 278.943L261.734 279.307ZM262.95 276.587V276.087H262.468L262.45 276.568L262.95 276.587ZM265.35 276.587H265.85V276.087H265.35V276.587ZM265.35 285.035V285.535H265.85V285.035H265.35ZM262.854 285.035H262.354V285.535H262.854V285.035ZM262.854 280.779H263.354V279.337L262.461 280.469L262.854 280.779ZM253.734 280.587L254.09 280.236L254.09 280.236L253.734 280.587ZM253.798 271.371L254.142 271.734L254.145 271.73L253.798 271.371ZM262.406 269.547V270.047H262.906V269.547H262.406ZM262.406 266.315H262.906V265.815H262.406V266.315ZM249.733 266.315H249.233V266.815H249.733V266.315ZM249.733 264.671H268.742V263.671H249.733V264.671ZM268.242 264.171V266.315H269.242V264.171H268.242ZM268.742 265.815H264.902V266.815H268.742V265.815ZM264.402 266.315V271.659H265.402V266.315H264.402ZM264.902 271.159H259.27V272.159H264.902V271.159ZM259.27 271.159C257.733 271.159 256.46 271.556 255.512 272.407L256.179 273.151C256.895 272.509 257.904 272.159 259.27 272.159V271.159ZM255.512 272.407C254.553 273.267 254.098 274.46 254.098 275.915H255.098C255.098 274.682 255.474 273.784 256.179 273.151L255.512 272.407ZM254.098 275.915C254.098 277.393 254.497 278.617 255.354 279.522L256.081 278.835C255.444 278.162 255.098 277.21 255.098 275.915H254.098ZM255.354 279.522C256.211 280.428 257.353 280.863 258.726 280.863V279.863C257.58 279.863 256.718 279.509 256.081 278.835L255.354 279.522ZM258.726 280.863C260.081 280.863 261.217 280.481 262.077 279.671L261.39 278.943C260.757 279.541 259.887 279.863 258.726 279.863V280.863ZM262.071 279.675C262.945 278.875 263.402 277.839 263.449 276.606L262.45 276.568C262.412 277.553 262.058 278.331 261.396 278.938L262.071 279.675ZM262.95 277.087H265.35V276.087H262.95V277.087ZM264.85 276.587V285.035H265.85V276.587H264.85ZM265.35 284.535H262.854V285.535H265.35V284.535ZM263.354 285.035V280.779H262.354V285.035H263.354ZM262.461 280.469C261.716 281.414 260.453 281.943 258.534 281.943V282.943C260.625 282.943 262.242 282.363 263.246 281.088L262.461 280.469ZM258.534 281.943C256.663 281.943 255.198 281.364 254.09 280.236L253.377 280.937C254.701 282.284 256.436 282.943 258.534 282.943V281.943ZM254.09 280.236C252.971 279.097 252.41 277.7 252.41 276.011H251.41C251.41 277.949 252.064 279.602 253.377 280.937L254.09 280.236ZM252.41 276.011C252.41 274.235 252.992 272.824 254.142 271.733L253.453 271.008C252.085 272.307 251.41 273.989 251.41 276.011H252.41ZM254.145 271.73C255.285 270.629 256.906 270.047 259.078 270.047V269.047C256.726 269.047 254.827 269.681 253.45 271.011L254.145 271.73ZM259.078 270.047H262.406V269.047H259.078V270.047ZM262.906 269.547V266.315H261.906V269.547H262.906ZM262.406 265.815H249.733V266.815H262.406V265.815ZM250.233 266.315V264.171H249.233V266.315H250.233ZM262.37 260.875L262.724 260.521L262.718 260.516L262.712 260.51L262.37 260.875ZM262.37 258.411L262.724 258.764L262.73 258.759L262.735 258.753L262.37 258.411ZM264.834 258.411L264.481 258.764L264.481 258.764L264.834 258.411ZM264.834 260.875L264.492 260.51L264.492 260.51L264.834 260.875ZM262.712 260.51C262.477 260.29 262.358 260.019 262.358 259.659H261.358C261.358 260.28 261.581 260.82 262.028 261.24L262.712 260.51ZM262.358 259.659C262.358 259.298 262.478 259.01 262.724 258.764L262.017 258.057C261.58 258.494 261.358 259.038 261.358 259.659H262.358ZM262.735 258.753C262.955 258.518 263.226 258.399 263.586 258.399V257.399C262.965 257.399 262.425 257.621 262.005 258.069L262.735 258.753ZM263.586 258.399C263.947 258.399 264.235 258.519 264.481 258.764L265.188 258.057C264.751 257.62 264.207 257.399 263.586 257.399V258.399ZM264.481 258.764C264.727 259.01 264.846 259.298 264.846 259.659H265.846C265.846 259.038 265.625 258.494 265.188 258.057L264.481 258.764ZM264.846 259.659C264.846 260.019 264.727 260.29 264.492 260.51L265.176 261.24C265.624 260.82 265.846 260.28 265.846 259.659H264.846ZM264.492 260.51C264.248 260.739 263.957 260.855 263.586 260.855V261.855C264.197 261.855 264.737 261.651 265.176 261.24L264.492 260.51ZM263.586 260.855C263.216 260.855 262.942 260.739 262.724 260.521L262.017 261.228C262.439 261.651 262.975 261.855 263.586 261.855V260.855ZM287.551 264.171H288.051V263.671H287.551V264.171ZM287.551 266.315V266.815H288.051V266.315H287.551ZM283.839 266.315V265.815H283.339V266.315H283.839ZM283.839 284.715V285.215H284.339V284.715H283.839ZM281.343 284.715H280.843V285.215H281.343V284.715ZM281.343 272.427H281.843V271.927H281.343V272.427ZM273.791 281.163L273.408 281.484L273.412 281.489L273.791 281.163ZM277.983 282.507H278.483V281.917L277.901 282.014L277.983 282.507ZM277.983 284.651L278.045 285.147L278.483 285.092V284.651H277.983ZM271.967 282.667L271.597 283.003L271.597 283.003L271.967 282.667ZM272.127 272.235L272.475 272.594L272.478 272.591L272.127 272.235ZM281.343 270.251V270.751H281.843V270.251H281.343ZM281.343 266.315H281.843V265.815H281.343V266.315ZM267.327 266.315H266.827V266.815H267.327V266.315ZM267.327 264.171V263.671H266.827V264.171H267.327ZM287.051 264.171V266.315H288.051V264.171H287.051ZM287.551 265.815H283.839V266.815H287.551V265.815ZM283.339 266.315V284.715H284.339V266.315H283.339ZM283.839 284.215H281.343V285.215H283.839V284.215ZM281.843 284.715V272.427H280.843V284.715H281.843ZM281.343 271.927H278.303V272.927H281.343V271.927ZM278.303 271.927C276.353 271.927 274.796 272.355 273.725 273.3C272.641 274.255 272.139 275.66 272.139 277.419H273.139C273.139 275.849 273.582 274.759 274.386 274.05C275.202 273.33 276.478 272.927 278.303 272.927V271.927ZM272.139 277.419C272.139 279.077 272.543 280.451 273.408 281.484L274.175 280.842C273.503 280.04 273.139 278.918 273.139 277.419H272.139ZM273.412 281.489C274.32 282.544 275.627 283.039 277.247 283.039V282.039C275.839 282.039 274.841 281.617 274.17 280.837L273.412 281.489ZM277.247 283.039C277.605 283.039 277.891 283.029 278.065 283L277.901 282.014C277.82 282.027 277.615 282.039 277.247 282.039V283.039ZM277.483 282.507V284.651H278.483V282.507H277.483ZM277.921 284.155C277.597 284.195 277.298 284.215 277.023 284.215V285.215C277.345 285.215 277.686 285.192 278.045 285.147L277.921 284.155ZM277.023 284.215C275.007 284.215 273.465 283.575 272.338 282.331L271.597 283.003C272.944 284.489 274.773 285.215 277.023 285.215V284.215ZM272.338 282.331C271.198 281.073 270.611 279.44 270.611 277.387H269.611C269.611 279.643 270.262 281.53 271.597 283.003L272.338 282.331ZM270.611 277.387C270.611 275.368 271.242 273.788 272.475 272.594L271.779 271.876C270.324 273.285 269.611 275.139 269.611 277.387H270.611ZM272.478 272.591C273.698 271.39 275.516 270.751 278.015 270.751V269.751C275.352 269.751 273.244 270.434 271.777 271.878L272.478 272.591ZM278.015 270.751H281.343V269.751H278.015V270.751ZM281.843 270.251V266.315H280.843V270.251H281.843ZM281.343 265.815H267.327V266.815H281.343V265.815ZM267.827 266.315V264.171H266.827V266.315H267.827ZM267.327 264.671H287.551V263.671H267.327V264.671ZM319.841 266.315H320.341V265.815H319.841V266.315ZM303.265 266.315V265.815H302.765V266.315H303.265ZM302.401 274.059L302.001 273.759L301.401 274.559H302.401V274.059ZM308.673 274.059V274.559H309.062L309.158 274.182L308.673 274.059ZM310.817 270.827L311.116 271.228L311.117 271.227L310.817 270.827ZM316.833 269.835H317.333V269.466L316.98 269.357L316.833 269.835ZM316.833 272.043L316.664 272.513L317.333 272.754V272.043H316.833ZM312.129 272.843L312.472 273.207L312.477 273.201L312.129 272.843ZM312.129 278.635L311.775 278.988L311.78 278.993L312.129 278.635ZM326.049 264.171H326.549V263.671H326.049V264.171ZM326.049 266.315V266.815H326.549V266.315H326.049ZM322.337 266.315V265.815H321.837V266.315H322.337ZM322.337 284.715V285.215H322.837V284.715H322.337ZM319.841 284.715H319.341V285.215H319.841V284.715ZM319.841 279.403H320.341V277.804L319.43 279.118L319.841 279.403ZM310.497 280.299L310.176 280.682L310.176 280.682L310.497 280.299ZM308.513 276.235L309.012 276.197L308.977 275.735H308.513V276.235ZM298.657 275.947L298.732 275.453L297.608 275.281L298.242 276.226L298.657 275.947ZM304.545 284.715V285.215H305.483L304.96 284.436L304.545 284.715ZM301.505 284.715L301.088 284.991L301.237 285.215H301.505V284.715ZM295.521 275.691H295.021V275.842L295.104 275.967L295.521 275.691ZM295.521 273.707V273.207H295.021V273.707H295.521ZM300.097 273.003L299.728 272.666L299.727 272.667L300.097 273.003ZM300.769 266.315H301.269V265.815H300.769V266.315ZM293.921 266.315H293.421V266.815H293.921V266.315ZM293.921 264.171V263.671H293.421V264.171H293.921ZM320.341 274.699V266.315H319.341V274.699H320.341ZM319.841 265.815H303.265V266.815H319.841V265.815ZM302.765 266.315V270.891H303.765V266.315H302.765ZM302.765 270.891C302.765 272.169 302.491 273.106 302.001 273.759L302.801 274.359C303.463 273.476 303.765 272.301 303.765 270.891H302.765ZM302.401 274.559H308.673V273.559H302.401V274.559ZM309.158 274.182C309.471 272.946 310.122 271.968 311.116 271.228L310.518 270.426C309.336 271.307 308.557 272.483 308.188 273.936L309.158 274.182ZM311.117 271.227C312.129 270.468 313.354 270.079 314.817 270.079V269.079C313.165 269.079 311.723 269.522 310.517 270.427L311.117 271.227ZM314.817 270.079C315.573 270.079 316.193 270.161 316.686 270.313L316.98 269.357C316.364 269.167 315.64 269.079 314.817 269.079V270.079ZM316.333 269.835V272.043H317.333V269.835H316.333ZM317.002 271.572C316.402 271.356 315.713 271.255 314.945 271.255V272.255C315.628 272.255 316.197 272.345 316.664 272.513L317.002 271.572ZM314.945 271.255C313.697 271.255 312.629 271.66 311.781 272.484L312.477 273.201C313.122 272.575 313.932 272.255 314.945 272.255V271.255ZM311.786 272.479C310.924 273.291 310.509 274.369 310.509 275.659H311.509C311.509 274.602 311.84 273.802 312.472 273.207L311.786 272.479ZM310.509 275.659C310.509 277.004 310.919 278.132 311.775 278.988L312.483 278.281C311.846 277.644 311.509 276.788 311.509 275.659H310.509ZM311.78 278.993C312.647 279.836 313.724 280.255 314.977 280.255V279.255C313.968 279.255 313.147 278.927 312.478 278.276L311.78 278.993ZM314.977 280.255C316.595 280.255 317.924 279.705 318.906 278.58L318.152 277.922C317.385 278.802 316.346 279.255 314.977 279.255V280.255ZM318.906 278.58C319.862 277.483 320.341 276.182 320.341 274.699H319.341C319.341 275.947 318.945 277.013 318.152 277.922L318.906 278.58ZM325.549 264.171V266.315H326.549V264.171H325.549ZM326.049 265.815H322.337V266.815H326.049V265.815ZM321.837 266.315V284.715H322.837V266.315H321.837ZM322.337 284.215H319.841V285.215H322.337V284.215ZM320.341 284.715V279.403H319.341V284.715H320.341ZM319.43 279.118C318.432 280.557 316.895 281.303 314.721 281.303V282.303C317.155 282.303 319.031 281.448 320.252 279.688L319.43 279.118ZM314.721 281.303C313.212 281.303 311.919 280.84 310.818 279.916L310.176 280.682C311.464 281.763 312.987 282.303 314.721 282.303V281.303ZM310.818 279.916C309.738 279.009 309.131 277.784 309.012 276.197L308.014 276.272C308.151 278.099 308.867 279.584 310.176 280.682L310.818 279.916ZM308.513 275.735H304.097V276.735H308.513V275.735ZM304.097 275.735C301.737 275.735 299.953 275.639 298.732 275.453L298.582 276.441C299.878 276.639 301.721 276.735 304.097 276.735V275.735ZM298.242 276.226L304.13 284.994L304.96 284.436L299.072 275.668L298.242 276.226ZM304.545 284.215H301.505V285.215H304.545V284.215ZM301.922 284.439L295.938 275.415L295.104 275.967L301.088 284.991L301.922 284.439ZM296.021 275.691V273.707H295.021V275.691H296.021ZM295.521 274.207H297.633V273.207H295.521V274.207ZM297.633 274.207C298.874 274.207 299.889 273.975 300.467 273.339L299.727 272.667C299.452 272.969 298.824 273.207 297.633 273.207V274.207ZM300.466 273.34C301.035 272.717 301.269 271.801 301.269 270.699H300.269C300.269 271.688 300.055 272.308 299.728 272.666L300.466 273.34ZM301.269 270.699V266.315H300.269V270.699H301.269ZM300.769 265.815H293.921V266.815H300.769V265.815ZM294.421 266.315V264.171H293.421V266.315H294.421ZM293.921 264.671H326.049V263.671H293.921V264.671ZM324.64 266.315H324.14V266.815H324.64V266.315ZM324.64 264.171V263.671H324.14V264.171H324.64ZM334.56 264.171H335.06V263.671H334.56V264.171ZM334.56 266.315V266.815H335.06V266.315H334.56ZM330.848 266.315V265.815H330.348V266.315H330.848ZM330.848 284.715V285.215H331.348V284.715H330.848ZM328.352 284.715H327.852V285.215H328.352V284.715ZM328.352 266.315H328.852V265.815H328.352V266.315ZM325.14 266.315V264.171H324.14V266.315H325.14ZM324.64 264.671H334.56V263.671H324.64V264.671ZM334.06 264.171V266.315H335.06V264.171H334.06ZM334.56 265.815H330.848V266.815H334.56V265.815ZM330.348 266.315V284.715H331.348V266.315H330.348ZM330.848 284.215H328.352V285.215H330.848V284.215ZM328.852 284.715V266.315H327.852V284.715H328.852ZM328.352 265.815H324.64V266.815H328.352V265.815ZM373.556 266.315H374.056V265.815H373.556V266.315ZM367.572 266.315V265.815H366.644L367.154 266.59L367.572 266.315ZM363.604 274.539L363.459 274.06L363.009 274.196L363.117 274.654L363.604 274.539ZM365.364 277.451L365.038 277.831L365.044 277.835L365.364 277.451ZM372.18 277.355L372.511 277.73L372.516 277.725L372.18 277.355ZM360.66 264.171V263.671H360.16V264.171H360.66ZM379.732 264.171H380.232V263.671H379.732V264.171ZM379.732 266.315V266.815H380.232V266.315H379.732ZM376.02 266.315V265.815H375.52V266.315H376.02ZM376.02 284.715V285.215H376.52V284.715H376.02ZM373.556 284.715H373.056V285.215H373.556V284.715ZM373.556 278.507H374.056V276.989L373.154 278.21L373.556 278.507ZM362.932 278.347L363.305 278.014L362.962 277.629L362.588 277.984L362.932 278.347ZM350.708 279.947L350.445 280.372L350.45 280.375L350.708 279.947ZM347.7 275.915L348.177 275.767L348.044 275.336L347.602 275.425L347.7 275.915ZM337.876 275.947L337.951 275.453L336.826 275.281L337.461 276.226L337.876 275.947ZM343.764 284.715V285.215H344.702L344.179 284.436L343.764 284.715ZM340.724 284.715L340.307 284.991L340.455 285.215H340.724V284.715ZM334.74 275.691H334.24V275.842L334.323 275.967L334.74 275.691ZM334.74 273.707V273.207H334.24V273.707H334.74ZM339.316 273.003L338.947 272.666L338.946 272.667L339.316 273.003ZM339.988 266.315H340.488V265.815H339.988V266.315ZM333.14 266.315H332.64V266.815H333.14V266.315ZM333.14 264.171V263.671H332.64V264.171H333.14ZM346.676 264.171H347.176V263.671H346.676V264.171ZM346.676 266.315V266.815H347.176V266.315H346.676ZM342.484 266.315V265.815H341.984V266.315H342.484ZM341.62 274.059L341.22 273.759L340.62 274.559H341.62V274.059ZM347.476 273.739L347.395 273.245L347.394 273.246L347.476 273.739ZM351.252 272.779L351.086 272.307L351.086 272.307L351.252 272.779ZM354.26 271.051L354.598 271.419L354.603 271.414L354.26 271.051ZM354.9 266.763L354.502 267.066L354.506 267.072L354.511 267.077L354.9 266.763ZM351.7 266.731L352.072 267.064L352.081 267.055L351.7 266.731ZM351.572 270.091V270.591H352.395L352.015 269.86L351.572 270.091ZM349.108 270.091L348.657 270.308L348.794 270.591H349.108V270.091ZM349.972 265.195L350.311 265.562L350.316 265.557L349.972 265.195ZM356.66 265.291L356.293 265.631L356.297 265.635L356.66 265.291ZM350.164 275.275L350.051 274.788L349.547 274.905L349.681 275.404L350.164 275.275ZM352.116 278.091L352.401 277.68L352.401 277.68L352.116 278.091ZM361.748 276.619L362.097 276.977L362.365 276.715L362.189 276.384L361.748 276.619ZM360.66 272.971L360.586 272.476L360.099 272.549L360.164 273.037L360.66 272.971ZM364.532 271.563L364.229 271.165L364.224 271.169L364.532 271.563ZM364.884 266.315L365.267 265.994L365.117 265.815H364.884V266.315ZM360.66 266.315H360.16V266.815H360.66V266.315ZM374.056 274.027V266.315H373.056V274.027H374.056ZM373.556 265.815H367.572V266.815H373.556V265.815ZM367.154 266.59C367.623 267.303 367.872 268.195 367.872 269.291H368.872C368.872 268.04 368.587 266.948 367.989 266.04L367.154 266.59ZM367.872 269.291C367.872 270.446 367.514 271.395 366.81 272.171C366.096 272.956 364.995 273.596 363.459 274.06L363.748 275.017C365.391 274.521 366.674 273.807 367.55 272.843C368.435 271.869 368.872 270.674 368.872 269.291H367.872ZM363.117 274.654C363.418 275.928 364.06 276.992 365.038 277.83L365.689 277.071C364.875 276.374 364.344 275.497 364.09 274.424L363.117 274.654ZM365.044 277.835C366.037 278.663 367.23 279.071 368.596 279.071V278.071C367.444 278.071 366.483 277.732 365.684 277.067L365.044 277.835ZM368.596 279.071C370.164 279.071 371.484 278.637 372.511 277.73L371.849 276.98C371.04 277.694 369.972 278.071 368.596 278.071V279.071ZM372.516 277.725C373.551 276.787 374.056 275.536 374.056 274.027H373.056C373.056 275.291 372.644 276.259 371.844 276.984L372.516 277.725ZM360.66 264.671H379.732V263.671H360.66V264.671ZM379.232 264.171V266.315H380.232V264.171H379.232ZM379.732 265.815H376.02V266.815H379.732V265.815ZM375.52 266.315V284.715H376.52V266.315H375.52ZM376.02 284.215H373.556V285.215H376.02V284.215ZM374.056 284.715V278.507H373.056V284.715H374.056ZM373.154 278.21C372.187 279.518 370.632 280.215 368.372 280.215V281.215C370.847 281.215 372.749 280.44 373.958 278.804L373.154 278.21ZM368.372 280.215C366.288 280.215 364.613 279.481 363.305 278.014L362.559 278.68C364.067 280.37 366.018 281.215 368.372 281.215V280.215ZM362.588 277.984C360.633 279.837 358.314 280.759 355.604 280.759V281.759C358.568 281.759 361.134 280.74 363.276 278.71L362.588 277.984ZM355.604 280.759C353.875 280.759 352.333 280.343 350.966 279.519L350.45 280.375C351.984 281.3 353.706 281.759 355.604 281.759V280.759ZM350.97 279.521C349.633 278.695 348.7 277.456 348.177 275.767L347.222 276.063C347.809 277.958 348.881 279.406 350.445 280.372L350.97 279.521ZM347.602 275.425C346.577 275.629 345.321 275.735 343.828 275.735V276.735C345.364 276.735 346.689 276.627 347.798 276.405L347.602 275.425ZM343.828 275.735H343.316V276.735H343.828V275.735ZM343.316 275.735C340.955 275.735 339.172 275.639 337.951 275.453L337.8 276.441C339.097 276.639 340.94 276.735 343.316 276.735V275.735ZM337.461 276.226L343.349 284.994L344.179 284.436L338.291 275.668L337.461 276.226ZM343.764 284.215H340.724V285.215H343.764V284.215ZM341.14 284.439L335.156 275.415L334.323 275.967L340.307 284.991L341.14 284.439ZM335.24 275.691V273.707H334.24V275.691H335.24ZM334.74 274.207H336.852V273.207H334.74V274.207ZM336.852 274.207C338.092 274.207 339.107 273.975 339.686 273.339L338.946 272.667C338.671 272.969 338.043 273.207 336.852 273.207V274.207ZM339.685 273.34C340.254 272.717 340.488 271.801 340.488 270.699H339.488C339.488 271.688 339.273 272.308 338.947 272.666L339.685 273.34ZM340.488 270.699V266.315H339.488V270.699H340.488ZM339.988 265.815H333.14V266.815H339.988V265.815ZM333.64 266.315V264.171H332.64V266.315H333.64ZM333.14 264.671H346.676V263.671H333.14V264.671ZM346.176 264.171V266.315H347.176V264.171H346.176ZM346.676 265.815H342.484V266.815H346.676V265.815ZM341.984 266.315V270.891H342.984V266.315H341.984ZM341.984 270.891C341.984 272.169 341.709 273.106 341.22 273.759L342.02 274.359C342.682 273.476 342.984 272.301 342.984 270.891H341.984ZM341.62 274.559H343.796V273.559H341.62V274.559ZM343.796 274.559C344.999 274.559 346.254 274.449 347.558 274.232L347.394 273.246C346.138 273.455 344.939 273.559 343.796 273.559V274.559ZM347.557 274.232C348.886 274.014 350.173 273.687 351.417 273.251L351.086 272.307C349.898 272.724 348.668 273.037 347.395 273.245L347.557 274.232ZM351.417 273.251C352.685 272.806 353.75 272.199 354.598 271.419L353.921 270.683C353.191 271.354 352.251 271.898 351.086 272.307L351.417 273.251ZM354.603 271.414C355.475 270.589 355.944 269.621 355.944 268.523H354.944C354.944 269.302 354.623 270.019 353.916 270.688L354.603 271.414ZM355.944 268.523C355.944 267.713 355.74 267.006 355.288 266.448L354.511 267.077C354.785 267.415 354.944 267.882 354.944 268.523H355.944ZM355.297 266.46C354.835 265.853 354.132 265.591 353.3 265.591V266.591C353.918 266.591 354.282 266.776 354.502 267.066L355.297 266.46ZM353.3 265.591C352.49 265.591 351.8 265.841 351.319 266.407L352.081 267.055C352.325 266.768 352.702 266.591 353.3 266.591V265.591ZM351.327 266.397C350.868 266.91 350.656 267.559 350.656 268.299H351.656C351.656 267.759 351.806 267.362 352.072 267.064L351.327 266.397ZM350.656 268.299C350.656 269.032 350.81 269.71 351.128 270.322L352.015 269.86C351.779 269.405 351.656 268.888 351.656 268.299H350.656ZM351.572 269.591H349.108V270.591H351.572V269.591ZM349.558 269.874C349.32 269.38 349.192 268.774 349.192 268.043H348.192C348.192 268.89 348.341 269.65 348.657 270.308L349.558 269.874ZM349.192 268.043C349.192 267.08 349.555 266.262 350.311 265.562L349.632 264.828C348.682 265.707 348.192 266.787 348.192 268.043H349.192ZM350.316 265.557C351.062 264.849 352.041 264.479 353.3 264.479V263.479C351.828 263.479 350.588 263.919 349.627 264.832L350.316 265.557ZM353.3 264.479C354.62 264.479 355.596 264.878 356.293 265.631L357.026 264.951C356.103 263.954 354.838 263.479 353.3 263.479V264.479ZM356.297 265.635C357.012 266.387 357.376 267.327 357.376 268.491H358.376C358.376 267.095 357.929 265.901 357.022 264.946L356.297 265.635ZM357.376 268.491C357.376 270.006 356.798 271.269 355.618 272.307C354.419 273.362 352.58 274.2 350.051 274.788L350.277 275.762C352.888 275.155 354.906 274.265 356.278 273.058C357.668 271.836 358.376 270.303 358.376 268.491H357.376ZM349.681 275.404C350.03 276.709 350.748 277.749 351.83 278.501L352.401 277.68C351.52 277.068 350.937 276.23 350.647 275.145L349.681 275.404ZM351.83 278.501C352.907 279.25 354.183 279.615 355.636 279.615V278.615C354.357 278.615 353.287 278.297 352.401 277.68L351.83 278.501ZM355.636 279.615C358.135 279.615 360.297 278.731 362.097 276.977L361.399 276.261C359.785 277.834 357.872 278.615 355.636 278.615V279.615ZM362.189 276.384C361.69 275.446 361.341 274.29 361.155 272.904L360.164 273.037C360.362 274.51 360.739 275.787 361.306 276.854L362.189 276.384ZM360.734 273.465C362.483 273.203 363.869 272.714 364.839 271.957L364.224 271.169C363.445 271.777 362.25 272.227 360.586 272.476L360.734 273.465ZM364.835 271.961C365.823 271.207 366.376 270.272 366.376 269.163H365.376C365.376 269.888 365.032 270.553 364.229 271.165L364.835 271.961ZM366.376 269.163C366.376 267.946 366.01 266.88 365.267 265.994L364.5 266.636C365.08 267.328 365.376 268.161 365.376 269.163H366.376ZM364.884 265.815H360.66V266.815H364.884V265.815ZM361.16 266.315V264.171H360.16V266.315H361.16ZM400.924 271.339V271.839H401.424V271.339H400.924ZM391.9 274.283L391.484 274.56L391.49 274.57L391.9 274.283ZM392.956 275.211L392.742 275.663L392.929 275.751L393.124 275.682L392.956 275.211ZM400.092 276.011L399.755 276.381L399.76 276.385L400.092 276.011ZM401.148 280.811V281.311H401.463L401.599 281.027L401.148 280.811ZM398.684 280.811L398.281 280.514L397.694 281.311H398.684V280.811ZM398.332 277.483L398.002 277.859L398.011 277.866L398.019 277.873L398.332 277.483ZM392.732 277.739L393.04 278.132L393.04 278.132L392.732 277.739ZM392.924 282.603L392.625 283.004L392.631 283.008L392.924 282.603ZM401.116 283.019H401.616V282.359L400.98 282.538L401.116 283.019ZM401.116 285.163L401.235 285.648L401.616 285.555V285.163H401.116ZM391.1 283.979L390.777 284.361L390.777 284.361L391.1 283.979ZM391.068 276.171L391.367 276.572L391.939 276.145L391.342 275.753L391.068 276.171ZM390.012 270.091L390.315 270.488L390.315 270.488L390.012 270.091ZM398.46 269.259V269.759H398.96V269.259H398.46ZM398.46 266.315H398.96V265.815H398.46V266.315ZM386.14 266.315H385.64V266.815H386.14V266.315ZM386.14 264.171V263.671H385.64V264.171H386.14ZM404.54 264.171H405.04V263.671H404.54V264.171ZM404.54 266.315V266.815H405.04V266.315H404.54ZM400.924 266.315V265.815H400.424V266.315H400.924ZM400.924 270.839H393.244V271.839H400.924V270.839ZM393.244 270.839C392.593 270.839 392.012 270.967 391.587 271.309C391.141 271.667 390.952 272.189 390.952 272.779H391.952C391.952 272.408 392.062 272.21 392.213 272.089C392.385 271.95 392.7 271.839 393.244 271.839V270.839ZM390.952 272.779C390.952 273.429 391.129 274.027 391.484 274.56L392.316 274.005C392.074 273.642 391.952 273.238 391.952 272.779H390.952ZM391.49 274.57C391.83 275.056 392.246 275.428 392.742 275.663L393.17 274.759C392.855 274.61 392.566 274.363 392.309 273.996L391.49 274.57ZM393.124 275.682C393.955 275.385 394.931 275.231 396.06 275.231V274.231C394.842 274.231 393.748 274.397 392.788 274.74L393.124 275.682ZM396.06 275.231C397.732 275.231 398.939 275.638 399.755 276.381L400.428 275.641C399.367 274.677 397.886 274.231 396.06 274.231V275.231ZM399.76 276.385C400.6 277.13 401 277.999 401 279.019H402C402 277.692 401.461 276.556 400.423 275.637L399.76 276.385ZM401 279.019C401 279.669 400.891 280.189 400.697 280.595L401.599 281.027C401.874 280.452 402 279.776 402 279.019H401ZM401.148 280.311H398.684V281.311H401.148V280.311ZM399.086 281.107C399.469 280.588 399.632 279.916 399.632 279.147H398.632C398.632 279.786 398.496 280.223 398.281 280.514L399.086 281.107ZM399.632 279.147C399.632 278.312 399.296 277.614 398.644 277.092L398.019 277.873C398.434 278.205 398.632 278.616 398.632 279.147H399.632ZM398.661 277.107C398.021 276.547 397.114 276.311 396.028 276.311V277.311C396.99 277.311 397.618 277.523 398.002 277.859L398.661 277.107ZM396.028 276.311C394.552 276.311 393.33 276.635 392.423 277.345L393.04 278.132C393.712 277.606 394.687 277.311 396.028 277.311V276.311ZM392.423 277.345C391.533 278.043 391.048 278.927 391.048 279.979H392.048C392.048 279.282 392.352 278.672 393.04 278.132L392.423 277.345ZM391.048 279.979C391.048 281.216 391.592 282.235 392.625 283.004L393.222 282.202C392.421 281.605 392.048 280.875 392.048 279.979H391.048ZM392.631 283.008C393.674 283.76 395.196 284.095 397.116 284.095V283.095C395.28 283.095 394.009 282.769 393.216 282.197L392.631 283.008ZM397.116 284.095C398.467 284.095 399.846 283.895 401.251 283.5L400.98 282.538C399.655 282.91 398.367 283.095 397.116 283.095V284.095ZM400.616 283.019V285.163H401.616V283.019H400.616ZM400.996 284.677C399.558 285.032 398.201 285.207 396.924 285.207V286.207C398.292 286.207 399.73 286.019 401.235 285.648L400.996 284.677ZM396.924 285.207C394.477 285.207 392.667 284.647 391.422 283.597L390.777 284.361C392.264 285.615 394.336 286.207 396.924 286.207V285.207ZM391.422 283.597C390.149 282.522 389.552 281.311 389.552 279.947H388.552C388.552 281.655 389.32 283.131 390.777 284.361L391.422 283.597ZM389.552 279.947C389.552 278.609 390.134 277.492 391.367 276.572L390.769 275.77C389.314 276.855 388.552 278.256 388.552 279.947H389.552ZM391.342 275.753C390.035 274.894 389.424 273.805 389.424 272.459H388.424C388.424 274.185 389.242 275.57 390.793 276.589L391.342 275.753ZM389.424 272.459C389.424 271.569 389.73 270.936 390.315 270.488L389.708 269.694C388.843 270.355 388.424 271.301 388.424 272.459H389.424ZM390.315 270.488C390.933 270.016 391.756 269.759 392.828 269.759V268.759C391.595 268.759 390.541 269.057 389.708 269.694L390.315 270.488ZM392.828 269.759H398.46V268.759H392.828V269.759ZM398.96 269.259V266.315H397.96V269.259H398.96ZM398.46 265.815H386.14V266.815H398.46V265.815ZM386.64 266.315V264.171H385.64V266.315H386.64ZM386.14 264.671H404.54V263.671H386.14V264.671ZM404.04 264.171V266.315H405.04V264.171H404.04ZM404.54 265.815H400.924V266.815H404.54V265.815ZM400.424 266.315V271.339H401.424V266.315H400.424ZM397.761 258.987L397.341 259.257L397.341 259.258L397.761 258.987ZM401.249 264.395V264.895H402.167L401.67 264.124L401.249 264.395ZM397.889 264.395L397.589 264.795L397.723 264.895H397.889V264.395ZM394.881 262.443L394.658 262.89L394.658 262.89L394.881 262.443ZM390.433 262.123H389.933V262.817L390.592 262.597L390.433 262.123ZM390.433 259.883L390.275 259.409L389.933 259.522V259.883H390.433ZM394.561 260.171L394.332 260.615L394.343 260.621L394.561 260.171ZM397.025 261.899L397.357 261.525L397.352 261.52L397.025 261.899ZM399.009 263.659L398.678 264.033L399.404 263.351L399.009 263.659ZM396.065 259.883L396.46 259.575L396.459 259.574L396.065 259.883ZM390.433 258.315H389.933V258.955L390.555 258.8L390.433 258.315ZM390.433 256.139L390.275 255.664L389.933 255.778V256.139H390.433ZM397.341 259.258L400.829 264.666L401.67 264.124L398.182 258.716L397.341 259.258ZM401.249 263.895H397.889V264.895H401.249V263.895ZM398.189 263.995C396.984 263.091 395.954 262.42 395.105 261.996L394.658 262.89C395.43 263.276 396.406 263.907 397.589 264.795L398.189 263.995ZM395.105 261.996C394.224 261.555 393.283 261.335 392.289 261.335V262.335C393.13 262.335 393.918 262.52 394.658 262.89L395.105 261.996ZM392.289 261.335C391.579 261.335 390.907 261.438 390.275 261.649L390.592 262.597C391.112 262.424 391.677 262.335 392.289 262.335V261.335ZM390.933 262.123V259.883H389.933V262.123H390.933ZM390.592 260.357C391.044 260.206 391.566 260.127 392.161 260.127V259.127C391.477 259.127 390.847 259.218 390.275 259.409L390.592 260.357ZM392.161 260.127C392.988 260.127 393.708 260.294 394.333 260.615L394.79 259.726C394.007 259.323 393.127 259.127 392.161 259.127V260.127ZM394.343 260.621C394.992 260.935 395.776 261.481 396.699 262.277L397.352 261.52C396.398 260.696 395.539 260.089 394.78 259.721L394.343 260.621ZM396.694 262.273L398.678 264.033L399.341 263.285L397.357 261.525L396.694 262.273ZM399.404 263.351L396.46 259.575L395.671 260.19L398.615 263.966L399.404 263.351ZM396.459 259.574C395.421 258.253 394.015 257.591 392.289 257.591V258.591C393.722 258.591 394.833 259.123 395.672 260.192L396.459 259.574ZM392.289 257.591C391.61 257.591 390.951 257.67 390.312 257.83L390.555 258.8C391.111 258.661 391.689 258.591 392.289 258.591V257.591ZM390.933 258.315V256.139H389.933V258.315H390.933ZM390.592 256.613C390.892 256.513 391.471 256.447 392.385 256.447V255.447C391.465 255.447 390.743 255.509 390.275 255.664L390.592 256.613ZM392.385 256.447C394.487 256.447 396.125 257.364 397.341 259.257L398.182 258.717C396.795 256.556 394.849 255.447 392.385 255.447V256.447Z" fill="#0186C6" mask="url(#path-10-outside-1_50_420)"/>
<path d="M115.41 328.215H451.592C466.656 328.215 478.5 338.445 478.5 350.399V378.03C478.5 389.985 466.656 400.215 451.592 400.215H115.41C100.346 400.215 88.5 389.985 88.5 378.03V350.399C88.5 338.445 100.346 328.215 115.41 328.215Z" fill="#F4B400" fill-opacity="0.05" stroke="#F4B400" stroke-width="3" stroke-linecap="square"/>
<mask id="path-13-outside-2_50_420" maskUnits="userSpaceOnUse" x="240" y="338.715" width="88" height="38" fill="black">
<rect fill="white" x="240" y="338.715" width="88" height="38"/>
<path d="M273.55 350.035H277.95V352.715H273.31V375.715H270.19V352.715H262.67V375.715H259.55V365.315H254.03C254.057 365.502 254.07 365.795 254.07 366.195C254.07 368.168 253.364 369.768 251.95 370.995C250.564 372.222 248.63 372.835 246.15 372.835C244.417 372.835 242.79 372.515 241.27 371.875V368.915C242.924 369.742 244.537 370.155 246.11 370.155C247.39 370.155 248.51 369.822 249.47 369.155C250.457 368.462 250.95 367.382 250.95 365.915C250.95 364.768 250.537 363.875 249.71 363.235C248.884 362.595 247.63 362.275 245.95 362.275H244.59V359.475H245.87C247.284 359.475 248.35 359.168 249.07 358.555C249.79 357.942 250.15 357.115 250.15 356.075C250.15 353.888 248.897 352.795 246.39 352.795C244.977 352.795 243.684 353.115 242.51 353.755V350.795C243.657 350.315 244.964 350.075 246.43 350.075C248.617 350.075 250.297 350.582 251.47 351.595C252.67 352.608 253.27 353.982 253.27 355.715C253.27 357.048 252.924 358.155 252.23 359.035C251.564 359.915 250.684 360.502 249.59 360.795C250.95 360.982 252.044 361.582 252.87 362.595H259.55V352.715H255.91V350.035H269.19C267.857 349.022 266.684 348.288 265.67 347.835C264.684 347.355 263.644 347.115 262.55 347.115C261.724 347.115 260.95 347.235 260.23 347.475V344.675C260.87 344.462 261.59 344.355 262.39 344.355C263.51 344.355 264.51 344.582 265.39 345.035C266.27 345.462 267.297 346.182 268.47 347.195L270.95 349.395L267.27 344.675C266.097 343.182 264.524 342.435 262.55 342.435C261.75 342.435 260.977 342.528 260.23 342.715V339.995C260.71 339.835 261.524 339.755 262.67 339.755C265.524 339.755 267.764 341.022 269.39 343.555L273.55 350.035ZM286.783 362.395H295.623V352.715H287.863V358.435C287.863 360.115 287.503 361.435 286.783 362.395ZM303.343 350.035V352.715H298.743V375.715H295.623V365.115H288.903C285.943 365.115 283.676 364.995 282.103 364.755L289.463 375.715H285.663L278.183 364.435V361.955H280.823C282.343 361.955 283.369 361.662 283.903 361.075C284.463 360.462 284.743 359.502 284.743 358.195V352.715H276.182V350.035H303.343ZM326.853 350.035V352.715H322.213V375.715H319.093V360.355H315.293C310.573 360.355 308.213 362.435 308.213 366.595C308.213 368.568 308.693 370.128 309.653 371.275C310.64 372.422 312.08 372.995 313.973 372.995C314.426 372.995 314.733 372.982 314.893 372.955V375.635C314.466 375.688 314.066 375.715 313.693 375.715C311.026 375.715 308.92 374.862 307.373 373.155C305.826 371.448 305.053 369.248 305.053 366.555C305.053 363.888 305.893 361.742 307.573 360.115C309.253 358.462 311.706 357.635 314.933 357.635H319.093V352.715H301.573V350.035H326.853Z"/>
</mask>
<path d="M273.55 350.035H277.95V352.715H273.31V375.715H270.19V352.715H262.67V375.715H259.55V365.315H254.03C254.057 365.502 254.07 365.795 254.07 366.195C254.07 368.168 253.364 369.768 251.95 370.995C250.564 372.222 248.63 372.835 246.15 372.835C244.417 372.835 242.79 372.515 241.27 371.875V368.915C242.924 369.742 244.537 370.155 246.11 370.155C247.39 370.155 248.51 369.822 249.47 369.155C250.457 368.462 250.95 367.382 250.95 365.915C250.95 364.768 250.537 363.875 249.71 363.235C248.884 362.595 247.63 362.275 245.95 362.275H244.59V359.475H245.87C247.284 359.475 248.35 359.168 249.07 358.555C249.79 357.942 250.15 357.115 250.15 356.075C250.15 353.888 248.897 352.795 246.39 352.795C244.977 352.795 243.684 353.115 242.51 353.755V350.795C243.657 350.315 244.964 350.075 246.43 350.075C248.617 350.075 250.297 350.582 251.47 351.595C252.67 352.608 253.27 353.982 253.27 355.715C253.27 357.048 252.924 358.155 252.23 359.035C251.564 359.915 250.684 360.502 249.59 360.795C250.95 360.982 252.044 361.582 252.87 362.595H259.55V352.715H255.91V350.035H269.19C267.857 349.022 266.684 348.288 265.67 347.835C264.684 347.355 263.644 347.115 262.55 347.115C261.724 347.115 260.95 347.235 260.23 347.475V344.675C260.87 344.462 261.59 344.355 262.39 344.355C263.51 344.355 264.51 344.582 265.39 345.035C266.27 345.462 267.297 346.182 268.47 347.195L270.95 349.395L267.27 344.675C266.097 343.182 264.524 342.435 262.55 342.435C261.75 342.435 260.977 342.528 260.23 342.715V339.995C260.71 339.835 261.524 339.755 262.67 339.755C265.524 339.755 267.764 341.022 269.39 343.555L273.55 350.035ZM286.783 362.395H295.623V352.715H287.863V358.435C287.863 360.115 287.503 361.435 286.783 362.395ZM303.343 350.035V352.715H298.743V375.715H295.623V365.115H288.903C285.943 365.115 283.676 364.995 282.103 364.755L289.463 375.715H285.663L278.183 364.435V361.955H280.823C282.343 361.955 283.369 361.662 283.903 361.075C284.463 360.462 284.743 359.502 284.743 358.195V352.715H276.182V350.035H303.343ZM326.853 350.035V352.715H322.213V375.715H319.093V360.355H315.293C310.573 360.355 308.213 362.435 308.213 366.595C308.213 368.568 308.693 370.128 309.653 371.275C310.64 372.422 312.08 372.995 313.973 372.995C314.426 372.995 314.733 372.982 314.893 372.955V375.635C314.466 375.688 314.066 375.715 313.693 375.715C311.026 375.715 308.92 374.862 307.373 373.155C305.826 371.448 305.053 369.248 305.053 366.555C305.053 363.888 305.893 361.742 307.573 360.115C309.253 358.462 311.706 357.635 314.933 357.635H319.093V352.715H301.573V350.035H326.853Z" fill="#F4B400"/>
<path d="M273.55 350.035L272.709 350.575L273.004 351.035H273.55V350.035ZM277.95 350.035H278.95V349.035H277.95V350.035ZM277.95 352.715V353.715H278.95V352.715H277.95ZM273.31 352.715V351.715H272.31V352.715H273.31ZM273.31 375.715V376.715H274.31V375.715H273.31ZM270.19 375.715H269.19V376.715H270.19V375.715ZM270.19 352.715H271.19V351.715H270.19V352.715ZM262.67 352.715V351.715H261.67V352.715H262.67ZM262.67 375.715V376.715H263.67V375.715H262.67ZM259.55 375.715H258.55V376.715H259.55V375.715ZM259.55 365.315H260.55V364.315H259.55V365.315ZM254.03 365.315V364.315H252.877L253.04 365.456L254.03 365.315ZM251.95 370.995L251.295 370.24L251.288 370.246L251.95 370.995ZM241.27 371.875H240.27V372.539L240.882 372.796L241.27 371.875ZM241.27 368.915L241.718 368.02L240.27 367.297V368.915H241.27ZM249.47 369.155L250.041 369.976L250.045 369.973L249.47 369.155ZM249.71 363.235L249.098 364.026L249.098 364.026L249.71 363.235ZM244.59 362.275H243.59V363.275H244.59V362.275ZM244.59 359.475V358.475H243.59V359.475H244.59ZM242.51 353.755H241.51V355.439L242.989 354.633L242.51 353.755ZM242.51 350.795L242.124 349.872L241.51 350.129V350.795H242.51ZM251.47 351.595L250.817 352.352L250.825 352.359L251.47 351.595ZM252.23 359.035L251.445 358.416L251.439 358.423L251.433 358.431L252.23 359.035ZM249.59 360.795L249.331 359.829L249.454 361.786L249.59 360.795ZM252.87 362.595L252.095 363.227L252.396 363.595H252.87V362.595ZM259.55 362.595V363.595H260.55V362.595H259.55ZM259.55 352.715H260.55V351.715H259.55V352.715ZM255.91 352.715H254.91V353.715H255.91V352.715ZM255.91 350.035V349.035H254.91V350.035H255.91ZM269.19 350.035V351.035H272.159L269.795 349.239L269.19 350.035ZM265.67 347.835L265.233 348.734L265.247 348.741L265.262 348.748L265.67 347.835ZM260.23 347.475H259.23V348.862L260.547 348.424L260.23 347.475ZM260.23 344.675L259.914 343.726L259.23 343.954V344.675H260.23ZM265.39 345.035L264.932 345.924L264.943 345.929L264.954 345.935L265.39 345.035ZM268.47 347.195L269.134 346.447L269.124 346.438L268.47 347.195ZM270.95 349.395L270.287 350.143L271.739 348.78L270.95 349.395ZM267.27 344.675L268.059 344.06L268.057 344.057L267.27 344.675ZM260.23 342.715H259.23V343.996L260.473 343.685L260.23 342.715ZM260.23 339.995L259.914 339.046L259.23 339.274V339.995H260.23ZM269.39 343.555L270.232 343.015L270.232 343.015L269.39 343.555ZM273.55 351.035H277.95V349.035H273.55V351.035ZM276.95 350.035V352.715H278.95V350.035H276.95ZM277.95 351.715H273.31V353.715H277.95V351.715ZM272.31 352.715V375.715H274.31V352.715H272.31ZM273.31 374.715H270.19V376.715H273.31V374.715ZM271.19 375.715V352.715H269.19V375.715H271.19ZM270.19 351.715H262.67V353.715H270.19V351.715ZM261.67 352.715V375.715H263.67V352.715H261.67ZM262.67 374.715H259.55V376.715H262.67V374.715ZM260.55 375.715V365.315H258.55V375.715H260.55ZM259.55 364.315H254.03V366.315H259.55V364.315ZM253.04 365.456C253.056 365.568 253.07 365.802 253.07 366.195H255.07C255.07 365.788 255.058 365.435 255.02 365.173L253.04 365.456ZM253.07 366.195C253.07 367.896 252.476 369.214 251.295 370.24L252.606 371.75C254.251 370.322 255.07 368.44 255.07 366.195H253.07ZM251.288 370.246C250.138 371.263 248.47 371.835 246.15 371.835V373.835C248.79 373.835 250.989 373.18 252.613 371.744L251.288 370.246ZM246.15 371.835C244.543 371.835 243.049 371.539 241.658 370.953L240.882 372.796C242.531 373.491 244.291 373.835 246.15 373.835V371.835ZM242.27 371.875V368.915H240.27V371.875H242.27ZM240.823 369.809C242.591 370.693 244.357 371.155 246.11 371.155V369.155C244.717 369.155 243.256 368.79 241.718 368.02L240.823 369.809ZM246.11 371.155C247.574 371.155 248.897 370.77 250.041 369.976L248.9 368.333C248.123 368.873 247.207 369.155 246.11 369.155V371.155ZM250.045 369.973C251.358 369.051 251.95 367.627 251.95 365.915H249.95C249.95 367.136 249.556 367.872 248.895 368.337L250.045 369.973ZM251.95 365.915C251.95 364.493 251.42 363.294 250.322 362.444L249.098 364.026C249.654 364.456 249.95 365.043 249.95 365.915H251.95ZM250.322 362.444C249.242 361.608 247.727 361.275 245.95 361.275V363.275C247.533 363.275 248.525 363.582 249.098 364.026L250.322 362.444ZM245.95 361.275H244.59V363.275H245.95V361.275ZM245.59 362.275V359.475H243.59V362.275H245.59ZM244.59 360.475H245.87V358.475H244.59V360.475ZM245.87 360.475C247.408 360.475 248.747 360.144 249.719 359.316L248.422 357.794C247.954 358.192 247.16 358.475 245.87 358.475V360.475ZM249.719 359.316C250.686 358.492 251.15 357.375 251.15 356.075H249.15C249.15 356.855 248.895 357.391 248.422 357.794L249.719 359.316ZM251.15 356.075C251.15 354.789 250.776 353.653 249.868 352.861C248.986 352.092 247.767 351.795 246.39 351.795V353.795C247.52 353.795 248.181 354.044 248.553 354.368C248.898 354.67 249.15 355.174 249.15 356.075H251.15ZM246.39 351.795C244.82 351.795 243.36 352.152 242.031 352.877L242.989 354.633C244.007 354.077 245.134 353.795 246.39 353.795V351.795ZM243.51 353.755V350.795H241.51V353.755H243.51ZM242.896 351.717C243.901 351.297 245.073 351.075 246.43 351.075V349.075C244.855 349.075 243.413 349.333 242.124 349.872L242.896 351.717ZM246.43 351.075C248.475 351.075 249.887 351.549 250.817 352.352L252.124 350.838C250.707 349.614 248.759 349.075 246.43 349.075V351.075ZM250.825 352.359C251.775 353.161 252.27 354.242 252.27 355.715H254.27C254.27 353.721 253.566 352.055 252.115 350.831L250.825 352.359ZM252.27 355.715C252.27 356.868 251.974 357.744 251.445 358.416L253.016 359.654C253.873 358.565 254.27 357.228 254.27 355.715H252.27ZM251.433 358.431C250.904 359.129 250.216 359.592 249.331 359.829L249.849 361.761C251.151 361.411 252.223 360.701 253.027 359.639L251.433 358.431ZM249.454 361.786C250.577 361.94 251.437 362.42 252.095 363.227L253.645 361.963C252.65 360.743 251.323 360.023 249.726 359.804L249.454 361.786ZM252.87 363.595H259.55V361.595H252.87V363.595ZM260.55 362.595V352.715H258.55V362.595H260.55ZM259.55 351.715H255.91V353.715H259.55V351.715ZM256.91 352.715V350.035H254.91V352.715H256.91ZM255.91 351.035H269.19V349.035H255.91V351.035ZM269.795 349.239C268.429 348.2 267.188 347.418 266.079 346.922L265.262 348.748C266.18 349.158 267.285 349.843 268.585 350.831L269.795 349.239ZM266.108 346.936C264.985 346.39 263.796 346.115 262.55 346.115V348.115C263.492 348.115 264.382 348.32 265.233 348.734L266.108 346.936ZM262.55 346.115C261.626 346.115 260.745 346.249 259.914 346.526L260.547 348.424C261.156 348.22 261.822 348.115 262.55 348.115V346.115ZM261.23 347.475V344.675H259.23V347.475H261.23ZM260.547 345.624C261.068 345.45 261.678 345.355 262.39 345.355V343.355C261.502 343.355 260.673 343.473 259.914 343.726L260.547 345.624ZM262.39 345.355C263.372 345.355 264.212 345.553 264.932 345.924L265.848 344.146C264.809 343.61 263.648 343.355 262.39 343.355V345.355ZM264.954 345.935C265.724 346.308 266.676 346.966 267.817 347.952L269.124 346.438C267.918 345.397 266.817 344.615 265.827 344.135L264.954 345.935ZM267.807 347.943L270.287 350.143L271.614 348.647L269.134 346.447L267.807 347.943ZM271.739 348.78L268.059 344.06L266.482 345.29L270.162 350.01L271.739 348.78ZM268.057 344.057C266.685 342.312 264.817 341.435 262.55 341.435V343.435C264.231 343.435 265.509 344.051 266.484 345.293L268.057 344.057ZM262.55 341.435C261.672 341.435 260.817 341.537 259.988 341.745L260.473 343.685C261.137 343.519 261.829 343.435 262.55 343.435V341.435ZM261.23 342.715V339.995H259.23V342.715H261.23ZM260.547 340.944C260.86 340.839 261.53 340.755 262.67 340.755V338.755C261.517 338.755 260.561 338.831 259.914 339.046L260.547 340.944ZM262.67 340.755C265.161 340.755 267.094 341.829 268.549 344.095L270.232 343.015C268.433 340.214 265.886 338.755 262.67 338.755V340.755ZM268.549 344.095L272.709 350.575L274.392 349.495L270.232 343.015L268.549 344.095ZM286.783 362.395L285.983 361.795L284.783 363.395H286.783V362.395ZM295.623 362.395V363.395H296.623V362.395H295.623ZM295.623 352.715H296.623V351.715H295.623V352.715ZM287.863 352.715V351.715H286.863V352.715H287.863ZM303.343 350.035H304.343V349.035H303.343V350.035ZM303.343 352.715V353.715H304.343V352.715H303.343ZM298.743 352.715V351.715H297.743V352.715H298.743ZM298.743 375.715V376.715H299.743V375.715H298.743ZM295.623 375.715H294.623V376.715H295.623V375.715ZM295.623 365.115H296.623V364.115H295.623V365.115ZM282.103 364.755L282.253 363.766L280.004 363.423L281.272 365.312L282.103 364.755ZM289.463 375.715V376.715H291.339L290.293 375.157L289.463 375.715ZM285.663 375.715L284.829 376.267L285.126 376.715H285.663V375.715ZM278.183 364.435H277.183V364.736L277.349 364.987L278.183 364.435ZM278.183 361.955V360.955H277.183V361.955H278.183ZM283.903 361.075L283.164 360.401L283.163 360.402L283.903 361.075ZM284.743 352.715H285.743V351.715H284.743V352.715ZM276.182 352.715H275.182V353.715H276.182V352.715ZM276.182 350.035V349.035H275.182V350.035H276.182ZM286.783 363.395H295.623V361.395H286.783V363.395ZM296.623 362.395V352.715H294.623V362.395H296.623ZM295.623 351.715H287.863V353.715H295.623V351.715ZM286.863 352.715V358.435H288.863V352.715H286.863ZM286.863 358.435C286.863 359.983 286.53 361.065 285.983 361.795L287.583 362.995C288.475 361.805 288.863 360.247 288.863 358.435H286.863ZM302.343 350.035V352.715H304.343V350.035H302.343ZM303.343 351.715H298.743V353.715H303.343V351.715ZM297.743 352.715V375.715H299.743V352.715H297.743ZM298.743 374.715H295.623V376.715H298.743V374.715ZM296.623 375.715V365.115H294.623V375.715H296.623ZM295.623 364.115H288.903V366.115H295.623V364.115ZM288.903 364.115C285.958 364.115 283.751 363.995 282.253 363.766L281.952 365.743C283.601 365.995 285.927 366.115 288.903 366.115V364.115ZM281.272 365.312L288.632 376.272L290.293 375.157L282.933 364.197L281.272 365.312ZM289.463 374.715H285.663V376.715H289.463V374.715ZM286.496 375.162L279.016 363.882L277.349 364.987L284.829 376.267L286.496 375.162ZM279.183 364.435V361.955H277.183V364.435H279.183ZM278.183 362.955H280.823V360.955H278.183V362.955ZM280.823 362.955C282.392 362.955 283.806 362.668 284.642 361.748L283.163 360.402C282.933 360.655 282.293 360.955 280.823 360.955V362.955ZM284.641 361.749C285.443 360.871 285.743 359.614 285.743 358.195H283.743C283.743 359.389 283.482 360.052 283.164 360.401L284.641 361.749ZM285.743 358.195V352.715H283.743V358.195H285.743ZM284.743 351.715H276.182V353.715H284.743V351.715ZM277.182 352.715V350.035H275.182V352.715H277.182ZM276.182 351.035H303.343V349.035H276.182V351.035ZM326.853 350.035H327.853V349.035H326.853V350.035ZM326.853 352.715V353.715H327.853V352.715H326.853ZM322.213 352.715V351.715H321.213V352.715H322.213ZM322.213 375.715V376.715H323.213V375.715H322.213ZM319.093 375.715H318.093V376.715H319.093V375.715ZM319.093 360.355H320.093V359.355H319.093V360.355ZM309.653 371.275L308.886 371.917L308.895 371.927L309.653 371.275ZM314.893 372.955H315.893V371.774L314.729 371.968L314.893 372.955ZM314.893 375.635L315.017 376.627L315.893 376.518V375.635H314.893ZM307.373 373.155L306.632 373.826L306.632 373.826L307.373 373.155ZM307.573 360.115L308.269 360.833L308.275 360.828L307.573 360.115ZM319.093 357.635V358.635H320.093V357.635H319.093ZM319.093 352.715H320.093V351.715H319.093V352.715ZM301.573 352.715H300.573V353.715H301.573V352.715ZM301.573 350.035V349.035H300.573V350.035H301.573ZM325.853 350.035V352.715H327.853V350.035H325.853ZM326.853 351.715H322.213V353.715H326.853V351.715ZM321.213 352.715V375.715H323.213V352.715H321.213ZM322.213 374.715H319.093V376.715H322.213V374.715ZM320.093 375.715V360.355H318.093V375.715H320.093ZM319.093 359.355H315.293V361.355H319.093V359.355ZM315.293 359.355C312.808 359.355 310.757 359.9 309.322 361.165C307.863 362.451 307.213 364.326 307.213 366.595H309.213C309.213 364.704 309.744 363.459 310.644 362.665C311.569 361.85 313.058 361.355 315.293 361.355V359.355ZM307.213 366.595C307.213 368.727 307.733 370.54 308.886 371.917L310.42 370.633C309.653 369.717 309.213 368.409 309.213 366.595H307.213ZM308.895 371.927C310.118 373.348 311.868 373.995 313.973 373.995V371.995C312.292 371.995 311.162 371.495 310.411 370.623L308.895 371.927ZM313.973 373.995C314.417 373.995 314.804 373.984 315.058 373.941L314.729 371.968C314.662 371.979 314.436 371.995 313.973 371.995V373.995ZM313.893 372.955V375.635H315.893V372.955H313.893ZM314.769 374.643C314.378 374.692 314.019 374.715 313.693 374.715V376.715C314.114 376.715 314.555 376.685 315.017 376.627L314.769 374.643ZM313.693 374.715C311.26 374.715 309.441 373.947 308.114 372.483L306.632 373.826C308.399 375.776 310.793 376.715 313.693 376.715V374.715ZM308.114 372.483C306.762 370.991 306.053 369.045 306.053 366.555H304.053C304.053 369.452 304.891 371.905 306.632 373.826L308.114 372.483ZM306.053 366.555C306.053 364.117 306.811 362.244 308.269 360.833L306.878 359.396C304.975 361.239 304.053 363.659 304.053 366.555H306.053ZM308.275 360.828C309.707 359.418 311.87 358.635 314.933 358.635V356.635C311.543 356.635 308.799 357.505 306.872 359.402L308.275 360.828ZM314.933 358.635H319.093V356.635H314.933V358.635ZM320.093 357.635V352.715H318.093V357.635H320.093ZM319.093 351.715H301.573V353.715H319.093V351.715ZM302.573 352.715V350.035H300.573V352.715H302.573ZM301.573 351.035H326.853V349.035H301.573V351.035Z" fill="#F4B400" mask="url(#path-13-outside-2_50_420)"/>
</svg>
