<svg width="567" height="401" viewBox="0 0 567 401" fill="none" xmlns="http://www.w3.org/2000/svg">
<path d="M91.5988 3.59147L110.849 47.4971C111.573 49.1494 112.727 50.5771 114.191 51.6312C115.655 52.6852 117.375 53.327 119.172 53.4894L166.067 57.694C171.373 58.4663 173.489 64.9735 169.642 68.7205L134.317 98.3961C131.457 100.799 130.156 104.574 130.942 108.221L141.211 156.289C142.112 161.566 136.577 165.599 131.829 163.096L90.898 139.127C89.3543 138.221 87.5967 137.743 85.8067 137.743C84.0167 137.743 82.2591 138.221 80.7154 139.127L39.7845 163.082C35.0507 165.57 29.5017 161.552 30.4027 156.274L40.6712 108.207C41.4434 104.56 40.1563 100.784 37.296 98.3818L1.957 68.7348C-1.87581 65.0021 0.240815 58.4806 5.53237 57.7083L52.427 53.5037C54.2237 53.3413 55.9439 52.6995 57.408 51.6455C58.8721 50.5915 60.0264 49.1637 60.7505 47.5114L80.0003 3.60577C82.3887 -1.19954 89.2248 -1.19954 91.5988 3.59147Z" fill="#FDD835"/>
<path d="M90.1971 50.1288L86.9364 17.7788C86.8077 15.9768 86.4358 12.8877 89.3247 12.8877C91.613 12.8877 92.8572 17.6501 92.8572 17.6501L102.639 43.6216C106.329 53.504 104.813 56.8934 101.252 58.8956C97.162 61.1839 91.1267 59.3962 90.1971 50.1288Z" fill="#FFFF8D"/>
<path d="M130.542 95.5212L158.601 73.6256C159.989 72.4672 162.491 70.6223 160.489 68.5199C158.902 66.861 154.611 69.2493 154.611 69.2493L130.056 78.8456C122.733 81.377 117.871 85.124 117.442 89.8435C116.884 96.1361 122.533 100.984 130.542 95.5212Z" fill="#F4B400"/>
<path d="M289.294 3.59147L308.544 47.4971C309.268 49.1494 310.422 50.5771 311.886 51.6312C313.351 52.6852 315.071 53.327 316.867 53.4894L363.762 57.694C369.068 58.4663 371.185 64.9735 367.337 68.7205L332.013 98.3961C329.152 100.799 327.851 104.574 328.638 108.221L338.906 156.289C339.807 161.566 334.272 165.599 329.524 163.096L288.593 139.127C287.05 138.221 285.292 137.743 283.502 137.743C281.712 137.743 279.954 138.221 278.411 139.127L237.48 163.082C232.746 165.57 227.197 161.552 228.098 156.274L238.366 108.207C239.139 104.56 237.852 100.784 234.991 98.3818L199.652 68.7348C195.82 65.0021 197.936 58.4806 203.228 57.7083L250.122 53.5037C251.919 53.3413 253.639 52.6995 255.103 51.6455C256.567 50.5915 257.722 49.1637 258.446 47.5114L277.696 3.60577C280.084 -1.19954 286.92 -1.19954 289.294 3.59147Z" fill="#FDD835"/>
<path d="M287.892 50.1288L284.632 17.7788C284.503 15.9768 284.131 12.8877 287.02 12.8877C289.308 12.8877 290.553 17.6501 290.553 17.6501L300.335 43.6216C304.025 53.504 302.509 56.8934 298.948 58.8956C294.857 61.1839 288.822 59.3962 287.892 50.1288Z" fill="#FFFF8D"/>
<path d="M328.237 95.5212L356.297 73.6256C357.684 72.4672 360.187 70.6223 358.185 68.5199C356.597 66.861 352.307 69.2493 352.307 69.2493L327.751 78.8456C320.429 81.377 315.566 85.124 315.137 89.8435C314.579 96.1361 320.228 100.984 328.237 95.5212Z" fill="#F4B400"/>
<path d="M486.99 3.59147L506.24 47.4971C506.964 49.1494 508.118 50.5771 509.582 51.6312C511.046 52.6852 512.767 53.327 514.563 53.4894L561.458 57.694C566.764 58.4663 568.88 64.9735 565.033 68.7205L529.709 98.3961C526.848 100.799 525.547 104.574 526.333 108.221L536.602 156.289C537.503 161.566 531.968 165.599 527.22 163.096L486.289 139.127C484.745 138.221 482.988 137.743 481.198 137.743C479.408 137.743 477.65 138.221 476.106 139.127L435.176 163.082C430.442 165.57 424.893 161.552 425.794 156.274L436.062 108.207C436.835 104.56 435.547 100.784 432.687 98.3818L397.348 68.7348C393.515 65.0021 395.632 58.4806 400.923 57.7083L447.818 53.5037C449.615 53.3413 451.335 52.6995 452.799 51.6455C454.263 50.5915 455.418 49.1637 456.142 47.5114L475.391 3.60577C477.78 -1.19954 484.616 -1.19954 486.99 3.59147Z" fill="#FDD835"/>
<path d="M485.588 50.1288L482.327 17.7788C482.199 15.9768 481.827 12.8877 484.716 12.8877C487.004 12.8877 488.248 17.6501 488.248 17.6501L498.031 43.6216C501.72 53.504 500.204 56.8934 496.643 58.8956C492.553 61.1839 486.518 59.3962 485.588 50.1288Z" fill="#FFFF8D"/>
<path d="M525.933 95.5212L553.993 73.6256C555.38 72.4672 557.883 70.6223 555.88 68.5199C554.293 66.861 550.002 69.2493 550.002 69.2493L525.447 78.8456C518.124 81.377 513.262 85.124 512.833 89.8435C512.275 96.1361 517.924 100.984 525.933 95.5212Z" fill="#F4B400"/>
<mask id="path-10-outside-1_50_402" maskUnits="userSpaceOnUse" x="162" y="253.857" width="244" height="32" fill="black">
<rect fill="white" x="162" y="253.857" width="244" height="32"/>
<path d="M192.46 263.313V265.457H188.748V283.857H186.252V265.457H180.267V283.857H177.772V275.537H173.356C173.377 275.687 173.388 275.921 173.388 276.241C173.388 277.82 172.822 279.1 171.692 280.081C170.582 281.063 169.036 281.553 167.052 281.553C165.665 281.553 164.364 281.297 163.148 280.785V278.417C164.47 279.079 165.761 279.409 167.02 279.409C168.044 279.409 168.94 279.143 169.708 278.609C170.497 278.055 170.892 277.191 170.892 276.017C170.892 275.1 170.561 274.385 169.9 273.873C169.238 273.361 168.236 273.105 166.891 273.105H165.804V270.865H166.828C167.958 270.865 168.812 270.62 169.388 270.129C169.964 269.639 170.252 268.977 170.252 268.145C170.252 266.396 169.249 265.521 167.244 265.521C166.113 265.521 165.078 265.777 164.14 266.289V263.921C165.057 263.537 166.102 263.345 167.276 263.345C169.025 263.345 170.369 263.751 171.308 264.561C172.268 265.372 172.748 266.471 172.748 267.857C172.748 268.924 172.47 269.809 171.916 270.513C171.382 271.217 170.678 271.687 169.804 271.921C170.892 272.071 171.766 272.551 172.428 273.361H177.772V265.457H174.86V263.313H192.46ZM203.942 271.633V265.457H196.454V271.889C196.454 273.404 196.731 274.503 197.286 275.185C197.841 275.847 198.694 276.177 199.846 276.177C200.977 276.177 201.937 275.772 202.726 274.961C203.537 274.129 203.942 273.02 203.942 271.633ZM210.15 263.313V265.457H206.47V283.857H203.942V276.241C202.961 277.543 201.542 278.204 199.686 278.225C195.846 278.225 193.926 276.103 193.926 271.857V265.457H191.046V263.313H210.15ZM234.814 265.457H223.038V270.033C224.019 269.009 225.267 268.497 226.782 268.497C228.531 268.497 229.95 269.031 231.038 270.097C232.126 271.164 232.67 272.561 232.67 274.289C232.67 276.145 232.062 277.628 230.846 278.737C229.63 279.847 228.115 280.401 226.302 280.401C226.067 280.401 225.822 280.38 225.566 280.337V278.193C225.779 278.236 225.992 278.257 226.206 278.257C227.336 278.257 228.275 277.905 229.022 277.201C229.768 276.497 230.142 275.527 230.142 274.289C230.142 273.201 229.8 272.316 229.118 271.633C228.456 270.929 227.582 270.577 226.494 270.577C225.555 270.577 224.744 270.908 224.062 271.569C223.379 272.209 223.038 273.02 223.038 274.001V283.857H220.51V279.249C219.571 280.231 218.334 280.721 216.798 280.721C215.048 280.721 213.63 280.199 212.542 279.153C211.454 278.087 210.91 276.689 210.91 274.961C210.91 273.105 211.518 271.623 212.734 270.513C213.95 269.383 215.454 268.817 217.246 268.817C217.587 268.817 217.832 268.849 217.982 268.913V271.025C217.875 271.004 217.672 270.993 217.374 270.993C216.222 270.993 215.272 271.345 214.526 272.049C213.779 272.753 213.406 273.713 213.406 274.929C213.406 276.017 213.747 276.913 214.43 277.617C215.112 278.321 215.998 278.673 217.086 278.673C218.024 278.673 218.824 278.343 219.486 277.681C220.168 277.02 220.51 276.199 220.51 275.217V265.457H208.733V263.313H234.814V265.457ZM233.421 265.457V263.313H243.341V265.457H239.629V283.857H237.133V265.457H233.421ZM249.733 263.313H268.742V265.457H264.902V270.801H259.27C257.819 270.801 256.678 271.175 255.846 271.921C255.014 272.668 254.598 273.713 254.598 275.057C254.598 276.444 254.971 277.532 255.718 278.321C256.464 279.111 257.467 279.505 258.726 279.505C259.984 279.505 260.987 279.153 261.734 278.449C262.502 277.745 262.907 276.839 262.95 275.729H265.35V284.177H262.854V279.921C261.979 281.031 260.539 281.585 258.534 281.585C256.55 281.585 254.95 280.967 253.734 279.729C252.518 278.492 251.91 276.967 251.91 275.153C251.91 273.255 252.539 271.708 253.798 270.513C255.056 269.297 256.816 268.689 259.078 268.689H262.406V265.457H249.733V263.313ZM262.37 260.017C262.029 259.697 261.858 259.292 261.858 258.801C261.858 258.311 262.029 257.895 262.37 257.553C262.69 257.212 263.096 257.041 263.586 257.041C264.077 257.041 264.493 257.212 264.834 257.553C265.176 257.895 265.346 258.311 265.346 258.801C265.346 259.292 265.176 259.697 264.834 260.017C264.493 260.337 264.077 260.497 263.586 260.497C263.096 260.497 262.69 260.337 262.37 260.017ZM287.551 263.313V265.457H283.839V283.857H281.343V271.569H278.303C274.527 271.569 272.639 273.233 272.639 276.561C272.639 278.14 273.023 279.388 273.791 280.305C274.581 281.223 275.733 281.681 277.247 281.681C277.61 281.681 277.855 281.671 277.983 281.649V283.793C277.642 283.836 277.322 283.857 277.023 283.857C274.89 283.857 273.205 283.175 271.967 281.809C270.73 280.444 270.111 278.684 270.111 276.529C270.111 274.396 270.783 272.679 272.127 271.377C273.471 270.055 275.434 269.393 278.015 269.393H281.343V265.457H267.327V263.313H287.551ZM319.841 273.841V265.457H303.265V270.033C303.265 271.377 302.977 272.433 302.401 273.201H308.673C309.014 271.857 309.729 270.78 310.817 269.969C311.926 269.137 313.26 268.721 314.817 268.721C315.606 268.721 316.278 268.807 316.833 268.977V271.185C316.3 270.993 315.67 270.897 314.945 270.897C313.814 270.897 312.876 271.26 312.129 271.985C311.382 272.689 311.009 273.628 311.009 274.801C311.009 276.039 311.382 277.031 312.129 277.777C312.897 278.524 313.846 278.897 314.977 278.897C316.47 278.897 317.654 278.396 318.529 277.393C319.404 276.391 319.841 275.207 319.841 273.841ZM326.049 263.313V265.457H322.337V283.857H319.841V278.545C318.732 280.145 317.025 280.945 314.721 280.945C313.1 280.945 311.692 280.444 310.497 279.441C309.302 278.439 308.641 277.084 308.513 275.377H304.097C301.729 275.377 299.916 275.281 298.657 275.089L304.545 283.857H301.505L295.521 274.833V272.849H297.633C298.849 272.849 299.67 272.615 300.097 272.145C300.545 271.655 300.769 270.887 300.769 269.841V265.457H293.921V263.313H326.049ZM324.64 265.457V263.313H334.56V265.457H330.848V283.857H328.352V265.457H324.64ZM373.556 273.169V265.457H367.572C368.105 266.268 368.372 267.26 368.372 268.433C368.372 270.972 366.782 272.721 363.604 273.681C363.881 274.855 364.468 275.825 365.364 276.593C366.26 277.34 367.337 277.713 368.596 277.713C370.068 277.713 371.262 277.308 372.18 276.497C373.097 275.665 373.556 274.556 373.556 273.169ZM360.66 263.313H379.732V265.457H376.02V283.857H373.556V277.649C372.468 279.121 370.74 279.857 368.372 279.857C366.153 279.857 364.34 279.068 362.932 277.489C360.884 279.431 358.441 280.401 355.604 280.401C353.79 280.401 352.158 279.964 350.708 279.089C349.257 278.193 348.254 276.849 347.7 275.057C346.633 275.271 345.342 275.377 343.828 275.377H343.316C340.948 275.377 339.134 275.281 337.876 275.089L343.764 283.857H340.724L334.74 274.833V272.849H336.852C338.068 272.849 338.889 272.615 339.316 272.145C339.764 271.655 339.988 270.887 339.988 269.841V265.457H333.14V263.313H346.676V265.457H342.484V270.033C342.484 271.377 342.196 272.433 341.62 273.201H343.796C344.969 273.201 346.196 273.095 347.476 272.881C348.777 272.668 350.036 272.348 351.252 271.921C352.468 271.495 353.47 270.919 354.26 270.193C355.049 269.447 355.444 268.604 355.444 267.665C355.444 266.94 355.262 266.353 354.9 265.905C354.558 265.457 354.025 265.233 353.3 265.233C352.596 265.233 352.062 265.447 351.7 265.873C351.337 266.279 351.156 266.801 351.156 267.441C351.156 268.103 351.294 268.7 351.572 269.233H349.108C348.83 268.657 348.692 267.975 348.692 267.185C348.692 266.076 349.118 265.127 349.972 264.337C350.825 263.527 351.934 263.121 353.3 263.121C354.729 263.121 355.849 263.559 356.66 264.433C357.47 265.287 357.876 266.353 357.876 267.633C357.876 270.961 355.305 273.223 350.164 274.417C350.484 275.612 351.134 276.551 352.116 277.233C353.097 277.916 354.27 278.257 355.636 278.257C358.004 278.257 360.041 277.425 361.748 275.761C361.214 274.759 360.852 273.543 360.66 272.113C362.366 271.857 363.657 271.388 364.532 270.705C365.428 270.023 365.876 269.223 365.876 268.305C365.876 267.196 365.545 266.247 364.884 265.457H360.66V263.313ZM400.924 270.481H393.244C392.049 270.481 391.452 270.961 391.452 271.921C391.452 272.476 391.601 272.977 391.9 273.425C392.198 273.852 392.55 274.161 392.956 274.353C393.852 274.033 394.886 273.873 396.06 273.873C397.809 273.873 399.153 274.3 400.092 275.153C401.03 275.985 401.5 276.988 401.5 278.161C401.5 278.865 401.382 279.463 401.148 279.953H398.684C398.982 279.548 399.132 278.993 399.132 278.289C399.132 277.607 398.865 277.052 398.332 276.625C397.82 276.177 397.052 275.953 396.028 275.953C394.62 275.953 393.521 276.263 392.732 276.881C391.942 277.5 391.548 278.247 391.548 279.121C391.548 280.188 392.006 281.063 392.924 281.745C393.841 282.407 395.238 282.737 397.116 282.737C398.417 282.737 399.75 282.545 401.116 282.161V284.305C399.644 284.668 398.246 284.849 396.924 284.849C394.406 284.849 392.465 284.273 391.1 283.121C389.734 281.969 389.052 280.625 389.052 279.089C389.052 277.575 389.724 276.316 391.068 275.313C389.638 274.375 388.924 273.137 388.924 271.601C388.924 270.577 389.286 269.788 390.012 269.233C390.737 268.679 391.676 268.401 392.828 268.401H398.46V265.457H386.14V263.313H404.54V265.457H400.924V270.481ZM397.761 258.129L401.249 263.537H397.889C396.695 262.641 395.692 261.991 394.881 261.585C394.071 261.18 393.207 260.977 392.289 260.977C391.628 260.977 391.009 261.073 390.433 261.265V259.025C390.945 258.855 391.521 258.769 392.161 258.769C393.057 258.769 393.857 258.951 394.561 259.313C395.265 259.655 396.087 260.231 397.025 261.041L399.009 262.801L396.065 259.025C395.127 257.831 393.868 257.233 392.289 257.233C391.649 257.233 391.031 257.308 390.433 257.457V255.281C390.817 255.153 391.468 255.089 392.385 255.089C394.668 255.089 396.46 256.103 397.761 258.129Z"/>
</mask>
<path d="M192.46 263.313V265.457H188.748V283.857H186.252V265.457H180.267V283.857H177.772V275.537H173.356C173.377 275.687 173.388 275.921 173.388 276.241C173.388 277.82 172.822 279.1 171.692 280.081C170.582 281.063 169.036 281.553 167.052 281.553C165.665 281.553 164.364 281.297 163.148 280.785V278.417C164.47 279.079 165.761 279.409 167.02 279.409C168.044 279.409 168.94 279.143 169.708 278.609C170.497 278.055 170.892 277.191 170.892 276.017C170.892 275.1 170.561 274.385 169.9 273.873C169.238 273.361 168.236 273.105 166.891 273.105H165.804V270.865H166.828C167.958 270.865 168.812 270.62 169.388 270.129C169.964 269.639 170.252 268.977 170.252 268.145C170.252 266.396 169.249 265.521 167.244 265.521C166.113 265.521 165.078 265.777 164.14 266.289V263.921C165.057 263.537 166.102 263.345 167.276 263.345C169.025 263.345 170.369 263.751 171.308 264.561C172.268 265.372 172.748 266.471 172.748 267.857C172.748 268.924 172.47 269.809 171.916 270.513C171.382 271.217 170.678 271.687 169.804 271.921C170.892 272.071 171.766 272.551 172.428 273.361H177.772V265.457H174.86V263.313H192.46ZM203.942 271.633V265.457H196.454V271.889C196.454 273.404 196.731 274.503 197.286 275.185C197.841 275.847 198.694 276.177 199.846 276.177C200.977 276.177 201.937 275.772 202.726 274.961C203.537 274.129 203.942 273.02 203.942 271.633ZM210.15 263.313V265.457H206.47V283.857H203.942V276.241C202.961 277.543 201.542 278.204 199.686 278.225C195.846 278.225 193.926 276.103 193.926 271.857V265.457H191.046V263.313H210.15ZM234.814 265.457H223.038V270.033C224.019 269.009 225.267 268.497 226.782 268.497C228.531 268.497 229.95 269.031 231.038 270.097C232.126 271.164 232.67 272.561 232.67 274.289C232.67 276.145 232.062 277.628 230.846 278.737C229.63 279.847 228.115 280.401 226.302 280.401C226.067 280.401 225.822 280.38 225.566 280.337V278.193C225.779 278.236 225.992 278.257 226.206 278.257C227.336 278.257 228.275 277.905 229.022 277.201C229.768 276.497 230.142 275.527 230.142 274.289C230.142 273.201 229.8 272.316 229.118 271.633C228.456 270.929 227.582 270.577 226.494 270.577C225.555 270.577 224.744 270.908 224.062 271.569C223.379 272.209 223.038 273.02 223.038 274.001V283.857H220.51V279.249C219.571 280.231 218.334 280.721 216.798 280.721C215.048 280.721 213.63 280.199 212.542 279.153C211.454 278.087 210.91 276.689 210.91 274.961C210.91 273.105 211.518 271.623 212.734 270.513C213.95 269.383 215.454 268.817 217.246 268.817C217.587 268.817 217.832 268.849 217.982 268.913V271.025C217.875 271.004 217.672 270.993 217.374 270.993C216.222 270.993 215.272 271.345 214.526 272.049C213.779 272.753 213.406 273.713 213.406 274.929C213.406 276.017 213.747 276.913 214.43 277.617C215.112 278.321 215.998 278.673 217.086 278.673C218.024 278.673 218.824 278.343 219.486 277.681C220.168 277.02 220.51 276.199 220.51 275.217V265.457H208.733V263.313H234.814V265.457ZM233.421 265.457V263.313H243.341V265.457H239.629V283.857H237.133V265.457H233.421ZM249.733 263.313H268.742V265.457H264.902V270.801H259.27C257.819 270.801 256.678 271.175 255.846 271.921C255.014 272.668 254.598 273.713 254.598 275.057C254.598 276.444 254.971 277.532 255.718 278.321C256.464 279.111 257.467 279.505 258.726 279.505C259.984 279.505 260.987 279.153 261.734 278.449C262.502 277.745 262.907 276.839 262.95 275.729H265.35V284.177H262.854V279.921C261.979 281.031 260.539 281.585 258.534 281.585C256.55 281.585 254.95 280.967 253.734 279.729C252.518 278.492 251.91 276.967 251.91 275.153C251.91 273.255 252.539 271.708 253.798 270.513C255.056 269.297 256.816 268.689 259.078 268.689H262.406V265.457H249.733V263.313ZM262.37 260.017C262.029 259.697 261.858 259.292 261.858 258.801C261.858 258.311 262.029 257.895 262.37 257.553C262.69 257.212 263.096 257.041 263.586 257.041C264.077 257.041 264.493 257.212 264.834 257.553C265.176 257.895 265.346 258.311 265.346 258.801C265.346 259.292 265.176 259.697 264.834 260.017C264.493 260.337 264.077 260.497 263.586 260.497C263.096 260.497 262.69 260.337 262.37 260.017ZM287.551 263.313V265.457H283.839V283.857H281.343V271.569H278.303C274.527 271.569 272.639 273.233 272.639 276.561C272.639 278.14 273.023 279.388 273.791 280.305C274.581 281.223 275.733 281.681 277.247 281.681C277.61 281.681 277.855 281.671 277.983 281.649V283.793C277.642 283.836 277.322 283.857 277.023 283.857C274.89 283.857 273.205 283.175 271.967 281.809C270.73 280.444 270.111 278.684 270.111 276.529C270.111 274.396 270.783 272.679 272.127 271.377C273.471 270.055 275.434 269.393 278.015 269.393H281.343V265.457H267.327V263.313H287.551ZM319.841 273.841V265.457H303.265V270.033C303.265 271.377 302.977 272.433 302.401 273.201H308.673C309.014 271.857 309.729 270.78 310.817 269.969C311.926 269.137 313.26 268.721 314.817 268.721C315.606 268.721 316.278 268.807 316.833 268.977V271.185C316.3 270.993 315.67 270.897 314.945 270.897C313.814 270.897 312.876 271.26 312.129 271.985C311.382 272.689 311.009 273.628 311.009 274.801C311.009 276.039 311.382 277.031 312.129 277.777C312.897 278.524 313.846 278.897 314.977 278.897C316.47 278.897 317.654 278.396 318.529 277.393C319.404 276.391 319.841 275.207 319.841 273.841ZM326.049 263.313V265.457H322.337V283.857H319.841V278.545C318.732 280.145 317.025 280.945 314.721 280.945C313.1 280.945 311.692 280.444 310.497 279.441C309.302 278.439 308.641 277.084 308.513 275.377H304.097C301.729 275.377 299.916 275.281 298.657 275.089L304.545 283.857H301.505L295.521 274.833V272.849H297.633C298.849 272.849 299.67 272.615 300.097 272.145C300.545 271.655 300.769 270.887 300.769 269.841V265.457H293.921V263.313H326.049ZM324.64 265.457V263.313H334.56V265.457H330.848V283.857H328.352V265.457H324.64ZM373.556 273.169V265.457H367.572C368.105 266.268 368.372 267.26 368.372 268.433C368.372 270.972 366.782 272.721 363.604 273.681C363.881 274.855 364.468 275.825 365.364 276.593C366.26 277.34 367.337 277.713 368.596 277.713C370.068 277.713 371.262 277.308 372.18 276.497C373.097 275.665 373.556 274.556 373.556 273.169ZM360.66 263.313H379.732V265.457H376.02V283.857H373.556V277.649C372.468 279.121 370.74 279.857 368.372 279.857C366.153 279.857 364.34 279.068 362.932 277.489C360.884 279.431 358.441 280.401 355.604 280.401C353.79 280.401 352.158 279.964 350.708 279.089C349.257 278.193 348.254 276.849 347.7 275.057C346.633 275.271 345.342 275.377 343.828 275.377H343.316C340.948 275.377 339.134 275.281 337.876 275.089L343.764 283.857H340.724L334.74 274.833V272.849H336.852C338.068 272.849 338.889 272.615 339.316 272.145C339.764 271.655 339.988 270.887 339.988 269.841V265.457H333.14V263.313H346.676V265.457H342.484V270.033C342.484 271.377 342.196 272.433 341.62 273.201H343.796C344.969 273.201 346.196 273.095 347.476 272.881C348.777 272.668 350.036 272.348 351.252 271.921C352.468 271.495 353.47 270.919 354.26 270.193C355.049 269.447 355.444 268.604 355.444 267.665C355.444 266.94 355.262 266.353 354.9 265.905C354.558 265.457 354.025 265.233 353.3 265.233C352.596 265.233 352.062 265.447 351.7 265.873C351.337 266.279 351.156 266.801 351.156 267.441C351.156 268.103 351.294 268.7 351.572 269.233H349.108C348.83 268.657 348.692 267.975 348.692 267.185C348.692 266.076 349.118 265.127 349.972 264.337C350.825 263.527 351.934 263.121 353.3 263.121C354.729 263.121 355.849 263.559 356.66 264.433C357.47 265.287 357.876 266.353 357.876 267.633C357.876 270.961 355.305 273.223 350.164 274.417C350.484 275.612 351.134 276.551 352.116 277.233C353.097 277.916 354.27 278.257 355.636 278.257C358.004 278.257 360.041 277.425 361.748 275.761C361.214 274.759 360.852 273.543 360.66 272.113C362.366 271.857 363.657 271.388 364.532 270.705C365.428 270.023 365.876 269.223 365.876 268.305C365.876 267.196 365.545 266.247 364.884 265.457H360.66V263.313ZM400.924 270.481H393.244C392.049 270.481 391.452 270.961 391.452 271.921C391.452 272.476 391.601 272.977 391.9 273.425C392.198 273.852 392.55 274.161 392.956 274.353C393.852 274.033 394.886 273.873 396.06 273.873C397.809 273.873 399.153 274.3 400.092 275.153C401.03 275.985 401.5 276.988 401.5 278.161C401.5 278.865 401.382 279.463 401.148 279.953H398.684C398.982 279.548 399.132 278.993 399.132 278.289C399.132 277.607 398.865 277.052 398.332 276.625C397.82 276.177 397.052 275.953 396.028 275.953C394.62 275.953 393.521 276.263 392.732 276.881C391.942 277.5 391.548 278.247 391.548 279.121C391.548 280.188 392.006 281.063 392.924 281.745C393.841 282.407 395.238 282.737 397.116 282.737C398.417 282.737 399.75 282.545 401.116 282.161V284.305C399.644 284.668 398.246 284.849 396.924 284.849C394.406 284.849 392.465 284.273 391.1 283.121C389.734 281.969 389.052 280.625 389.052 279.089C389.052 277.575 389.724 276.316 391.068 275.313C389.638 274.375 388.924 273.137 388.924 271.601C388.924 270.577 389.286 269.788 390.012 269.233C390.737 268.679 391.676 268.401 392.828 268.401H398.46V265.457H386.14V263.313H404.54V265.457H400.924V270.481ZM397.761 258.129L401.249 263.537H397.889C396.695 262.641 395.692 261.991 394.881 261.585C394.071 261.18 393.207 260.977 392.289 260.977C391.628 260.977 391.009 261.073 390.433 261.265V259.025C390.945 258.855 391.521 258.769 392.161 258.769C393.057 258.769 393.857 258.951 394.561 259.313C395.265 259.655 396.087 260.231 397.025 261.041L399.009 262.801L396.065 259.025C395.127 257.831 393.868 257.233 392.289 257.233C391.649 257.233 391.031 257.308 390.433 257.457V255.281C390.817 255.153 391.468 255.089 392.385 255.089C394.668 255.089 396.46 256.103 397.761 258.129Z" fill="#0186C6"/>
<path d="M192.46 263.313H192.96V262.813H192.46V263.313ZM192.46 265.457V265.957H192.96V265.457H192.46ZM188.748 265.457V264.957H188.248V265.457H188.748ZM188.748 283.857V284.357H189.248V283.857H188.748ZM186.252 283.857H185.752V284.357H186.252V283.857ZM186.252 265.457H186.752V264.957H186.252V265.457ZM180.267 265.457V264.957H179.767V265.457H180.267ZM180.267 283.857V284.357H180.767V283.857H180.267ZM177.772 283.857H177.272V284.357H177.772V283.857ZM177.772 275.537H178.272V275.037H177.772V275.537ZM173.356 275.537V275.037H172.779L172.861 275.608L173.356 275.537ZM171.692 280.081L171.364 279.704L171.36 279.707L171.692 280.081ZM163.148 280.785H162.648V281.117L162.953 281.246L163.148 280.785ZM163.148 278.417L163.371 277.97L162.648 277.608V278.417H163.148ZM169.708 278.609L169.993 279.02L169.995 279.019L169.708 278.609ZM169.9 273.873L169.593 274.269L169.593 274.269L169.9 273.873ZM165.804 273.105H165.304V273.605H165.804V273.105ZM165.804 270.865V270.365H165.304V270.865H165.804ZM164.14 266.289H163.64V267.132L164.379 266.728L164.14 266.289ZM164.14 263.921L163.946 263.46L163.64 263.589V263.921H164.14ZM171.308 264.561L170.981 264.94L170.985 264.943L171.308 264.561ZM171.916 270.513L171.523 270.204L171.517 270.211L171.916 270.513ZM169.804 271.921L169.674 271.438L169.736 272.417L169.804 271.921ZM172.428 273.361L172.04 273.677L172.19 273.861H172.428V273.361ZM177.772 273.361V273.861H178.272V273.361H177.772ZM177.772 265.457H178.272V264.957H177.772V265.457ZM174.86 265.457H174.36V265.957H174.86V265.457ZM174.86 263.313V262.813H174.36V263.313H174.86ZM191.96 263.313V265.457H192.96V263.313H191.96ZM192.46 264.957H188.748V265.957H192.46V264.957ZM188.248 265.457V283.857H189.248V265.457H188.248ZM188.748 283.357H186.252V284.357H188.748V283.357ZM186.752 283.857V265.457H185.752V283.857H186.752ZM186.252 264.957H180.267V265.957H186.252V264.957ZM179.767 265.457V283.857H180.767V265.457H179.767ZM180.267 283.357H177.772V284.357H180.267V283.357ZM178.272 283.857V275.537H177.272V283.857H178.272ZM177.772 275.037H173.356V276.037H177.772V275.037ZM172.861 275.608C172.877 275.72 172.888 275.925 172.888 276.241H173.888C173.888 275.918 173.877 275.653 173.85 275.467L172.861 275.608ZM172.888 276.241C172.888 277.684 172.378 278.823 171.364 279.704L172.019 280.459C173.266 279.377 173.888 277.956 173.888 276.241H172.888ZM171.36 279.707C170.369 280.583 168.955 281.053 167.052 281.053V282.053C169.116 282.053 170.795 281.542 172.023 280.456L171.36 279.707ZM167.052 281.053C165.728 281.053 164.493 280.809 163.342 280.325L162.953 281.246C164.234 281.785 165.602 282.053 167.052 282.053V281.053ZM163.648 280.785V278.417H162.648V280.785H163.648ZM162.924 278.865C164.304 279.555 165.671 279.909 167.02 279.909V278.909C165.851 278.909 164.636 278.603 163.371 277.97L162.924 278.865ZM167.02 279.909C168.135 279.909 169.133 279.617 169.993 279.02L169.422 278.199C168.746 278.668 167.952 278.909 167.02 278.909V279.909ZM169.995 279.019C170.947 278.349 171.392 277.314 171.392 276.017H170.392C170.392 277.068 170.047 277.76 169.42 278.2L169.995 279.019ZM171.392 276.017C171.392 274.963 171.002 274.095 170.206 273.478L169.593 274.269C170.119 274.676 170.392 275.238 170.392 276.017H171.392ZM170.206 273.478C169.418 272.868 168.284 272.605 166.891 272.605V273.605C168.187 273.605 169.059 273.855 169.593 274.269L170.206 273.478ZM166.891 272.605H165.804V273.605H166.891V272.605ZM166.304 273.105V270.865H165.304V273.105H166.304ZM165.804 271.365H166.828V270.365H165.804V271.365ZM166.828 271.365C168.02 271.365 169.01 271.108 169.712 270.51L169.063 269.749C168.613 270.132 167.896 270.365 166.828 270.365V271.365ZM169.712 270.51C170.411 269.914 170.752 269.107 170.752 268.145H169.752C169.752 268.847 169.516 269.363 169.063 269.749L169.712 270.51ZM170.752 268.145C170.752 267.175 170.47 266.361 169.828 265.801C169.199 265.252 168.308 265.021 167.244 265.021V266.021C168.185 266.021 168.797 266.228 169.171 266.554C169.532 266.869 169.752 267.367 169.752 268.145H170.752ZM167.244 265.021C166.034 265.021 164.916 265.296 163.9 265.85L164.379 266.728C165.24 266.259 166.192 266.021 167.244 266.021V265.021ZM164.64 266.289V263.921H163.64V266.289H164.64ZM164.333 264.383C165.179 264.028 166.157 263.845 167.276 263.845V262.845C166.048 262.845 164.935 263.046 163.946 263.46L164.333 264.383ZM167.276 263.845C168.954 263.845 170.164 264.234 170.981 264.94L171.634 264.183C170.574 263.267 169.096 262.845 167.276 262.845V263.845ZM170.985 264.943C171.82 265.649 172.248 266.601 172.248 267.857H173.248C173.248 266.341 172.715 265.096 171.63 264.179L170.985 264.943ZM172.248 267.857C172.248 268.834 171.995 269.604 171.523 270.204L172.308 270.823C172.945 270.015 173.248 269.014 173.248 267.857H172.248ZM171.517 270.211C171.053 270.825 170.444 271.232 169.674 271.438L169.933 272.404C170.912 272.142 171.712 271.61 172.314 270.815L171.517 270.211ZM169.736 272.417C170.705 272.55 171.463 272.97 172.04 273.677L172.815 273.045C172.069 272.131 171.078 271.592 169.871 271.426L169.736 272.417ZM172.428 273.861H177.772V272.861H172.428V273.861ZM178.272 273.361V265.457H177.272V273.361H178.272ZM177.772 264.957H174.86V265.957H177.772V264.957ZM175.36 265.457V263.313H174.36V265.457H175.36ZM174.86 263.813H192.46V262.813H174.86V263.813ZM203.942 265.457H204.442V264.957H203.942V265.457ZM196.454 265.457V264.957H195.954V265.457H196.454ZM197.286 275.185L196.898 275.501L196.903 275.507L197.286 275.185ZM202.726 274.961L202.368 274.612L202.368 274.613L202.726 274.961ZM210.15 263.313H210.65V262.813H210.15V263.313ZM210.15 265.457V265.957H210.65V265.457H210.15ZM206.47 265.457V264.957H205.97V265.457H206.47ZM206.47 283.857V284.357H206.97V283.857H206.47ZM203.942 283.857H203.442V284.357H203.942V283.857ZM203.942 276.241H204.442V274.748L203.543 275.94L203.942 276.241ZM199.686 278.225V278.725L199.692 278.725L199.686 278.225ZM193.926 265.457H194.426V264.957H193.926V265.457ZM191.046 265.457H190.546V265.957H191.046V265.457ZM191.046 263.313V262.813H190.546V263.313H191.046ZM204.442 271.633V265.457H203.442V271.633H204.442ZM203.942 264.957H196.454V265.957H203.942V264.957ZM195.954 265.457V271.889H196.954V265.457H195.954ZM195.954 271.889C195.954 273.444 196.235 274.684 196.898 275.501L197.674 274.87C197.228 274.321 196.954 273.364 196.954 271.889H195.954ZM196.903 275.507C197.582 276.316 198.599 276.677 199.846 276.677V275.677C198.789 275.677 198.099 275.377 197.669 274.864L196.903 275.507ZM199.846 276.677C201.112 276.677 202.201 276.217 203.084 275.31L202.368 274.613C201.672 275.327 200.842 275.677 199.846 275.677V276.677ZM203.084 275.31C204.003 274.367 204.442 273.123 204.442 271.633H203.442C203.442 272.917 203.07 273.892 202.368 274.612L203.084 275.31ZM209.65 263.313V265.457H210.65V263.313H209.65ZM210.15 264.957H206.47V265.957H210.15V264.957ZM205.97 265.457V283.857H206.97V265.457H205.97ZM206.47 283.357H203.942V284.357H206.47V283.357ZM204.442 283.857V276.241H203.442V283.857H204.442ZM203.543 275.94C202.669 277.1 201.406 277.706 199.68 277.725L199.692 278.725C201.678 278.703 203.253 277.986 204.341 276.542L203.543 275.94ZM199.686 277.725C197.857 277.725 196.573 277.222 195.737 276.298C194.892 275.364 194.426 273.915 194.426 271.857H193.426C193.426 274.045 193.92 275.78 194.995 276.969C196.079 278.167 197.675 278.725 199.686 278.725V277.725ZM194.426 271.857V265.457H193.426V271.857H194.426ZM193.926 264.957H191.046V265.957H193.926V264.957ZM191.546 265.457V263.313H190.546V265.457H191.546ZM191.046 263.813H210.15V262.813H191.046V263.813ZM234.814 265.457V265.957H235.314V265.457H234.814ZM223.038 265.457V264.957H222.538V265.457H223.038ZM223.038 270.033H222.538V271.278L223.398 270.379L223.038 270.033ZM231.038 270.097L230.687 270.454L230.687 270.454L231.038 270.097ZM230.846 278.737L230.509 278.368L230.509 278.368L230.846 278.737ZM225.566 280.337H225.066V280.761L225.483 280.831L225.566 280.337ZM225.566 278.193L225.664 277.703L225.066 277.584V278.193H225.566ZM229.022 277.201L229.365 277.565L229.365 277.565L229.022 277.201ZM229.118 271.633L228.753 271.976L228.758 271.981L228.764 271.987L229.118 271.633ZM224.062 271.569L224.404 271.934L224.409 271.929L224.062 271.569ZM223.038 283.857V284.357H223.538V283.857H223.038ZM220.51 283.857H220.01V284.357H220.51V283.857ZM220.51 279.249H221.01V278.003L220.148 278.904L220.51 279.249ZM212.542 279.153L212.191 279.51L212.195 279.514L212.542 279.153ZM212.734 270.513L213.07 270.883L213.074 270.88L212.734 270.513ZM217.982 268.913H218.482V268.584L218.178 268.454L217.982 268.913ZM217.982 271.025L217.883 271.516L218.482 271.635V271.025H217.982ZM214.526 272.049L214.869 272.413L214.869 272.413L214.526 272.049ZM214.43 277.617L214.071 277.965L214.071 277.965L214.43 277.617ZM219.486 277.681L219.138 277.322L219.132 277.328L219.486 277.681ZM220.51 265.457H221.01V264.957H220.51V265.457ZM208.733 265.457H208.233V265.957H208.733V265.457ZM208.733 263.313V262.813H208.233V263.313H208.733ZM234.814 263.313H235.314V262.813H234.814V263.313ZM234.814 264.957H223.038V265.957H234.814V264.957ZM222.538 265.457V270.033H223.538V265.457H222.538ZM223.398 270.379C224.279 269.461 225.393 268.997 226.782 268.997V267.997C225.141 267.997 223.759 268.558 222.677 269.687L223.398 270.379ZM226.782 268.997C228.421 268.997 229.707 269.493 230.687 270.454L231.388 269.74C230.192 268.568 228.641 267.997 226.782 267.997V268.997ZM230.687 270.454C231.666 271.414 232.17 272.676 232.17 274.289H233.17C233.17 272.447 232.585 270.914 231.388 269.74L230.687 270.454ZM232.17 274.289C232.17 276.025 231.607 277.366 230.509 278.368L231.182 279.107C232.516 277.89 233.17 276.266 233.17 274.289H232.17ZM230.509 278.368C229.394 279.385 228.004 279.901 226.302 279.901V280.901C228.226 280.901 229.865 280.309 231.182 279.107L230.509 278.368ZM226.302 279.901C226.097 279.901 225.879 279.883 225.648 279.844L225.483 280.831C225.764 280.877 226.037 280.901 226.302 280.901V279.901ZM226.066 280.337V278.193H225.066V280.337H226.066ZM225.467 278.684C225.712 278.733 225.959 278.757 226.206 278.757V277.757C226.026 277.757 225.845 277.739 225.664 277.703L225.467 278.684ZM226.206 278.757C227.45 278.757 228.515 278.366 229.365 277.565L228.678 276.838C228.034 277.445 227.223 277.757 226.206 277.757V278.757ZM229.365 277.565C230.232 276.748 230.642 275.634 230.642 274.289H229.642C229.642 275.42 229.305 276.247 228.678 276.838L229.365 277.565ZM230.642 274.289C230.642 273.087 230.26 272.069 229.471 271.28L228.764 271.987C229.341 272.564 229.642 273.316 229.642 274.289H230.642ZM229.482 271.291C228.714 270.473 227.7 270.077 226.494 270.077V271.077C227.463 271.077 228.199 271.386 228.753 271.976L229.482 271.291ZM226.494 270.077C225.423 270.077 224.488 270.46 223.714 271.21L224.409 271.929C225 271.356 225.687 271.077 226.494 271.077V270.077ZM223.72 271.205C222.931 271.944 222.538 272.889 222.538 274.001H223.538C223.538 273.151 223.827 272.475 224.403 271.934L223.72 271.205ZM222.538 274.001V283.857H223.538V274.001H222.538ZM223.038 283.357H220.51V284.357H223.038V283.357ZM221.01 283.857V279.249H220.01V283.857H221.01ZM220.148 278.904C219.317 279.773 218.217 280.221 216.798 280.221V281.221C218.45 281.221 219.825 280.688 220.871 279.595L220.148 278.904ZM216.798 280.221C215.155 280.221 213.868 279.734 212.888 278.793L212.195 279.514C213.391 280.663 214.941 281.221 216.798 281.221V280.221ZM212.892 278.796C211.913 277.837 211.41 276.575 211.41 274.961H210.41C210.41 276.804 210.994 278.337 212.191 279.51L212.892 278.796ZM211.41 274.961C211.41 273.226 211.972 271.885 213.07 270.883L212.397 270.144C211.063 271.361 210.41 272.985 210.41 274.961H211.41ZM213.074 270.88C214.19 269.842 215.569 269.317 217.246 269.317V268.317C215.338 268.317 213.709 268.923 212.393 270.147L213.074 270.88ZM217.246 269.317C217.577 269.317 217.735 269.352 217.785 269.373L218.178 268.454C217.929 268.347 217.596 268.317 217.246 268.317V269.317ZM217.482 268.913V271.025H218.482V268.913H217.482ZM218.08 270.535C217.917 270.503 217.667 270.493 217.374 270.493V271.493C217.677 271.493 217.832 271.505 217.883 271.516L218.08 270.535ZM217.374 270.493C216.111 270.493 215.034 270.883 214.182 271.686L214.869 272.413C215.511 271.808 216.332 271.493 217.374 271.493V270.493ZM214.182 271.686C213.317 272.502 212.906 273.603 212.906 274.929H213.906C213.906 273.824 214.241 273.005 214.869 272.413L214.182 271.686ZM212.906 274.929C212.906 276.132 213.287 277.158 214.071 277.965L214.788 277.269C214.207 276.669 213.906 275.903 213.906 274.929H212.906ZM214.071 277.965C214.858 278.778 215.879 279.173 217.086 279.173V278.173C216.116 278.173 215.366 277.865 214.788 277.269L214.071 277.965ZM217.086 279.173C218.156 279.173 219.084 278.79 219.839 278.035L219.132 277.328C218.565 277.895 217.892 278.173 217.086 278.173V279.173ZM219.833 278.041C220.617 277.282 221.01 276.329 221.01 275.217H220.01C220.01 276.068 219.72 276.759 219.138 277.322L219.833 278.041ZM221.01 275.217V265.457H220.01V275.217H221.01ZM220.51 264.957H208.733V265.957H220.51V264.957ZM209.233 265.457V263.313H208.233V265.457H209.233ZM208.733 263.813H234.814V262.813H208.733V263.813ZM234.314 263.313V265.457H235.314V263.313H234.314ZM233.421 265.457H232.921V265.957H233.421V265.457ZM233.421 263.313V262.813H232.921V263.313H233.421ZM243.341 263.313H243.841V262.813H243.341V263.313ZM243.341 265.457V265.957H243.841V265.457H243.341ZM239.629 265.457V264.957H239.129V265.457H239.629ZM239.629 283.857V284.357H240.129V283.857H239.629ZM237.133 283.857H236.633V284.357H237.133V283.857ZM237.133 265.457H237.633V264.957H237.133V265.457ZM233.921 265.457V263.313H232.921V265.457H233.921ZM233.421 263.813H243.341V262.813H233.421V263.813ZM242.841 263.313V265.457H243.841V263.313H242.841ZM243.341 264.957H239.629V265.957H243.341V264.957ZM239.129 265.457V283.857H240.129V265.457H239.129ZM239.629 283.357H237.133V284.357H239.629V283.357ZM237.633 283.857V265.457H236.633V283.857H237.633ZM237.133 264.957H233.421V265.957H237.133V264.957ZM249.733 263.313V262.813H249.233V263.313H249.733ZM268.742 263.313H269.242V262.813H268.742V263.313ZM268.742 265.457V265.957H269.242V265.457H268.742ZM264.902 265.457V264.957H264.402V265.457H264.902ZM264.902 270.801V271.301H265.402V270.801H264.902ZM255.846 271.921L256.179 272.294L256.179 272.294L255.846 271.921ZM261.734 278.449L261.396 278.081L261.39 278.086L261.734 278.449ZM262.95 275.729V275.229H262.468L262.45 275.71L262.95 275.729ZM265.35 275.729H265.85V275.229H265.35V275.729ZM265.35 284.177V284.677H265.85V284.177H265.35ZM262.854 284.177H262.354V284.677H262.854V284.177ZM262.854 279.921H263.354V278.48L262.461 279.612L262.854 279.921ZM253.734 279.729L254.09 279.379L254.09 279.379L253.734 279.729ZM253.798 270.513L254.142 270.876L254.145 270.873L253.798 270.513ZM262.406 268.689V269.189H262.906V268.689H262.406ZM262.406 265.457H262.906V264.957H262.406V265.457ZM249.733 265.457H249.233V265.957H249.733V265.457ZM249.733 263.813H268.742V262.813H249.733V263.813ZM268.242 263.313V265.457H269.242V263.313H268.242ZM268.742 264.957H264.902V265.957H268.742V264.957ZM264.402 265.457V270.801H265.402V265.457H264.402ZM264.902 270.301H259.27V271.301H264.902V270.301ZM259.27 270.301C257.733 270.301 256.46 270.698 255.512 271.549L256.179 272.294C256.895 271.651 257.904 271.301 259.27 271.301V270.301ZM255.512 271.549C254.553 272.41 254.098 273.603 254.098 275.057H255.098C255.098 273.824 255.474 272.926 256.179 272.294L255.512 271.549ZM254.098 275.057C254.098 276.535 254.497 277.759 255.354 278.665L256.081 277.978C255.444 277.305 255.098 276.353 255.098 275.057H254.098ZM255.354 278.665C256.211 279.57 257.353 280.005 258.726 280.005V279.005C257.58 279.005 256.718 278.651 256.081 277.978L255.354 278.665ZM258.726 280.005C260.081 280.005 261.217 279.624 262.077 278.813L261.39 278.086C260.757 278.683 259.887 279.005 258.726 279.005V280.005ZM262.071 278.818C262.945 278.017 263.402 276.982 263.449 275.749L262.45 275.71C262.412 276.696 262.058 277.473 261.396 278.081L262.071 278.818ZM262.95 276.229H265.35V275.229H262.95V276.229ZM264.85 275.729V284.177H265.85V275.729H264.85ZM265.35 283.677H262.854V284.677H265.35V283.677ZM263.354 284.177V279.921H262.354V284.177H263.354ZM262.461 279.612C261.716 280.556 260.453 281.085 258.534 281.085V282.085C260.625 282.085 262.242 281.505 263.246 280.231L262.461 279.612ZM258.534 281.085C256.663 281.085 255.198 280.507 254.09 279.379L253.377 280.08C254.701 281.427 256.436 282.085 258.534 282.085V281.085ZM254.09 279.379C252.971 278.24 252.41 276.842 252.41 275.153H251.41C251.41 277.091 252.064 278.744 253.377 280.08L254.09 279.379ZM252.41 275.153C252.41 273.378 252.992 271.967 254.142 270.876L253.453 270.151C252.085 271.449 251.41 273.132 251.41 275.153H252.41ZM254.145 270.873C255.285 269.771 256.906 269.189 259.078 269.189V268.189C256.726 268.189 254.827 268.824 253.45 270.154L254.145 270.873ZM259.078 269.189H262.406V268.189H259.078V269.189ZM262.906 268.689V265.457H261.906V268.689H262.906ZM262.406 264.957H249.733V265.957H262.406V264.957ZM250.233 265.457V263.313H249.233V265.457H250.233ZM262.37 260.017L262.724 259.664L262.718 259.658L262.712 259.653L262.37 260.017ZM262.37 257.553L262.724 257.907L262.73 257.901L262.735 257.895L262.37 257.553ZM264.834 257.553L264.481 257.907L264.481 257.907L264.834 257.553ZM264.834 260.017L264.492 259.653L264.492 259.653L264.834 260.017ZM262.712 259.653C262.477 259.432 262.358 259.161 262.358 258.801H261.358C261.358 259.423 261.581 259.963 262.028 260.382L262.712 259.653ZM262.358 258.801C262.358 258.441 262.478 258.153 262.724 257.907L262.017 257.2C261.58 257.637 261.358 258.181 261.358 258.801H262.358ZM262.735 257.895C262.955 257.66 263.226 257.541 263.586 257.541V256.541C262.965 256.541 262.425 256.764 262.005 257.211L262.735 257.895ZM263.586 257.541C263.947 257.541 264.235 257.661 264.481 257.907L265.188 257.2C264.751 256.763 264.207 256.541 263.586 256.541V257.541ZM264.481 257.907C264.727 258.153 264.846 258.441 264.846 258.801H265.846C265.846 258.181 265.625 257.637 265.188 257.2L264.481 257.907ZM264.846 258.801C264.846 259.161 264.727 259.432 264.492 259.653L265.176 260.382C265.624 259.963 265.846 259.423 265.846 258.801H264.846ZM264.492 259.653C264.248 259.881 263.957 259.997 263.586 259.997V260.997C264.197 260.997 264.737 260.794 265.176 260.382L264.492 259.653ZM263.586 259.997C263.216 259.997 262.942 259.882 262.724 259.664L262.017 260.371C262.439 260.793 262.975 260.997 263.586 260.997V259.997ZM287.551 263.313H288.051V262.813H287.551V263.313ZM287.551 265.457V265.957H288.051V265.457H287.551ZM283.839 265.457V264.957H283.339V265.457H283.839ZM283.839 283.857V284.357H284.339V283.857H283.839ZM281.343 283.857H280.843V284.357H281.343V283.857ZM281.343 271.569H281.843V271.069H281.343V271.569ZM273.791 280.305L273.408 280.626L273.412 280.632L273.791 280.305ZM277.983 281.649H278.483V281.059L277.901 281.156L277.983 281.649ZM277.983 283.793L278.045 284.29L278.483 284.235V283.793H277.983ZM271.967 281.809L271.597 282.145L271.597 282.145L271.967 281.809ZM272.127 271.377L272.475 271.737L272.478 271.734L272.127 271.377ZM281.343 269.393V269.893H281.843V269.393H281.343ZM281.343 265.457H281.843V264.957H281.343V265.457ZM267.327 265.457H266.827V265.957H267.327V265.457ZM267.327 263.313V262.813H266.827V263.313H267.327ZM287.051 263.313V265.457H288.051V263.313H287.051ZM287.551 264.957H283.839V265.957H287.551V264.957ZM283.339 265.457V283.857H284.339V265.457H283.339ZM283.839 283.357H281.343V284.357H283.839V283.357ZM281.843 283.857V271.569H280.843V283.857H281.843ZM281.343 271.069H278.303V272.069H281.343V271.069ZM278.303 271.069C276.353 271.069 274.796 271.498 273.725 272.442C272.641 273.397 272.139 274.803 272.139 276.561H273.139C273.139 274.992 273.582 273.901 274.386 273.193C275.202 272.473 276.478 272.069 278.303 272.069V271.069ZM272.139 276.561C272.139 278.22 272.543 279.594 273.408 280.626L274.175 279.984C273.503 279.182 273.139 278.061 273.139 276.561H272.139ZM273.412 280.632C274.32 281.686 275.627 282.181 277.247 282.181V281.181C275.839 281.181 274.841 280.759 274.17 279.979L273.412 280.632ZM277.247 282.181C277.605 282.181 277.891 282.172 278.065 282.143L277.901 281.156C277.82 281.17 277.615 281.181 277.247 281.181V282.181ZM277.483 281.649V283.793H278.483V281.649H277.483ZM277.921 283.297C277.597 283.338 277.298 283.357 277.023 283.357V284.357C277.345 284.357 277.686 284.334 278.045 284.29L277.921 283.297ZM277.023 283.357C275.007 283.357 273.465 282.718 272.338 281.474L271.597 282.145C272.944 283.632 274.773 284.357 277.023 284.357V283.357ZM272.338 281.474C271.198 280.216 270.611 278.582 270.611 276.529H269.611C269.611 278.786 270.262 280.673 271.597 282.145L272.338 281.474ZM270.611 276.529C270.611 274.511 271.242 272.93 272.475 271.737L271.779 271.018C270.324 272.427 269.611 274.281 269.611 276.529H270.611ZM272.478 271.734C273.698 270.533 275.516 269.893 278.015 269.893V268.893C275.352 268.893 273.244 269.577 271.777 271.021L272.478 271.734ZM278.015 269.893H281.343V268.893H278.015V269.893ZM281.843 269.393V265.457H280.843V269.393H281.843ZM281.343 264.957H267.327V265.957H281.343V264.957ZM267.827 265.457V263.313H266.827V265.457H267.827ZM267.327 263.813H287.551V262.813H267.327V263.813ZM319.841 265.457H320.341V264.957H319.841V265.457ZM303.265 265.457V264.957H302.765V265.457H303.265ZM302.401 273.201L302.001 272.901L301.401 273.701H302.401V273.201ZM308.673 273.201V273.701H309.062L309.158 273.324L308.673 273.201ZM310.817 269.969L311.116 270.37L311.117 270.369L310.817 269.969ZM316.833 268.977H317.333V268.608L316.98 268.5L316.833 268.977ZM316.833 271.185L316.664 271.656L317.333 271.897V271.185H316.833ZM312.129 271.985L312.472 272.349L312.477 272.344L312.129 271.985ZM312.129 277.777L311.775 278.131L311.78 278.136L312.129 277.777ZM326.049 263.313H326.549V262.813H326.049V263.313ZM326.049 265.457V265.957H326.549V265.457H326.049ZM322.337 265.457V264.957H321.837V265.457H322.337ZM322.337 283.857V284.357H322.837V283.857H322.337ZM319.841 283.857H319.341V284.357H319.841V283.857ZM319.841 278.545H320.341V276.947L319.43 278.261L319.841 278.545ZM310.497 279.441L310.176 279.824L310.176 279.824L310.497 279.441ZM308.513 275.377L309.012 275.34L308.977 274.877H308.513V275.377ZM298.657 275.089L298.732 274.595L297.608 274.424L298.242 275.368L298.657 275.089ZM304.545 283.857V284.357H305.483L304.96 283.579L304.545 283.857ZM301.505 283.857L301.088 284.134L301.237 284.357H301.505V283.857ZM295.521 274.833H295.021V274.984L295.104 275.11L295.521 274.833ZM295.521 272.849V272.349H295.021V272.849H295.521ZM300.097 272.145L299.728 271.808L299.727 271.809L300.097 272.145ZM300.769 265.457H301.269V264.957H300.769V265.457ZM293.921 265.457H293.421V265.957H293.921V265.457ZM293.921 263.313V262.813H293.421V263.313H293.921ZM320.341 273.841V265.457H319.341V273.841H320.341ZM319.841 264.957H303.265V265.957H319.841V264.957ZM302.765 265.457V270.033H303.765V265.457H302.765ZM302.765 270.033C302.765 271.311 302.491 272.249 302.001 272.901L302.801 273.501C303.463 272.618 303.765 271.443 303.765 270.033H302.765ZM302.401 273.701H308.673V272.701H302.401V273.701ZM309.158 273.324C309.471 272.089 310.122 271.111 311.116 270.37L310.518 269.568C309.336 270.449 308.557 271.626 308.188 273.078L309.158 273.324ZM311.117 270.369C312.129 269.61 313.354 269.221 314.817 269.221V268.221C313.165 268.221 311.723 268.665 310.517 269.569L311.117 270.369ZM314.817 269.221C315.573 269.221 316.193 269.304 316.686 269.455L316.98 268.5C316.364 268.31 315.64 268.221 314.817 268.221V269.221ZM316.333 268.977V271.185H317.333V268.977H316.333ZM317.002 270.715C316.402 270.499 315.713 270.397 314.945 270.397V271.397C315.628 271.397 316.197 271.488 316.664 271.656L317.002 270.715ZM314.945 270.397C313.697 270.397 312.629 270.803 311.781 271.627L312.477 272.344C313.122 271.718 313.932 271.397 314.945 271.397V270.397ZM311.786 271.622C310.924 272.434 310.509 273.512 310.509 274.801H311.509C311.509 273.744 311.84 272.945 312.472 272.349L311.786 271.622ZM310.509 274.801C310.509 276.147 310.919 277.274 311.775 278.131L312.483 277.424C311.846 276.787 311.509 275.931 311.509 274.801H310.509ZM311.78 278.136C312.647 278.979 313.724 279.397 314.977 279.397V278.397C313.968 278.397 313.147 278.069 312.478 277.419L311.78 278.136ZM314.977 279.397C316.595 279.397 317.924 278.848 318.906 277.722L318.152 277.065C317.385 277.945 316.346 278.397 314.977 278.397V279.397ZM318.906 277.722C319.862 276.626 320.341 275.324 320.341 273.841H319.341C319.341 275.089 318.945 276.156 318.152 277.065L318.906 277.722ZM325.549 263.313V265.457H326.549V263.313H325.549ZM326.049 264.957H322.337V265.957H326.049V264.957ZM321.837 265.457V283.857H322.837V265.457H321.837ZM322.337 283.357H319.841V284.357H322.337V283.357ZM320.341 283.857V278.545H319.341V283.857H320.341ZM319.43 278.261C318.432 279.7 316.895 280.445 314.721 280.445V281.445C317.155 281.445 319.031 280.591 320.252 278.83L319.43 278.261ZM314.721 280.445C313.212 280.445 311.919 279.982 310.818 279.058L310.176 279.824C311.464 280.906 312.987 281.445 314.721 281.445V280.445ZM310.818 279.058C309.738 278.151 309.131 276.927 309.012 275.34L308.014 275.415C308.151 277.241 308.867 278.726 310.176 279.824L310.818 279.058ZM308.513 274.877H304.097V275.877H308.513V274.877ZM304.097 274.877C301.737 274.877 299.953 274.781 298.732 274.595L298.582 275.584C299.878 275.781 301.721 275.877 304.097 275.877V274.877ZM298.242 275.368L304.13 284.136L304.96 283.579L299.072 274.811L298.242 275.368ZM304.545 283.357H301.505V284.357H304.545V283.357ZM301.922 283.581L295.938 274.557L295.104 275.11L301.088 284.134L301.922 283.581ZM296.021 274.833V272.849H295.021V274.833H296.021ZM295.521 273.349H297.633V272.349H295.521V273.349ZM297.633 273.349C298.874 273.349 299.889 273.118 300.467 272.482L299.727 271.809C299.452 272.112 298.824 272.349 297.633 272.349V273.349ZM300.466 272.483C301.035 271.859 301.269 270.943 301.269 269.841H300.269C300.269 270.83 300.055 271.45 299.728 271.808L300.466 272.483ZM301.269 269.841V265.457H300.269V269.841H301.269ZM300.769 264.957H293.921V265.957H300.769V264.957ZM294.421 265.457V263.313H293.421V265.457H294.421ZM293.921 263.813H326.049V262.813H293.921V263.813ZM324.64 265.457H324.14V265.957H324.64V265.457ZM324.64 263.313V262.813H324.14V263.313H324.64ZM334.56 263.313H335.06V262.813H334.56V263.313ZM334.56 265.457V265.957H335.06V265.457H334.56ZM330.848 265.457V264.957H330.348V265.457H330.848ZM330.848 283.857V284.357H331.348V283.857H330.848ZM328.352 283.857H327.852V284.357H328.352V283.857ZM328.352 265.457H328.852V264.957H328.352V265.457ZM325.14 265.457V263.313H324.14V265.457H325.14ZM324.64 263.813H334.56V262.813H324.64V263.813ZM334.06 263.313V265.457H335.06V263.313H334.06ZM334.56 264.957H330.848V265.957H334.56V264.957ZM330.348 265.457V283.857H331.348V265.457H330.348ZM330.848 283.357H328.352V284.357H330.848V283.357ZM328.852 283.857V265.457H327.852V283.857H328.852ZM328.352 264.957H324.64V265.957H328.352V264.957ZM373.556 265.457H374.056V264.957H373.556V265.457ZM367.572 265.457V264.957H366.644L367.154 265.732L367.572 265.457ZM363.604 273.681L363.459 273.203L363.009 273.339L363.117 273.796L363.604 273.681ZM365.364 276.593L365.038 276.973L365.044 276.978L365.364 276.593ZM372.18 276.497L372.511 276.872L372.516 276.868L372.18 276.497ZM360.66 263.313V262.813H360.16V263.313H360.66ZM379.732 263.313H380.232V262.813H379.732V263.313ZM379.732 265.457V265.957H380.232V265.457H379.732ZM376.02 265.457V264.957H375.52V265.457H376.02ZM376.02 283.857V284.357H376.52V283.857H376.02ZM373.556 283.857H373.056V284.357H373.556V283.857ZM373.556 277.649H374.056V276.132L373.154 277.352L373.556 277.649ZM362.932 277.489L363.305 277.157L362.962 276.772L362.588 277.127L362.932 277.489ZM350.708 279.089L350.445 279.515L350.45 279.518L350.708 279.089ZM347.7 275.057L348.177 274.91L348.044 274.479L347.602 274.567L347.7 275.057ZM337.876 275.089L337.951 274.595L336.826 274.424L337.461 275.368L337.876 275.089ZM343.764 283.857V284.357H344.702L344.179 283.579L343.764 283.857ZM340.724 283.857L340.307 284.134L340.455 284.357H340.724V283.857ZM334.74 274.833H334.24V274.984L334.323 275.11L334.74 274.833ZM334.74 272.849V272.349H334.24V272.849H334.74ZM339.316 272.145L338.947 271.808L338.946 271.809L339.316 272.145ZM339.988 265.457H340.488V264.957H339.988V265.457ZM333.14 265.457H332.64V265.957H333.14V265.457ZM333.14 263.313V262.813H332.64V263.313H333.14ZM346.676 263.313H347.176V262.813H346.676V263.313ZM346.676 265.457V265.957H347.176V265.457H346.676ZM342.484 265.457V264.957H341.984V265.457H342.484ZM341.62 273.201L341.22 272.901L340.62 273.701H341.62V273.201ZM347.476 272.881L347.395 272.388L347.394 272.388L347.476 272.881ZM351.252 271.921L351.086 271.45L351.086 271.45L351.252 271.921ZM354.26 270.193L354.598 270.562L354.603 270.557L354.26 270.193ZM354.9 265.905L354.502 266.208L354.506 266.214L354.511 266.22L354.9 265.905ZM351.7 265.873L352.072 266.207L352.081 266.197L351.7 265.873ZM351.572 269.233V269.733H352.395L352.015 269.003L351.572 269.233ZM349.108 269.233L348.657 269.45L348.794 269.733H349.108V269.233ZM349.972 264.337L350.311 264.705L350.316 264.7L349.972 264.337ZM356.66 264.433L356.293 264.773L356.297 264.778L356.66 264.433ZM350.164 274.417L350.051 273.93L349.547 274.047L349.681 274.547L350.164 274.417ZM352.116 277.233L352.401 276.823L352.401 276.823L352.116 277.233ZM361.748 275.761L362.097 276.119L362.365 275.858L362.189 275.527L361.748 275.761ZM360.66 272.113L360.586 271.619L360.099 271.692L360.164 272.18L360.66 272.113ZM364.532 270.705L364.229 270.308L364.224 270.311L364.532 270.705ZM364.884 265.457L365.267 265.136L365.117 264.957H364.884V265.457ZM360.66 265.457H360.16V265.957H360.66V265.457ZM374.056 273.169V265.457H373.056V273.169H374.056ZM373.556 264.957H367.572V265.957H373.556V264.957ZM367.154 265.732C367.623 266.446 367.872 267.337 367.872 268.433H368.872C368.872 267.183 368.587 266.091 367.989 265.183L367.154 265.732ZM367.872 268.433C367.872 269.588 367.514 270.538 366.81 271.313C366.096 272.099 364.995 272.739 363.459 273.203L363.748 274.16C365.391 273.664 366.674 272.949 367.55 271.986C368.435 271.012 368.872 269.817 368.872 268.433H367.872ZM363.117 273.796C363.418 275.07 364.06 276.135 365.038 276.973L365.689 276.214C364.875 275.516 364.344 274.639 364.09 273.566L363.117 273.796ZM365.044 276.978C366.037 277.805 367.23 278.213 368.596 278.213V277.213C367.444 277.213 366.483 276.875 365.684 276.209L365.044 276.978ZM368.596 278.213C370.164 278.213 371.484 277.779 372.511 276.872L371.849 276.123C371.04 276.837 369.972 277.213 368.596 277.213V278.213ZM372.516 276.868C373.551 275.929 374.056 274.678 374.056 273.169H373.056C373.056 274.434 372.644 275.402 371.844 276.127L372.516 276.868ZM360.66 263.813H379.732V262.813H360.66V263.813ZM379.232 263.313V265.457H380.232V263.313H379.232ZM379.732 264.957H376.02V265.957H379.732V264.957ZM375.52 265.457V283.857H376.52V265.457H375.52ZM376.02 283.357H373.556V284.357H376.02V283.357ZM374.056 283.857V277.649H373.056V283.857H374.056ZM373.154 277.352C372.187 278.66 370.632 279.357 368.372 279.357V280.357C370.847 280.357 372.749 279.582 373.958 277.947L373.154 277.352ZM368.372 279.357C366.288 279.357 364.613 278.623 363.305 277.157L362.559 277.822C364.067 279.513 366.018 280.357 368.372 280.357V279.357ZM362.588 277.127C360.633 278.979 358.314 279.901 355.604 279.901V280.901C358.568 280.901 361.134 279.882 363.276 277.852L362.588 277.127ZM355.604 279.901C353.875 279.901 352.333 279.486 350.966 278.661L350.45 279.518C351.984 280.443 353.706 280.901 355.604 280.901V279.901ZM350.97 278.664C349.633 277.838 348.7 276.599 348.177 274.91L347.222 275.205C347.809 277.1 348.881 278.549 350.445 279.515L350.97 278.664ZM347.602 274.567C346.577 274.772 345.321 274.877 343.828 274.877V275.877C345.364 275.877 346.689 275.769 347.798 275.548L347.602 274.567ZM343.828 274.877H343.316V275.877H343.828V274.877ZM343.316 274.877C340.955 274.877 339.172 274.781 337.951 274.595L337.8 275.584C339.097 275.781 340.94 275.877 343.316 275.877V274.877ZM337.461 275.368L343.349 284.136L344.179 283.579L338.291 274.811L337.461 275.368ZM343.764 283.357H340.724V284.357H343.764V283.357ZM341.14 283.581L335.156 274.557L334.323 275.11L340.307 284.134L341.14 283.581ZM335.24 274.833V272.849H334.24V274.833H335.24ZM334.74 273.349H336.852V272.349H334.74V273.349ZM336.852 273.349C338.092 273.349 339.107 273.118 339.686 272.482L338.946 271.809C338.671 272.112 338.043 272.349 336.852 272.349V273.349ZM339.685 272.483C340.254 271.859 340.488 270.943 340.488 269.841H339.488C339.488 270.83 339.273 271.45 338.947 271.808L339.685 272.483ZM340.488 269.841V265.457H339.488V269.841H340.488ZM339.988 264.957H333.14V265.957H339.988V264.957ZM333.64 265.457V263.313H332.64V265.457H333.64ZM333.14 263.813H346.676V262.813H333.14V263.813ZM346.176 263.313V265.457H347.176V263.313H346.176ZM346.676 264.957H342.484V265.957H346.676V264.957ZM341.984 265.457V270.033H342.984V265.457H341.984ZM341.984 270.033C341.984 271.311 341.709 272.249 341.22 272.901L342.02 273.501C342.682 272.618 342.984 271.443 342.984 270.033H341.984ZM341.62 273.701H343.796V272.701H341.62V273.701ZM343.796 273.701C344.999 273.701 346.254 273.592 347.558 273.375L347.394 272.388C346.138 272.597 344.939 272.701 343.796 272.701V273.701ZM347.557 273.375C348.886 273.157 350.173 272.83 351.417 272.393L351.086 271.45C349.898 271.866 348.668 272.179 347.395 272.388L347.557 273.375ZM351.417 272.393C352.685 271.949 353.75 271.341 354.598 270.562L353.921 269.825C353.191 270.496 352.251 271.041 351.086 271.45L351.417 272.393ZM354.603 270.557C355.475 269.732 355.944 268.763 355.944 267.665H354.944C354.944 268.445 354.623 269.162 353.916 269.83L354.603 270.557ZM355.944 267.665C355.944 266.856 355.74 266.149 355.288 265.591L354.511 266.22C354.785 266.558 354.944 267.024 354.944 267.665H355.944ZM355.297 265.602C354.835 264.996 354.132 264.733 353.3 264.733V265.733C353.918 265.733 354.282 265.919 354.502 266.208L355.297 265.602ZM353.3 264.733C352.49 264.733 351.8 264.983 351.319 265.55L352.081 266.197C352.325 265.91 352.702 265.733 353.3 265.733V264.733ZM351.327 265.54C350.868 266.053 350.656 266.701 350.656 267.441H351.656C351.656 266.901 351.806 266.505 352.072 266.207L351.327 265.54ZM350.656 267.441C350.656 268.175 350.81 268.853 351.128 269.464L352.015 269.003C351.779 268.548 351.656 268.031 351.656 267.441H350.656ZM351.572 268.733H349.108V269.733H351.572V268.733ZM349.558 269.017C349.32 268.522 349.192 267.917 349.192 267.185H348.192C348.192 268.033 348.341 268.793 348.657 269.45L349.558 269.017ZM349.192 267.185C349.192 266.223 349.555 265.404 350.311 264.704L349.632 263.97C348.682 264.849 348.192 265.929 348.192 267.185H349.192ZM350.316 264.7C351.062 263.992 352.041 263.621 353.3 263.621V262.621C351.828 262.621 350.588 263.062 349.627 263.975L350.316 264.7ZM353.3 263.621C354.62 263.621 355.596 264.021 356.293 264.773L357.026 264.094C356.103 263.097 354.838 262.621 353.3 262.621V263.621ZM356.297 264.778C357.012 265.53 357.376 266.469 357.376 267.633H358.376C358.376 266.238 357.929 265.044 357.022 264.089L356.297 264.778ZM357.376 267.633C357.376 269.149 356.798 270.411 355.618 271.45C354.419 272.504 352.58 273.343 350.051 273.93L350.277 274.904C352.888 274.298 354.906 273.408 356.278 272.201C357.668 270.978 358.376 269.446 358.376 267.633H357.376ZM349.681 274.547C350.03 275.851 350.748 276.891 351.83 277.644L352.401 276.823C351.52 276.21 350.937 275.373 350.647 274.288L349.681 274.547ZM351.83 277.644C352.907 278.393 354.183 278.757 355.636 278.757V277.757C354.357 277.757 353.287 277.439 352.401 276.823L351.83 277.644ZM355.636 278.757C358.135 278.757 360.297 277.874 362.097 276.119L361.399 275.403C359.785 276.977 357.872 277.757 355.636 277.757V278.757ZM362.189 275.527C361.69 274.588 361.341 273.433 361.155 272.047L360.164 272.18C360.362 273.653 360.739 274.929 361.306 275.996L362.189 275.527ZM360.734 272.608C362.483 272.346 363.869 271.857 364.839 271.1L364.224 270.311C363.445 270.919 362.25 271.369 360.586 271.619L360.734 272.608ZM364.835 271.103C365.823 270.35 366.376 269.415 366.376 268.305H365.376C365.376 269.031 365.032 269.696 364.229 270.308L364.835 271.103ZM366.376 268.305C366.376 267.088 366.01 266.023 365.267 265.136L364.5 265.779C365.08 266.471 365.376 267.304 365.376 268.305H366.376ZM364.884 264.957H360.66V265.957H364.884V264.957ZM361.16 265.457V263.313H360.16V265.457H361.16ZM400.924 270.481V270.981H401.424V270.481H400.924ZM391.9 273.425L391.484 273.703L391.49 273.712L391.9 273.425ZM392.956 274.353L392.742 274.805L392.929 274.894L393.124 274.824L392.956 274.353ZM400.092 275.153L399.755 275.523L399.76 275.528L400.092 275.153ZM401.148 279.953V280.453H401.463L401.599 280.169L401.148 279.953ZM398.684 279.953L398.281 279.657L397.694 280.453H398.684V279.953ZM398.332 276.625L398.002 277.002L398.011 277.009L398.019 277.016L398.332 276.625ZM392.732 276.881L393.04 277.275L393.04 277.275L392.732 276.881ZM392.924 281.745L392.625 282.147L392.631 282.151L392.924 281.745ZM401.116 282.161H401.616V281.501L400.98 281.68L401.116 282.161ZM401.116 284.305L401.235 284.791L401.616 284.697V284.305H401.116ZM391.1 283.121L390.777 283.504L390.777 283.504L391.1 283.121ZM391.068 275.313L391.367 275.714L391.939 275.287L391.342 274.895L391.068 275.313ZM390.012 269.233L390.315 269.631L390.315 269.631L390.012 269.233ZM398.46 268.401V268.901H398.96V268.401H398.46ZM398.46 265.457H398.96V264.957H398.46V265.457ZM386.14 265.457H385.64V265.957H386.14V265.457ZM386.14 263.313V262.813H385.64V263.313H386.14ZM404.54 263.313H405.04V262.813H404.54V263.313ZM404.54 265.457V265.957H405.04V265.457H404.54ZM400.924 265.457V264.957H400.424V265.457H400.924ZM400.924 269.981H393.244V270.981H400.924V269.981ZM393.244 269.981C392.593 269.981 392.012 270.11 391.587 270.452C391.141 270.81 390.952 271.332 390.952 271.921H391.952C391.952 271.551 392.062 271.353 392.213 271.231C392.385 271.093 392.7 270.981 393.244 270.981V269.981ZM390.952 271.921C390.952 272.572 391.129 273.17 391.484 273.703L392.316 273.148C392.074 272.785 391.952 272.381 391.952 271.921H390.952ZM391.49 273.712C391.83 274.198 392.246 274.571 392.742 274.805L393.17 273.902C392.855 273.752 392.566 273.506 392.309 273.139L391.49 273.712ZM393.124 274.824C393.955 274.527 394.931 274.373 396.06 274.373V273.373C394.842 273.373 393.748 273.539 392.788 273.883L393.124 274.824ZM396.06 274.373C397.732 274.373 398.939 274.781 399.755 275.523L400.428 274.783C399.367 273.819 397.886 273.373 396.06 273.373V274.373ZM399.76 275.528C400.6 276.272 401 277.142 401 278.161H402C402 276.834 401.461 275.699 400.423 274.779L399.76 275.528ZM401 278.161C401 278.812 400.891 279.331 400.697 279.738L401.599 280.169C401.874 279.594 402 278.919 402 278.161H401ZM401.148 279.453H398.684V280.453H401.148V279.453ZM399.086 280.25C399.469 279.731 399.632 279.059 399.632 278.289H398.632C398.632 278.928 398.496 279.366 398.281 279.657L399.086 280.25ZM399.632 278.289C399.632 277.455 399.296 276.756 398.644 276.235L398.019 277.016C398.434 277.348 398.632 277.759 398.632 278.289H399.632ZM398.661 276.249C398.021 275.69 397.114 275.453 396.028 275.453V276.453C396.99 276.453 397.618 276.665 398.002 277.002L398.661 276.249ZM396.028 275.453C394.552 275.453 393.33 275.777 392.423 276.488L393.04 277.275C393.712 276.748 394.687 276.453 396.028 276.453V275.453ZM392.423 276.488C391.533 277.186 391.048 278.069 391.048 279.121H392.048C392.048 278.424 392.352 277.815 393.04 277.275L392.423 276.488ZM391.048 279.121C391.048 280.359 391.592 281.377 392.625 282.147L393.222 281.344C392.421 280.748 392.048 280.017 392.048 279.121H391.048ZM392.631 282.151C393.674 282.902 395.196 283.237 397.116 283.237V282.237C395.28 282.237 394.009 281.911 393.216 281.34L392.631 282.151ZM397.116 283.237C398.467 283.237 399.846 283.038 401.251 282.643L400.98 281.68C399.655 282.053 398.367 282.237 397.116 282.237V283.237ZM400.616 282.161V284.305H401.616V282.161H400.616ZM400.996 283.82C399.558 284.174 398.201 284.349 396.924 284.349V285.349C398.292 285.349 399.73 285.162 401.235 284.791L400.996 283.82ZM396.924 284.349C394.477 284.349 392.667 283.789 391.422 282.739L390.777 283.504C392.264 284.758 394.336 285.349 396.924 285.349V284.349ZM391.422 282.739C390.149 281.665 389.552 280.453 389.552 279.089H388.552C388.552 280.798 389.32 282.274 390.777 283.504L391.422 282.739ZM389.552 279.089C389.552 277.751 390.134 276.634 391.367 275.714L390.769 274.913C389.314 275.998 388.552 277.398 388.552 279.089H389.552ZM391.342 274.895C390.035 274.037 389.424 272.948 389.424 271.601H388.424C388.424 273.327 389.242 274.713 390.793 275.731L391.342 274.895ZM389.424 271.601C389.424 270.712 389.73 270.078 390.315 269.631L389.708 268.836C388.843 269.498 388.424 270.443 388.424 271.601H389.424ZM390.315 269.631C390.933 269.158 391.756 268.901 392.828 268.901V267.901C391.595 267.901 390.541 268.199 389.708 268.836L390.315 269.631ZM392.828 268.901H398.46V267.901H392.828V268.901ZM398.96 268.401V265.457H397.96V268.401H398.96ZM398.46 264.957H386.14V265.957H398.46V264.957ZM386.64 265.457V263.313H385.64V265.457H386.64ZM386.14 263.813H404.54V262.813H386.14V263.813ZM404.04 263.313V265.457H405.04V263.313H404.04ZM404.54 264.957H400.924V265.957H404.54V264.957ZM400.424 265.457V270.481H401.424V265.457H400.424ZM397.761 258.129L397.341 258.4L397.341 258.4L397.761 258.129ZM401.249 263.537V264.037H402.167L401.67 263.266L401.249 263.537ZM397.889 263.537L397.589 263.937L397.723 264.037H397.889V263.537ZM394.881 261.585L394.658 262.033L394.658 262.033L394.881 261.585ZM390.433 261.265H389.933V261.959L390.592 261.74L390.433 261.265ZM390.433 259.025L390.275 258.551L389.933 258.665V259.025H390.433ZM394.561 259.313L394.332 259.758L394.343 259.763L394.561 259.313ZM397.025 261.041L397.357 260.667L397.352 260.663L397.025 261.041ZM399.009 262.801L398.678 263.175L399.404 262.494L399.009 262.801ZM396.065 259.025L396.46 258.718L396.459 258.717L396.065 259.025ZM390.433 257.457H389.933V258.098L390.555 257.942L390.433 257.457ZM390.433 255.281L390.275 254.807L389.933 254.921V255.281H390.433ZM397.341 258.4L400.829 263.808L401.67 263.266L398.182 257.858L397.341 258.4ZM401.249 263.037H397.889V264.037H401.249V263.037ZM398.189 263.137C396.984 262.233 395.954 261.563 395.105 261.138L394.658 262.033C395.43 262.419 396.406 263.049 397.589 263.937L398.189 263.137ZM395.105 261.138C394.224 260.698 393.283 260.477 392.289 260.477V261.477C393.13 261.477 393.918 261.662 394.658 262.033L395.105 261.138ZM392.289 260.477C391.579 260.477 390.907 260.581 390.275 260.791L390.592 261.74C391.112 261.566 391.677 261.477 392.289 261.477V260.477ZM390.933 261.265V259.025H389.933V261.265H390.933ZM390.592 259.5C391.044 259.349 391.566 259.269 392.161 259.269V258.269C391.477 258.269 390.847 258.361 390.275 258.551L390.592 259.5ZM392.161 259.269C392.988 259.269 393.708 259.436 394.333 259.758L394.79 258.869C394.007 258.465 393.127 258.269 392.161 258.269V259.269ZM394.343 259.763C394.992 260.078 395.776 260.623 396.699 261.42L397.352 260.663C396.398 259.838 395.539 259.232 394.78 258.864L394.343 259.763ZM396.694 261.415L398.678 263.175L399.341 262.427L397.357 260.667L396.694 261.415ZM399.404 262.494L396.46 258.718L395.671 259.333L398.615 263.109L399.404 262.494ZM396.459 258.717C395.421 257.396 394.015 256.733 392.289 256.733V257.733C393.722 257.733 394.833 258.266 395.672 259.334L396.459 258.717ZM392.289 256.733C391.61 256.733 390.951 256.813 390.312 256.972L390.555 257.942C391.111 257.803 391.689 257.733 392.289 257.733V256.733ZM390.933 257.457V255.281H389.933V257.457H390.933ZM390.592 255.756C390.892 255.656 391.471 255.589 392.385 255.589V254.589C391.465 254.589 390.743 254.651 390.275 254.807L390.592 255.756ZM392.385 255.589C394.487 255.589 396.125 256.507 397.341 258.4L398.182 257.859C396.795 255.699 394.849 254.589 392.385 254.589V255.589Z" fill="#0186C6" mask="url(#path-10-outside-1_50_402)"/>
<path d="M115.41 327.357H451.592C466.656 327.357 478.5 337.588 478.5 349.542V377.173C478.5 389.127 466.656 399.357 451.592 399.357H115.41C100.346 399.357 88.5 389.127 88.5 377.173V349.542C88.5 337.588 100.346 327.357 115.41 327.357Z" fill="#05A310" fill-opacity="0.05" stroke="#05A310" stroke-width="3" stroke-linecap="square"/>
<mask id="path-13-outside-2_50_402" maskUnits="userSpaceOnUse" x="244" y="347.857" width="81" height="28" fill="black">
<rect fill="white" x="244" y="347.857" width="81" height="28"/>
<path d="M271.697 349.177V351.857H267.057V374.857H263.937V364.457H258.417C258.444 364.644 258.457 364.937 258.457 365.337C258.457 367.311 257.75 368.911 256.337 370.137C254.95 371.364 253.017 371.977 250.537 371.977C248.804 371.977 247.177 371.657 245.657 371.017V368.057C247.31 368.884 248.924 369.297 250.497 369.297C251.777 369.297 252.897 368.964 253.857 368.297C254.844 367.604 255.337 366.524 255.337 365.057C255.337 363.911 254.924 363.017 254.097 362.377C253.27 361.737 252.017 361.417 250.337 361.417H248.977V358.617H250.257C251.67 358.617 252.737 358.311 253.457 357.697C254.177 357.084 254.537 356.257 254.537 355.217C254.537 353.031 253.284 351.937 250.777 351.937C249.364 351.937 248.07 352.257 246.897 352.897V349.937C248.044 349.457 249.35 349.217 250.817 349.217C253.004 349.217 254.684 349.724 255.857 350.737C257.057 351.751 257.657 353.124 257.657 354.857C257.657 356.191 257.31 357.297 256.617 358.177C255.95 359.057 255.07 359.644 253.977 359.937C255.337 360.124 256.43 360.724 257.257 361.737H263.937V351.857H260.297V349.177H271.697ZM303.744 355.617V351.857H295.584C293.931 352.764 293.104 354.124 293.104 355.937C293.104 357.057 293.491 357.951 294.264 358.617C295.064 359.284 296.024 359.617 297.144 359.617H298.344V362.297H296.824C295.411 362.297 294.318 362.617 293.544 363.257C292.798 363.871 292.424 364.724 292.424 365.817C292.424 367.097 292.998 368.111 294.144 368.857C295.291 369.604 296.744 369.977 298.504 369.977C300.878 369.977 302.811 369.324 304.304 368.017C305.798 366.684 306.544 364.857 306.544 362.537C306.544 361.177 306.158 360.111 305.384 359.337C304.638 358.537 303.531 358.137 302.064 358.137C301.344 358.137 300.771 358.231 300.344 358.417V355.817C300.798 355.631 301.531 355.537 302.544 355.537C302.811 355.537 303.211 355.564 303.744 355.617ZM312.784 351.857H306.664V356.537C308.691 357.684 309.704 359.671 309.704 362.497C309.704 365.404 308.638 367.817 306.504 369.737C304.398 371.631 301.731 372.577 298.504 372.577C296.318 372.577 294.424 372.177 292.824 371.377C291.251 370.577 290.184 369.444 289.624 367.977C287.678 369.924 285.224 370.897 282.264 370.897C279.998 370.897 278.131 370.324 276.664 369.177C275.224 368.031 274.504 366.444 274.504 364.417C274.504 362.097 275.531 360.417 277.584 359.377H271.944V356.697H285.624V359.377C282.718 359.377 280.651 359.844 279.424 360.777C278.224 361.684 277.624 362.831 277.624 364.217C277.624 365.444 278.078 366.431 278.984 367.177C279.918 367.924 281.091 368.297 282.504 368.297C283.971 368.297 285.331 367.924 286.584 367.177C287.838 366.404 288.784 365.497 289.424 364.457C289.691 363.417 290.211 362.577 290.984 361.937C291.758 361.297 292.691 360.911 293.784 360.777C292.824 360.617 291.944 360.111 291.144 359.257C290.371 358.377 289.984 357.271 289.984 355.937C289.984 354.231 290.584 352.871 291.784 351.857H269.944V349.177H312.784V351.857ZM311.038 351.857V349.177H323.438V351.857H318.798V374.857H315.678V351.857H311.038Z"/>
</mask>
<path d="M271.697 349.177V351.857H267.057V374.857H263.937V364.457H258.417C258.444 364.644 258.457 364.937 258.457 365.337C258.457 367.311 257.75 368.911 256.337 370.137C254.95 371.364 253.017 371.977 250.537 371.977C248.804 371.977 247.177 371.657 245.657 371.017V368.057C247.31 368.884 248.924 369.297 250.497 369.297C251.777 369.297 252.897 368.964 253.857 368.297C254.844 367.604 255.337 366.524 255.337 365.057C255.337 363.911 254.924 363.017 254.097 362.377C253.27 361.737 252.017 361.417 250.337 361.417H248.977V358.617H250.257C251.67 358.617 252.737 358.311 253.457 357.697C254.177 357.084 254.537 356.257 254.537 355.217C254.537 353.031 253.284 351.937 250.777 351.937C249.364 351.937 248.07 352.257 246.897 352.897V349.937C248.044 349.457 249.35 349.217 250.817 349.217C253.004 349.217 254.684 349.724 255.857 350.737C257.057 351.751 257.657 353.124 257.657 354.857C257.657 356.191 257.31 357.297 256.617 358.177C255.95 359.057 255.07 359.644 253.977 359.937C255.337 360.124 256.43 360.724 257.257 361.737H263.937V351.857H260.297V349.177H271.697ZM303.744 355.617V351.857H295.584C293.931 352.764 293.104 354.124 293.104 355.937C293.104 357.057 293.491 357.951 294.264 358.617C295.064 359.284 296.024 359.617 297.144 359.617H298.344V362.297H296.824C295.411 362.297 294.318 362.617 293.544 363.257C292.798 363.871 292.424 364.724 292.424 365.817C292.424 367.097 292.998 368.111 294.144 368.857C295.291 369.604 296.744 369.977 298.504 369.977C300.878 369.977 302.811 369.324 304.304 368.017C305.798 366.684 306.544 364.857 306.544 362.537C306.544 361.177 306.158 360.111 305.384 359.337C304.638 358.537 303.531 358.137 302.064 358.137C301.344 358.137 300.771 358.231 300.344 358.417V355.817C300.798 355.631 301.531 355.537 302.544 355.537C302.811 355.537 303.211 355.564 303.744 355.617ZM312.784 351.857H306.664V356.537C308.691 357.684 309.704 359.671 309.704 362.497C309.704 365.404 308.638 367.817 306.504 369.737C304.398 371.631 301.731 372.577 298.504 372.577C296.318 372.577 294.424 372.177 292.824 371.377C291.251 370.577 290.184 369.444 289.624 367.977C287.678 369.924 285.224 370.897 282.264 370.897C279.998 370.897 278.131 370.324 276.664 369.177C275.224 368.031 274.504 366.444 274.504 364.417C274.504 362.097 275.531 360.417 277.584 359.377H271.944V356.697H285.624V359.377C282.718 359.377 280.651 359.844 279.424 360.777C278.224 361.684 277.624 362.831 277.624 364.217C277.624 365.444 278.078 366.431 278.984 367.177C279.918 367.924 281.091 368.297 282.504 368.297C283.971 368.297 285.331 367.924 286.584 367.177C287.838 366.404 288.784 365.497 289.424 364.457C289.691 363.417 290.211 362.577 290.984 361.937C291.758 361.297 292.691 360.911 293.784 360.777C292.824 360.617 291.944 360.111 291.144 359.257C290.371 358.377 289.984 357.271 289.984 355.937C289.984 354.231 290.584 352.871 291.784 351.857H269.944V349.177H312.784V351.857ZM311.038 351.857V349.177H323.438V351.857H318.798V374.857H315.678V351.857H311.038Z" fill="#05A310"/>
<path d="M271.697 349.177H272.697V348.177H271.697V349.177ZM271.697 351.857V352.857H272.697V351.857H271.697ZM267.057 351.857V350.857H266.057V351.857H267.057ZM267.057 374.857V375.857H268.057V374.857H267.057ZM263.937 374.857H262.937V375.857H263.937V374.857ZM263.937 364.457H264.937V363.457H263.937V364.457ZM258.417 364.457V363.457H257.264L257.427 364.599L258.417 364.457ZM256.337 370.137L255.682 369.382L255.674 369.388L256.337 370.137ZM245.657 371.017H244.657V371.681L245.269 371.939L245.657 371.017ZM245.657 368.057L246.104 367.163L244.657 366.439V368.057H245.657ZM253.857 368.297L254.427 369.119L254.432 369.116L253.857 368.297ZM254.097 362.377L253.485 363.168L253.485 363.168L254.097 362.377ZM248.977 361.417H247.977V362.417H248.977V361.417ZM248.977 358.617V357.617H247.977V358.617H248.977ZM246.897 352.897H245.897V354.582L247.376 353.775L246.897 352.897ZM246.897 349.937L246.511 349.015L245.897 349.272V349.937H246.897ZM255.857 350.737L255.203 351.494L255.212 351.501L255.857 350.737ZM256.617 358.177L255.832 357.559L255.826 357.566L255.82 357.574L256.617 358.177ZM253.977 359.937L253.718 358.972L253.841 360.928L253.977 359.937ZM257.257 361.737L256.482 362.37L256.782 362.737H257.257V361.737ZM263.937 361.737V362.737H264.937V361.737H263.937ZM263.937 351.857H264.937V350.857H263.937V351.857ZM260.297 351.857H259.297V352.857H260.297V351.857ZM260.297 349.177V348.177H259.297V349.177H260.297ZM270.697 349.177V351.857H272.697V349.177H270.697ZM271.697 350.857H267.057V352.857H271.697V350.857ZM266.057 351.857V374.857H268.057V351.857H266.057ZM267.057 373.857H263.937V375.857H267.057V373.857ZM264.937 374.857V364.457H262.937V374.857H264.937ZM263.937 363.457H258.417V365.457H263.937V363.457ZM257.427 364.599C257.443 364.711 257.457 364.944 257.457 365.337H259.457C259.457 364.93 259.444 364.577 259.407 364.316L257.427 364.599ZM257.457 365.337C257.457 367.039 256.863 368.357 255.682 369.382L256.993 370.893C258.638 369.465 259.457 367.583 259.457 365.337H257.457ZM255.674 369.388C254.525 370.405 252.857 370.977 250.537 370.977V372.977C253.177 372.977 255.376 372.323 257 370.886L255.674 369.388ZM250.537 370.977C248.93 370.977 247.436 370.681 246.045 370.096L245.269 371.939C246.918 372.633 248.677 372.977 250.537 372.977V370.977ZM246.657 371.017V368.057H244.657V371.017H246.657ZM245.21 368.952C246.978 369.836 248.743 370.297 250.497 370.297V368.297C249.104 368.297 247.643 367.932 246.104 367.163L245.21 368.952ZM250.497 370.297C251.961 370.297 253.284 369.913 254.427 369.119L253.287 367.476C252.51 368.015 251.593 368.297 250.497 368.297V370.297ZM254.432 369.116C255.744 368.193 256.337 366.77 256.337 365.057H254.337C254.337 366.278 253.943 367.015 253.282 367.479L254.432 369.116ZM256.337 365.057C256.337 363.636 255.806 362.436 254.709 361.587L253.485 363.168C254.041 363.599 254.337 364.186 254.337 365.057H256.337ZM254.709 361.587C253.629 360.751 252.114 360.417 250.337 360.417V362.417C251.92 362.417 252.912 362.724 253.485 363.168L254.709 361.587ZM250.337 360.417H248.977V362.417H250.337V360.417ZM249.977 361.417V358.617H247.977V361.417H249.977ZM248.977 359.617H250.257V357.617H248.977V359.617ZM250.257 359.617C251.794 359.617 253.134 359.287 254.105 358.459L252.809 356.936C252.34 357.335 251.546 357.617 250.257 357.617V359.617ZM254.105 358.459C255.072 357.635 255.537 356.517 255.537 355.217H253.537C253.537 355.997 253.282 356.533 252.809 356.936L254.105 358.459ZM255.537 355.217C255.537 353.932 255.162 352.796 254.254 352.004C253.373 351.235 252.154 350.937 250.777 350.937V352.937C251.907 352.937 252.568 353.187 252.94 353.511C253.285 353.812 253.537 354.316 253.537 355.217H255.537ZM250.777 350.937C249.206 350.937 247.747 351.295 246.418 352.02L247.376 353.775C248.394 353.22 249.521 352.937 250.777 352.937V350.937ZM247.897 352.897V349.937H245.897V352.897H247.897ZM247.283 350.86C248.288 350.439 249.459 350.217 250.817 350.217V348.217C249.241 348.217 247.8 348.475 246.511 349.015L247.283 350.86ZM250.817 350.217C252.861 350.217 254.274 350.692 255.203 351.494L256.511 349.981C255.093 348.757 253.146 348.217 250.817 348.217V350.217ZM255.212 351.501C256.162 352.304 256.657 353.384 256.657 354.857H258.657C258.657 352.864 257.952 351.198 256.502 349.973L255.212 351.501ZM256.657 354.857C256.657 356.011 256.361 356.887 255.832 357.559L257.403 358.796C258.26 357.708 258.657 356.371 258.657 354.857H256.657ZM255.82 357.574C255.291 358.272 254.603 358.734 253.718 358.972L254.236 360.903C255.538 360.554 256.61 359.843 257.414 358.781L255.82 357.574ZM253.841 360.928C254.964 361.082 255.824 361.563 256.482 362.37L258.032 361.105C257.037 359.885 255.71 359.166 254.113 358.947L253.841 360.928ZM257.257 362.737H263.937V360.737H257.257V362.737ZM264.937 361.737V351.857H262.937V361.737H264.937ZM263.937 350.857H260.297V352.857H263.937V350.857ZM261.297 351.857V349.177H259.297V351.857H261.297ZM260.297 350.177H271.697V348.177H260.297V350.177ZM303.744 355.617L303.645 356.612L304.744 356.722V355.617H303.744ZM303.744 351.857H304.744V350.857H303.744V351.857ZM295.584 351.857V350.857H295.328L295.103 350.981L295.584 351.857ZM294.264 358.617L293.611 359.375L293.618 359.38L293.624 359.386L294.264 358.617ZM298.344 359.617H299.344V358.617H298.344V359.617ZM298.344 362.297V363.297H299.344V362.297H298.344ZM293.544 363.257L294.179 364.03L294.182 364.028L293.544 363.257ZM294.144 368.857L293.599 369.695L293.599 369.695L294.144 368.857ZM304.304 368.017L304.963 368.77L304.97 368.763L304.304 368.017ZM305.384 359.337L304.653 360.02L304.665 360.032L304.677 360.045L305.384 359.337ZM300.344 358.417H299.344V359.946L300.745 359.334L300.344 358.417ZM300.344 355.817L299.963 354.893L299.344 355.148V355.817H300.344ZM312.784 351.857V352.857H313.784V351.857H312.784ZM306.664 351.857V350.857H305.664V351.857H306.664ZM306.664 356.537H305.664V357.121L306.172 357.408L306.664 356.537ZM306.504 369.737L307.173 370.481L307.173 370.481L306.504 369.737ZM292.824 371.377L292.371 372.269L292.377 372.272L292.824 371.377ZM289.624 367.977L290.558 367.621L290.008 366.179L288.917 367.27L289.624 367.977ZM276.664 369.177L276.041 369.96L276.048 369.965L276.664 369.177ZM277.584 359.377L278.036 360.27L277.584 358.377V359.377ZM271.944 359.377H270.944V360.377H271.944V359.377ZM271.944 356.697V355.697H270.944V356.697H271.944ZM285.624 356.697H286.624V355.697H285.624V356.697ZM285.624 359.377V360.377H286.624V359.377H285.624ZM279.424 360.777L280.027 361.575L280.03 361.573L279.424 360.777ZM278.984 367.177L278.349 367.949L278.354 367.954L278.36 367.958L278.984 367.177ZM286.584 367.177L287.096 368.037L287.103 368.033L287.109 368.028L286.584 367.177ZM289.424 364.457L290.276 364.982L290.355 364.853L290.393 364.706L289.424 364.457ZM290.984 361.937L290.347 361.167L290.347 361.167L290.984 361.937ZM293.784 360.777L293.905 361.77L293.949 359.791L293.784 360.777ZM291.144 359.257L290.393 359.918L290.404 359.93L290.415 359.941L291.144 359.257ZM291.784 351.857L292.429 352.621L294.518 350.857H291.784V351.857ZM269.944 351.857H268.944V352.857H269.944V351.857ZM269.944 349.177V348.177H268.944V349.177H269.944ZM312.784 349.177H313.784V348.177H312.784V349.177ZM304.744 355.617V351.857H302.744V355.617H304.744ZM303.744 350.857H295.584V352.857H303.744V350.857ZM295.103 350.981C294.152 351.503 293.39 352.183 292.87 353.038C292.349 353.895 292.104 354.874 292.104 355.937H294.104C294.104 355.188 294.273 354.579 294.579 354.077C294.885 353.572 295.364 353.119 296.065 352.734L295.103 350.981ZM292.104 355.937C292.104 357.317 292.595 358.498 293.611 359.375L294.917 357.86C294.387 357.403 294.104 356.798 294.104 355.937H292.104ZM293.624 359.386C294.618 360.214 295.809 360.617 297.144 360.617V358.617C296.239 358.617 295.511 358.354 294.904 357.849L293.624 359.386ZM297.144 360.617H298.344V358.617H297.144V360.617ZM297.344 359.617V362.297H299.344V359.617H297.344ZM298.344 361.297H296.824V363.297H298.344V361.297ZM296.824 361.297C295.272 361.297 293.92 361.648 292.907 362.487L294.182 364.028C294.715 363.587 295.55 363.297 296.824 363.297V361.297ZM292.909 362.485C291.899 363.314 291.424 364.469 291.424 365.817H293.424C293.424 364.979 293.696 364.427 294.179 364.03L292.909 362.485ZM291.424 365.817C291.424 367.463 292.192 368.779 293.599 369.695L294.69 368.019C293.803 367.442 293.424 366.732 293.424 365.817H291.424ZM293.599 369.695C294.948 370.574 296.605 370.977 298.504 370.977V368.977C296.883 368.977 295.634 368.634 294.69 368.019L293.599 369.695ZM298.504 370.977C301.07 370.977 303.253 370.266 304.963 368.77L303.646 367.265C302.369 368.382 300.685 368.977 298.504 368.977V370.977ZM304.97 368.763C306.711 367.209 307.544 365.092 307.544 362.537H305.544C305.544 364.622 304.884 366.159 303.638 367.271L304.97 368.763ZM307.544 362.537C307.544 360.981 307.096 359.635 306.091 358.63L304.677 360.045C305.22 360.587 305.544 361.374 305.544 362.537H307.544ZM306.115 358.655C305.121 357.59 303.71 357.137 302.064 357.137V359.137C303.352 359.137 304.154 359.485 304.653 360.02L306.115 358.655ZM302.064 357.137C301.274 357.137 300.546 357.237 299.943 357.501L300.745 359.334C300.995 359.224 301.415 359.137 302.064 359.137V357.137ZM301.344 358.417V355.817H299.344V358.417H301.344ZM300.725 356.742C300.986 356.635 301.552 356.537 302.544 356.537V354.537C301.51 354.537 300.609 354.627 299.963 354.893L300.725 356.742ZM302.544 356.537C302.759 356.537 303.118 356.56 303.645 356.612L303.844 354.622C303.303 354.568 302.863 354.537 302.544 354.537V356.537ZM312.784 350.857H306.664V352.857H312.784V350.857ZM305.664 351.857V356.537H307.664V351.857H305.664ZM306.172 357.408C307.813 358.336 308.704 359.94 308.704 362.497H310.704C310.704 359.401 309.569 357.032 307.157 355.667L306.172 357.408ZM308.704 362.497C308.704 365.125 307.755 367.267 305.835 368.994L307.173 370.481C309.52 368.368 310.704 365.683 310.704 362.497H308.704ZM305.836 368.994C303.938 370.699 301.521 371.577 298.504 371.577V373.577C301.941 373.577 304.857 372.563 307.173 370.481L305.836 368.994ZM298.504 371.577C296.439 371.577 294.705 371.2 293.271 370.483L292.377 372.272C294.143 373.155 296.196 373.577 298.504 373.577V371.577ZM293.277 370.486C291.896 369.783 291.019 368.826 290.558 367.621L288.69 368.334C289.35 370.062 290.606 371.371 292.371 372.269L293.277 370.486ZM288.917 367.27C287.173 369.014 284.981 369.897 282.264 369.897V371.897C285.467 371.897 288.182 370.834 290.331 368.685L288.917 367.27ZM282.264 369.897C280.171 369.897 278.535 369.371 277.28 368.39L276.048 369.965C277.727 371.277 279.824 371.897 282.264 371.897V369.897ZM277.287 368.395C276.112 367.459 275.504 366.175 275.504 364.417H273.504C273.504 366.714 274.337 368.602 276.041 369.96L277.287 368.395ZM275.504 364.417C275.504 363.408 275.726 362.596 276.128 361.939C276.529 361.282 277.147 360.72 278.036 360.27L277.132 358.485C275.969 359.075 275.046 359.872 274.421 360.896C273.796 361.919 273.504 363.107 273.504 364.417H275.504ZM277.584 358.377H271.944V360.377H277.584V358.377ZM272.944 359.377V356.697H270.944V359.377H272.944ZM271.944 357.697H285.624V355.697H271.944V357.697ZM284.624 356.697V359.377H286.624V356.697H284.624ZM285.624 358.377C282.666 358.377 280.317 358.842 278.819 359.982L280.03 361.573C280.985 360.847 282.769 360.377 285.624 360.377V358.377ZM278.821 359.98C277.396 361.057 276.624 362.488 276.624 364.217H278.624C278.624 363.174 279.053 362.311 280.027 361.575L278.821 359.98ZM276.624 364.217C276.624 365.728 277.2 367.003 278.349 367.949L279.62 366.405C278.955 365.858 278.624 365.161 278.624 364.217H276.624ZM278.36 367.958C279.501 368.872 280.907 369.297 282.504 369.297V367.297C281.275 367.297 280.334 366.977 279.609 366.397L278.36 367.958ZM282.504 369.297C284.15 369.297 285.687 368.876 287.096 368.037L286.072 366.318C284.975 366.972 283.792 367.297 282.504 367.297V369.297ZM287.109 368.028C288.468 367.19 289.539 366.179 290.276 364.982L288.573 363.933C288.03 364.816 287.207 365.618 286.059 366.326L287.109 368.028ZM290.393 364.706C290.611 363.855 291.023 363.204 291.622 362.708L290.347 361.167C289.399 361.951 288.771 362.98 288.456 364.209L290.393 364.706ZM291.622 362.708C292.234 362.202 292.983 361.883 293.905 361.77L293.663 359.785C292.399 359.939 291.282 360.393 290.347 361.167L291.622 362.708ZM293.949 359.791C293.246 359.674 292.555 359.3 291.874 358.573L290.415 359.941C291.334 360.921 292.402 361.561 293.62 361.764L293.949 359.791ZM291.895 358.597C291.305 357.925 290.984 357.064 290.984 355.937H288.984C288.984 357.478 289.437 358.83 290.393 359.918L291.895 358.597ZM290.984 355.937C290.984 354.496 291.476 353.427 292.429 352.621L291.139 351.093C289.693 352.315 288.984 353.965 288.984 355.937H290.984ZM291.784 350.857H269.944V352.857H291.784V350.857ZM270.944 351.857V349.177H268.944V351.857H270.944ZM269.944 350.177H312.784V348.177H269.944V350.177ZM311.784 349.177V351.857H313.784V349.177H311.784ZM311.038 351.857H310.038V352.857H311.038V351.857ZM311.038 349.177V348.177H310.038V349.177H311.038ZM323.438 349.177H324.438V348.177H323.438V349.177ZM323.438 351.857V352.857H324.438V351.857H323.438ZM318.798 351.857V350.857H317.798V351.857H318.798ZM318.798 374.857V375.857H319.798V374.857H318.798ZM315.678 374.857H314.678V375.857H315.678V374.857ZM315.678 351.857H316.678V350.857H315.678V351.857ZM312.038 351.857V349.177H310.038V351.857H312.038ZM311.038 350.177H323.438V348.177H311.038V350.177ZM322.438 349.177V351.857H324.438V349.177H322.438ZM323.438 350.857H318.798V352.857H323.438V350.857ZM317.798 351.857V374.857H319.798V351.857H317.798ZM318.798 373.857H315.678V375.857H318.798V373.857ZM316.678 374.857V351.857H314.678V374.857H316.678ZM315.678 350.857H311.038V352.857H315.678V350.857Z" fill="#05A310" mask="url(#path-13-outside-2_50_402)"/>
</svg>
