<svg width="326" height="84" viewBox="0 0 326 84" fill="none" xmlns="http://www.w3.org/2000/svg">
<rect width="326" height="84" rx="10" fill="#FF0000"/>
<path d="M122.743 55H118.583V27.96H122.743V39.24H136.583V27.96H140.743V55H136.583V42.84H122.743V55ZM148.501 34.12H152.621V55H148.501V34.12ZM152.701 30.56H148.421V26.52L152.701 25.4V30.56ZM179.3 54.04C179.3 57.6667 178.46 60.32 176.78 62C175.126 63.7067 172.673 64.56 169.42 64.56C168.273 64.56 167.113 64.4667 165.94 64.28C164.793 64.0933 163.74 63.8267 162.78 63.48L163.14 60.16C163.993 60.48 164.953 60.7333 166.02 60.92C167.113 61.1067 168.113 61.2 169.02 61.2C171.126 61.2 172.673 60.64 173.66 59.52C174.673 58.4267 175.18 56.6667 175.18 54.24V52.88C174.486 53.5733 173.606 54.1333 172.54 54.56C171.5 54.9867 170.273 55.2 168.86 55.2C167.366 55.2 165.993 54.9467 164.74 54.44C163.513 53.9333 162.46 53.2267 161.58 52.32C160.7 51.4133 160.006 50.32 159.5 49.04C159.02 47.76 158.78 46.3333 158.78 44.76C158.78 43.08 159.06 41.56 159.62 40.2C160.18 38.84 160.94 37.68 161.9 36.72C162.86 35.76 163.98 35.0267 165.26 34.52C166.54 34.0133 167.9 33.76 169.34 33.76C170.993 33.76 172.326 34.0533 173.34 34.64C174.353 35.2267 175.14 35.92 175.7 36.72H175.82L176.22 34.12H179.3V54.04ZM175.18 42.28C175.18 40.76 174.673 39.5333 173.66 38.6C172.673 37.64 171.34 37.16 169.66 37.16C168.7 37.16 167.806 37.3333 166.98 37.68C166.18 38 165.473 38.48 164.86 39.12C164.273 39.7333 163.806 40.5067 163.46 41.44C163.14 42.3467 162.98 43.3733 162.98 44.52C162.98 45.6933 163.14 46.7333 163.46 47.64C163.806 48.52 164.273 49.2667 164.86 49.88C165.473 50.4933 166.166 50.96 166.94 51.28C167.74 51.6 168.606 51.76 169.54 51.76C170.766 51.76 171.846 51.52 172.78 51.04C173.713 50.5333 174.513 49.8933 175.18 49.12V42.28ZM197.823 33.76C200.196 33.76 201.97 34.4267 203.143 35.76C203.703 36.3733 204.13 37.1467 204.423 38.08C204.716 39.0133 204.863 40.12 204.863 41.4V55H200.743V41.84C200.743 40.4267 200.476 39.36 199.943 38.64C199.57 38.1067 199.076 37.7333 198.463 37.52C197.876 37.3067 197.236 37.2 196.543 37.2C195.53 37.2 194.49 37.3867 193.423 37.76C192.383 38.1067 191.476 38.5467 190.703 39.08V55H186.583V26.8L190.703 25.68V35.88C191.876 35.1867 193.036 34.6667 194.183 34.32C195.356 33.9467 196.57 33.76 197.823 33.76Z" fill="white"/>
</svg>
