<svg width="326" height="84" viewBox="0 0 326 84" fill="none" xmlns="http://www.w3.org/2000/svg">
<rect width="326" height="84" rx="10" fill="#FF0000"/>
<path d="M158.724 26.32V29H143.004C143.937 30.0133 144.404 31.2533 144.404 32.72C144.404 35.5733 143.017 37.3867 140.244 38.16C141.791 38.2933 143.071 38.8933 144.084 39.96C144.457 38.76 145.164 37.7733 146.204 37C147.271 36.2267 148.444 35.84 149.724 35.84C151.991 35.84 153.724 36.4933 154.924 37.8C156.151 39.1067 156.764 40.8667 156.764 43.08C156.764 45.3467 156.124 47.2 154.844 48.64C153.564 50.08 151.844 50.8 149.684 50.8C149.311 50.8 149.004 50.76 148.764 50.68V48.08C148.897 48.1333 149.124 48.16 149.444 48.16C150.804 48.16 151.844 47.7333 152.564 46.88C153.284 46 153.644 44.7467 153.644 43.12C153.644 41.7333 153.311 40.6133 152.644 39.76C152.004 38.9067 151.044 38.48 149.764 38.48C148.511 38.48 147.524 39.0133 146.804 40.08C146.111 41.1467 145.764 42.44 145.764 43.96V44.16C145.764 46.2933 144.991 48.0133 143.444 49.32C141.897 50.6 139.711 51.24 136.884 51.24C135.044 51.24 133.204 50.8933 131.364 50.2V47.32C133.071 48.1467 134.831 48.56 136.644 48.56C138.457 48.56 139.897 48.1867 140.964 47.44C142.057 46.6667 142.604 45.5067 142.604 43.96C142.604 42.5733 142.044 41.4933 140.924 40.72C139.804 39.9467 138.311 39.56 136.444 39.56H134.604V36.84H136.444C139.644 36.84 141.244 35.4667 141.244 32.72C141.244 31.2533 140.684 30.0133 139.564 29H129.284V26.32H158.724ZM143.088 22.2C142.661 21.8 142.448 21.2933 142.448 20.68C142.448 20.0667 142.661 19.5467 143.088 19.12C143.488 18.6933 143.994 18.48 144.608 18.48C145.221 18.48 145.741 18.6933 146.168 19.12C146.594 19.5467 146.808 20.0667 146.808 20.68C146.808 21.2933 146.594 21.8 146.168 22.2C145.741 22.6 145.221 22.8 144.608 22.8C143.994 22.8 143.488 22.6 143.088 22.2ZM184.138 26.32V29H179.498V52H176.378V44.48C175.738 45.4933 174.792 46.3333 173.538 47C172.312 47.6667 170.818 48.0133 169.058 48.04C166.898 48.04 165.112 47.4533 163.698 46.28C162.285 45.1067 161.578 43.52 161.578 41.52C161.578 39.2 162.618 37.5333 164.698 36.52H159.018V33.84H172.698V36.52C169.792 36.52 167.725 36.9867 166.498 37.92C165.298 38.8267 164.698 39.9733 164.698 41.36C164.698 42.6667 165.125 43.68 165.978 44.4C166.858 45.0933 168.005 45.44 169.418 45.44C171.578 45.44 173.272 44.7867 174.498 43.48C175.752 42.1467 176.378 40.6267 176.378 38.92V29H157.018V26.32H184.138ZM190.09 26.32H194.73V29H190.13V52H187.01V29H182.37V26.32H186.93V22.96C186.93 21.6533 186.57 20.6533 185.85 19.96C185.157 19.2667 184.237 18.92 183.09 18.92C181.943 18.92 181.037 19.2667 180.37 19.96C179.703 20.6267 179.37 21.6267 179.37 22.96V23.68H176.25V22.88C176.25 20.64 176.903 18.96 178.21 17.84C179.49 16.72 181.117 16.16 183.09 16.16C185.09 16.16 186.757 16.72 188.09 17.84C189.423 18.96 190.09 20.64 190.09 22.88V26.32Z" fill="white"/>
</svg>
