<svg width="326" height="84" viewBox="0 0 326 84" fill="none" xmlns="http://www.w3.org/2000/svg">
<rect width="326" height="84" rx="10" fill="#FF0000"/>
<path d="M46.0548 57.96C43.4682 57.96 41.3082 57.64 39.5748 57C37.8415 56.3867 36.5348 55.52 35.6548 54.4C34.8015 53.3067 34.3748 52.04 34.3748 50.6C34.3748 49.9333 34.5215 49.28 34.8148 48.64C35.1082 48 35.5615 47.4667 36.1748 47.04C36.5215 46.8 36.8948 46.6 37.2948 46.44C37.6948 46.28 38.2148 46.16 38.8548 46.08C39.5215 46 40.3882 45.96 41.4548 45.96H71.3348L71.4548 48.84H41.8948C41.0682 48.84 40.4282 48.8533 39.9748 48.88C39.5482 48.9067 39.2282 48.96 39.0148 49.04C38.8015 49.12 38.5882 49.24 38.3748 49.4C37.9748 49.72 37.7748 50.1733 37.7748 50.76C37.7748 52.0667 38.4815 53.1067 39.8948 53.88C41.3082 54.6533 43.4415 55.04 46.2948 55.04H46.9748C49.6682 55.04 51.9748 54.72 53.8948 54.08C55.8415 53.4667 57.4415 52.6133 58.6948 51.52C59.9748 50.4267 60.9348 49.1867 61.5748 47.8L61.7348 47.04C61.9748 46.3733 62.1482 45.7067 62.2548 45.04C62.3615 44.3467 62.4148 43.6533 62.4148 42.96C62.4148 41.4133 62.1482 39.9467 61.6148 38.56C61.0815 37.1733 60.2548 36.0133 59.1348 35.08C58.0415 34.12 56.6282 33.5067 54.8948 33.24C54.5482 33.1867 54.2148 33.16 53.8948 33.16C53.6015 33.1333 53.2815 33.12 52.9348 33.12C52.1082 33.12 51.3482 33.2667 50.6548 33.56C49.9615 33.8533 49.4015 34.2933 48.9748 34.88C48.5748 35.4667 48.3748 36.2133 48.3748 37.12C48.3748 38.1067 48.6682 38.9467 49.2548 39.64C49.8682 40.3067 50.7215 40.64 51.8148 40.64C52.8282 40.64 53.6282 40.3333 54.2148 39.72C54.8282 39.08 55.1348 38.1733 55.1348 37C55.1348 36.12 54.9882 35.3333 54.6948 34.64C54.4282 33.92 53.9482 33.24 53.2548 32.6L55.5348 31.92C56.0148 32.32 56.4548 32.7867 56.8548 33.32C57.2815 33.8533 57.6148 34.4533 57.8548 35.12C58.1215 35.76 58.2548 36.44 58.2548 37.16C58.2548 38.0933 58.1082 38.9467 57.8148 39.72C57.5482 40.4667 57.1348 41.12 56.5748 41.68C56.0148 42.2133 55.3215 42.6267 54.4948 42.92C53.6948 43.2133 52.7748 43.36 51.7348 43.36C50.5348 43.36 49.4415 43.1333 48.4548 42.68C47.4682 42.2267 46.6815 41.5467 46.0948 40.64C45.5082 39.7333 45.2148 38.6133 45.2148 37.28C45.2148 35.6267 45.6015 34.2933 46.3748 33.28C47.1482 32.2667 48.1482 31.5333 49.3748 31.08C50.6282 30.6 51.9482 30.36 53.3348 30.36C55.3882 30.36 57.1882 30.7067 58.7348 31.4C60.3082 32.0933 61.6148 33.04 62.6548 34.24C63.7215 35.44 64.5215 36.7867 65.0548 38.28C65.5882 39.7733 65.8548 41.32 65.8548 42.92C65.8548 43.64 65.8148 44.3467 65.7348 45.04C65.6548 45.7067 65.5348 46.36 65.3748 47L65.1348 47.88C64.3882 50.0667 63.1348 51.9067 61.3748 53.4C59.6415 54.8933 57.5348 56.0267 55.0548 56.8C52.6015 57.5733 49.8815 57.96 46.8948 57.96H46.0548ZM71.0948 59.16V30.84H74.5348V59.16H71.0948ZM88.4986 53.48C86.8986 53.48 85.4586 53.2267 84.1786 52.72C82.8986 52.2133 81.8853 51.4667 81.1386 50.48C80.3919 49.4933 80.0186 48.3067 80.0186 46.92C80.0186 45.48 80.3919 44.24 81.1386 43.2C81.9119 42.1333 83.1253 41.32 84.7786 40.76C86.4319 40.1733 88.6186 39.88 91.3386 39.88H97.1386C99.4586 39.88 101.525 40.1733 103.339 40.76C105.152 41.32 106.565 42.2667 107.579 43.6C108.619 44.9333 109.139 46.76 109.139 49.08C109.139 50.8667 108.805 52.36 108.139 53.56C107.472 54.7867 106.525 55.8533 105.299 56.76C104.419 57.3733 103.419 57.8667 102.299 58.24C101.205 58.6133 99.9386 58.8667 98.4986 59C97.0586 59.16 95.3786 59.24 93.4586 59.24H88.9386C87.8186 59.24 86.9519 59.32 86.3386 59.48C85.7253 59.64 85.1919 59.8667 84.7386 60.16C84.3119 60.4533 83.9786 60.8667 83.7386 61.4C83.4986 61.9333 83.3786 62.64 83.3786 63.52C83.3786 63.92 83.3919 64.2933 83.4186 64.64C83.4453 65.0133 83.4719 65.36 83.4986 65.68L80.2186 65.84C80.1386 65.36 80.0719 64.8267 80.0186 64.24C79.9653 63.68 79.9386 63.1733 79.9386 62.72C79.9386 61.5467 80.1519 60.5467 80.5786 59.72C81.0053 58.92 81.5519 58.2667 82.2186 57.76C82.6986 57.4133 83.1919 57.1333 83.6986 56.92C84.2319 56.7333 84.8319 56.5867 85.4986 56.48C86.1919 56.4 86.9786 56.36 87.8586 56.36H92.2186C94.5919 56.36 96.5386 56.2533 98.0586 56.04C99.5786 55.8533 100.805 55.5467 101.739 55.12C102.672 54.72 103.445 54.1867 104.059 53.52C104.592 52.9333 104.992 52.2533 105.259 51.48C105.552 50.68 105.699 49.7867 105.699 48.8C105.699 47.4933 105.432 46.44 104.899 45.64C104.392 44.84 103.699 44.2267 102.819 43.8C101.965 43.3733 101.005 43.08 99.9386 42.92C98.8986 42.76 97.8319 42.68 96.7386 42.68H91.0586C89.6986 42.68 88.5386 42.76 87.5786 42.92C86.6453 43.08 85.8453 43.3467 85.1786 43.72C84.5919 44.0667 84.1519 44.4933 83.8586 45C83.5919 45.48 83.4586 46.1067 83.4586 46.88C83.4586 48.1067 83.9653 49.04 84.9786 49.68C85.9919 50.2933 87.2719 50.6 88.8186 50.6C89.9919 50.6 90.9919 50.4267 91.8186 50.08C92.6719 49.7067 93.3253 49.08 93.7786 48.2C94.2586 47.2933 94.4986 46.0533 94.4986 44.48V33.72H87.6186V40.92L84.4586 41.56V30.84H105.379V33.72H97.8986V43.96C97.8986 45.7467 97.7386 47.1467 97.4186 48.16C97.1253 49.1733 96.6986 50.0267 96.1386 50.72C95.3119 51.7333 94.2453 52.4533 92.9386 52.88C91.6586 53.28 90.1786 53.48 88.4986 53.48ZM105.146 19.28C106.64 19.28 108.106 19.4533 109.546 19.8C110.986 20.1467 112.28 20.8133 113.426 21.8C114.44 22.6533 115.28 23.64 115.946 24.76C116.64 25.88 117.16 27.2533 117.506 28.88C117.853 30.5067 118.026 32.5333 118.026 34.96V53H114.586V35.32C114.586 33.2933 114.44 31.5467 114.146 30.08C113.853 28.6133 113.426 27.3733 112.866 26.36C112.306 25.32 111.6 24.4933 110.746 23.88C110 23.32 109.16 22.92 108.226 22.68C107.266 22.4133 106.266 22.28 105.226 22.28C102.826 22.28 100.933 22.7733 99.5464 23.76C98.1331 24.7467 97.4264 26.2933 97.4264 28.4C97.4264 29.0933 97.5064 29.7733 97.6664 30.44C97.8264 31.1067 98.0531 31.76 98.3464 32.4H94.8664C94.5997 31.84 94.3864 31.1733 94.2264 30.4C94.0664 29.6267 93.9864 28.9067 93.9864 28.24C93.9864 26.1067 94.5197 24.3867 95.5864 23.08C96.6264 21.7733 97.9997 20.8133 99.7064 20.2C101.413 19.5867 103.226 19.28 105.146 19.28ZM131.975 53.48C130.375 53.48 128.935 53.2267 127.655 52.72C126.375 52.2133 125.362 51.4667 124.615 50.48C123.868 49.4933 123.495 48.3067 123.495 46.92C123.495 45.48 123.868 44.24 124.615 43.2C125.388 42.1333 126.602 41.32 128.255 40.76C129.908 40.1733 132.095 39.88 134.815 39.88H142.015C143.402 39.88 144.602 39.9467 145.615 40.08C146.628 40.2133 147.508 40.4267 148.255 40.72C149.028 40.9867 149.722 41.36 150.335 41.84C151.028 42.3733 151.575 43.08 151.975 43.96C152.375 44.8133 152.575 45.8 152.575 46.92C152.575 48.9467 151.962 50.52 150.735 51.64C149.535 52.76 147.828 53.32 145.615 53.32C145.002 53.32 144.335 53.28 143.615 53.2C142.895 53.12 142.228 52.9867 141.615 52.8L142.375 50.12C142.775 50.2267 143.228 50.32 143.735 50.4C144.268 50.48 144.788 50.52 145.295 50.52C146.548 50.52 147.495 50.2133 148.135 49.6C148.802 48.9867 149.135 48.04 149.135 46.76C149.135 45.8533 148.935 45.1333 148.535 44.6C148.135 44.04 147.602 43.6267 146.935 43.36C146.295 43.0933 145.562 42.92 144.735 42.84C143.935 42.7333 143.122 42.68 142.295 42.68H134.535C133.175 42.68 132.015 42.76 131.055 42.92C130.122 43.08 129.322 43.3467 128.655 43.72C128.068 44.0667 127.628 44.4933 127.335 45C127.068 45.48 126.935 46.1067 126.935 46.88C126.935 48.1067 127.442 49.04 128.455 49.68C129.468 50.2933 130.748 50.6 132.295 50.6C133.468 50.6 134.468 50.4267 135.295 50.08C136.148 49.7067 136.802 49.08 137.255 48.2C137.735 47.32 137.975 46.08 137.975 44.48V33.72H131.095V40.92L127.935 41.56V30.84H148.855V33.72H141.375V43.96C141.375 45.7467 141.215 47.1467 140.895 48.16C140.602 49.1733 140.175 50.0267 139.615 50.72C138.788 51.7333 137.722 52.4533 136.415 52.88C135.135 53.28 133.655 53.48 131.975 53.48ZM177.461 57.96C174.874 57.96 172.714 57.64 170.981 57C169.248 56.3867 167.941 55.52 167.061 54.4C166.208 53.3067 165.781 52.04 165.781 50.6C165.781 49.9333 165.928 49.28 166.221 48.64C166.514 48 166.968 47.4667 167.581 47.04C167.928 46.8 168.301 46.6 168.701 46.44C169.101 46.28 169.621 46.16 170.261 46.08C170.928 46 171.794 45.96 172.861 45.96H202.741L202.861 48.84H173.301C172.474 48.84 171.834 48.8533 171.381 48.88C170.954 48.9067 170.634 48.96 170.421 49.04C170.208 49.12 169.994 49.24 169.781 49.4C169.381 49.72 169.181 50.1733 169.181 50.76C169.181 52.0667 169.888 53.1067 171.301 53.88C172.714 54.6533 174.848 55.04 177.701 55.04H178.381C181.074 55.04 183.381 54.72 185.301 54.08C187.248 53.4667 188.848 52.6133 190.101 51.52C191.381 50.4267 192.341 49.1867 192.981 47.8L193.141 47.04C193.381 46.3733 193.554 45.7067 193.661 45.04C193.768 44.3467 193.821 43.6533 193.821 42.96C193.821 41.4133 193.554 39.9467 193.021 38.56C192.488 37.1733 191.661 36.0133 190.541 35.08C189.448 34.12 188.034 33.5067 186.301 33.24C185.954 33.1867 185.621 33.16 185.301 33.16C185.008 33.1333 184.688 33.12 184.341 33.12C183.514 33.12 182.754 33.2667 182.061 33.56C181.368 33.8533 180.808 34.2933 180.381 34.88C179.981 35.4667 179.781 36.2133 179.781 37.12C179.781 38.1067 180.074 38.9467 180.661 39.64C181.274 40.3067 182.128 40.64 183.221 40.64C184.234 40.64 185.034 40.3333 185.621 39.72C186.234 39.08 186.541 38.1733 186.541 37C186.541 36.12 186.394 35.3333 186.101 34.64C185.834 33.92 185.354 33.24 184.661 32.6L186.941 31.92C187.421 32.32 187.861 32.7867 188.261 33.32C188.688 33.8533 189.021 34.4533 189.261 35.12C189.528 35.76 189.661 36.44 189.661 37.16C189.661 38.0933 189.514 38.9467 189.221 39.72C188.954 40.4667 188.541 41.12 187.981 41.68C187.421 42.2133 186.728 42.6267 185.901 42.92C185.101 43.2133 184.181 43.36 183.141 43.36C181.941 43.36 180.848 43.1333 179.861 42.68C178.874 42.2267 178.088 41.5467 177.501 40.64C176.914 39.7333 176.621 38.6133 176.621 37.28C176.621 35.6267 177.008 34.2933 177.781 33.28C178.554 32.2667 179.554 31.5333 180.781 31.08C182.034 30.6 183.354 30.36 184.741 30.36C186.794 30.36 188.594 30.7067 190.141 31.4C191.714 32.0933 193.021 33.04 194.061 34.24C195.128 35.44 195.928 36.7867 196.461 38.28C196.994 39.7733 197.261 41.32 197.261 42.92C197.261 43.64 197.221 44.3467 197.141 45.04C197.061 45.7067 196.941 46.36 196.781 47L196.541 47.88C195.794 50.0667 194.541 51.9067 192.781 53.4C191.048 54.8933 188.941 56.0267 186.461 56.8C184.008 57.5733 181.288 57.96 178.301 57.96H177.461ZM202.501 59.16V30.84H205.941V59.16H202.501ZM219.425 53.48C218.012 53.48 216.718 53.1333 215.545 52.44C214.372 51.72 213.438 50.6133 212.745 49.12C212.078 47.6267 211.745 45.68 211.745 43.28C211.745 41.0933 212.065 39.2 212.705 37.6C213.372 35.9733 214.278 34.6267 215.425 33.56C216.572 32.4933 217.865 31.6933 219.305 31.16C220.745 30.6267 222.238 30.36 223.785 30.36C224.958 30.36 226.012 30.48 226.945 30.72C227.878 30.9333 228.732 31.2533 229.505 31.68C230.278 32.08 230.998 32.56 231.665 33.12L231.145 36.96C230.212 35.7867 229.145 34.8933 227.945 34.28C226.772 33.64 225.345 33.32 223.665 33.32C221.878 33.32 220.332 33.7733 219.025 34.68C217.718 35.56 216.705 36.7733 215.985 38.32C215.265 39.84 214.905 41.5733 214.905 43.52C214.905 45.3067 215.105 46.7333 215.505 47.8C215.932 48.84 216.492 49.6 217.185 50.08C217.905 50.5333 218.705 50.76 219.585 50.76C220.305 50.76 220.918 50.6133 221.425 50.32C221.958 50 222.358 49.5467 222.625 48.96C222.918 48.3733 223.065 47.6533 223.065 46.8C223.065 45.4667 222.718 44.4533 222.025 43.76C221.332 43.04 220.438 42.68 219.345 42.68C218.278 42.68 217.278 42.96 216.345 43.52C215.412 44.08 214.558 44.7867 213.785 45.64L213.185 43.08C213.985 42.1467 214.972 41.3867 216.145 40.8C217.345 40.1867 218.598 39.88 219.905 39.88C221.825 39.88 223.372 40.4667 224.545 41.64C225.745 42.8133 226.345 44.4 226.345 46.4C226.345 47.8667 226.065 49.1333 225.505 50.2C224.945 51.2667 224.145 52.08 223.105 52.64C222.092 53.2 220.865 53.48 219.425 53.48ZM230.945 53V36.36L231.425 33.24V30.84H251.585V33.72H244.785V53H241.345V33.72H234.385V53H230.945ZM260.987 53.48C259.574 53.48 258.281 53.1333 257.107 52.44C255.934 51.72 255.001 50.6133 254.307 49.12C253.641 47.6267 253.307 45.68 253.307 43.28C253.307 40.4267 253.867 38.04 254.987 36.12C256.134 34.2 257.641 32.76 259.507 31.8C261.374 30.84 263.401 30.36 265.587 30.36C267.614 30.36 269.347 30.6667 270.787 31.28C272.254 31.8667 273.441 32.6933 274.347 33.76C275.281 34.8 275.961 36.0133 276.387 37.4C276.841 38.76 277.067 40.2267 277.067 41.8C277.067 43.5067 276.881 45.0267 276.507 46.36C276.134 47.6933 275.681 48.9467 275.147 50.12H285.827V30.84H289.267V53H271.627L271.467 50.48C272.081 49.5467 272.574 48.4 272.947 47.04C273.347 45.6533 273.547 44.0533 273.547 42.24C273.547 40.3467 273.214 38.7333 272.547 37.4C271.881 36.0667 270.934 35.0533 269.707 34.36C268.507 33.6667 267.081 33.32 265.427 33.32C263.561 33.32 261.961 33.7733 260.627 34.68C259.294 35.56 258.267 36.7733 257.547 38.32C256.827 39.84 256.467 41.5733 256.467 43.52C256.467 45.3067 256.667 46.7333 257.067 47.8C257.494 48.84 258.054 49.6 258.747 50.08C259.467 50.5333 260.267 50.76 261.147 50.76C261.841 50.76 262.441 50.6133 262.947 50.32C263.481 50 263.894 49.5467 264.187 48.96C264.481 48.3733 264.627 47.6533 264.627 46.8C264.627 45.4667 264.281 44.4533 263.587 43.76C262.894 43.04 262.001 42.68 260.907 42.68C259.841 42.68 258.841 42.96 257.907 43.52C256.974 44.08 256.121 44.7867 255.347 45.64L254.747 43.08C255.547 42.1467 256.534 41.3867 257.707 40.8C258.907 40.1867 260.161 39.88 261.467 39.88C263.387 39.88 264.934 40.4667 266.107 41.64C267.307 42.8133 267.907 44.4 267.907 46.4C267.907 47.8667 267.627 49.1333 267.067 50.2C266.507 51.2667 265.707 52.08 264.667 52.64C263.654 53.2 262.427 53.48 260.987 53.48ZM285.827 64.32V51.68H289.267V64.32H285.827Z" fill="white"/>
</svg>
