<svg width="266" height="54" viewBox="0 0 266 54" fill="none" xmlns="http://www.w3.org/2000/svg">
<rect width="266" height="54" rx="10" fill="#FF0000"/>
<path d="M98.4066 36H95.0786V14.368H98.4066V23.392H109.479V14.368H112.807V36H109.479V26.272H98.4066V36ZM122.533 36H119.205V14.368H122.533V36ZM140.218 16.928C138.832 16.928 137.584 17.12 136.474 17.504C135.386 17.888 134.458 18.4427 133.69 19.168C132.944 19.872 132.368 20.736 131.962 21.76C131.557 22.784 131.354 23.9253 131.354 25.184C131.354 26.4853 131.568 27.648 131.994 28.672C132.421 29.696 133.008 30.56 133.754 31.264C134.522 31.968 135.418 32.512 136.442 32.896C137.488 33.2587 138.629 33.44 139.866 33.44C140.677 33.44 141.477 33.376 142.266 33.248C143.077 33.0987 143.728 32.9067 144.218 32.672V25.728L147.546 24.864V34.4C146.65 34.9547 145.498 35.4133 144.09 35.776C142.682 36.1387 141.189 36.32 139.61 36.32C137.754 36.32 136.101 36.0533 134.65 35.52C133.2 34.9653 131.973 34.1973 130.97 33.216C129.968 32.2347 129.2 31.072 128.666 29.728C128.154 28.3627 127.898 26.88 127.898 25.28C127.898 23.616 128.176 22.0907 128.73 20.704C129.306 19.3173 130.117 18.1333 131.162 17.152C132.229 16.1707 133.52 15.4133 135.034 14.88C136.57 14.3253 138.298 14.048 140.218 14.048C142.586 14.048 144.72 14.464 146.618 15.296L146.298 18.272C145.402 17.8453 144.442 17.5147 143.418 17.28C142.394 17.0453 141.328 16.928 140.218 16.928ZM156.563 36H153.235V14.368H156.563V23.392H167.635V14.368H170.963V36H167.635V26.272H156.563V36Z" fill="white"/>
</svg>
