<svg width="201" height="46" viewBox="0 0 201 46" fill="none" xmlns="http://www.w3.org/2000/svg">
<path fill-rule="evenodd" clip-rule="evenodd" d="M9.59773 0H190.604C195.884 0 200.202 4.31769 200.202 9.59649V35.5685C200.202 40.8494 195.884 45.1671 190.604 45.1671H9.59773C4.3181 45.1671 0 40.8494 0 35.5685V9.59649C0 4.31769 4.3181 0 9.59773 0Z" fill="#FF0000"/>
<path d="M34.196 28.24C33.4894 28.24 32.8427 28.0667 32.256 27.72C31.6694 27.36 31.2027 26.8067 30.856 26.06C30.5227 25.3133 30.356 24.34 30.356 23.14C30.356 21.7133 30.636 20.52 31.196 19.56C31.7694 18.6 32.5227 17.88 33.456 17.4C34.3894 16.92 35.4027 16.68 36.496 16.68C37.5094 16.68 38.376 16.8333 39.096 17.14C39.8294 17.4333 40.4227 17.8467 40.876 18.38C41.3427 18.9 41.6827 19.5067 41.896 20.2C42.1227 20.88 42.236 21.6133 42.236 22.4C42.236 23.2533 42.1427 24.0133 41.956 24.68C41.7694 25.3467 41.5427 25.9733 41.276 26.56H46.616V16.92H48.336V28H39.516L39.436 26.74C39.7427 26.2733 39.9894 25.7 40.176 25.02C40.376 24.3267 40.476 23.5267 40.476 22.62C40.476 21.6733 40.3094 20.8667 39.976 20.2C39.6427 19.5333 39.1694 19.0267 38.556 18.68C37.956 18.3333 37.2427 18.16 36.416 18.16C35.4827 18.16 34.6827 18.3867 34.016 18.84C33.3494 19.28 32.836 19.8867 32.476 20.66C32.116 21.42 31.936 22.2867 31.936 23.26C31.936 24.1533 32.036 24.8667 32.236 25.4C32.4494 25.92 32.7294 26.3 33.076 26.54C33.436 26.7667 33.836 26.88 34.276 26.88C34.6227 26.88 34.9227 26.8067 35.176 26.66C35.4427 26.5 35.6494 26.2733 35.796 25.98C35.9427 25.6867 36.016 25.3267 36.016 24.9C36.016 24.2333 35.8427 23.7267 35.496 23.38C35.1494 23.02 34.7027 22.84 34.156 22.84C33.6227 22.84 33.1227 22.98 32.656 23.26C32.1894 23.54 31.7627 23.8933 31.376 24.32L31.076 23.04C31.476 22.5733 31.9694 22.1933 32.556 21.9C33.156 21.5933 33.7827 21.44 34.436 21.44C35.396 21.44 36.1694 21.7333 36.756 22.32C37.356 22.9067 37.656 23.7 37.656 24.7C37.656 25.4333 37.516 26.0667 37.236 26.6C36.956 27.1333 36.556 27.54 36.036 27.82C35.5294 28.1 34.916 28.24 34.196 28.24ZM51.0549 28V16.92H61.7549V18.36H58.3549V28H56.6349V18.36H52.7749V28H51.0549ZM68.3679 28V16.92H70.0879V26.56H77.0679V16.92H78.7879V28H68.3679ZM66.0879 28.22C65.5946 28.22 65.1612 28.14 64.7879 27.98C64.4279 27.8067 64.1212 27.5733 63.8679 27.28C63.7212 27.08 63.5812 26.8533 63.4479 26.6C63.3279 26.3467 63.2279 26.0133 63.1479 25.6C63.0812 25.1867 63.0479 24.64 63.0479 23.96V16.92H64.7679V23.54C64.7679 24.1533 64.7946 24.7133 64.8479 25.22C64.9012 25.7133 65.0612 26.0933 65.3279 26.36C65.4612 26.4933 65.6146 26.6 65.7879 26.68C65.9746 26.7467 66.1946 26.78 66.4479 26.78C66.8346 26.78 67.1946 26.68 67.5279 26.48C67.8746 26.28 68.1946 25.9533 68.4879 25.5L68.4479 27.22C68.1946 27.4733 67.8746 27.7067 67.4879 27.92C67.1012 28.12 66.6346 28.22 66.0879 28.22ZM70.9079 14.44C70.5212 14.44 70.2012 14.32 69.9479 14.08C69.6946 13.8267 69.5679 13.5 69.5679 13.1C69.5679 12.7133 69.6946 12.3933 69.9479 12.14C70.2012 11.8867 70.5212 11.76 70.9079 11.76C71.2946 11.76 71.6146 11.8867 71.8679 12.14C72.1212 12.3933 72.2479 12.7133 72.2479 13.1C72.2479 13.5 72.1212 13.8267 71.8679 14.08C71.6146 14.32 71.2946 14.44 70.9079 14.44ZM81.5057 28V16.92H83.2257V26.56H91.8257V16.92H93.5457V28H81.5057ZM87.5257 14.44C87.139 14.44 86.819 14.32 86.5657 14.08C86.3124 13.8267 86.1857 13.5 86.1857 13.1C86.1857 12.7133 86.3124 12.3933 86.5657 12.14C86.819 11.8867 87.139 11.76 87.5257 11.76C87.9124 11.76 88.2324 11.8867 88.4857 12.14C88.739 12.3933 88.8657 12.7133 88.8657 13.1C88.8657 13.5 88.739 13.8267 88.4857 14.08C88.2324 14.32 87.9124 14.44 87.5257 14.44ZM106.592 33.66V28H96.2721V16.92H97.9921V26.56H106.592V16.92H108.312V33.66H106.592ZM114.259 28.24C113.552 28.24 112.905 28.0667 112.319 27.72C111.732 27.36 111.265 26.8067 110.919 26.06C110.585 25.3133 110.419 24.34 110.419 23.14C110.419 22.0467 110.579 21.1 110.899 20.3C111.232 19.4867 111.685 18.8133 112.259 18.28C112.832 17.7467 113.479 17.3467 114.199 17.08C114.919 16.8133 115.665 16.68 116.439 16.68C117.025 16.68 117.552 16.74 118.019 16.86C118.485 16.9667 118.912 17.1267 119.299 17.34C119.685 17.54 120.045 17.78 120.379 18.06L120.119 19.98C119.652 19.3933 119.119 18.9467 118.519 18.64C117.932 18.32 117.219 18.16 116.379 18.16C115.485 18.16 114.712 18.3867 114.059 18.84C113.405 19.28 112.899 19.8867 112.539 20.66C112.179 21.42 111.999 22.2867 111.999 23.26C111.999 24.1533 112.099 24.8667 112.299 25.4C112.512 25.92 112.792 26.3 113.139 26.54C113.499 26.7667 113.899 26.88 114.339 26.88C114.699 26.88 115.005 26.8067 115.259 26.66C115.525 26.5 115.725 26.2733 115.859 25.98C116.005 25.6867 116.079 25.3267 116.079 24.9C116.079 24.2333 115.905 23.7267 115.559 23.38C115.212 23.02 114.765 22.84 114.219 22.84C113.685 22.84 113.185 22.98 112.719 23.26C112.252 23.54 111.825 23.8933 111.439 24.32L111.139 23.04C111.539 22.5733 112.032 22.1933 112.619 21.9C113.219 21.5933 113.845 21.44 114.499 21.44C115.459 21.44 116.232 21.7333 116.819 22.32C117.419 22.9067 117.719 23.7 117.719 24.7C117.719 25.4333 117.579 26.0667 117.299 26.6C117.019 27.1333 116.619 27.54 116.099 27.82C115.592 28.1 114.979 28.24 114.259 28.24ZM120.019 28V19.68L120.259 18.12V16.92H130.339V18.36H126.939V28H125.219V18.36H121.739V28H120.019ZM119.979 14.44C119.592 14.44 119.272 14.32 119.019 14.08C118.765 13.8267 118.639 13.5 118.639 13.1C118.639 12.7133 118.765 12.3933 119.019 12.14C119.272 11.8867 119.592 11.76 119.979 11.76C120.365 11.76 120.685 11.8867 120.939 12.14C121.192 12.3933 121.319 12.7133 121.319 13.1C121.319 13.5 121.192 13.8267 120.939 14.08C120.685 14.32 120.365 14.44 119.979 14.44ZM134.24 28.24C133.533 28.24 132.886 28.0667 132.3 27.72C131.713 27.36 131.246 26.8067 130.9 26.06C130.566 25.3133 130.4 24.34 130.4 23.14C130.4 22.0467 130.56 21.1 130.88 20.3C131.213 19.4867 131.666 18.8133 132.24 18.28C132.813 17.7467 133.46 17.3467 134.18 17.08C134.9 16.8133 135.646 16.68 136.42 16.68C137.006 16.68 137.533 16.74 138 16.86C138.466 16.9667 138.893 17.1267 139.28 17.34C139.666 17.54 140.026 17.78 140.36 18.06L140.1 19.98C139.633 19.3933 139.1 18.9467 138.5 18.64C137.913 18.32 137.2 18.16 136.36 18.16C135.466 18.16 134.693 18.3867 134.04 18.84C133.386 19.28 132.88 19.8867 132.52 20.66C132.16 21.42 131.98 22.2867 131.98 23.26C131.98 24.1533 132.08 24.8667 132.28 25.4C132.493 25.92 132.773 26.3 133.12 26.54C133.48 26.7667 133.88 26.88 134.32 26.88C134.68 26.88 134.986 26.8067 135.24 26.66C135.506 26.5 135.706 26.2733 135.84 25.98C135.986 25.6867 136.06 25.3267 136.06 24.9C136.06 24.2333 135.886 23.7267 135.54 23.38C135.193 23.02 134.746 22.84 134.2 22.84C133.666 22.84 133.166 22.98 132.7 23.26C132.233 23.54 131.806 23.8933 131.42 24.32L131.12 23.04C131.52 22.5733 132.013 22.1933 132.6 21.9C133.2 21.5933 133.826 21.44 134.48 21.44C135.44 21.44 136.213 21.7333 136.8 22.32C137.4 22.9067 137.7 23.7 137.7 24.7C137.7 25.4333 137.56 26.0667 137.28 26.6C137 27.1333 136.6 27.54 136.08 27.82C135.573 28.1 134.96 28.24 134.24 28.24ZM140 28V19.68L140.24 18.12V16.92H150.32V18.36H146.92V28H145.2V18.36H141.72V28H140ZM154.188 28.24C153.388 28.24 152.668 28.1133 152.028 27.86C151.388 27.6067 150.881 27.2333 150.508 26.74C150.134 26.2467 149.948 25.6467 149.948 24.94C149.948 24.2333 150.134 23.62 150.508 23.1C150.894 22.5667 151.501 22.16 152.328 21.88C153.154 21.5867 154.248 21.44 155.608 21.44H158.688C159.581 21.44 160.381 21.56 161.088 21.8C161.808 22.0267 162.421 22.3733 162.928 22.84C163.434 23.2933 163.821 23.86 164.088 24.54C164.354 25.2067 164.488 25.9733 164.488 26.84C164.488 27.4 164.428 27.9267 164.308 28.42C164.188 28.9267 164.021 29.3867 163.808 29.8L163.308 31.02C162.801 31.7533 162.161 32.3733 161.388 32.88C160.614 33.3867 159.714 33.7667 158.688 34.02C157.661 34.2867 156.508 34.42 155.228 34.42H154.968C154.034 34.42 153.168 34.3133 152.368 34.1C151.568 33.9 150.928 33.5733 150.448 33.12C149.968 32.6667 149.728 32.0733 149.728 31.34C149.728 31.0467 149.781 30.7933 149.888 30.58C149.994 30.3667 150.148 30.1933 150.348 30.06C150.534 29.9267 150.754 29.8267 151.008 29.76C151.261 29.7067 151.674 29.68 152.248 29.68H167.668V31.12H162.688H161.368H152.088C151.928 31.12 151.768 31.14 151.608 31.18C151.461 31.2333 151.388 31.3733 151.388 31.6C151.388 31.9867 151.674 32.3067 152.248 32.56C152.834 32.8267 153.721 32.96 154.908 32.96H155.168C156.141 32.96 157.008 32.8867 157.768 32.74C158.528 32.5933 159.201 32.3733 159.788 32.08C160.374 31.8 160.881 31.4533 161.308 31.04L162.008 29.8C162.168 29.52 162.294 29.2267 162.388 28.92C162.494 28.6133 162.574 28.2933 162.628 27.96C162.681 27.6267 162.708 27.2733 162.708 26.9C162.708 25.9667 162.534 25.2 162.188 24.6C161.841 24 161.341 23.56 160.688 23.28C160.048 22.9867 159.288 22.84 158.408 22.84H155.468C154.788 22.84 154.208 22.88 153.728 22.96C153.261 23.04 152.861 23.1733 152.528 23.36C152.234 23.5333 152.014 23.7467 151.868 24C151.734 24.24 151.668 24.5533 151.668 24.94C151.668 25.5533 151.921 26.02 152.428 26.34C152.934 26.6467 153.574 26.8 154.348 26.8C154.934 26.8 155.434 26.7133 155.848 26.54C156.274 26.3533 156.601 26.04 156.828 25.6C157.068 25.1467 157.188 24.5267 157.188 23.74V18.36H153.748V21.96L152.168 22.28V16.92H162.628V18.36H158.888V23.48C158.888 24.3733 158.808 25.0733 158.648 25.58C158.501 26.0867 158.288 26.5133 158.008 26.86C157.594 27.3667 157.061 27.7267 156.408 27.94C155.768 28.14 155.028 28.24 154.188 28.24ZM167.308 31.12V16.92H169.028V31.12H167.308Z" fill="white"/>
</svg>
