<svg width="201" height="46" viewBox="0 0 201 46" fill="none" xmlns="http://www.w3.org/2000/svg">
<path fill-rule="evenodd" clip-rule="evenodd" d="M9.59773 0H190.604C195.884 0 200.202 4.31769 200.202 9.59649V35.5685C200.202 40.8494 195.884 45.1671 190.604 45.1671H9.59773C4.3181 45.1671 0 40.8494 0 35.5685V9.59649C0 4.31769 4.3181 0 9.59773 0Z" fill="#FF0000"/>
<path d="M133.817 38.7954L131.036 38.0557L134.143 31.1324L127.663 16.2798H131.066L135.622 27.434H135.711L139.853 16.2798H143.167L133.817 38.7954Z" fill="white"/>
<path d="M124.113 31.7238H121.066V10.8651L124.113 10.0366V31.7238Z" fill="white"/>
<path d="M110.452 32.0197C107.868 32.0197 105.876 31.349 104.476 30.0078C103.095 28.6665 102.405 26.7335 102.405 24.2087C102.405 23.0055 102.572 21.901 102.908 20.895C103.243 19.8891 103.736 19.0212 104.387 18.2914C105.038 17.5616 105.837 16.9994 106.784 16.6049C107.73 16.2104 108.805 16.0132 110.009 16.0132C111.153 16.0132 112.139 16.1907 112.967 16.5457C113.796 16.9008 114.476 17.4038 115.009 18.0547C115.541 18.6859 115.936 19.4354 116.192 20.3033C116.449 21.1514 116.577 22.0785 116.577 23.0844C116.577 23.4198 116.557 23.7551 116.518 24.0904C116.498 24.4257 116.468 24.7314 116.429 25.0076H105.571C105.63 26.3883 106.074 27.483 106.902 28.2917C107.75 29.1004 109.042 29.5048 110.778 29.5048C111.488 29.5048 112.257 29.4358 113.086 29.2977C113.914 29.1596 114.644 28.9821 115.275 28.7651L115.601 31.1025C114.851 31.3786 114.032 31.5956 113.145 31.7534C112.277 31.9309 111.379 32.0197 110.452 32.0197ZM109.861 18.3505C108.539 18.3505 107.513 18.7648 106.784 19.5932C106.054 20.4019 105.659 21.4572 105.6 22.759H113.529V22.4335C113.529 22.0193 113.48 21.5755 113.382 21.1021C113.283 20.6287 113.096 20.1948 112.819 19.8003C112.563 19.3861 112.198 19.0409 111.725 18.7648C111.251 18.4886 110.63 18.3505 109.861 18.3505Z" fill="white"/>
<path d="M99.4709 31.7238H98.0211C97.3308 31.7238 96.739 31.6054 96.2459 31.3687C95.7725 31.1123 95.3189 30.6882 94.8849 30.0965L91.2753 25.0372C91.1767 24.8794 91.0781 24.7807 90.9795 24.7413C90.8808 24.7018 90.7428 24.6821 90.5652 24.6821H89.3226V31.7238H86.2751V10.8651L89.3226 10.0366V22.1376H91.0386L96.0684 16.2794H99.7667L93.6423 23.2619L97.311 28.41C97.528 28.7454 97.745 28.9623 97.962 29.061C98.1789 29.1399 98.4945 29.1793 98.9087 29.1793H100.329L99.4709 31.7238Z" fill="white"/>
<path d="M77.7555 16.2795H80.8029V31.7239H77.7555V16.2795ZM80.8621 13.6463H77.6963V10.658L80.8621 9.82959V13.6463Z" fill="white"/>
<path d="M63.9887 27.0195C63.9887 27.7691 64.1267 28.3016 64.4029 28.6172C64.6987 28.9131 65.2116 29.061 65.9414 29.061H73.7819L72.8647 31.7239H64.8467C63.4462 31.7239 62.4403 31.3984 61.8288 30.7475C61.2174 30.0966 60.9116 29.1005 60.9116 27.7592V11.7231H63.9887V27.0195Z" fill="white"/>
</svg>
