<svg width="201" height="46" viewBox="0 0 201 46" fill="none" xmlns="http://www.w3.org/2000/svg">
<path fill-rule="evenodd" clip-rule="evenodd" d="M9.59773 0H190.604C195.884 0 200.202 4.31769 200.202 9.59649V35.5685C200.202 40.8494 195.884 45.1671 190.604 45.1671H9.59773C4.3181 45.1671 0 40.8494 0 35.5685V9.59649C0 4.31769 4.3181 0 9.59773 0Z" fill="#FF0000"/>
<path d="M67.3752 27.548C67.3752 28.2573 67.5059 28.7613 67.7672 29.06C68.0472 29.34 68.5325 29.48 69.2232 29.48H76.6432L75.7752 32H68.1872C66.8619 32 65.9099 31.692 65.3312 31.076C64.7525 30.46 64.4632 29.5173 64.4632 28.248V13.072H67.3752V27.548ZM79.2833 17.384H82.1673V32H79.2833V17.384ZM82.2233 14.892H79.2273V12.064L82.2233 11.28V14.892ZM98.7144 32H97.3424C96.6891 32 96.1291 31.888 95.6624 31.664C95.2144 31.4213 94.7851 31.02 94.3744 30.46L90.9584 25.672C90.8651 25.5227 90.7717 25.4293 90.6784 25.392C90.5851 25.3547 90.4544 25.336 90.2864 25.336H89.1104V32H86.2264V12.26L89.1104 11.476V22.928H90.7344L95.4944 17.384H98.9944L93.1984 23.992L96.6704 28.864C96.8757 29.1813 97.0811 29.3867 97.2864 29.48C97.4917 29.5547 97.7904 29.592 98.1824 29.592H99.5264L98.7144 32ZM107.987 32.28C105.542 32.28 103.657 31.6453 102.331 30.376C101.025 29.1067 100.371 27.2773 100.371 24.888C100.371 23.7493 100.53 22.704 100.847 21.752C101.165 20.8 101.631 19.9787 102.247 19.288C102.863 18.5973 103.619 18.0653 104.515 17.692C105.411 17.3187 106.429 17.132 107.567 17.132C108.65 17.132 109.583 17.3 110.367 17.636C111.151 17.972 111.795 18.448 112.299 19.064C112.803 19.6613 113.177 20.3707 113.419 21.192C113.662 21.9947 113.783 22.872 113.783 23.824C113.783 24.1413 113.765 24.4587 113.727 24.776C113.709 25.0933 113.681 25.3827 113.643 25.644H103.367C103.423 26.9507 103.843 27.9867 104.627 28.752C105.43 29.5173 106.653 29.9 108.295 29.9C108.967 29.9 109.695 29.8347 110.479 29.704C111.263 29.5733 111.954 29.4053 112.551 29.2L112.859 31.412C112.15 31.6733 111.375 31.8787 110.535 32.028C109.714 32.196 108.865 32.28 107.987 32.28ZM107.427 19.344C106.177 19.344 105.206 19.736 104.515 20.52C103.825 21.2853 103.451 22.284 103.395 23.516H110.899V23.208C110.899 22.816 110.853 22.396 110.759 21.948C110.666 21.5 110.489 21.0893 110.227 20.716C109.985 20.324 109.639 19.9973 109.191 19.736C108.743 19.4747 108.155 19.344 107.427 19.344ZM119.796 32H116.912V12.26L119.796 11.476V32ZM127.859 38.692L125.227 37.992L128.167 31.44L122.035 17.384H125.255L129.567 27.94H129.651L133.571 17.384H136.707L127.859 38.692Z" fill="white"/>
</svg>
