<svg width="201" height="46" viewBox="0 0 201 46" fill="none" xmlns="http://www.w3.org/2000/svg">
<path fill-rule="evenodd" clip-rule="evenodd" d="M9.59773 0H190.604C195.884 0 200.202 4.31769 200.202 9.59649V35.5685C200.202 40.8494 195.884 45.1671 190.604 45.1671H9.59773C4.3181 45.1671 0 40.8494 0 35.5685V9.59649C0 4.31769 4.3181 0 9.59773 0Z" fill="#FF0000"/>
<path d="M69.832 21.676H76.02V14.9H70.588V18.904C70.588 20.08 70.336 21.004 69.832 21.676ZM81.424 13.024V14.9H78.204V31H76.02V23.58H71.316C69.244 23.58 67.6573 23.496 66.556 23.328L71.708 31H69.048L63.812 23.104V21.368H65.66C66.724 21.368 67.4426 21.1627 67.816 20.752C68.208 20.3227 68.404 19.6507 68.404 18.736V14.9H62.412V13.024H81.424ZM74.8374 10.14C74.5387 9.86 74.3894 9.50533 74.3894 9.076C74.3894 8.64667 74.5387 8.28267 74.8374 7.984C75.1174 7.68533 75.4721 7.536 75.9014 7.536C76.3307 7.536 76.6947 7.68533 76.9934 7.984C77.2921 8.28267 77.4414 8.64667 77.4414 9.076C77.4414 9.50533 77.2921 9.86 76.9934 10.14C76.6947 10.42 76.3307 10.56 75.9014 10.56C75.4721 10.56 75.1174 10.42 74.8374 10.14ZM89.2854 21.284V13.024H94.7174V14.9H91.4694V31H89.2854V23.132H83.7974V26.968H81.8374L81.1654 25.4C80.6614 24.28 80.4094 23.4493 80.4094 22.908C80.4094 22.516 80.5121 22.18 80.7174 21.9C80.9414 21.62 81.2307 21.4427 81.5854 21.368V16.608C81.5854 15.9733 81.4921 15.516 81.3054 15.236C81.1187 14.9373 80.7827 14.788 80.2974 14.788C79.7001 14.788 79.1774 14.9093 78.7294 15.152V13.332C79.2894 13.052 79.9427 12.912 80.6894 12.912C82.7614 12.912 83.7974 14.0227 83.7974 16.244V21.284H89.2854ZM92.3567 14.9V13.024H101.037V14.9H97.7887V31H95.6047V14.9H92.3567ZM107.242 5.884C109.818 5.884 112.142 6.14533 114.214 6.668C116.305 7.172 118.498 7.89066 120.794 8.824V11.008C116.258 8.89867 111.759 7.844 107.298 7.844C106.29 7.844 105.506 8.10533 104.946 8.628C104.386 9.132 104.106 9.84133 104.106 10.756V13.024H107.326V14.9H104.106V31H101.922V14.9H98.6742V13.024H101.922V10.728C101.922 9.272 102.407 8.10533 103.378 7.228C104.349 6.332 105.637 5.884 107.242 5.884ZM122.268 13.024V14.9H119.02V31H116.836V26.352C115.866 27.752 114.372 28.452 112.356 28.452C110.863 28.452 109.575 27.976 108.492 27.024C107.428 26.0533 106.896 24.7467 106.896 23.104C106.896 21.5733 107.41 20.304 108.436 19.296C109.482 18.2693 110.816 17.756 112.44 17.756C113.131 17.756 113.719 17.8307 114.204 17.98V19.912C113.738 19.744 113.187 19.66 112.552 19.66C111.563 19.66 110.742 19.9773 110.088 20.612C109.435 21.228 109.108 22.0493 109.108 23.076C109.108 24.1587 109.435 25.0267 110.088 25.68C110.76 26.3333 111.591 26.66 112.58 26.66C113.887 26.66 114.923 26.2213 115.688 25.344C116.454 24.4667 116.836 23.4307 116.836 22.236V14.9H104.964V13.024H122.268ZM137.618 13.024V14.9H134.37V31H132.186V20.248H129.526C126.222 20.248 124.57 21.704 124.57 24.616C124.57 25.9973 124.906 27.0893 125.578 27.892C126.269 28.6947 127.277 29.096 128.602 29.096C128.92 29.096 129.134 29.0867 129.246 29.068V30.944C128.948 30.9813 128.668 31 128.406 31C126.54 31 125.065 30.4027 123.982 29.208C122.9 28.0133 122.358 26.4733 122.358 24.588C122.358 22.7213 122.946 21.2187 124.122 20.08C125.298 18.9227 127.016 18.344 129.274 18.344H132.186V14.9H119.922V13.024H137.618Z" fill="white"/>
</svg>
