<svg width="326" height="84" viewBox="0 0 326 84" fill="none" xmlns="http://www.w3.org/2000/svg">
<rect width="326" height="84" rx="10" fill="#05A310"/>
<path d="M166.845 29H152.125V34.72C153.352 33.44 154.912 32.8 156.805 32.8C158.992 32.8 160.765 33.4667 162.125 34.8C163.485 36.1333 164.165 37.88 164.165 40.04C164.165 42.36 163.405 44.2133 161.885 45.6C160.365 46.9867 158.472 47.68 156.205 47.68C155.912 47.68 155.605 47.6533 155.285 47.6V44.92C155.552 44.9733 155.818 45 156.085 45C157.498 45 158.672 44.56 159.605 43.68C160.538 42.8 161.005 41.5867 161.005 40.04C161.005 38.68 160.578 37.5733 159.725 36.72C158.898 35.84 157.805 35.4 156.445 35.4C155.272 35.4 154.258 35.8133 153.405 36.64C152.552 37.44 152.125 38.4533 152.125 39.68V52H148.965V46.24C147.792 47.4667 146.245 48.08 144.325 48.08C142.138 48.08 140.365 47.4267 139.005 46.12C137.645 44.7867 136.965 43.04 136.965 40.88C136.965 38.56 137.725 36.7067 139.245 35.32C140.765 33.9067 142.645 33.2 144.885 33.2C145.312 33.2 145.618 33.24 145.805 33.32V35.96C145.672 35.9333 145.418 35.92 145.045 35.92C143.605 35.92 142.418 36.36 141.485 37.24C140.552 38.12 140.085 39.32 140.085 40.84C140.085 42.2 140.512 43.32 141.365 44.2C142.218 45.08 143.325 45.52 144.685 45.52C145.858 45.52 146.858 45.1067 147.685 44.28C148.538 43.4533 148.965 42.4267 148.965 41.2V29H134.245V26.32H166.845V29ZM165.104 29V26.32H189.744V29H185.144V52H182.024V40.8H173.624V46.24H170.904L169.904 44C169.184 42.2933 168.824 41.0933 168.824 40.4C168.824 39.8667 168.971 39.4133 169.264 39.04C169.584 38.6667 169.998 38.4133 170.504 38.28V29H165.104ZM182.024 29H173.624V38.16H182.024V29Z" fill="white"/>
</svg>
