<svg width="266" height="54" viewBox="0 0 266 54" fill="none" xmlns="http://www.w3.org/2000/svg">
<rect width="266" height="54" rx="10" fill="#05A310"/>
<path d="M102.28 30.912C102.28 31.7227 102.429 32.2987 102.728 32.64C103.048 32.96 103.603 33.12 104.392 33.12H112.872L111.88 36H103.208C101.693 36 100.605 35.648 99.9441 34.944C99.2828 34.24 98.9521 33.1627 98.9521 31.712V14.368H102.28V30.912ZM122.244 32.96C123.14 33.3227 124.079 33.504 125.06 33.504C126.042 33.504 126.98 33.3227 127.876 32.96C128.772 32.576 129.562 32.032 130.244 31.328C130.948 30.624 131.503 29.76 131.908 28.736C132.314 27.712 132.516 26.5387 132.516 25.216C132.516 23.872 132.314 22.688 131.908 21.664C131.524 20.6187 130.991 19.744 130.308 19.04C129.626 18.336 128.826 17.8027 127.908 17.44C127.012 17.056 126.063 16.864 125.06 16.864C124.058 16.864 123.098 17.056 122.18 17.44C121.284 17.8027 120.495 18.336 119.812 19.04C119.13 19.744 118.586 20.6187 118.18 21.664C117.796 22.688 117.604 23.872 117.604 25.216C117.604 26.5387 117.807 27.712 118.212 28.736C118.618 29.76 119.162 30.624 119.844 31.328C120.548 32.032 121.348 32.576 122.244 32.96ZM129.284 35.584C127.962 36.0747 126.554 36.32 125.06 36.32C123.567 36.32 122.159 36.0747 120.836 35.584C119.514 35.072 118.351 34.3467 117.348 33.408C116.367 32.448 115.588 31.2853 115.012 29.92C114.436 28.5333 114.148 26.9653 114.148 25.216C114.148 23.4453 114.436 21.8667 115.012 20.48C115.61 19.0933 116.41 17.9307 117.412 16.992C118.415 16.032 119.578 15.3067 120.9 14.816C122.223 14.304 123.61 14.048 125.06 14.048C126.511 14.048 127.898 14.304 129.22 14.816C130.543 15.3067 131.706 16.032 132.708 16.992C133.711 17.9307 134.5 19.0933 135.076 20.48C135.674 21.8667 135.972 23.4453 135.972 25.216C135.972 26.9653 135.684 28.5333 135.108 29.92C134.532 31.2853 133.743 32.448 132.74 33.408C131.759 34.3467 130.607 35.072 129.284 35.584ZM148.515 36H145.699L138.275 14.368H141.955L146.979 30.624H147.203L152.643 14.368H154.947L160.387 30.624H160.611L165.635 14.368H169.315L161.891 36H159.075L153.923 20.672H153.699L148.515 36Z" fill="white"/>
</svg>
