<svg width="326" height="84" viewBox="0 0 326 84" fill="none" xmlns="http://www.w3.org/2000/svg">
<rect width="326" height="84" rx="10" fill="#05A310"/>
<path d="M89.3584 53.48C87.7318 53.48 86.2784 53.2267 84.9984 52.72C83.7184 52.2133 82.7051 51.4667 81.9584 50.48C81.2118 49.4933 80.8384 48.3067 80.8384 46.92C80.8384 45.48 81.2118 44.24 81.9584 43.2C82.7318 42.1333 83.9451 41.32 85.5984 40.76C87.2784 40.1733 89.4651 39.88 92.1584 39.88H97.1584C99.4784 39.88 101.452 40.2 103.078 40.84C104.705 41.48 106.025 42.3467 107.038 43.44C108.052 44.5333 108.785 45.7733 109.238 47.16C109.718 48.52 109.958 49.9333 109.958 51.4C109.958 53.5333 109.625 55.4 108.958 57C108.318 58.6 107.425 59.96 106.278 61.08C105.132 62.2267 103.798 63.1467 102.278 63.84C100.758 64.5333 99.1184 65.04 97.3584 65.36C95.6251 65.68 93.8518 65.84 92.0384 65.84H90.8784C88.0518 65.84 85.5851 65.48 83.4784 64.76C81.3718 64.0667 79.5851 63.1067 78.1184 61.88C76.6784 60.68 75.5184 59.3067 74.6384 57.76C73.7584 56.2133 73.1184 54.5867 72.7184 52.88C72.3184 51.1733 72.1184 49.48 72.1184 47.8V46.96C72.1184 44.7733 72.3851 42.72 72.9184 40.8C73.4518 38.88 74.1451 37.0933 74.9984 35.44C75.8518 33.76 76.7451 32.2267 77.6784 30.84L80.5984 32.6C79.5318 34.0933 78.6251 35.64 77.8784 37.24C77.1318 38.8133 76.5584 40.4267 76.1584 42.08C75.7584 43.7067 75.5584 45.3467 75.5584 47V47.76C75.5584 49.76 75.8518 51.6533 76.4384 53.44C77.0518 55.2533 77.9851 56.8533 79.2384 58.24C80.4918 59.6533 82.1184 60.76 84.1184 61.56C86.1184 62.36 88.5184 62.76 91.3184 62.76H91.7984C94.0651 62.76 96.0918 62.52 97.8784 62.04C99.6918 61.56 101.225 60.84 102.478 59.88C103.758 58.9467 104.732 57.76 105.398 56.32C106.092 54.9067 106.438 53.2533 106.438 51.36C106.438 49.36 106.025 47.72 105.198 46.44C104.372 45.16 103.225 44.2133 101.758 43.6C100.318 42.9867 98.6784 42.68 96.8384 42.68H91.8784C90.5184 42.68 89.3584 42.76 88.3984 42.92C87.4651 43.08 86.6651 43.3467 85.9984 43.72C85.4118 44.0667 84.9718 44.4933 84.6784 45C84.4118 45.48 84.2784 46.1067 84.2784 46.88C84.2784 48.1067 84.7851 49.04 85.7984 49.68C86.8118 50.2933 88.0918 50.6 89.6384 50.6C90.8118 50.6 91.8118 50.4267 92.6384 50.08C93.4918 49.7067 94.1451 49.08 94.5984 48.2C95.0784 47.2933 95.3184 46.0533 95.3184 44.48V33.72H88.4384V40.92L85.2784 41.56V30.84H106.198V33.72H98.7184V43.96C98.7184 45.7467 98.5584 47.1467 98.2384 48.16C97.9451 49.1733 97.5184 50.0267 96.9584 50.72C96.1318 51.7333 95.0651 52.4533 93.7584 52.88C92.4784 53.28 91.0118 53.48 89.3584 53.48ZM121.819 53.48C120.406 53.48 119.113 53.1333 117.939 52.44C116.766 51.72 115.833 50.6133 115.139 49.12C114.473 47.6267 114.139 45.68 114.139 43.28C114.139 40.64 114.713 38.36 115.859 36.44C117.033 34.4933 118.673 33 120.779 31.96C122.886 30.8933 125.353 30.36 128.179 30.36C129.459 30.36 130.673 30.4667 131.819 30.68C132.966 30.8667 134.073 31.16 135.139 31.56C136.206 31.96 137.233 32.48 138.219 33.12L139.659 34.36C141.339 35.72 142.619 37.36 143.499 39.28C144.406 41.2 144.859 43.2533 144.859 45.44C144.859 47.2267 144.593 48.72 144.059 49.92C143.553 51.0933 142.806 51.9867 141.819 52.6C140.859 53.1867 139.713 53.48 138.379 53.48C136.833 53.48 135.566 53.1333 134.579 52.44C133.619 51.7467 132.899 50.8133 132.419 49.64C131.966 48.44 131.739 47.08 131.739 45.56C131.739 43.9867 131.899 42.56 132.219 41.28C132.566 39.9733 133.033 38.7867 133.619 37.72C134.233 36.6267 134.939 35.6267 135.739 34.72L137.459 33.08C138.526 32.2 139.686 31.5333 140.939 31.08C142.193 30.6 143.539 30.36 144.979 30.36C147.486 30.36 149.526 30.8933 151.099 31.96C152.673 33 153.833 34.3867 154.579 36.12C155.326 37.8533 155.699 39.7467 155.699 41.8C155.699 43.64 155.513 45.28 155.139 46.72C154.793 48.1333 154.339 49.4 153.779 50.52C153.246 51.6133 152.673 52.6 152.059 53.48L149.179 51.72C150.033 50.52 150.739 49.16 151.299 47.64C151.886 46.0933 152.179 44.2 152.179 41.96C152.179 40.2 151.886 38.68 151.299 37.4C150.713 36.0933 149.859 35.0933 148.739 34.4C147.646 33.68 146.299 33.32 144.699 33.32C143.473 33.32 142.406 33.48 141.499 33.8C140.619 34.12 139.713 34.6667 138.779 35.44C137.926 36.32 137.219 37.28 136.659 38.32C136.126 39.36 135.726 40.48 135.459 41.68C135.219 42.8533 135.099 44.1067 135.099 45.44C135.099 47.28 135.379 48.6267 135.939 49.48C136.499 50.3333 137.273 50.76 138.259 50.76C139.086 50.76 139.726 50.5067 140.179 50C140.659 49.4933 140.993 48.8533 141.179 48.08C141.366 47.3067 141.459 46.52 141.459 45.72C141.459 43.5867 141.046 41.68 140.219 40C139.419 38.32 138.246 36.88 136.699 35.68C135.446 34.8 134.073 34.1867 132.579 33.84C131.086 33.4933 129.486 33.32 127.779 33.32C125.806 33.32 124.086 33.68 122.619 34.4C121.153 35.12 119.979 36.1067 119.099 37.36C118.246 38.6133 117.686 40.0533 117.419 41.68C117.393 42.08 117.366 42.4667 117.339 42.84C117.313 43.1867 117.299 43.4667 117.299 43.68C117.299 45.4133 117.499 46.8 117.899 47.84C118.326 48.88 118.899 49.6267 119.619 50.08C120.339 50.5333 121.139 50.76 122.019 50.76C122.739 50.76 123.353 50.6133 123.859 50.32C124.366 50 124.753 49.5467 125.019 48.96C125.313 48.3733 125.459 47.6533 125.459 46.8C125.459 45.4667 125.113 44.4533 124.419 43.76C123.726 43.04 122.833 42.68 121.739 42.68C120.673 42.68 119.673 42.96 118.739 43.52C117.806 44.08 116.953 44.7867 116.179 45.64L115.579 43.08C116.379 42.1467 117.366 41.3867 118.539 40.8C119.739 40.1867 120.993 39.88 122.299 39.88C124.219 39.88 125.766 40.4667 126.939 41.64C128.139 42.8133 128.739 44.4 128.739 46.4C128.739 47.8667 128.459 49.1333 127.899 50.2C127.339 51.2667 126.539 52.08 125.499 52.64C124.486 53.2 123.259 53.48 121.819 53.48ZM181.066 30.36C183.092 30.36 184.799 30.8667 186.186 31.88C187.599 32.8933 188.666 34.36 189.386 36.28C190.106 38.1733 190.466 40.4933 190.466 43.24C190.466 46.4933 190.052 49.16 189.226 51.24C188.399 53.2933 187.279 54.9067 185.866 56.08C184.852 56.9067 183.706 57.5467 182.426 58C181.146 58.48 179.772 58.8 178.306 58.96C176.866 59.1467 175.359 59.24 173.786 59.24H169.066C167.946 59.24 167.079 59.32 166.466 59.48C165.852 59.64 165.319 59.8667 164.866 60.16C164.439 60.4533 164.106 60.8667 163.866 61.4C163.626 61.9333 163.506 62.64 163.506 63.52C163.506 63.92 163.519 64.2933 163.546 64.64C163.572 65.0133 163.599 65.36 163.626 65.68L160.346 65.84C160.266 65.36 160.199 64.8267 160.146 64.24C160.092 63.68 160.066 63.1733 160.066 62.72C160.066 61.5467 160.279 60.5467 160.706 59.72C161.132 58.92 161.679 58.2667 162.346 57.76C162.826 57.4133 163.319 57.1333 163.826 56.92C164.359 56.7333 164.959 56.5867 165.626 56.48C166.319 56.4 167.106 56.36 167.986 56.36H172.906C175.386 56.36 177.506 56.1733 179.266 55.8C181.026 55.4533 182.466 54.8133 183.586 53.88C184.732 52.9467 185.572 51.6133 186.106 49.88C186.639 48.12 186.906 45.8667 186.906 43.12C186.906 40.6933 186.639 38.76 186.106 37.32C185.599 35.88 184.879 34.84 183.946 34.2C183.039 33.56 181.986 33.24 180.786 33.24C180.092 33.24 179.439 33.36 178.826 33.6C178.212 33.8133 177.679 34.1733 177.226 34.68C176.692 35.2933 176.319 36.0133 176.106 36.84C175.892 37.6667 175.786 38.8 175.786 40.24V53H172.346V40.16C172.346 38.8533 172.279 37.7467 172.146 36.84C172.012 35.9067 171.746 35.1467 171.346 34.56C171.079 34.16 170.732 33.84 170.306 33.6C169.879 33.36 169.359 33.24 168.746 33.24C168.132 33.24 167.612 33.36 167.186 33.6C166.786 33.8133 166.439 34.1067 166.146 34.48C165.719 35.0667 165.439 35.8267 165.306 36.76C165.199 37.6933 165.146 38.7467 165.146 39.92V53H161.706V39.36C161.706 38.0533 161.759 36.96 161.866 36.08C161.999 35.2 162.226 34.44 162.546 33.8C162.866 33.16 163.292 32.5733 163.826 32.04C164.386 31.48 165.052 31.0667 165.826 30.8C166.599 30.5067 167.479 30.36 168.466 30.36C169.506 30.36 170.426 30.5467 171.226 30.92C172.026 31.2933 172.719 31.8533 173.306 32.6C173.892 33.32 174.359 34.2133 174.706 35.28L173.866 35C174.159 34.12 174.612 33.3333 175.226 32.64C175.866 31.92 176.666 31.36 177.626 30.96C178.612 30.56 179.759 30.36 181.066 30.36ZM215.311 38.52C216.671 38.52 217.898 38.8667 218.991 39.56C220.111 40.2533 221.005 41.28 221.671 42.64C222.338 44 222.671 45.6667 222.671 47.64C222.671 50.04 222.325 51.9333 221.631 53.32C220.938 54.7067 219.965 55.8533 218.711 56.76C217.858 57.3733 216.871 57.8667 215.751 58.24C214.658 58.6133 213.391 58.8667 211.951 59C210.511 59.16 208.831 59.24 206.911 59.24H203.911C202.791 59.24 201.925 59.32 201.311 59.48C200.698 59.64 200.165 59.8667 199.711 60.16C199.285 60.4533 198.951 60.8667 198.711 61.4C198.471 61.9333 198.351 62.64 198.351 63.52C198.351 63.92 198.365 64.2933 198.391 64.64C198.418 65.0133 198.445 65.36 198.471 65.68L195.191 65.84C195.111 65.36 195.045 64.8267 194.991 64.24C194.938 63.68 194.911 63.1733 194.911 62.72C194.911 61.5467 195.125 60.5467 195.551 59.72C195.978 58.92 196.525 58.2667 197.191 57.76C197.671 57.4133 198.165 57.1333 198.671 56.92C199.205 56.7333 199.805 56.5867 200.471 56.48C201.165 56.4 201.951 56.36 202.831 56.36H206.551C208.738 56.36 210.511 56.2667 211.871 56.08C213.258 55.8933 214.378 55.5867 215.231 55.16C216.085 54.76 216.818 54.2267 217.431 53.56C217.965 52.9733 218.391 52.2133 218.711 51.28C219.058 50.32 219.231 49.1467 219.231 47.76C219.231 46.3733 219.045 45.2133 218.671 44.28C218.325 43.3467 217.791 42.64 217.071 42.16C216.378 41.68 215.511 41.44 214.471 41.44C213.725 41.44 212.965 41.6133 212.191 41.96C211.445 42.28 210.791 42.6667 210.231 43.12L210.111 40.12C210.805 39.6933 211.578 39.32 212.431 39C213.285 38.68 214.245 38.52 215.311 38.52ZM196.551 53V30.84H217.391V33.72H210.391V53H206.951V33.72H199.991V53H196.551ZM208.831 25.88C208.058 25.88 207.418 25.64 206.911 25.16C206.405 24.6533 206.151 24 206.151 23.2C206.151 22.4267 206.405 21.7867 206.911 21.28C207.418 20.7733 208.058 20.52 208.831 20.52C209.605 20.52 210.245 20.7733 210.751 21.28C211.258 21.7867 211.511 22.4267 211.511 23.2C211.511 24 211.258 24.6533 210.751 25.16C210.245 25.64 209.605 25.88 208.831 25.88ZM235.034 53.48C233.434 53.48 231.994 53.2267 230.714 52.72C229.434 52.2133 228.42 51.4667 227.674 50.48C226.927 49.4933 226.554 48.3067 226.554 46.92C226.554 45.48 226.927 44.24 227.674 43.2C228.447 42.1333 229.66 41.32 231.314 40.76C232.967 40.1733 235.154 39.88 237.874 39.88H243.674C245.994 39.88 248.06 40.1733 249.874 40.76C251.687 41.32 253.1 42.2667 254.114 43.6C255.154 44.9333 255.674 46.76 255.674 49.08C255.674 50.8667 255.34 52.36 254.674 53.56C254.007 54.7867 253.06 55.8533 251.834 56.76C250.954 57.3733 249.954 57.8667 248.834 58.24C247.74 58.6133 246.474 58.8667 245.034 59C243.594 59.16 241.914 59.24 239.994 59.24H235.474C234.354 59.24 233.487 59.32 232.874 59.48C232.26 59.64 231.727 59.8667 231.274 60.16C230.847 60.4533 230.514 60.8667 230.274 61.4C230.034 61.9333 229.914 62.64 229.914 63.52C229.914 63.92 229.927 64.2933 229.954 64.64C229.98 65.0133 230.007 65.36 230.034 65.68L226.754 65.84C226.674 65.36 226.607 64.8267 226.554 64.24C226.5 63.68 226.474 63.1733 226.474 62.72C226.474 61.5467 226.687 60.5467 227.114 59.72C227.54 58.92 228.087 58.2667 228.754 57.76C229.234 57.4133 229.727 57.1333 230.234 56.92C230.767 56.7333 231.367 56.5867 232.034 56.48C232.727 56.4 233.514 56.36 234.394 56.36H238.754C241.127 56.36 243.074 56.2533 244.594 56.04C246.114 55.8533 247.34 55.5467 248.274 55.12C249.207 54.72 249.98 54.1867 250.594 53.52C251.127 52.9333 251.527 52.2533 251.794 51.48C252.087 50.68 252.234 49.7867 252.234 48.8C252.234 47.4933 251.967 46.44 251.434 45.64C250.927 44.84 250.234 44.2267 249.354 43.8C248.5 43.3733 247.54 43.08 246.474 42.92C245.434 42.76 244.367 42.68 243.274 42.68H237.594C236.234 42.68 235.074 42.76 234.114 42.92C233.18 43.08 232.38 43.3467 231.714 43.72C231.127 44.0667 230.687 44.4933 230.394 45C230.127 45.48 229.994 46.1067 229.994 46.88C229.994 48.1067 230.5 49.04 231.514 49.68C232.527 50.2933 233.807 50.6 235.354 50.6C236.527 50.6 237.527 50.4267 238.354 50.08C239.207 49.7067 239.86 49.08 240.314 48.2C240.794 47.2933 241.034 46.0533 241.034 44.48V33.72H234.154V40.92L230.994 41.56V30.84H251.914V33.72H244.434V43.96C244.434 45.7467 244.274 47.1467 243.954 48.16C243.66 49.1733 243.234 50.0267 242.674 50.72C241.847 51.7333 240.78 52.4533 239.474 52.88C238.194 53.28 236.714 53.48 235.034 53.48Z" fill="white"/>
</svg>
