<svg width="326" height="84" viewBox="0 0 326 84" fill="none" xmlns="http://www.w3.org/2000/svg">
<rect width="326" height="84" rx="10" fill="#05A310"/>
<path d="M128.717 48.64C128.717 49.6533 128.904 50.3733 129.277 50.8C129.677 51.2 130.371 51.4 131.357 51.4H141.957L140.717 55H129.877C127.984 55 126.624 54.56 125.797 53.68C124.971 52.8 124.557 51.4533 124.557 49.64V27.96H128.717V48.64ZM150.99 50.12C152.19 51.4267 153.737 52.08 155.63 52.08C157.524 52.08 159.07 51.4267 160.27 50.12C161.47 48.8133 162.07 46.96 162.07 44.56C162.07 42.1867 161.47 40.3467 160.27 39.04C159.097 37.7333 157.55 37.08 155.63 37.08C153.71 37.08 152.15 37.7333 150.95 39.04C149.777 40.3467 149.19 42.1867 149.19 44.56C149.19 46.96 149.79 48.8133 150.99 50.12ZM160.15 54.6C158.844 55.1333 157.337 55.4 155.63 55.4C153.924 55.4 152.404 55.1333 151.07 54.6C149.764 54.0667 148.657 53.3333 147.75 52.4C146.844 51.44 146.15 50.3067 145.67 49C145.217 47.6667 144.99 46.2133 144.99 44.64C144.99 43.04 145.23 41.5733 145.71 40.24C146.19 38.9067 146.884 37.76 147.79 36.8C148.724 35.84 149.844 35.0933 151.15 34.56C152.457 34.0267 153.95 33.76 155.63 33.76C157.31 33.76 158.804 34.0267 160.11 34.56C161.417 35.0933 162.524 35.84 163.43 36.8C164.364 37.76 165.07 38.9067 165.55 40.24C166.03 41.5733 166.27 43.04 166.27 44.64C166.27 46.2133 166.03 47.6667 165.55 49C165.097 50.3067 164.417 51.44 163.51 52.4C162.604 53.3333 161.484 54.0667 160.15 54.6ZM191.901 49.04H192.061L196.581 34.12H201.061L193.701 55H190.381L185.061 40.4H184.901L179.701 55H176.341L169.101 34.12H173.581L178.181 49.04H178.341L183.461 34.12H186.541L191.901 49.04Z" fill="white"/>
</svg>
