<svg width="326" height="84" viewBox="0 0 326 84" fill="none" xmlns="http://www.w3.org/2000/svg">
<rect width="326" height="84" rx="10" fill="#FEAC00"/>
<path d="M99.6275 46.48L109.948 27.96H113.428V55H109.428V36.88L100.828 51.52H98.1075L89.5475 36.72V55H85.5475V27.96H89.1075L99.4675 46.48H99.6275ZM130.609 55.4C127.115 55.4 124.422 54.4933 122.529 52.68C120.662 50.8667 119.729 48.2533 119.729 44.84C119.729 43.2133 119.955 41.72 120.409 40.36C120.862 39 121.529 37.8267 122.409 36.84C123.289 35.8533 124.369 35.0933 125.649 34.56C126.929 34.0267 128.382 33.76 130.009 33.76C131.555 33.76 132.889 34 134.009 34.48C135.129 34.96 136.049 35.64 136.769 36.52C137.489 37.3733 138.022 38.3867 138.369 39.56C138.715 40.7067 138.889 41.96 138.889 43.32C138.889 43.7733 138.862 44.2267 138.809 44.68C138.782 45.1333 138.742 45.5467 138.689 45.92H124.009C124.089 47.7867 124.689 49.2667 125.809 50.36C126.955 51.4533 128.702 52 131.049 52C132.009 52 133.049 51.9067 134.169 51.72C135.289 51.5333 136.275 51.2933 137.129 51L137.569 54.16C136.555 54.5333 135.449 54.8267 134.249 55.04C133.075 55.28 131.862 55.4 130.609 55.4ZM129.809 36.92C128.022 36.92 126.635 37.48 125.649 38.6C124.662 39.6933 124.129 41.12 124.049 42.88H134.769V42.44C134.769 41.88 134.702 41.28 134.569 40.64C134.435 40 134.182 39.4133 133.809 38.88C133.462 38.32 132.969 37.8533 132.329 37.48C131.689 37.1067 130.849 36.92 129.809 36.92ZM154.158 37.2C152.211 37.2 150.651 37.8667 149.478 39.2C148.304 40.5333 147.718 42.4 147.718 44.8C147.718 46.0267 147.878 47.0933 148.198 48C148.518 48.88 148.958 49.6133 149.518 50.2C150.104 50.7867 150.784 51.2267 151.558 51.52C152.331 51.8133 153.171 51.96 154.078 51.96C155.464 51.96 156.638 51.6667 157.598 51.08C158.584 50.4933 159.384 49.76 159.998 48.88V42.4C159.998 41.68 159.851 41.0133 159.558 40.4C159.291 39.76 158.904 39.2 158.398 38.72C157.891 38.24 157.278 37.8667 156.558 37.6C155.838 37.3333 155.038 37.2 154.158 37.2ZM164.118 49.44C164.118 50.4267 164.118 51.3733 164.118 52.28C164.144 53.16 164.171 54.0667 164.198 55H160.718C160.664 54.6267 160.598 54.2533 160.518 53.88C160.464 53.48 160.411 53.0133 160.358 52.48H160.278C159.664 53.2533 158.811 53.9333 157.718 54.52C156.624 55.1067 155.211 55.4 153.478 55.4C152.091 55.4 150.784 55.1867 149.558 54.76C148.358 54.3067 147.304 53.64 146.398 52.76C145.518 51.8533 144.811 50.7333 144.278 49.4C143.771 48.0667 143.518 46.52 143.518 44.76C143.518 42.92 143.798 41.32 144.358 39.96C144.918 38.5733 145.664 37.4267 146.598 36.52C147.531 35.5867 148.598 34.8933 149.798 34.44C151.024 33.9867 152.304 33.76 153.638 33.76C155.158 33.76 156.438 34.0267 157.478 34.56C158.518 35.0667 159.318 35.7067 159.878 36.48L159.998 36.44V26.8L164.118 25.68V49.44ZM171.559 34.12H175.679V55H171.559V34.12ZM175.759 30.56H171.479V26.52L175.759 25.4V30.56ZM191.958 55.4C188.945 55.4 186.678 54.76 185.158 53.48C183.638 52.1733 182.878 50.04 182.878 47.08V34.12H186.998V47.08C186.998 50.3867 188.651 52.04 191.958 52.04C193.611 52.04 194.851 51.6133 195.678 50.76C196.505 49.9067 196.918 48.68 196.918 47.08V34.12H201.038V47.08C201.038 49.7467 200.278 51.8 198.758 53.24C197.265 54.68 194.998 55.4 191.958 55.4ZM234.039 38.64C233.399 37.68 232.346 37.2 230.879 37.2C229.972 37.2 228.999 37.3733 227.959 37.72C226.919 38.0667 226.039 38.5067 225.319 39.04C225.372 39.4133 225.412 39.8267 225.439 40.28C225.492 40.7067 225.519 41.2133 225.519 41.8V55H221.399V42.48C221.399 40.6933 221.119 39.3733 220.559 38.52C219.999 37.64 218.986 37.2 217.519 37.2C216.506 37.2 215.532 37.3867 214.599 37.76C213.666 38.1333 212.866 38.5733 212.199 39.08V55H208.079V34.12H211.719L212.039 36C212.892 35.3867 213.906 34.8667 215.079 34.44C216.252 33.9867 217.532 33.76 218.919 33.76C220.199 33.76 221.266 33.9867 222.119 34.44C222.999 34.8667 223.746 35.4667 224.359 36.24C225.452 35.52 226.612 34.9333 227.839 34.48C229.092 34 230.452 33.76 231.919 33.76C234.346 33.76 236.106 34.44 237.199 35.8C238.319 37.16 238.879 39.08 238.879 41.56V55H234.759V42.48C234.759 41.6 234.706 40.8533 234.599 40.24C234.519 39.6267 234.332 39.0933 234.039 38.64Z" fill="white"/>
</svg>
