<svg width="326" height="84" viewBox="0 0 326 84" fill="none" xmlns="http://www.w3.org/2000/svg">
<rect width="326" height="84" rx="10" fill="#FEAC00"/>
<path d="M118.3 29V26.32H142.94V29H138.34V52H135.22V40.8H126.82V46.24H124.1L123.1 44C122.38 42.2933 122.02 41.0933 122.02 40.4C122.02 39.8667 122.166 39.4133 122.46 39.04C122.78 38.6667 123.193 38.4133 123.7 38.28V29H118.3ZM135.22 29H126.82V38.16H135.22V29ZM176.03 38.64V29H168.55C169.217 30.0133 169.55 31.2533 169.55 32.72C169.55 35.8667 167.577 38.0533 163.63 39.28C163.95 40.7467 164.67 41.96 165.79 42.92C166.937 43.8533 168.297 44.32 169.87 44.32C171.71 44.32 173.19 43.8133 174.31 42.8C175.457 41.76 176.03 40.3733 176.03 38.64ZM159.23 26.32H183.79V29H179.15V52H176.03V44.24C174.697 46.08 172.537 47 169.55 47C167.15 47 165.11 46.24 163.43 44.72C160.604 47.8667 157.124 49.44 152.99 49.44C150.43 49.44 148.39 48.84 146.87 47.64C145.35 46.4133 144.59 44.88 144.59 43.04C144.59 41.5467 145.057 40.36 145.99 39.48C146.924 38.5733 148.15 38.0267 149.67 37.84C148.177 37.68 146.99 37.2 146.11 36.4C145.23 35.6 144.79 34.48 144.79 33.04C144.79 31.2 145.617 29.8533 147.27 29H141.19V26.32H153.59V29H153.55C151.79 29 150.417 29.3733 149.43 30.12C148.444 30.8667 147.95 31.8267 147.95 33C147.95 34.2 148.457 35.0933 149.47 35.68C150.484 36.24 151.79 36.52 153.39 36.52H155.39V39.2H153.03C151.404 39.2 150.124 39.5467 149.19 40.24C148.257 40.9067 147.79 41.84 147.79 43.04C147.79 44.1333 148.27 45.0267 149.23 45.72C150.19 46.4133 151.497 46.76 153.15 46.76C156.484 46.76 159.337 45.3733 161.71 42.6C160.804 41.1333 160.217 39.3733 159.95 37.32C162.084 37 163.697 36.4133 164.79 35.56C165.884 34.7067 166.43 33.7067 166.43 32.56C166.43 31.2 166.03 30.0133 165.23 29H159.23V26.32ZM182.05 29V26.32H206.69V29H202.09V52H198.97V40.8H190.57V46.24H187.85L186.85 44C186.13 42.2933 185.77 41.0933 185.77 40.4C185.77 39.8667 185.916 39.4133 186.21 39.04C186.53 38.6667 186.943 38.4133 187.45 38.28V29H182.05ZM198.97 29H190.57V38.16H198.97V29Z" fill="white"/>
</svg>
