<svg width="326" height="84" viewBox="0 0 326 84" fill="none" xmlns="http://www.w3.org/2000/svg">
<rect width="326" height="84" rx="10" fill="#FEAC00"/>
<path d="M103.405 38.52C104.765 38.52 105.992 38.8667 107.085 39.56C108.205 40.2533 109.098 41.28 109.765 42.64C110.432 44 110.765 45.6667 110.765 47.64C110.765 50.04 110.418 51.9333 109.725 53.32C109.032 54.7067 108.058 55.8533 106.805 56.76C105.952 57.3733 104.965 57.8667 103.845 58.24C102.752 58.6133 101.485 58.8667 100.045 59C98.605 59.16 96.925 59.24 95.005 59.24H92.005C90.885 59.24 90.0183 59.32 89.405 59.48C88.7917 59.64 88.2583 59.8667 87.805 60.16C87.3783 60.4533 87.045 60.8667 86.805 61.4C86.565 61.9333 86.445 62.64 86.445 63.52C86.445 63.92 86.4583 64.2933 86.485 64.64C86.5117 65.0133 86.5383 65.36 86.565 65.68L83.285 65.84C83.205 65.36 83.1383 64.8267 83.085 64.24C83.0317 63.68 83.005 63.1733 83.005 62.72C83.005 61.5467 83.2183 60.5467 83.645 59.72C84.0717 58.92 84.6183 58.2667 85.285 57.76C85.765 57.4133 86.2583 57.1333 86.765 56.92C87.2983 56.7333 87.8983 56.5867 88.565 56.48C89.2583 56.4 90.045 56.36 90.925 56.36H94.645C96.8317 56.36 98.605 56.2667 99.965 56.08C101.352 55.8933 102.472 55.5867 103.325 55.16C104.178 54.76 104.912 54.2267 105.525 53.56C106.058 52.9733 106.485 52.2133 106.805 51.28C107.152 50.32 107.325 49.1467 107.325 47.76C107.325 46.3733 107.138 45.2133 106.765 44.28C106.418 43.3467 105.885 42.64 105.165 42.16C104.472 41.68 103.605 41.44 102.565 41.44C101.818 41.44 101.058 41.6133 100.285 41.96C99.5383 42.28 98.885 42.6667 98.325 43.12L98.205 40.12C98.8983 39.6933 99.6717 39.32 100.525 39C101.378 38.68 102.338 38.52 103.405 38.52ZM84.645 53V30.84H105.485V33.72H98.485V53H95.045V33.72H88.085V53H84.645ZM129.648 64.88C127.461 64.88 125.488 64.4267 123.728 63.52C121.994 62.6133 120.514 61.28 119.288 59.52C118.061 57.7867 117.128 55.6533 116.488 53.12C115.848 50.5867 115.528 47.6933 115.528 44.44V43.32C115.528 40.0933 115.848 37.2 116.488 34.64C117.128 32.0533 118.034 29.8 119.208 27.88C120.408 25.96 121.808 24.3733 123.408 23.12C125.034 21.84 126.821 20.88 128.768 20.24C130.714 19.6 132.781 19.28 134.968 19.28C137.154 19.28 139.048 19.56 140.648 20.12C142.274 20.68 143.674 21.4667 144.848 22.48C145.781 23.2533 146.568 24.1467 147.208 25.16C147.848 26.1467 148.354 27.2667 148.728 28.52C149.101 29.7733 149.368 31.1733 149.528 32.72C149.714 34.2667 149.808 36 149.808 37.92V53H146.368V39.64C146.368 37.4 146.261 35.3067 146.048 33.36C145.834 31.3867 145.408 29.6267 144.768 28.08C144.128 26.5333 143.168 25.28 141.888 24.32C141.061 23.68 140.061 23.1867 138.888 22.84C137.741 22.4667 136.394 22.28 134.848 22.28C133.248 22.28 131.674 22.5333 130.128 23.04C128.581 23.5467 127.141 24.3333 125.808 25.4C124.474 26.44 123.288 27.8133 122.248 29.52C121.234 31.2 120.434 33.2267 119.848 35.6C119.261 37.9733 118.968 40.72 118.968 43.84C118.968 46.96 119.208 49.6667 119.688 51.96C120.168 54.2267 120.861 56.0933 121.768 57.56C122.701 59.0267 123.821 60.1067 125.128 60.8C126.434 61.52 127.901 61.88 129.528 61.88C131.101 61.88 132.461 61.64 133.608 61.16C134.754 60.68 135.688 59.9733 136.408 59.04C137.154 58.1067 137.701 56.96 138.048 55.6C138.421 54.24 138.608 52.6667 138.608 50.88C138.608 48.9333 138.434 47.4 138.088 46.28C137.741 45.1333 137.234 44.32 136.568 43.84C135.928 43.36 135.141 43.12 134.208 43.12C133.408 43.12 132.661 43.2933 131.968 43.64C131.274 43.96 130.661 44.32 130.128 44.72L130.168 41.76C130.648 41.3867 131.274 41.04 132.048 40.72C132.848 40.4 133.768 40.24 134.808 40.24C136.248 40.24 137.514 40.6 138.608 41.32C139.728 42.04 140.594 43.16 141.208 44.68C141.821 46.1733 142.128 48.12 142.128 50.52C142.128 53.2133 141.808 55.48 141.168 57.32C140.554 59.16 139.674 60.6267 138.528 61.72C137.408 62.84 136.088 63.64 134.568 64.12C133.074 64.6267 131.434 64.88 129.648 64.88ZM126.888 53V30.84H130.368V53H126.888ZM163.713 53.48C162.113 53.48 160.673 53.2267 159.393 52.72C158.113 52.2133 157.1 51.4667 156.353 50.48C155.607 49.4933 155.233 48.3067 155.233 46.92C155.233 45.48 155.607 44.24 156.353 43.2C157.127 42.1333 158.34 41.32 159.993 40.76C161.647 40.1733 163.833 39.88 166.553 39.88H172.353C174.673 39.88 176.74 40.1733 178.553 40.76C180.367 41.32 181.78 42.2667 182.793 43.6C183.833 44.9333 184.353 46.76 184.353 49.08C184.353 50.8667 184.02 52.36 183.353 53.56C182.687 54.7867 181.74 55.8533 180.513 56.76C179.633 57.3733 178.633 57.8667 177.513 58.24C176.42 58.6133 175.153 58.8667 173.713 59C172.273 59.16 170.593 59.24 168.673 59.24H164.153C163.033 59.24 162.167 59.32 161.553 59.48C160.94 59.64 160.407 59.8667 159.953 60.16C159.527 60.4533 159.193 60.8667 158.953 61.4C158.713 61.9333 158.593 62.64 158.593 63.52C158.593 63.92 158.607 64.2933 158.633 64.64C158.66 65.0133 158.687 65.36 158.713 65.68L155.433 65.84C155.353 65.36 155.287 64.8267 155.233 64.24C155.18 63.68 155.153 63.1733 155.153 62.72C155.153 61.5467 155.367 60.5467 155.793 59.72C156.22 58.92 156.767 58.2667 157.433 57.76C157.913 57.4133 158.407 57.1333 158.913 56.92C159.447 56.7333 160.047 56.5867 160.713 56.48C161.407 56.4 162.193 56.36 163.073 56.36H167.433C169.807 56.36 171.753 56.2533 173.273 56.04C174.793 55.8533 176.02 55.5467 176.953 55.12C177.887 54.72 178.66 54.1867 179.273 53.52C179.807 52.9333 180.207 52.2533 180.473 51.48C180.767 50.68 180.913 49.7867 180.913 48.8C180.913 47.4933 180.647 46.44 180.113 45.64C179.607 44.84 178.913 44.2267 178.033 43.8C177.18 43.3733 176.22 43.08 175.153 42.92C174.113 42.76 173.047 42.68 171.953 42.68H166.273C164.913 42.68 163.753 42.76 162.793 42.92C161.86 43.08 161.06 43.3467 160.393 43.72C159.807 44.0667 159.367 44.4933 159.073 45C158.807 45.48 158.673 46.1067 158.673 46.88C158.673 48.1067 159.18 49.04 160.193 49.68C161.207 50.2933 162.487 50.6 164.033 50.6C165.207 50.6 166.207 50.4267 167.033 50.08C167.887 49.7067 168.54 49.08 168.993 48.2C169.473 47.2933 169.713 46.0533 169.713 44.48V33.72H162.833V40.92L159.673 41.56V30.84H180.593V33.72H173.113V43.96C173.113 45.7467 172.953 47.1467 172.633 48.16C172.34 49.1733 171.913 50.0267 171.353 50.72C170.527 51.7333 169.46 52.4533 168.153 52.88C166.873 53.28 165.393 53.48 163.713 53.48ZM170.673 25.88C169.9 25.88 169.26 25.64 168.753 25.16C168.247 24.6533 167.993 24 167.993 23.2C167.993 22.4267 168.247 21.7867 168.753 21.28C169.26 20.7733 169.9 20.52 170.673 20.52C171.447 20.52 172.087 20.7733 172.593 21.28C173.1 21.7867 173.353 22.4267 173.353 23.2C173.353 24 173.1 24.6533 172.593 25.16C172.087 25.64 171.447 25.88 170.673 25.88ZM196.721 53.48C195.121 53.48 193.681 53.2267 192.401 52.72C191.121 52.2133 190.108 51.4667 189.361 50.48C188.615 49.4933 188.241 48.3067 188.241 46.92C188.241 45.48 188.615 44.24 189.361 43.2C190.135 42.1333 191.348 41.32 193.001 40.76C194.655 40.1733 196.841 39.88 199.561 39.88H205.361C207.681 39.88 209.748 40.1733 211.561 40.76C213.375 41.32 214.788 42.2667 215.801 43.6C216.841 44.9333 217.361 46.76 217.361 49.08C217.361 50.8667 217.028 52.36 216.361 53.56C215.695 54.7867 214.748 55.8533 213.521 56.76C212.641 57.3733 211.641 57.8667 210.521 58.24C209.428 58.6133 208.161 58.8667 206.721 59C205.281 59.16 203.601 59.24 201.681 59.24H197.161C196.041 59.24 195.175 59.32 194.561 59.48C193.948 59.64 193.415 59.8667 192.961 60.16C192.535 60.4533 192.201 60.8667 191.961 61.4C191.721 61.9333 191.601 62.64 191.601 63.52C191.601 63.92 191.615 64.2933 191.641 64.64C191.668 65.0133 191.695 65.36 191.721 65.68L188.441 65.84C188.361 65.36 188.295 64.8267 188.241 64.24C188.188 63.68 188.161 63.1733 188.161 62.72C188.161 61.5467 188.375 60.5467 188.801 59.72C189.228 58.92 189.775 58.2667 190.441 57.76C190.921 57.4133 191.415 57.1333 191.921 56.92C192.455 56.7333 193.055 56.5867 193.721 56.48C194.415 56.4 195.201 56.36 196.081 56.36H200.441C202.815 56.36 204.761 56.2533 206.281 56.04C207.801 55.8533 209.028 55.5467 209.961 55.12C210.895 54.72 211.668 54.1867 212.281 53.52C212.815 52.9333 213.215 52.2533 213.481 51.48C213.775 50.68 213.921 49.7867 213.921 48.8C213.921 47.4933 213.655 46.44 213.121 45.64C212.615 44.84 211.921 44.2267 211.041 43.8C210.188 43.3733 209.228 43.08 208.161 42.92C207.121 42.76 206.055 42.68 204.961 42.68H199.281C197.921 42.68 196.761 42.76 195.801 42.92C194.868 43.08 194.068 43.3467 193.401 43.72C192.815 44.0667 192.375 44.4933 192.081 45C191.815 45.48 191.681 46.1067 191.681 46.88C191.681 48.1067 192.188 49.04 193.201 49.68C194.215 50.2933 195.495 50.6 197.041 50.6C198.215 50.6 199.215 50.4267 200.041 50.08C200.895 49.7067 201.548 49.08 202.001 48.2C202.481 47.2933 202.721 46.0533 202.721 44.48V33.72H195.841V40.92L192.681 41.56V30.84H213.601V33.72H206.121V43.96C206.121 45.7467 205.961 47.1467 205.641 48.16C205.348 49.1733 204.921 50.0267 204.361 50.72C203.535 51.7333 202.468 52.4533 201.161 52.88C199.881 53.28 198.401 53.48 196.721 53.48ZM228.529 61.48L226.249 59.36L233.969 52.04V33.72H226.249V53H222.809V30.84H244.209V33.72H237.409V53L228.529 61.48Z" fill="white"/>
</svg>
