<svg width="266" height="54" viewBox="0 0 266 54" fill="none" xmlns="http://www.w3.org/2000/svg">
<rect width="266" height="54" rx="10" fill="#FDD835"/>
<path d="M80.1083 29.184L88.3643 14.368H91.1483V36H87.9483V21.504L81.0683 33.216H78.8923L72.0443 21.376V36H68.8443V14.368H71.6923L79.9803 29.184H80.1083ZM101.661 36C100.147 36 99.0586 35.648 98.3973 34.944C97.7359 34.24 97.4053 33.1627 97.4053 31.712V14.368H111.837L110.845 17.248H100.733V24.064H109.597L109.469 26.912H100.733V30.912C100.733 31.4453 100.787 31.8613 100.893 32.16C101.021 32.4587 101.224 32.6827 101.501 32.832C101.779 32.96 102.131 33.0453 102.557 33.088C103.005 33.1093 103.539 33.12 104.157 33.12H111.869L110.877 36H101.661ZM124.777 14.368C126.654 14.368 128.318 14.5707 129.769 14.976C131.241 15.3813 132.478 16.0107 133.481 16.864C134.483 17.7173 135.251 18.816 135.785 20.16C136.318 21.4827 136.585 23.0613 136.585 24.896C136.585 26.6027 136.35 28.1493 135.881 29.536C135.411 30.9013 134.675 32.064 133.673 33.024C132.691 33.984 131.443 34.72 129.929 35.232C128.414 35.744 126.611 36 124.521 36H117.001V14.368H124.777ZM133.128 24.864C133.128 22.112 132.425 20.16 131.017 19.008C129.609 17.8347 127.475 17.248 124.617 17.248H120.329V33.12H124.969C127.763 33.12 129.822 32.416 131.145 31.008C132.467 29.5787 133.128 27.5307 133.128 24.864ZM145.299 36H141.971V14.368H145.299V36ZM160.296 36.32C157.501 36.32 155.336 35.6373 153.8 34.272C152.264 32.9067 151.496 30.8053 151.496 27.968V14.368H154.824V27.84C154.824 29.6533 155.272 31.04 156.168 32C157.085 32.96 158.461 33.44 160.296 33.44C162.109 33.44 163.464 32.96 164.36 32C165.277 31.04 165.736 29.6533 165.736 27.84V14.368H169.064V27.968C169.064 30.8053 168.296 32.9067 166.76 34.272C165.224 35.6373 163.069 36.32 160.296 36.32ZM186.171 29.184L194.427 14.368H197.211V36H194.011V21.504L187.131 33.216H184.955L178.107 21.376V36H174.907V14.368H177.755L186.043 29.184H186.171Z" fill="white"/>
</svg>
