<svg width="326" height="84" viewBox="0 0 326 84" fill="none" xmlns="http://www.w3.org/2000/svg">
<rect width="326" height="84" rx="10" fill="#FF0000"/>
<path d="M75.8814 53.48C74.2814 53.48 72.8414 53.2267 71.5614 52.72C70.2814 52.2133 69.2681 51.4667 68.5214 50.48C67.7747 49.4933 67.4014 48.3067 67.4014 46.92C67.4014 45.48 67.7747 44.24 68.5214 43.2C69.2947 42.1333 70.5081 41.32 72.1614 40.76C73.8147 40.1733 76.0014 39.88 78.7214 39.88H84.5214C86.8414 39.88 88.9081 40.1733 90.7214 40.76C92.5347 41.32 93.9481 42.2667 94.9614 43.6C96.0014 44.9333 96.5214 46.76 96.5214 49.08C96.5214 50.8667 96.1881 52.36 95.5214 53.56C94.8547 54.7867 93.9081 55.8533 92.6814 56.76C91.8014 57.3733 90.8014 57.8667 89.6814 58.24C88.5881 58.6133 87.3214 58.8667 85.8814 59C84.4414 59.16 82.7614 59.24 80.8414 59.24H76.3214C75.2014 59.24 74.3347 59.32 73.7214 59.48C73.1081 59.64 72.5747 59.8667 72.1214 60.16C71.6947 60.4533 71.3614 60.8667 71.1214 61.4C70.8814 61.9333 70.7614 62.64 70.7614 63.52C70.7614 63.92 70.7747 64.2933 70.8014 64.64C70.8281 65.0133 70.8547 65.36 70.8814 65.68L67.6014 65.84C67.5214 65.36 67.4547 64.8267 67.4014 64.24C67.3481 63.68 67.3214 63.1733 67.3214 62.72C67.3214 61.5467 67.5347 60.5467 67.9614 59.72C68.3881 58.92 68.9347 58.2667 69.6014 57.76C70.0814 57.4133 70.5747 57.1333 71.0814 56.92C71.6147 56.7333 72.2147 56.5867 72.8814 56.48C73.5747 56.4 74.3614 56.36 75.2414 56.36H79.6014C81.9747 56.36 83.9214 56.2533 85.4414 56.04C86.9614 55.8533 88.1881 55.5467 89.1214 55.12C90.0547 54.72 90.8281 54.1867 91.4414 53.52C91.9747 52.9333 92.3747 52.2533 92.6414 51.48C92.9347 50.68 93.0814 49.7867 93.0814 48.8C93.0814 47.4933 92.8147 46.44 92.2814 45.64C91.7747 44.84 91.0814 44.2267 90.2014 43.8C89.3481 43.3733 88.3881 43.08 87.3214 42.92C86.2814 42.76 85.2147 42.68 84.1214 42.68H78.4414C77.0814 42.68 75.9214 42.76 74.9614 42.92C74.0281 43.08 73.2281 43.3467 72.5614 43.72C71.9747 44.0667 71.5347 44.4933 71.2414 45C70.9747 45.48 70.8414 46.1067 70.8414 46.88C70.8414 48.1067 71.3481 49.04 72.3614 49.68C73.3747 50.2933 74.6547 50.6 76.2014 50.6C77.3747 50.6 78.3747 50.4267 79.2014 50.08C80.0547 49.7067 80.7081 49.08 81.1614 48.2C81.6414 47.2933 81.8814 46.0533 81.8814 44.48V33.72H75.0014V40.92L71.8414 41.56V30.84H92.7614V33.72H85.2814V43.96C85.2814 45.7467 85.1214 47.1467 84.8014 48.16C84.5081 49.1733 84.0814 50.0267 83.5214 50.72C82.6947 51.7333 81.6281 52.4533 80.3214 52.88C79.0414 53.28 77.5614 53.48 75.8814 53.48ZM121.249 30.36C123.276 30.36 124.983 30.8667 126.369 31.88C127.783 32.8933 128.849 34.36 129.569 36.28C130.289 38.1733 130.649 40.4933 130.649 43.24C130.649 46.4933 130.236 49.16 129.409 51.24C128.583 53.2933 127.463 54.9067 126.049 56.08C125.036 56.9067 123.889 57.5467 122.609 58C121.329 58.48 119.956 58.8 118.489 58.96C117.049 59.1467 115.543 59.24 113.969 59.24H109.249C108.129 59.24 107.263 59.32 106.649 59.48C106.036 59.64 105.503 59.8667 105.049 60.16C104.623 60.4533 104.289 60.8667 104.049 61.4C103.809 61.9333 103.689 62.64 103.689 63.52C103.689 63.92 103.703 64.2933 103.729 64.64C103.756 65.0133 103.783 65.36 103.809 65.68L100.529 65.84C100.449 65.36 100.383 64.8267 100.329 64.24C100.276 63.68 100.249 63.1733 100.249 62.72C100.249 61.5467 100.463 60.5467 100.889 59.72C101.316 58.92 101.863 58.2667 102.529 57.76C103.009 57.4133 103.503 57.1333 104.009 56.92C104.543 56.7333 105.143 56.5867 105.809 56.48C106.503 56.4 107.289 56.36 108.169 56.36H113.089C115.569 56.36 117.689 56.1733 119.449 55.8C121.209 55.4533 122.649 54.8133 123.769 53.88C124.916 52.9467 125.756 51.6133 126.289 49.88C126.823 48.12 127.089 45.8667 127.089 43.12C127.089 40.6933 126.823 38.76 126.289 37.32C125.783 35.88 125.063 34.84 124.129 34.2C123.223 33.56 122.169 33.24 120.969 33.24C120.276 33.24 119.623 33.36 119.009 33.6C118.396 33.8133 117.863 34.1733 117.409 34.68C116.876 35.2933 116.503 36.0133 116.289 36.84C116.076 37.6667 115.969 38.8 115.969 40.24V53H112.529V40.16C112.529 38.8533 112.463 37.7467 112.329 36.84C112.196 35.9067 111.929 35.1467 111.529 34.56C111.263 34.16 110.916 33.84 110.489 33.6C110.063 33.36 109.543 33.24 108.929 33.24C108.316 33.24 107.796 33.36 107.369 33.6C106.969 33.8133 106.623 34.1067 106.329 34.48C105.903 35.0667 105.623 35.8267 105.489 36.76C105.383 37.6933 105.329 38.7467 105.329 39.92V53H101.889V39.36C101.889 38.0533 101.943 36.96 102.049 36.08C102.183 35.2 102.409 34.44 102.729 33.8C103.049 33.16 103.476 32.5733 104.009 32.04C104.569 31.48 105.236 31.0667 106.009 30.8C106.783 30.5067 107.663 30.36 108.649 30.36C109.689 30.36 110.609 30.5467 111.409 30.92C112.209 31.2933 112.903 31.8533 113.489 32.6C114.076 33.32 114.543 34.2133 114.889 35.28L114.049 35C114.343 34.12 114.796 33.3333 115.409 32.64C116.049 31.92 116.849 31.36 117.809 30.96C118.796 30.56 119.943 30.36 121.249 30.36ZM115.809 25.88C115.036 25.88 114.396 25.64 113.889 25.16C113.383 24.6533 113.129 24 113.129 23.2C113.129 22.4267 113.383 21.7867 113.889 21.28C114.396 20.7733 115.036 20.52 115.809 20.52C116.583 20.52 117.223 20.7733 117.729 21.28C118.236 21.7867 118.489 22.4267 118.489 23.2C118.489 24 118.236 24.6533 117.729 25.16C117.223 25.64 116.583 25.88 115.809 25.88ZM151.255 53.48C149.095 53.48 147.055 53.12 145.135 52.4C143.242 51.6533 141.562 50.56 140.095 49.12C138.655 47.68 137.522 45.8933 136.695 43.76C135.868 41.6267 135.455 39.1733 135.455 36.4C135.455 33.6267 135.882 31.1733 136.735 29.04C137.615 26.9067 138.815 25.12 140.335 23.68C141.882 22.2133 143.668 21.12 145.695 20.4C147.722 19.6533 149.895 19.28 152.215 19.28C153.815 19.28 155.268 19.52 156.575 20C157.908 20.48 158.962 21.24 159.735 22.28C160.535 23.2933 160.935 24.64 160.935 26.32C160.935 27.7067 160.642 28.8933 160.055 29.88C159.468 30.84 158.668 31.5733 157.655 32.08C156.642 32.5867 155.482 32.84 154.175 32.84C152.815 32.84 151.655 32.5867 150.695 32.08C149.735 31.5467 149.002 30.8267 148.495 29.92C147.988 28.9867 147.735 27.9333 147.735 26.76C147.735 25.5867 147.988 24.5333 148.495 23.6C149.002 22.6667 149.602 21.9067 150.295 21.32L152.575 22.04C151.988 22.7067 151.562 23.4 151.295 24.12C151.055 24.84 150.935 25.6 150.935 26.4C150.935 27.6 151.242 28.5067 151.855 29.12C152.468 29.7333 153.268 30.04 154.255 30.04C155.348 30.04 156.188 29.6933 156.775 29C157.388 28.28 157.695 27.3867 157.695 26.32C157.695 25.36 157.455 24.5733 156.975 23.96C156.522 23.3467 155.895 22.8933 155.095 22.6C154.322 22.28 153.442 22.12 152.455 22.12C152.162 22.12 151.815 22.12 151.415 22.12C151.015 22.12 150.602 22.1467 150.175 22.2C148.655 22.44 147.215 22.9067 145.855 23.6C144.522 24.2667 143.322 25.1867 142.255 26.36C141.215 27.5333 140.388 28.9467 139.775 30.6C139.188 32.2267 138.895 34.12 138.895 36.28C138.895 38.3867 139.162 40.2667 139.695 41.92C140.228 43.5467 140.962 44.96 141.895 46.16C142.855 47.3333 143.948 48.28 145.175 49C146.428 49.6933 147.775 50.1867 149.215 50.48C149.668 50.5867 150.122 50.6533 150.575 50.68C151.028 50.68 151.428 50.68 151.775 50.68C152.842 50.68 153.775 50.52 154.575 50.2C155.375 49.8533 156.002 49.3467 156.455 48.68C156.908 47.9867 157.135 47.12 157.135 46.08C157.135 44.9067 156.842 43.9333 156.255 43.16C155.695 42.36 154.815 41.96 153.615 41.96C152.575 41.96 151.708 42.32 151.015 43.04C150.348 43.7333 150.015 44.7733 150.015 46.16C150.015 47.12 150.175 48.04 150.495 48.92C150.815 49.8 151.295 50.5867 151.935 51.28L149.455 51.92C148.735 51.2267 148.108 50.3733 147.575 49.36C147.068 48.32 146.815 47.0667 146.815 45.6C146.815 44.3733 147.082 43.28 147.615 42.32C148.148 41.3333 148.922 40.56 149.935 40C150.948 39.44 152.175 39.16 153.615 39.16C154.922 39.16 156.082 39.4267 157.095 39.96C158.108 40.4933 158.908 41.28 159.495 42.32C160.082 43.3333 160.375 44.5867 160.375 46.08C160.375 47.8133 159.975 49.2267 159.175 50.32C158.375 51.4133 157.282 52.2133 155.895 52.72C154.535 53.2267 152.988 53.48 151.255 53.48ZM165.524 53V30.84H168.964V50.12H186.164V30.84H189.604V53H165.524ZM196.657 53V30.84H218.057V33.72H211.257V53H207.817V33.72H200.097V53H196.657ZM227.366 53.48C225.766 53.48 224.326 53.2267 223.046 52.72C221.766 52.2133 220.752 51.4667 220.006 50.48C219.259 49.4933 218.886 48.2933 218.886 46.88C218.886 45.4667 219.259 44.24 220.006 43.2C220.779 42.1333 221.992 41.32 223.646 40.76C225.299 40.1733 227.486 39.88 230.206 39.88H236.366C238.152 39.88 239.752 40.12 241.166 40.6C242.606 41.0533 243.832 41.7467 244.846 42.68C245.859 43.5867 246.632 44.72 247.166 46.08C247.699 47.4133 247.966 48.9467 247.966 50.68C247.966 51.8 247.846 52.8533 247.606 53.84C247.366 54.8533 247.032 55.7733 246.606 56.6L245.606 59.04C244.592 60.5067 243.312 61.7467 241.766 62.76C240.219 63.7733 238.419 64.5333 236.366 65.04C234.312 65.5733 232.006 65.84 229.446 65.84H228.926C227.059 65.84 225.326 65.6267 223.726 65.2C222.126 64.8 220.846 64.1467 219.886 63.24C218.926 62.3333 218.446 61.1467 218.446 59.68C218.446 59.0933 218.552 58.5867 218.766 58.16C218.979 57.7333 219.286 57.3867 219.686 57.12C220.059 56.8533 220.499 56.6533 221.006 56.52C221.512 56.4133 222.339 56.36 223.486 56.36H254.326V59.24H244.366H241.726H223.166C222.846 59.24 222.526 59.28 222.206 59.36C221.912 59.4667 221.766 59.7467 221.766 60.2C221.766 60.9733 222.339 61.6133 223.486 62.12C224.659 62.6533 226.432 62.92 228.806 62.92H229.326C231.272 62.92 233.006 62.7733 234.526 62.48C236.046 62.1867 237.392 61.7467 238.566 61.16C239.739 60.6 240.752 59.9067 241.606 59.08L243.006 56.6C243.326 56.04 243.579 55.4533 243.766 54.84C243.979 54.2267 244.139 53.5867 244.246 52.92C244.352 52.2533 244.406 51.5467 244.406 50.8C244.406 48.9333 244.059 47.4 243.366 46.2C242.672 45 241.672 44.12 240.366 43.56C239.086 42.9733 237.566 42.68 235.806 42.68H229.926C228.566 42.68 227.406 42.76 226.446 42.92C225.512 43.08 224.712 43.3467 224.046 43.72C223.459 44.0667 223.019 44.4933 222.726 45C222.459 45.48 222.326 46.1067 222.326 46.88C222.326 48.1067 222.832 49.04 223.846 49.68C224.859 50.2933 226.139 50.6 227.686 50.6C228.859 50.6 229.859 50.4267 230.686 50.08C231.539 49.7067 232.192 49.08 232.646 48.2C233.126 47.2933 233.366 46.0533 233.366 44.48V33.72H226.486V40.92L223.326 41.56V30.84H244.246V33.72H236.766V43.96C236.766 45.7467 236.606 47.1467 236.286 48.16C235.992 49.1733 235.566 50.0267 235.006 50.72C234.179 51.7333 233.112 52.4533 231.806 52.88C230.526 53.28 229.046 53.48 227.366 53.48ZM253.606 59.24V30.84H257.046V59.24H253.606Z" fill="white"/>
</svg>
