<svg width="326" height="84" viewBox="0 0 326 84" fill="none" xmlns="http://www.w3.org/2000/svg">
<rect width="326" height="84" rx="10" fill="#FF0000"/>
<path d="M123.274 25.32V28H118.074C119.008 29.0133 119.474 30.2533 119.474 31.72C119.474 34.5733 118.088 36.3867 115.314 37.16C116.781 37.2933 118.061 37.8933 119.154 38.96C120.274 40.0267 120.834 41.4267 120.834 43.16C120.834 45.2933 120.061 47.0133 118.514 48.32C116.968 49.6 114.781 50.24 111.954 50.24C110.114 50.24 108.274 49.8933 106.434 49.2V46.32C108.141 47.1467 109.901 47.56 111.714 47.56C113.528 47.56 114.968 47.1867 116.034 46.44C117.128 45.6667 117.674 44.5067 117.674 42.96C117.674 41.5733 117.114 40.4933 115.994 39.72C114.874 38.9467 113.381 38.56 111.514 38.56H109.674V35.84H111.514C114.714 35.84 116.314 34.4667 116.314 31.72C116.314 30.2533 115.754 29.0133 114.634 28H104.354V25.32H123.274ZM137.584 35.72V28H128.224V36.04C128.224 37.9333 128.57 39.3067 129.264 40.16C129.957 40.9867 131.024 41.4 132.464 41.4C133.877 41.4 135.077 40.8933 136.064 39.88C137.077 38.84 137.584 37.4533 137.584 35.72ZM145.344 25.32V28H140.744V51H137.584V41.48C136.357 43.1067 134.584 43.9333 132.264 43.96C127.464 43.96 125.064 41.3067 125.064 36V28H121.464V25.32H145.344ZM156.813 15.12C164.12 15.12 170.48 15.4933 175.893 16.24C181.306 16.96 186.52 18.0133 191.533 19.4V22.44C181.8 19.4267 170.253 17.92 156.893 17.92C153.186 17.92 151.333 19.3867 151.333 22.32V25.32H155.933V28H151.333V51H148.213V28H143.573V25.32H148.213V22.24C148.213 20.0533 148.973 18.32 150.493 17.04C152.013 15.76 154.12 15.12 156.813 15.12ZM189.398 25.32H197.078V28H192.518V51H189.398V42.8C188.891 43.76 187.931 44.6533 186.518 45.48C185.131 46.28 183.558 46.68 181.798 46.68C179.638 46.68 177.705 46.1333 175.998 45.04C174.291 43.92 173.091 42.24 172.398 40C171.065 40.2667 169.451 40.4 167.558 40.4H166.918C163.958 40.4 161.691 40.28 160.118 40.04L167.478 51H163.678L156.198 39.72V37.24H158.838C160.358 37.24 161.385 36.9467 161.918 36.36C162.478 35.7467 162.758 34.7867 162.758 33.48V28H154.198V25.32H171.118V28H165.878V33.72C165.878 35.4 165.518 36.72 164.798 37.68H167.518C168.985 37.68 170.518 37.5467 172.118 37.28C173.745 37.0133 175.318 36.6133 176.838 36.08C178.358 35.5467 179.611 34.8267 180.598 33.92C181.585 32.9867 182.078 31.9333 182.078 30.76C182.078 29.8533 181.851 29.12 181.398 28.56C180.971 28 180.305 27.72 179.398 27.72C178.518 27.72 177.851 27.9867 177.398 28.52C176.945 29.0267 176.718 29.68 176.718 30.48C176.718 31.3067 176.891 32.0533 177.238 32.72H174.158C173.811 32 173.638 31.1467 173.638 30.16C173.638 28.7733 174.171 27.5867 175.238 26.6C176.305 25.5867 177.691 25.08 179.398 25.08C181.185 25.08 182.585 25.6267 183.598 26.72C184.611 27.7867 185.118 29.12 185.118 30.72C185.118 34.88 181.905 37.7067 175.478 39.2C175.878 40.7467 176.625 41.9333 177.718 42.76C178.838 43.5867 180.238 44 181.918 44C183.971 44 185.731 43.3333 187.198 42C188.665 40.6667 189.398 38.7467 189.398 36.24V25.32ZM220.689 25.32V28H216.049V51H212.929V35.64H209.129C204.409 35.64 202.049 37.72 202.049 41.88C202.049 43.8533 202.529 45.4133 203.489 46.56C204.476 47.7067 205.916 48.28 207.809 48.28C208.262 48.28 208.569 48.2667 208.729 48.24V50.92C208.302 50.9733 207.902 51 207.529 51C204.862 51 202.756 50.1467 201.209 48.44C199.662 46.7333 198.889 44.5333 198.889 41.84C198.889 39.1733 199.729 37.0267 201.409 35.4C203.089 33.7467 205.542 32.92 208.769 32.92H212.929V28H195.409V25.32H220.689Z" fill="white"/>
</svg>
