<svg width="266" height="54" viewBox="0 0 266 54" fill="none" xmlns="http://www.w3.org/2000/svg">
<rect width="266" height="54" rx="10" fill="#FF0000"/>
<path d="M79.6321 21.152C79.6321 22.1333 79.4935 23.072 79.2161 23.968C78.9388 24.864 78.4908 25.6533 77.8721 26.336C77.2535 27.0187 76.4428 27.5627 75.4401 27.968C74.4375 28.3733 73.2108 28.576 71.7601 28.576H67.3441V36H64.0161V14.368H71.6001C74.1175 14.368 76.0801 14.9013 77.4881 15.968C78.9175 17.0347 79.6321 18.7627 79.6321 21.152ZM71.5041 25.696C73.1255 25.696 74.3095 25.344 75.0561 24.64C75.8241 23.9147 76.2081 22.8373 76.2081 21.408C76.2081 19.9147 75.8135 18.848 75.0241 18.208C74.2561 17.568 73.1148 17.248 71.6001 17.248H67.3441V25.696H71.5041ZM91.9484 25.088C93.4844 25.088 94.6257 24.7253 95.3724 24C96.119 23.2747 96.4924 22.272 96.4924 20.992C96.4924 19.6267 96.0764 18.6667 95.2444 18.112C94.4337 17.536 93.3244 17.248 91.9164 17.248H87.5004V25.088H91.9484ZM98.5724 36C97.7617 36 97.143 35.8827 96.7164 35.648C96.311 35.392 95.927 34.9973 95.5644 34.464L91.5644 28.544C91.3937 28.3093 91.223 28.1493 91.0524 28.064C90.8817 27.9787 90.6044 27.936 90.2204 27.936H87.5004V36H84.1724V14.368H92.0444C93.2604 14.368 94.3484 14.496 95.3084 14.752C96.2684 14.9867 97.0897 15.3707 97.7724 15.904C98.455 16.4373 98.9777 17.1093 99.3404 17.92C99.703 18.7307 99.8844 19.7013 99.8844 20.832C99.8844 22.4747 99.4684 23.8933 98.6364 25.088C97.8044 26.2827 96.4924 27.072 94.7004 27.456L97.9004 32.16C98.0284 32.352 98.1457 32.512 98.2524 32.64C98.359 32.768 98.4764 32.8747 98.6044 32.96C98.7324 33.024 98.8817 33.0667 99.0524 33.088C99.223 33.1093 99.4364 33.12 99.6924 33.12H101.356L100.556 36H98.5724ZM110.396 36C108.881 36 107.793 35.648 107.132 34.944C106.47 34.24 106.14 33.1627 106.14 31.712V14.368H120.572L119.58 17.248H109.468V24.064H118.332L118.204 26.912H109.468V30.912C109.468 31.4453 109.521 31.8613 109.628 32.16C109.756 32.4587 109.958 32.6827 110.236 32.832C110.513 32.96 110.865 33.0453 111.292 33.088C111.74 33.1093 112.273 33.12 112.892 33.12H120.604L119.612 36H110.396ZM131.086 33.472C132.729 33.472 133.945 33.1413 134.734 32.48C135.524 31.8187 135.918 30.976 135.918 29.952C135.918 29.376 135.801 28.9067 135.566 28.544C135.332 28.16 135.001 27.84 134.574 27.584C134.148 27.3067 133.636 27.072 133.038 26.88C132.441 26.6667 131.78 26.4533 131.054 26.24C130.35 26.0267 129.625 25.792 128.878 25.536C128.132 25.2587 127.449 24.896 126.83 24.448C126.233 24 125.732 23.4347 125.326 22.752C124.942 22.048 124.75 21.1627 124.75 20.096C124.75 19.072 124.942 18.176 125.326 17.408C125.732 16.64 126.276 16.0107 126.958 15.52C127.641 15.0293 128.452 14.6667 129.39 14.432C130.35 14.176 131.385 14.048 132.494 14.048C133.54 14.048 134.532 14.144 135.47 14.336C136.409 14.5067 137.326 14.7093 138.222 14.944L137.998 17.856C137.038 17.5573 136.1 17.3227 135.182 17.152C134.265 16.9813 133.39 16.896 132.558 16.896C131.086 16.896 129.988 17.152 129.262 17.664C128.558 18.176 128.206 18.912 128.206 19.872C128.206 20.4053 128.302 20.8533 128.494 21.216C128.708 21.5573 129.006 21.856 129.39 22.112C129.774 22.368 130.244 22.592 130.798 22.784C131.374 22.976 132.025 23.1787 132.75 23.392C133.625 23.648 134.457 23.9253 135.246 24.224C136.057 24.5013 136.761 24.864 137.358 25.312C137.977 25.76 138.468 26.3253 138.83 27.008C139.193 27.6907 139.374 28.5547 139.374 29.6C139.374 30.7093 139.172 31.68 138.766 32.512C138.361 33.344 137.796 34.048 137.07 34.624C136.345 35.1787 135.481 35.6053 134.478 35.904C133.476 36.1813 132.388 36.32 131.214 36.32C130.02 36.32 128.804 36.192 127.566 35.936C126.329 35.6587 125.209 35.2853 124.206 34.816L124.59 31.776C125.614 32.3093 126.681 32.7253 127.79 33.024C128.9 33.3227 129.998 33.472 131.086 33.472ZM148.552 36C147.037 36 145.949 35.648 145.288 34.944C144.627 34.24 144.296 33.1627 144.296 31.712V14.368H158.728L157.736 17.248H147.624V24.064H156.488L156.36 26.912H147.624V30.912C147.624 31.4453 147.677 31.8613 147.784 32.16C147.912 32.4587 148.115 32.6827 148.392 32.832C148.669 32.96 149.021 33.0453 149.448 33.088C149.896 33.1093 150.429 33.12 151.048 33.12H158.76L157.768 36H148.552ZM181.971 36H179.667L167.027 20V36H163.891V14.368H166.419L178.835 29.984V14.368H181.971V36ZM203.529 17.248H196.681V36H193.353V17.248H186.057V14.368H204.521L203.529 17.248Z" fill="white"/>
</svg>
