<svg width="326" height="84" viewBox="0 0 326 84" fill="none" xmlns="http://www.w3.org/2000/svg">
<rect width="326" height="84" rx="10" fill="#FF0000"/>
<path d="M110.204 35.44C110.204 36.6667 110.031 37.84 109.684 38.96C109.338 40.08 108.778 41.0667 108.004 41.92C107.231 42.7733 106.218 43.4533 104.964 43.96C103.711 44.4667 102.178 44.72 100.364 44.72H94.8442V54H90.6842V26.96H100.164C103.311 26.96 105.764 27.6267 107.524 28.96C109.311 30.2933 110.204 32.4533 110.204 35.44ZM100.044 41.12C102.071 41.12 103.551 40.68 104.484 39.8C105.444 38.8933 105.924 37.5467 105.924 35.76C105.924 33.8933 105.431 32.56 104.444 31.76C103.484 30.96 102.058 30.56 100.164 30.56H94.8442V41.12H100.044ZM119.48 36.04C120.386 35.1867 121.466 34.4667 122.72 33.88C124 33.2667 125.4 32.8933 126.92 32.76L126.6 36.8C125.32 36.9067 124.08 37.16 122.88 37.56C121.706 37.96 120.64 38.5067 119.68 39.2V54H115.56V33.12H119.2L119.48 36.04ZM140.863 54.4C137.369 54.4 134.676 53.4933 132.783 51.68C130.916 49.8667 129.983 47.2533 129.983 43.84C129.983 42.2133 130.209 40.72 130.663 39.36C131.116 38 131.783 36.8267 132.663 35.84C133.543 34.8533 134.623 34.0933 135.903 33.56C137.183 33.0267 138.636 32.76 140.263 32.76C141.809 32.76 143.143 33 144.263 33.48C145.383 33.96 146.303 34.64 147.023 35.52C147.743 36.3733 148.276 37.3867 148.623 38.56C148.969 39.7067 149.143 40.96 149.143 42.32C149.143 42.7733 149.116 43.2267 149.063 43.68C149.036 44.1333 148.996 44.5467 148.943 44.92H134.263C134.343 46.7867 134.943 48.2667 136.063 49.36C137.209 50.4533 138.956 51 141.303 51C142.263 51 143.303 50.9067 144.423 50.72C145.543 50.5333 146.529 50.2933 147.383 50L147.823 53.16C146.809 53.5333 145.703 53.8267 144.503 54.04C143.329 54.28 142.116 54.4 140.863 54.4ZM140.063 35.92C138.276 35.92 136.889 36.48 135.903 37.6C134.916 38.6933 134.383 40.12 134.303 41.88H145.023V41.44C145.023 40.88 144.956 40.28 144.823 39.64C144.689 39 144.436 38.4133 144.063 37.88C143.716 37.32 143.223 36.8533 142.583 36.48C141.943 36.1067 141.103 35.92 140.063 35.92ZM160.612 51C162.132 51 163.225 50.7467 163.892 50.24C164.585 49.7333 164.932 49.08 164.932 48.28C164.932 47.8 164.825 47.4 164.612 47.08C164.398 46.76 164.092 46.48 163.692 46.24C163.292 46 162.812 45.7867 162.252 45.6C161.718 45.3867 161.132 45.16 160.492 44.92C159.825 44.68 159.118 44.4 158.372 44.08C157.652 43.76 156.985 43.36 156.372 42.88C155.758 42.4 155.252 41.8133 154.852 41.12C154.452 40.4267 154.252 39.5733 154.252 38.56C154.252 37.5733 154.452 36.72 154.852 36C155.278 35.2533 155.852 34.64 156.572 34.16C157.292 33.68 158.132 33.3333 159.092 33.12C160.078 32.88 161.118 32.76 162.212 32.76C163.198 32.76 164.172 32.84 165.132 33C166.118 33.16 167.038 33.3733 167.892 33.64L167.532 37C166.758 36.7067 165.945 36.48 165.092 36.32C164.265 36.16 163.385 36.08 162.452 36.08C161.172 36.08 160.172 36.2667 159.452 36.64C158.732 36.9867 158.372 37.5867 158.372 38.44C158.372 39.2933 158.758 39.9333 159.532 40.36C160.332 40.7867 161.438 41.2267 162.852 41.68C163.838 42 164.705 42.3467 165.452 42.72C166.225 43.0667 166.865 43.48 167.372 43.96C167.905 44.4133 168.305 44.96 168.572 45.6C168.838 46.2133 168.972 46.96 168.972 47.84C168.972 48.96 168.758 49.9333 168.332 50.76C167.905 51.5867 167.318 52.2667 166.572 52.8C165.825 53.3333 164.945 53.7333 163.932 54C162.918 54.2667 161.838 54.4 160.692 54.4C159.545 54.4 158.358 54.28 157.132 54.04C155.932 53.8 154.838 53.48 153.852 53.08L154.212 49.52C155.145 49.9733 156.172 50.3333 157.292 50.6C158.412 50.8667 159.518 51 160.612 51ZM184.261 54.4C180.768 54.4 178.074 53.4933 176.181 51.68C174.314 49.8667 173.381 47.2533 173.381 43.84C173.381 42.2133 173.608 40.72 174.061 39.36C174.514 38 175.181 36.8267 176.061 35.84C176.941 34.8533 178.021 34.0933 179.301 33.56C180.581 33.0267 182.034 32.76 183.661 32.76C185.208 32.76 186.541 33 187.661 33.48C188.781 33.96 189.701 34.64 190.421 35.52C191.141 36.3733 191.674 37.3867 192.021 38.56C192.368 39.7067 192.541 40.96 192.541 42.32C192.541 42.7733 192.514 43.2267 192.461 43.68C192.434 44.1333 192.394 44.5467 192.341 44.92H177.661C177.741 46.7867 178.341 48.2667 179.461 49.36C180.608 50.4533 182.354 51 184.701 51C185.661 51 186.701 50.9067 187.821 50.72C188.941 50.5333 189.928 50.2933 190.781 50L191.221 53.16C190.208 53.5333 189.101 53.8267 187.901 54.04C186.728 54.28 185.514 54.4 184.261 54.4ZM183.461 35.92C181.674 35.92 180.288 36.48 179.301 37.6C178.314 38.6933 177.781 40.12 177.701 41.88H188.421V41.44C188.421 40.88 188.354 40.28 188.221 39.64C188.088 39 187.834 38.4133 187.461 37.88C187.114 37.32 186.621 36.8533 185.981 36.48C185.341 36.1067 184.501 35.92 183.461 35.92ZM209.69 32.76C210.73 32.76 211.677 32.9067 212.53 33.2C213.41 33.4667 214.157 33.9067 214.77 34.52C215.383 35.1333 215.863 35.9333 216.21 36.92C216.557 37.88 216.73 39.04 216.73 40.4V54H212.61V40.84C212.61 39.2933 212.263 38.1333 211.57 37.36C210.903 36.5867 209.85 36.2 208.41 36.2C207.343 36.2 206.29 36.3867 205.25 36.76C204.237 37.1067 203.343 37.5467 202.57 38.08V54H198.45V33.12H202.09L202.41 35C203.397 34.3333 204.517 33.8 205.77 33.4C207.023 32.9733 208.33 32.76 209.69 32.76ZM227.645 36.92V47.04C227.645 48.3733 227.898 49.3333 228.405 49.92C228.938 50.48 229.911 50.76 231.325 50.76C231.885 50.76 232.458 50.7333 233.045 50.68C233.658 50.6 234.191 50.4933 234.645 50.36L234.885 53.56C234.271 53.7467 233.591 53.8933 232.845 54C232.098 54.1067 231.311 54.16 230.485 54.16C228.058 54.16 226.285 53.6 225.165 52.48C224.071 51.3333 223.525 49.4133 223.525 46.72V28.52L227.645 27.68V33.48H235.045L233.845 36.92H227.645Z" fill="white"/>
</svg>
