<svg width="597" height="470" viewBox="0 0 597 470" fill="none" xmlns="http://www.w3.org/2000/svg">
<path d="M452 395.5C452 375.211 448.004 355.12 440.239 336.375C432.475 317.631 421.095 300.599 406.748 286.252C392.401 271.905 375.369 260.525 356.625 252.761C337.88 244.996 317.789 241 297.5 241C277.211 241 257.12 244.996 238.375 252.761C219.631 260.525 202.599 271.905 188.252 286.252C173.905 300.599 162.525 317.631 154.761 336.375C146.996 355.12 143 375.211 143 395.5" stroke="#FF0000" stroke-width="16"/>
<path d="M452 395.5C452 375.211 448.004 355.12 440.239 336.375C432.475 317.631 421.095 300.599 406.748 286.252C392.401 271.905 375.369 260.525 356.625 252.761C337.88 244.996 317.789 241 297.5 241C277.211 241 257.12 244.996 238.375 252.761C219.631 260.525 202.599 271.905 188.252 286.252C173.905 300.599 162.525 317.631 154.761 336.375C146.996 355.12 143 375.211 143 395.5L297.5 395.5H452Z" fill="#FFF2F2"/>
<path d="M58.5887 2.29718L70.9013 30.3802C71.3645 31.4371 72.1028 32.3503 73.0393 33.0245C73.9757 33.6987 75.076 34.1092 76.2252 34.213L106.22 36.9024C109.614 37.3964 110.968 41.5585 108.507 43.9552L85.9125 62.9364C84.083 64.4732 83.2506 66.8882 83.7537 69.2208L90.3216 99.9658C90.8979 103.341 87.3578 105.921 84.3208 104.32L58.1405 88.9887C57.1531 88.4091 56.0289 88.1036 54.8839 88.1036C53.739 88.1036 52.6148 88.4091 51.6274 88.9887L25.4471 104.311C22.4192 105.903 18.87 103.332 19.4463 99.9566L26.0142 69.2116C26.5082 66.879 25.6849 64.4641 23.8554 62.9273L1.25174 43.9644C-1.19981 41.5768 0.154031 37.4056 3.53863 36.9116L33.5335 34.2222C34.6827 34.1183 35.783 33.7078 36.7195 33.0336C37.6559 32.3595 38.3943 31.4463 38.8574 30.3894L51.17 2.30633C52.6977 -0.767251 57.0702 -0.767251 58.5887 2.29718Z" fill="#FDD835"/>
<path d="M57.6925 32.0625L55.6069 11.3707C55.5246 10.2181 55.2867 8.24219 57.1345 8.24219C58.5981 8.24219 59.394 11.2883 59.394 11.2883L65.6509 27.9003C68.011 34.2213 67.0414 36.3893 64.7636 37.6699C62.1474 39.1335 58.2871 37.9901 57.6925 32.0625Z" fill="#FFFF8D"/>
<path d="M83.4977 61.0968L101.445 47.0919C102.333 46.3509 103.933 45.1709 102.653 43.8262C101.637 42.7651 98.893 44.2927 98.893 44.2927L83.1867 50.4308C78.5031 52.0499 75.3929 54.4465 75.1185 57.4652C74.7618 61.4902 78.375 64.5912 83.4977 61.0968Z" fill="#F4B400"/>
<g opacity="0.25">
<path d="M423.884 2.29718L436.197 30.3802C436.66 31.4371 437.398 32.3503 438.335 33.0245C439.271 33.6987 440.371 34.1092 441.521 34.213L471.516 36.9024C474.909 37.3964 476.263 41.5585 473.802 43.9552L451.208 62.9364C449.378 64.4732 448.546 66.8882 449.049 69.2208L455.617 99.9658C456.193 103.341 452.653 105.921 449.616 104.32L423.436 88.9887C422.448 88.4091 421.324 88.1036 420.179 88.1036C419.034 88.1036 417.91 88.4091 416.923 88.9887L390.742 104.311C387.715 105.903 384.165 103.332 384.742 99.9566L391.31 69.2116C391.804 66.879 390.98 64.4641 389.151 62.9273L366.547 43.9644C364.096 41.5768 365.449 37.4056 368.834 36.9116L398.829 34.2222C399.978 34.1183 401.078 33.7078 402.015 33.0336C402.951 32.3595 403.69 31.4463 404.153 30.3894L416.465 2.30633C417.993 -0.767251 422.366 -0.767251 423.884 2.29718Z" fill="#FDD835"/>
<path d="M422.988 32.0625L420.902 11.3707C420.82 10.2181 420.582 8.24219 422.43 8.24219C423.894 8.24219 424.69 11.2883 424.69 11.2883L430.947 27.9003C433.307 34.2213 432.337 36.3893 430.059 37.6699C427.443 39.1335 423.583 37.9901 422.988 32.0625Z" fill="#FFFF8D"/>
<path d="M448.793 61.0968L466.741 47.0919C467.628 46.3509 469.229 45.1709 467.948 43.8262C466.933 42.7651 464.189 44.2927 464.189 44.2927L448.482 50.4308C443.799 52.0499 440.689 54.4465 440.414 57.4652C440.057 61.4902 443.671 64.5912 448.793 61.0968Z" fill="#F4B400"/>
</g>
<g opacity="0.25">
<path d="M545.649 2.29718L557.962 30.3802C558.425 31.4371 559.163 32.3503 560.1 33.0245C561.036 33.6987 562.137 34.1092 563.286 34.213L593.281 36.9024C596.674 37.3964 598.028 41.5585 595.568 43.9552L572.973 62.9364C571.144 64.4732 570.311 66.8882 570.814 69.2208L577.382 99.9658C577.958 103.341 574.418 105.921 571.381 104.32L545.201 88.9887C544.214 88.4091 543.089 88.1036 541.944 88.1036C540.8 88.1036 539.675 88.4091 538.688 88.9887L512.508 104.311C509.48 105.903 505.931 103.332 506.507 99.9566L513.075 69.2116C513.569 66.879 512.745 64.4641 510.916 62.9273L488.312 43.9644C485.861 41.5768 487.215 37.4056 490.599 36.9116L520.594 34.2222C521.743 34.1183 522.844 33.7078 523.78 33.0336C524.716 32.3595 525.455 31.4463 525.918 30.3894L538.231 2.30633C539.758 -0.767251 544.131 -0.767251 545.649 2.29718Z" fill="#FDD835"/>
<path d="M544.753 32.0625L542.667 11.3707C542.585 10.2181 542.347 8.24219 544.195 8.24219C545.659 8.24219 546.454 11.2883 546.454 11.2883L552.711 27.9003C555.071 34.2213 554.102 36.3893 551.824 37.6699C549.208 39.1335 545.348 37.9901 544.753 32.0625Z" fill="#FFFF8D"/>
<path d="M570.558 61.0968L588.506 47.0919C589.393 46.3509 590.994 45.1709 589.713 43.8262C588.698 42.7651 585.953 44.2927 585.953 44.2927L570.247 50.4308C565.564 52.0499 562.453 54.4465 562.179 57.4652C561.822 61.4902 565.435 64.5912 570.558 61.0968Z" fill="#F4B400"/>
</g>
<g opacity="0.25">
<path d="M180.354 2.29718L192.666 30.3802C193.13 31.4371 193.868 32.3503 194.804 33.0245C195.741 33.6987 196.841 34.1092 197.99 34.213L227.985 36.9024C231.379 37.3964 232.733 41.5585 230.272 43.9552L207.678 62.9364C205.848 64.4732 205.016 66.8882 205.519 69.2208L212.087 99.9658C212.663 103.341 209.123 105.921 206.086 104.32L179.906 88.9887C178.918 88.4091 177.794 88.1036 176.649 88.1036C175.504 88.1036 174.38 88.4091 173.393 88.9887L147.212 104.311C144.184 105.903 140.635 103.332 141.211 99.9566L147.779 69.2116C148.273 66.879 147.45 64.4641 145.621 62.9273L123.017 43.9644C120.565 41.5768 121.919 37.4056 125.304 36.9116L155.299 34.2222C156.448 34.1183 157.548 33.7078 158.485 33.0336C159.421 32.3595 160.159 31.4463 160.623 30.3894L172.935 2.30633C174.463 -0.767251 178.835 -0.767251 180.354 2.29718Z" fill="#FDD835"/>
<path d="M179.458 32.0625L177.372 11.3707C177.29 10.2181 177.052 8.24219 178.9 8.24219C180.363 8.24219 181.159 11.2883 181.159 11.2883L187.416 27.9003C189.776 34.2213 188.806 36.3893 186.529 37.6699C183.913 39.1335 180.052 37.9901 179.458 32.0625Z" fill="#FFFF8D"/>
<path d="M205.262 61.0968L223.21 47.0919C224.097 46.3509 225.698 45.1709 224.417 43.8262C223.402 42.7651 220.658 44.2927 220.658 44.2927L204.951 50.4308C200.268 52.0499 197.158 54.4465 196.883 57.4652C196.526 61.4902 200.14 64.5912 205.262 61.0968Z" fill="#F4B400"/>
</g>
<g opacity="0.25">
<path d="M302.119 2.29718L314.432 30.3802C314.895 31.4371 315.633 32.3503 316.57 33.0245C317.506 33.6987 318.606 34.1092 319.755 34.213L349.75 36.9024C353.144 37.3964 354.498 41.5585 352.037 43.9552L329.443 62.9364C327.613 64.4732 326.781 66.8882 327.284 69.2208L333.852 99.9658C334.428 103.341 330.888 105.921 327.851 104.32L301.671 88.9887C300.683 88.4091 299.559 88.1036 298.414 88.1036C297.269 88.1036 296.145 88.4091 295.158 88.9887L268.977 104.311C265.949 105.903 262.4 103.332 262.977 99.9566L269.544 69.2116C270.038 66.879 269.215 64.4641 267.386 62.9273L244.782 43.9644C242.33 41.5768 243.684 37.4056 247.069 36.9116L277.064 34.2222C278.213 34.1183 279.313 33.7078 280.25 33.0336C281.186 32.3595 281.925 31.4463 282.388 30.3894L294.7 2.30633C296.228 -0.767251 300.6 -0.767251 302.119 2.29718Z" fill="#FDD835"/>
<path d="M301.223 32.0625L299.137 11.3707C299.055 10.2181 298.817 8.24219 300.665 8.24219C302.128 8.24219 302.924 11.2883 302.924 11.2883L309.181 27.9003C311.541 34.2213 310.572 36.3893 308.294 37.6699C305.678 39.1335 301.817 37.9901 301.223 32.0625Z" fill="#FFFF8D"/>
<path d="M327.027 61.0968L344.975 47.0919C345.862 46.3509 347.463 45.1709 346.182 43.8262C345.167 42.7651 342.423 44.2927 342.423 44.2927L326.716 50.4308C322.033 52.0499 318.923 54.4465 318.648 57.4652C318.292 61.4902 321.905 64.5912 327.027 61.0968Z" fill="#F4B400"/>
</g>
<mask id="path-18-outside-1_84_2450" maskUnits="userSpaceOnUse" x="125" y="157" width="347" height="35" fill="black">
<rect fill="white" x="125" y="157" width="347" height="35"/>
<path d="M159.439 166.888V169.3H155.263V190H152.455V169.3H145.723V190H142.915V180.64H137.947C137.971 180.808 137.983 181.072 137.983 181.432C137.983 183.208 137.347 184.648 136.075 185.752C134.827 186.856 133.087 187.408 130.855 187.408C129.295 187.408 127.831 187.12 126.463 186.544V183.88C127.951 184.624 129.403 184.996 130.819 184.996C131.971 184.996 132.979 184.696 133.843 184.096C134.731 183.472 135.175 182.5 135.175 181.18C135.175 180.148 134.803 179.344 134.059 178.768C133.315 178.192 132.187 177.904 130.675 177.904H129.451V175.384H130.603C131.875 175.384 132.835 175.108 133.483 174.556C134.131 174.004 134.455 173.26 134.455 172.324C134.455 170.356 133.327 169.372 131.071 169.372C129.799 169.372 128.635 169.66 127.579 170.236V167.572C128.611 167.14 129.787 166.924 131.107 166.924C133.075 166.924 134.587 167.38 135.643 168.292C136.723 169.204 137.263 170.44 137.263 172C137.263 173.2 136.951 174.196 136.327 174.988C135.727 175.78 134.935 176.308 133.951 176.572C135.175 176.74 136.159 177.28 136.903 178.192H142.915V169.3H139.639V166.888H159.439ZM172.357 176.248V169.3H163.933V176.536C163.933 178.24 164.245 179.476 164.869 180.244C165.493 180.988 166.453 181.36 167.749 181.36C169.021 181.36 170.101 180.904 170.989 179.992C171.901 179.056 172.357 177.808 172.357 176.248ZM179.341 166.888V169.3H175.201V190H172.357V181.432C171.253 182.896 169.657 183.64 167.569 183.664C163.249 183.664 161.089 181.276 161.089 176.5V169.3H157.849V166.888H179.341ZM207.087 169.3H193.839V174.448C194.943 173.296 196.347 172.72 198.051 172.72C200.019 172.72 201.615 173.32 202.839 174.52C204.063 175.72 204.675 177.292 204.675 179.236C204.675 181.324 203.991 182.992 202.623 184.24C201.255 185.488 199.551 186.112 197.511 186.112C197.247 186.112 196.971 186.088 196.683 186.04V183.628C196.923 183.676 197.163 183.7 197.403 183.7C198.675 183.7 199.731 183.304 200.571 182.512C201.411 181.72 201.831 180.628 201.831 179.236C201.831 178.012 201.447 177.016 200.679 176.248C199.935 175.456 198.951 175.06 197.727 175.06C196.671 175.06 195.759 175.432 194.991 176.176C194.223 176.896 193.839 177.808 193.839 178.912V190H190.995V184.816C189.939 185.92 188.547 186.472 186.819 186.472C184.851 186.472 183.255 185.884 182.031 184.708C180.807 183.508 180.195 181.936 180.195 179.992C180.195 177.904 180.879 176.236 182.247 174.988C183.615 173.716 185.307 173.08 187.323 173.08C187.707 173.08 187.983 173.116 188.151 173.188V175.564C188.031 175.54 187.803 175.528 187.467 175.528C186.171 175.528 185.103 175.924 184.263 176.716C183.423 177.508 183.003 178.588 183.003 179.956C183.003 181.18 183.387 182.188 184.155 182.98C184.923 183.772 185.919 184.168 187.143 184.168C188.199 184.168 189.099 183.796 189.843 183.052C190.611 182.308 190.995 181.384 190.995 180.28V169.3H177.747V166.888H207.087V169.3ZM205.52 169.3V166.888H216.681V169.3H212.505V190H209.697V169.3H205.52ZM223.872 166.888H245.256V169.3H240.936V175.312H234.6C232.968 175.312 231.684 175.732 230.748 176.572C229.812 177.412 229.344 178.588 229.344 180.1C229.344 181.66 229.764 182.884 230.604 183.772C231.444 184.66 232.572 185.104 233.988 185.104C235.404 185.104 236.532 184.708 237.372 183.916C238.236 183.124 238.692 182.104 238.74 180.856H241.44V190.36H238.632V185.572C237.648 186.82 236.028 187.444 233.772 187.444C231.54 187.444 229.74 186.748 228.372 185.356C227.004 183.964 226.32 182.248 226.32 180.208C226.32 178.072 227.028 176.332 228.444 174.988C229.86 173.62 231.84 172.936 234.384 172.936H238.128V169.3H223.872V166.888ZM238.088 163.18C237.704 162.82 237.512 162.364 237.512 161.812C237.512 161.26 237.704 160.792 238.088 160.408C238.448 160.024 238.904 159.832 239.456 159.832C240.008 159.832 240.476 160.024 240.86 160.408C241.244 160.792 241.436 161.26 241.436 161.812C241.436 162.364 241.244 162.82 240.86 163.18C240.476 163.54 240.008 163.72 239.456 163.72C238.904 163.72 238.448 163.54 238.088 163.18ZM266.417 166.888V169.3H262.241V190H259.433V176.176H256.013C251.765 176.176 249.641 178.048 249.641 181.792C249.641 183.568 250.073 184.972 250.937 186.004C251.825 187.036 253.121 187.552 254.825 187.552C255.233 187.552 255.509 187.54 255.653 187.516V189.928C255.269 189.976 254.909 190 254.573 190C252.173 190 250.277 189.232 248.885 187.696C247.493 186.16 246.797 184.18 246.797 181.756C246.797 179.356 247.553 177.424 249.065 175.96C250.577 174.472 252.785 173.728 255.689 173.728H259.433V169.3H243.665V166.888H266.417ZM302.743 178.732V169.3H284.095V174.448C284.095 175.96 283.771 177.148 283.123 178.012H290.179C290.563 176.5 291.367 175.288 292.591 174.376C293.839 173.44 295.339 172.972 297.091 172.972C297.979 172.972 298.735 173.068 299.359 173.26V175.744C298.759 175.528 298.051 175.42 297.235 175.42C295.963 175.42 294.907 175.828 294.067 176.644C293.227 177.436 292.807 178.492 292.807 179.812C292.807 181.204 293.227 182.32 294.067 183.16C294.931 184 295.999 184.42 297.271 184.42C298.951 184.42 300.283 183.856 301.267 182.728C302.251 181.6 302.743 180.268 302.743 178.732ZM309.727 166.888V169.3H305.551V190H302.743V184.024C301.495 185.824 299.575 186.724 296.983 186.724C295.159 186.724 293.575 186.16 292.231 185.032C290.887 183.904 290.143 182.38 289.999 180.46H285.031C282.367 180.46 280.327 180.352 278.911 180.136L285.535 190H282.115L275.383 179.848V177.616H277.759C279.127 177.616 280.051 177.352 280.531 176.824C281.035 176.272 281.287 175.408 281.287 174.232V169.3H273.583V166.888H309.727ZM308.142 169.3V166.888H319.302V169.3H315.126V190H312.318V169.3H308.142ZM363.172 177.976V169.3H356.44C357.04 170.212 357.34 171.328 357.34 172.648C357.34 175.504 355.552 177.472 351.976 178.552C352.288 179.872 352.948 180.964 353.956 181.828C354.964 182.668 356.176 183.088 357.592 183.088C359.248 183.088 360.592 182.632 361.624 181.72C362.656 180.784 363.172 179.536 363.172 177.976ZM348.664 166.888H370.12V169.3H365.944V190H363.172V183.016C361.948 184.672 360.004 185.5 357.34 185.5C354.844 185.5 352.804 184.612 351.22 182.836C348.916 185.02 346.168 186.112 342.976 186.112C340.936 186.112 339.1 185.62 337.468 184.636C335.836 183.628 334.708 182.116 334.084 180.1C332.884 180.34 331.432 180.46 329.728 180.46H329.152C326.488 180.46 324.448 180.352 323.032 180.136L329.656 190H326.236L319.504 179.848V177.616H321.88C323.248 177.616 324.172 177.352 324.652 176.824C325.156 176.272 325.408 175.408 325.408 174.232V169.3H317.704V166.888H332.932V169.3H328.216V174.448C328.216 175.96 327.892 177.148 327.244 178.012H329.692C331.012 178.012 332.392 177.892 333.832 177.652C335.296 177.412 336.712 177.052 338.08 176.572C339.448 176.092 340.576 175.444 341.464 174.628C342.352 173.788 342.796 172.84 342.796 171.784C342.796 170.968 342.592 170.308 342.184 169.804C341.8 169.3 341.2 169.048 340.384 169.048C339.592 169.048 338.992 169.288 338.584 169.768C338.176 170.224 337.972 170.812 337.972 171.532C337.972 172.276 338.128 172.948 338.44 173.548H335.668C335.356 172.9 335.2 172.132 335.2 171.244C335.2 169.996 335.68 168.928 336.64 168.04C337.6 167.128 338.848 166.672 340.384 166.672C341.992 166.672 343.252 167.164 344.164 168.148C345.076 169.108 345.532 170.308 345.532 171.748C345.532 175.492 342.64 178.036 336.856 179.38C337.216 180.724 337.948 181.78 339.052 182.548C340.156 183.316 341.476 183.7 343.012 183.7C345.676 183.7 347.968 182.764 349.888 180.892C349.288 179.764 348.88 178.396 348.664 176.788C350.584 176.5 352.036 175.972 353.02 175.204C354.028 174.436 354.532 173.536 354.532 172.504C354.532 171.256 354.16 170.188 353.416 169.3H348.664V166.888ZM404.365 180.28V169.3H387.841V174.448C387.841 175.96 387.517 177.148 386.869 178.012H393.817C394.225 176.476 395.053 175.276 396.301 174.412C397.573 173.524 399.037 173.08 400.693 173.08C401.053 173.08 401.329 173.116 401.521 173.188V175.564C401.401 175.54 401.173 175.528 400.837 175.528C399.541 175.528 398.473 175.924 397.633 176.716C396.793 177.508 396.373 178.588 396.373 179.956C396.373 181.18 396.757 182.188 397.525 182.98C398.293 183.772 399.289 184.168 400.513 184.168C401.569 184.168 402.469 183.796 403.213 183.052C403.981 182.308 404.365 181.384 404.365 180.28ZM420.457 169.3H407.209V174.448C408.313 173.296 409.717 172.72 411.421 172.72C413.389 172.72 414.985 173.32 416.209 174.52C417.433 175.72 418.045 177.292 418.045 179.236C418.045 181.324 417.361 182.992 415.993 184.24C414.625 185.488 412.921 186.112 410.881 186.112C410.617 186.112 410.341 186.088 410.053 186.04V183.628C410.293 183.676 410.533 183.7 410.773 183.7C412.045 183.7 413.101 183.304 413.941 182.512C414.781 181.72 415.201 180.628 415.201 179.236C415.201 178.012 414.817 177.016 414.049 176.248C413.305 175.456 412.321 175.06 411.097 175.06C410.041 175.06 409.129 175.432 408.361 176.176C407.593 176.896 407.209 177.808 407.209 178.912V190H404.365V184.816C403.309 185.92 401.917 186.472 400.189 186.472C398.293 186.472 396.733 185.932 395.509 184.852C394.309 183.748 393.661 182.284 393.565 180.46H388.777C386.113 180.46 384.073 180.352 382.657 180.136L389.281 190H385.861L379.129 179.848V177.616H381.505C382.873 177.616 383.797 177.352 384.277 176.824C384.781 176.272 385.033 175.408 385.033 174.232V169.3H377.329V166.888H420.457V169.3ZM425.76 166.888H430.008V169.3H425.832V190H423.06V169.3H418.884V166.888H422.664L419.712 162.388C418.896 161.14 417.804 160.516 416.436 160.516C415.956 160.516 415.356 160.588 414.636 160.732V158.284C415.5 158.14 416.148 158.068 416.58 158.068C417.804 158.068 418.848 158.332 419.712 158.86C420.576 159.364 421.368 160.18 422.088 161.308L425.76 166.888ZM430.319 179.956V177.616H432.731C435.659 177.616 437.123 176.464 437.123 174.16V169.3H428.411V166.888H443.531V169.3H439.931V174.412C439.931 176.116 439.403 177.46 438.347 178.444C437.291 179.404 435.875 179.908 434.099 179.956H433.703L441.335 190H437.915L430.319 179.956ZM467.367 174.952H458.727C457.383 174.952 456.711 175.492 456.711 176.572C456.711 177.196 456.879 177.76 457.215 178.264C457.551 178.744 457.947 179.092 458.403 179.308C459.411 178.948 460.575 178.768 461.895 178.768C463.863 178.768 465.375 179.248 466.431 180.208C467.487 181.144 468.015 182.272 468.015 183.592C468.015 184.384 467.883 185.056 467.619 185.608H464.847C465.183 185.152 465.351 184.528 465.351 183.736C465.351 182.968 465.051 182.344 464.451 181.864C463.875 181.36 463.011 181.108 461.859 181.108C460.275 181.108 459.039 181.456 458.151 182.152C457.263 182.848 456.819 183.688 456.819 184.672C456.819 185.872 457.335 186.856 458.367 187.624C459.399 188.368 460.971 188.74 463.083 188.74C464.547 188.74 466.047 188.524 467.583 188.092V190.504C465.927 190.912 464.355 191.116 462.867 191.116C460.035 191.116 457.851 190.468 456.315 189.172C454.779 187.876 454.011 186.364 454.011 184.636C454.011 182.932 454.767 181.516 456.279 180.388C454.671 179.332 453.867 177.94 453.867 176.212C453.867 175.06 454.275 174.172 455.091 173.548C455.907 172.924 456.963 172.612 458.259 172.612H464.595V169.3H450.735V166.888H471.435V169.3H467.367V174.952ZM463.81 161.056L467.734 167.14H463.954C462.61 166.132 461.482 165.4 460.57 164.944C459.658 164.488 458.686 164.26 457.654 164.26C456.91 164.26 456.214 164.368 455.566 164.584V162.064C456.142 161.872 456.79 161.776 457.51 161.776C458.518 161.776 459.418 161.98 460.21 162.388C461.002 162.772 461.926 163.42 462.982 164.332L465.214 166.312L461.902 162.064C460.846 160.72 459.43 160.048 457.654 160.048C456.934 160.048 456.238 160.132 455.566 160.3V157.852C455.998 157.708 456.73 157.636 457.762 157.636C460.33 157.636 462.346 158.776 463.81 161.056Z"/>
</mask>
<path d="M159.439 166.888V169.3H155.263V190H152.455V169.3H145.723V190H142.915V180.64H137.947C137.971 180.808 137.983 181.072 137.983 181.432C137.983 183.208 137.347 184.648 136.075 185.752C134.827 186.856 133.087 187.408 130.855 187.408C129.295 187.408 127.831 187.12 126.463 186.544V183.88C127.951 184.624 129.403 184.996 130.819 184.996C131.971 184.996 132.979 184.696 133.843 184.096C134.731 183.472 135.175 182.5 135.175 181.18C135.175 180.148 134.803 179.344 134.059 178.768C133.315 178.192 132.187 177.904 130.675 177.904H129.451V175.384H130.603C131.875 175.384 132.835 175.108 133.483 174.556C134.131 174.004 134.455 173.26 134.455 172.324C134.455 170.356 133.327 169.372 131.071 169.372C129.799 169.372 128.635 169.66 127.579 170.236V167.572C128.611 167.14 129.787 166.924 131.107 166.924C133.075 166.924 134.587 167.38 135.643 168.292C136.723 169.204 137.263 170.44 137.263 172C137.263 173.2 136.951 174.196 136.327 174.988C135.727 175.78 134.935 176.308 133.951 176.572C135.175 176.74 136.159 177.28 136.903 178.192H142.915V169.3H139.639V166.888H159.439ZM172.357 176.248V169.3H163.933V176.536C163.933 178.24 164.245 179.476 164.869 180.244C165.493 180.988 166.453 181.36 167.749 181.36C169.021 181.36 170.101 180.904 170.989 179.992C171.901 179.056 172.357 177.808 172.357 176.248ZM179.341 166.888V169.3H175.201V190H172.357V181.432C171.253 182.896 169.657 183.64 167.569 183.664C163.249 183.664 161.089 181.276 161.089 176.5V169.3H157.849V166.888H179.341ZM207.087 169.3H193.839V174.448C194.943 173.296 196.347 172.72 198.051 172.72C200.019 172.72 201.615 173.32 202.839 174.52C204.063 175.72 204.675 177.292 204.675 179.236C204.675 181.324 203.991 182.992 202.623 184.24C201.255 185.488 199.551 186.112 197.511 186.112C197.247 186.112 196.971 186.088 196.683 186.04V183.628C196.923 183.676 197.163 183.7 197.403 183.7C198.675 183.7 199.731 183.304 200.571 182.512C201.411 181.72 201.831 180.628 201.831 179.236C201.831 178.012 201.447 177.016 200.679 176.248C199.935 175.456 198.951 175.06 197.727 175.06C196.671 175.06 195.759 175.432 194.991 176.176C194.223 176.896 193.839 177.808 193.839 178.912V190H190.995V184.816C189.939 185.92 188.547 186.472 186.819 186.472C184.851 186.472 183.255 185.884 182.031 184.708C180.807 183.508 180.195 181.936 180.195 179.992C180.195 177.904 180.879 176.236 182.247 174.988C183.615 173.716 185.307 173.08 187.323 173.08C187.707 173.08 187.983 173.116 188.151 173.188V175.564C188.031 175.54 187.803 175.528 187.467 175.528C186.171 175.528 185.103 175.924 184.263 176.716C183.423 177.508 183.003 178.588 183.003 179.956C183.003 181.18 183.387 182.188 184.155 182.98C184.923 183.772 185.919 184.168 187.143 184.168C188.199 184.168 189.099 183.796 189.843 183.052C190.611 182.308 190.995 181.384 190.995 180.28V169.3H177.747V166.888H207.087V169.3ZM205.52 169.3V166.888H216.681V169.3H212.505V190H209.697V169.3H205.52ZM223.872 166.888H245.256V169.3H240.936V175.312H234.6C232.968 175.312 231.684 175.732 230.748 176.572C229.812 177.412 229.344 178.588 229.344 180.1C229.344 181.66 229.764 182.884 230.604 183.772C231.444 184.66 232.572 185.104 233.988 185.104C235.404 185.104 236.532 184.708 237.372 183.916C238.236 183.124 238.692 182.104 238.74 180.856H241.44V190.36H238.632V185.572C237.648 186.82 236.028 187.444 233.772 187.444C231.54 187.444 229.74 186.748 228.372 185.356C227.004 183.964 226.32 182.248 226.32 180.208C226.32 178.072 227.028 176.332 228.444 174.988C229.86 173.62 231.84 172.936 234.384 172.936H238.128V169.3H223.872V166.888ZM238.088 163.18C237.704 162.82 237.512 162.364 237.512 161.812C237.512 161.26 237.704 160.792 238.088 160.408C238.448 160.024 238.904 159.832 239.456 159.832C240.008 159.832 240.476 160.024 240.86 160.408C241.244 160.792 241.436 161.26 241.436 161.812C241.436 162.364 241.244 162.82 240.86 163.18C240.476 163.54 240.008 163.72 239.456 163.72C238.904 163.72 238.448 163.54 238.088 163.18ZM266.417 166.888V169.3H262.241V190H259.433V176.176H256.013C251.765 176.176 249.641 178.048 249.641 181.792C249.641 183.568 250.073 184.972 250.937 186.004C251.825 187.036 253.121 187.552 254.825 187.552C255.233 187.552 255.509 187.54 255.653 187.516V189.928C255.269 189.976 254.909 190 254.573 190C252.173 190 250.277 189.232 248.885 187.696C247.493 186.16 246.797 184.18 246.797 181.756C246.797 179.356 247.553 177.424 249.065 175.96C250.577 174.472 252.785 173.728 255.689 173.728H259.433V169.3H243.665V166.888H266.417ZM302.743 178.732V169.3H284.095V174.448C284.095 175.96 283.771 177.148 283.123 178.012H290.179C290.563 176.5 291.367 175.288 292.591 174.376C293.839 173.44 295.339 172.972 297.091 172.972C297.979 172.972 298.735 173.068 299.359 173.26V175.744C298.759 175.528 298.051 175.42 297.235 175.42C295.963 175.42 294.907 175.828 294.067 176.644C293.227 177.436 292.807 178.492 292.807 179.812C292.807 181.204 293.227 182.32 294.067 183.16C294.931 184 295.999 184.42 297.271 184.42C298.951 184.42 300.283 183.856 301.267 182.728C302.251 181.6 302.743 180.268 302.743 178.732ZM309.727 166.888V169.3H305.551V190H302.743V184.024C301.495 185.824 299.575 186.724 296.983 186.724C295.159 186.724 293.575 186.16 292.231 185.032C290.887 183.904 290.143 182.38 289.999 180.46H285.031C282.367 180.46 280.327 180.352 278.911 180.136L285.535 190H282.115L275.383 179.848V177.616H277.759C279.127 177.616 280.051 177.352 280.531 176.824C281.035 176.272 281.287 175.408 281.287 174.232V169.3H273.583V166.888H309.727ZM308.142 169.3V166.888H319.302V169.3H315.126V190H312.318V169.3H308.142ZM363.172 177.976V169.3H356.44C357.04 170.212 357.34 171.328 357.34 172.648C357.34 175.504 355.552 177.472 351.976 178.552C352.288 179.872 352.948 180.964 353.956 181.828C354.964 182.668 356.176 183.088 357.592 183.088C359.248 183.088 360.592 182.632 361.624 181.72C362.656 180.784 363.172 179.536 363.172 177.976ZM348.664 166.888H370.12V169.3H365.944V190H363.172V183.016C361.948 184.672 360.004 185.5 357.34 185.5C354.844 185.5 352.804 184.612 351.22 182.836C348.916 185.02 346.168 186.112 342.976 186.112C340.936 186.112 339.1 185.62 337.468 184.636C335.836 183.628 334.708 182.116 334.084 180.1C332.884 180.34 331.432 180.46 329.728 180.46H329.152C326.488 180.46 324.448 180.352 323.032 180.136L329.656 190H326.236L319.504 179.848V177.616H321.88C323.248 177.616 324.172 177.352 324.652 176.824C325.156 176.272 325.408 175.408 325.408 174.232V169.3H317.704V166.888H332.932V169.3H328.216V174.448C328.216 175.96 327.892 177.148 327.244 178.012H329.692C331.012 178.012 332.392 177.892 333.832 177.652C335.296 177.412 336.712 177.052 338.08 176.572C339.448 176.092 340.576 175.444 341.464 174.628C342.352 173.788 342.796 172.84 342.796 171.784C342.796 170.968 342.592 170.308 342.184 169.804C341.8 169.3 341.2 169.048 340.384 169.048C339.592 169.048 338.992 169.288 338.584 169.768C338.176 170.224 337.972 170.812 337.972 171.532C337.972 172.276 338.128 172.948 338.44 173.548H335.668C335.356 172.9 335.2 172.132 335.2 171.244C335.2 169.996 335.68 168.928 336.64 168.04C337.6 167.128 338.848 166.672 340.384 166.672C341.992 166.672 343.252 167.164 344.164 168.148C345.076 169.108 345.532 170.308 345.532 171.748C345.532 175.492 342.64 178.036 336.856 179.38C337.216 180.724 337.948 181.78 339.052 182.548C340.156 183.316 341.476 183.7 343.012 183.7C345.676 183.7 347.968 182.764 349.888 180.892C349.288 179.764 348.88 178.396 348.664 176.788C350.584 176.5 352.036 175.972 353.02 175.204C354.028 174.436 354.532 173.536 354.532 172.504C354.532 171.256 354.16 170.188 353.416 169.3H348.664V166.888ZM404.365 180.28V169.3H387.841V174.448C387.841 175.96 387.517 177.148 386.869 178.012H393.817C394.225 176.476 395.053 175.276 396.301 174.412C397.573 173.524 399.037 173.08 400.693 173.08C401.053 173.08 401.329 173.116 401.521 173.188V175.564C401.401 175.54 401.173 175.528 400.837 175.528C399.541 175.528 398.473 175.924 397.633 176.716C396.793 177.508 396.373 178.588 396.373 179.956C396.373 181.18 396.757 182.188 397.525 182.98C398.293 183.772 399.289 184.168 400.513 184.168C401.569 184.168 402.469 183.796 403.213 183.052C403.981 182.308 404.365 181.384 404.365 180.28ZM420.457 169.3H407.209V174.448C408.313 173.296 409.717 172.72 411.421 172.72C413.389 172.72 414.985 173.32 416.209 174.52C417.433 175.72 418.045 177.292 418.045 179.236C418.045 181.324 417.361 182.992 415.993 184.24C414.625 185.488 412.921 186.112 410.881 186.112C410.617 186.112 410.341 186.088 410.053 186.04V183.628C410.293 183.676 410.533 183.7 410.773 183.7C412.045 183.7 413.101 183.304 413.941 182.512C414.781 181.72 415.201 180.628 415.201 179.236C415.201 178.012 414.817 177.016 414.049 176.248C413.305 175.456 412.321 175.06 411.097 175.06C410.041 175.06 409.129 175.432 408.361 176.176C407.593 176.896 407.209 177.808 407.209 178.912V190H404.365V184.816C403.309 185.92 401.917 186.472 400.189 186.472C398.293 186.472 396.733 185.932 395.509 184.852C394.309 183.748 393.661 182.284 393.565 180.46H388.777C386.113 180.46 384.073 180.352 382.657 180.136L389.281 190H385.861L379.129 179.848V177.616H381.505C382.873 177.616 383.797 177.352 384.277 176.824C384.781 176.272 385.033 175.408 385.033 174.232V169.3H377.329V166.888H420.457V169.3ZM425.76 166.888H430.008V169.3H425.832V190H423.06V169.3H418.884V166.888H422.664L419.712 162.388C418.896 161.14 417.804 160.516 416.436 160.516C415.956 160.516 415.356 160.588 414.636 160.732V158.284C415.5 158.14 416.148 158.068 416.58 158.068C417.804 158.068 418.848 158.332 419.712 158.86C420.576 159.364 421.368 160.18 422.088 161.308L425.76 166.888ZM430.319 179.956V177.616H432.731C435.659 177.616 437.123 176.464 437.123 174.16V169.3H428.411V166.888H443.531V169.3H439.931V174.412C439.931 176.116 439.403 177.46 438.347 178.444C437.291 179.404 435.875 179.908 434.099 179.956H433.703L441.335 190H437.915L430.319 179.956ZM467.367 174.952H458.727C457.383 174.952 456.711 175.492 456.711 176.572C456.711 177.196 456.879 177.76 457.215 178.264C457.551 178.744 457.947 179.092 458.403 179.308C459.411 178.948 460.575 178.768 461.895 178.768C463.863 178.768 465.375 179.248 466.431 180.208C467.487 181.144 468.015 182.272 468.015 183.592C468.015 184.384 467.883 185.056 467.619 185.608H464.847C465.183 185.152 465.351 184.528 465.351 183.736C465.351 182.968 465.051 182.344 464.451 181.864C463.875 181.36 463.011 181.108 461.859 181.108C460.275 181.108 459.039 181.456 458.151 182.152C457.263 182.848 456.819 183.688 456.819 184.672C456.819 185.872 457.335 186.856 458.367 187.624C459.399 188.368 460.971 188.74 463.083 188.74C464.547 188.74 466.047 188.524 467.583 188.092V190.504C465.927 190.912 464.355 191.116 462.867 191.116C460.035 191.116 457.851 190.468 456.315 189.172C454.779 187.876 454.011 186.364 454.011 184.636C454.011 182.932 454.767 181.516 456.279 180.388C454.671 179.332 453.867 177.94 453.867 176.212C453.867 175.06 454.275 174.172 455.091 173.548C455.907 172.924 456.963 172.612 458.259 172.612H464.595V169.3H450.735V166.888H471.435V169.3H467.367V174.952ZM463.81 161.056L467.734 167.14H463.954C462.61 166.132 461.482 165.4 460.57 164.944C459.658 164.488 458.686 164.26 457.654 164.26C456.91 164.26 456.214 164.368 455.566 164.584V162.064C456.142 161.872 456.79 161.776 457.51 161.776C458.518 161.776 459.418 161.98 460.21 162.388C461.002 162.772 461.926 163.42 462.982 164.332L465.214 166.312L461.902 162.064C460.846 160.72 459.43 160.048 457.654 160.048C456.934 160.048 456.238 160.132 455.566 160.3V157.852C455.998 157.708 456.73 157.636 457.762 157.636C460.33 157.636 462.346 158.776 463.81 161.056Z" fill="#0186C6"/>
<path d="M159.439 166.888H159.939V166.388H159.439V166.888ZM159.439 169.3V169.8H159.939V169.3H159.439ZM155.263 169.3V168.8H154.763V169.3H155.263ZM155.263 190V190.5H155.763V190H155.263ZM152.455 190H151.955V190.5H152.455V190ZM152.455 169.3H152.955V168.8H152.455V169.3ZM145.723 169.3V168.8H145.223V169.3H145.723ZM145.723 190V190.5H146.223V190H145.723ZM142.915 190H142.415V190.5H142.915V190ZM142.915 180.64H143.415V180.14H142.915V180.64ZM137.947 180.64V180.14H137.37L137.452 180.711L137.947 180.64ZM136.075 185.752L135.747 185.374L135.744 185.378L136.075 185.752ZM126.463 186.544H125.963V186.876L126.269 187.005L126.463 186.544ZM126.463 183.88L126.686 183.433L125.963 183.071V183.88H126.463ZM133.843 184.096L134.128 184.507L134.13 184.505L133.843 184.096ZM134.059 178.768L133.753 179.163L133.753 179.163L134.059 178.768ZM129.451 177.904H128.951V178.404H129.451V177.904ZM129.451 175.384V174.884H128.951V175.384H129.451ZM127.579 170.236H127.079V171.078L127.818 170.675L127.579 170.236ZM127.579 167.572L127.386 167.111L127.079 167.239V167.572H127.579ZM135.643 168.292L135.316 168.67L135.32 168.674L135.643 168.292ZM136.327 174.988L135.934 174.679L135.928 174.686L136.327 174.988ZM133.951 176.572L133.821 176.089L133.883 177.067L133.951 176.572ZM136.903 178.192L136.515 178.508L136.665 178.692H136.903V178.192ZM142.915 178.192V178.692H143.415V178.192H142.915ZM142.915 169.3H143.415V168.8H142.915V169.3ZM139.639 169.3H139.139V169.8H139.639V169.3ZM139.639 166.888V166.388H139.139V166.888H139.639ZM158.939 166.888V169.3H159.939V166.888H158.939ZM159.439 168.8H155.263V169.8H159.439V168.8ZM154.763 169.3V190H155.763V169.3H154.763ZM155.263 189.5H152.455V190.5H155.263V189.5ZM152.955 190V169.3H151.955V190H152.955ZM152.455 168.8H145.723V169.8H152.455V168.8ZM145.223 169.3V190H146.223V169.3H145.223ZM145.723 189.5H142.915V190.5H145.723V189.5ZM143.415 190V180.64H142.415V190H143.415ZM142.915 180.14H137.947V181.14H142.915V180.14ZM137.452 180.711C137.471 180.841 137.483 181.076 137.483 181.432H138.483C138.483 181.068 138.471 180.775 138.442 180.569L137.452 180.711ZM137.483 181.432C137.483 183.072 136.903 184.371 135.747 185.374L136.403 186.13C137.791 184.925 138.483 183.344 138.483 181.432H137.483ZM135.744 185.378C134.614 186.377 133.007 186.908 130.855 186.908V187.908C133.167 187.908 135.04 187.335 136.406 186.126L135.744 185.378ZM130.855 186.908C129.358 186.908 127.96 186.632 126.657 186.083L126.269 187.005C127.701 187.608 129.232 187.908 130.855 187.908V186.908ZM126.963 186.544V183.88H125.963V186.544H126.963ZM126.239 184.327C127.785 185.1 129.313 185.496 130.819 185.496V184.496C129.493 184.496 128.117 184.148 126.686 183.433L126.239 184.327ZM130.819 185.496C132.063 185.496 133.172 185.17 134.128 184.507L133.558 183.685C132.785 184.222 131.879 184.496 130.819 184.496V185.496ZM134.13 184.505C135.181 183.767 135.675 182.623 135.675 181.18H134.675C134.675 182.377 134.281 183.177 133.555 183.687L134.13 184.505ZM135.675 181.18C135.675 180.011 135.244 179.053 134.365 178.373L133.753 179.163C134.361 179.635 134.675 180.285 134.675 181.18H135.675ZM134.365 178.373C133.494 177.699 132.235 177.404 130.675 177.404V178.404C132.138 178.404 133.135 178.685 133.753 179.163L134.365 178.373ZM130.675 177.404H129.451V178.404H130.675V177.404ZM129.951 177.904V175.384H128.951V177.904H129.951ZM129.451 175.884H130.603V174.884H129.451V175.884ZM130.603 175.884C131.937 175.884 133.033 175.596 133.807 174.937L133.159 174.175C132.636 174.62 131.813 174.884 130.603 174.884V175.884ZM133.807 174.937C134.579 174.279 134.955 173.39 134.955 172.324H133.955C133.955 173.13 133.683 173.729 133.159 174.175L133.807 174.937ZM134.955 172.324C134.955 171.244 134.642 170.348 133.937 169.733C133.246 169.13 132.26 168.872 131.071 168.872V169.872C132.137 169.872 132.844 170.106 133.28 170.487C133.704 170.856 133.955 171.436 133.955 172.324H134.955ZM131.071 168.872C129.72 168.872 128.473 169.179 127.339 169.797L127.818 170.675C128.797 170.141 129.878 169.872 131.071 169.872V168.872ZM128.079 170.236V167.572H127.079V170.236H128.079ZM127.772 168.033C128.733 167.631 129.841 167.424 131.107 167.424V166.424C129.732 166.424 128.489 166.649 127.386 167.111L127.772 168.033ZM131.107 167.424C133.004 167.424 134.382 167.864 135.316 168.67L135.97 167.914C134.792 166.896 133.146 166.424 131.107 166.424V167.424ZM135.32 168.674C136.275 169.48 136.763 170.57 136.763 172H137.763C137.763 170.31 137.17 168.928 135.965 167.91L135.32 168.674ZM136.763 172C136.763 173.11 136.476 173.991 135.934 174.679L136.72 175.297C137.426 174.401 137.763 173.29 137.763 172H136.763ZM135.928 174.686C135.397 175.387 134.701 175.853 133.821 176.089L134.08 177.055C135.169 176.763 136.056 176.173 136.725 175.29L135.928 174.686ZM133.883 177.067C134.988 177.219 135.856 177.699 136.515 178.508L137.29 177.876C136.462 176.861 135.361 176.261 134.019 176.077L133.883 177.067ZM136.903 178.692H142.915V177.692H136.903V178.692ZM143.415 178.192V169.3H142.415V178.192H143.415ZM142.915 168.8H139.639V169.8H142.915V168.8ZM140.139 169.3V166.888H139.139V169.3H140.139ZM139.639 167.388H159.439V166.388H139.639V167.388ZM172.357 169.3H172.857V168.8H172.357V169.3ZM163.933 169.3V168.8H163.433V169.3H163.933ZM164.869 180.244L164.481 180.559L164.486 180.565L164.869 180.244ZM170.989 179.992L170.631 179.643L170.63 179.643L170.989 179.992ZM179.341 166.888H179.841V166.388H179.341V166.888ZM179.341 169.3V169.8H179.841V169.3H179.341ZM175.201 169.3V168.8H174.701V169.3H175.201ZM175.201 190V190.5H175.701V190H175.201ZM172.357 190H171.857V190.5H172.357V190ZM172.357 181.432H172.857V179.939L171.957 181.131L172.357 181.432ZM167.569 183.664V184.164L167.574 184.164L167.569 183.664ZM161.089 169.3H161.589V168.8H161.089V169.3ZM157.849 169.3H157.349V169.8H157.849V169.3ZM157.849 166.888V166.388H157.349V166.888H157.849ZM172.857 176.248V169.3H171.857V176.248H172.857ZM172.357 168.8H163.933V169.8H172.357V168.8ZM163.433 169.3V176.536H164.433V169.3H163.433ZM163.433 176.536C163.433 178.28 163.748 179.658 164.481 180.559L165.257 179.929C164.741 179.294 164.433 178.2 164.433 176.536H163.433ZM164.486 180.565C165.234 181.457 166.357 181.86 167.749 181.86V180.86C166.548 180.86 165.751 180.519 165.252 179.923L164.486 180.565ZM167.749 181.86C169.156 181.86 170.365 181.349 171.347 180.341L170.63 179.643C169.836 180.459 168.886 180.86 167.749 180.86V181.86ZM171.347 180.341C172.367 179.294 172.857 177.911 172.857 176.248H171.857C171.857 177.705 171.434 178.818 170.631 179.643L171.347 180.341ZM178.841 166.888V169.3H179.841V166.888H178.841ZM179.341 168.8H175.201V169.8H179.341V168.8ZM174.701 169.3V190H175.701V169.3H174.701ZM175.201 189.5H172.357V190.5H175.201V189.5ZM172.857 190V181.432H171.857V190H172.857ZM171.957 181.131C170.96 182.453 169.52 183.142 167.563 183.164L167.574 184.164C169.793 184.138 171.545 183.339 172.756 181.733L171.957 181.131ZM167.569 183.164C165.499 183.164 164.035 182.594 163.079 181.538C162.115 180.471 161.589 178.823 161.589 176.5H160.589C160.589 178.953 161.142 180.887 162.338 182.208C163.542 183.54 165.318 184.164 167.569 184.164V183.164ZM161.589 176.5V169.3H160.589V176.5H161.589ZM161.089 168.8H157.849V169.8H161.089V168.8ZM158.349 169.3V166.888H157.349V169.3H158.349ZM157.849 167.388H179.341V166.388H157.849V167.388ZM207.087 169.3V169.8H207.587V169.3H207.087ZM193.839 169.3V168.8H193.339V169.3H193.839ZM193.839 174.448H193.339V175.692L194.2 174.794L193.839 174.448ZM202.839 174.52L202.489 174.877L202.489 174.877L202.839 174.52ZM202.623 184.24L202.286 183.871L202.286 183.871L202.623 184.24ZM196.683 186.04H196.183V186.464L196.601 186.533L196.683 186.04ZM196.683 183.628L196.781 183.138L196.183 183.018V183.628H196.683ZM200.571 182.512L200.914 182.876L200.914 182.876L200.571 182.512ZM200.679 176.248L200.315 176.59L200.32 176.596L200.326 176.602L200.679 176.248ZM194.991 176.176L195.333 176.541L195.339 176.535L194.991 176.176ZM193.839 190V190.5H194.339V190H193.839ZM190.995 190H190.495V190.5H190.995V190ZM190.995 184.816H191.495V183.57L190.634 184.47L190.995 184.816ZM182.031 184.708L181.681 185.065L181.685 185.069L182.031 184.708ZM182.247 174.988L182.584 175.357L182.588 175.354L182.247 174.988ZM188.151 173.188H188.651V172.858L188.348 172.728L188.151 173.188ZM188.151 175.564L188.053 176.054L188.651 176.174V175.564H188.151ZM184.263 176.716L184.606 177.08L184.606 177.08L184.263 176.716ZM184.155 182.98L183.796 183.328L183.796 183.328L184.155 182.98ZM189.843 183.052L189.495 182.693L189.49 182.698L189.843 183.052ZM190.995 169.3H191.495V168.8H190.995V169.3ZM177.747 169.3H177.247V169.8H177.747V169.3ZM177.747 166.888V166.388H177.247V166.888H177.747ZM207.087 166.888H207.587V166.388H207.087V166.888ZM207.087 168.8H193.839V169.8H207.087V168.8ZM193.339 169.3V174.448H194.339V169.3H193.339ZM194.2 174.794C195.203 173.748 196.473 173.22 198.051 173.22V172.22C196.221 172.22 194.683 172.844 193.478 174.102L194.2 174.794ZM198.051 173.22C199.909 173.22 201.372 173.782 202.489 174.877L203.189 174.163C201.858 172.858 200.129 172.22 198.051 172.22V173.22ZM202.489 174.877C203.604 175.97 204.175 177.407 204.175 179.236H205.175C205.175 177.177 204.522 175.47 203.189 174.163L202.489 174.877ZM204.175 179.236C204.175 181.203 203.536 182.73 202.286 183.871L202.96 184.609C204.446 183.254 205.175 181.445 205.175 179.236H204.175ZM202.286 183.871C201.02 185.026 199.44 185.612 197.511 185.612V186.612C199.662 186.612 201.49 185.95 202.96 184.609L202.286 183.871ZM197.511 185.612C197.277 185.612 197.029 185.591 196.765 185.547L196.601 186.533C196.913 186.585 197.217 186.612 197.511 186.612V185.612ZM197.183 186.04V183.628H196.183V186.04H197.183ZM196.585 184.118C196.857 184.173 197.129 184.2 197.403 184.2V183.2C197.197 183.2 196.989 183.179 196.781 183.138L196.585 184.118ZM197.403 184.2C198.788 184.2 199.971 183.765 200.914 182.876L200.228 182.148C199.491 182.843 198.562 183.2 197.403 183.2V184.2ZM200.914 182.876C201.875 181.97 202.331 180.735 202.331 179.236H201.331C201.331 180.521 200.948 181.47 200.228 182.148L200.914 182.876ZM202.331 179.236C202.331 177.898 201.907 176.768 201.033 175.894L200.326 176.602C200.988 177.264 201.331 178.126 201.331 179.236H202.331ZM201.043 175.906C200.193 175 199.07 174.56 197.727 174.56V175.56C198.832 175.56 199.678 175.912 200.315 176.59L201.043 175.906ZM197.727 174.56C196.539 174.56 195.503 174.984 194.643 175.817L195.339 176.535C196.015 175.88 196.803 175.56 197.727 175.56V174.56ZM194.649 175.811C193.775 176.631 193.339 177.677 193.339 178.912H194.339C194.339 177.939 194.671 177.161 195.333 176.541L194.649 175.811ZM193.339 178.912V190H194.339V178.912H193.339ZM193.839 189.5H190.995V190.5H193.839V189.5ZM191.495 190V184.816H190.495V190H191.495ZM190.634 184.47C189.685 185.462 188.43 185.972 186.819 185.972V186.972C188.664 186.972 190.193 186.378 191.356 185.162L190.634 184.47ZM186.819 185.972C184.958 185.972 183.494 185.42 182.377 184.347L181.685 185.069C183.017 186.348 184.744 186.972 186.819 186.972V185.972ZM182.381 184.351C181.266 183.258 180.695 181.821 180.695 179.992H179.695C179.695 182.051 180.348 183.758 181.681 185.065L182.381 184.351ZM180.695 179.992C180.695 178.025 181.334 176.498 182.584 175.357L181.91 174.619C180.424 175.974 179.695 177.783 179.695 179.992H180.695ZM182.588 175.354C183.855 174.175 185.422 173.58 187.323 173.58V172.58C185.192 172.58 183.375 173.257 181.907 174.622L182.588 175.354ZM187.323 173.58C187.698 173.58 187.886 173.618 187.954 173.648L188.348 172.728C188.08 172.614 187.717 172.58 187.323 172.58V173.58ZM187.651 173.188V175.564H188.651V173.188H187.651ZM188.249 175.074C188.074 175.039 187.798 175.028 187.467 175.028V176.028C187.808 176.028 187.989 176.041 188.053 176.054L188.249 175.074ZM187.467 175.028C186.06 175.028 184.864 175.462 183.92 176.352L184.606 177.08C185.342 176.386 186.282 176.028 187.467 176.028V175.028ZM183.92 176.352C182.961 177.256 182.503 178.478 182.503 179.956H183.503C183.503 178.698 183.885 177.76 184.606 177.08L183.92 176.352ZM182.503 179.956C182.503 181.294 182.927 182.432 183.796 183.328L184.514 182.632C183.847 181.944 183.503 181.066 183.503 179.956H182.503ZM183.796 183.328C184.669 184.228 185.8 184.668 187.143 184.668V183.668C186.038 183.668 185.177 183.316 184.514 182.632L183.796 183.328ZM187.143 184.668C188.331 184.668 189.358 184.244 190.197 183.406L189.49 182.698C188.84 183.348 188.067 183.668 187.143 183.668V184.668ZM190.191 183.411C191.06 182.57 191.495 181.514 191.495 180.28H190.495C190.495 181.254 190.162 182.046 189.495 182.693L190.191 183.411ZM191.495 180.28V169.3H190.495V180.28H191.495ZM190.995 168.8H177.747V169.8H190.995V168.8ZM178.247 169.3V166.888H177.247V169.3H178.247ZM177.747 167.388H207.087V166.388H177.747V167.388ZM206.587 166.888V169.3H207.587V166.888H206.587ZM205.52 169.3H205.02V169.8H205.52V169.3ZM205.52 166.888V166.388H205.02V166.888H205.52ZM216.681 166.888H217.181V166.388H216.681V166.888ZM216.681 169.3V169.8H217.181V169.3H216.681ZM212.505 169.3V168.8H212.005V169.3H212.505ZM212.505 190V190.5H213.005V190H212.505ZM209.697 190H209.197V190.5H209.697V190ZM209.697 169.3H210.197V168.8H209.697V169.3ZM206.02 169.3V166.888H205.02V169.3H206.02ZM205.52 167.388H216.681V166.388H205.52V167.388ZM216.181 166.888V169.3H217.181V166.888H216.181ZM216.681 168.8H212.505V169.8H216.681V168.8ZM212.005 169.3V190H213.005V169.3H212.005ZM212.505 189.5H209.697V190.5H212.505V189.5ZM210.197 190V169.3H209.197V190H210.197ZM209.697 168.8H205.52V169.8H209.697V168.8ZM223.872 166.888V166.388H223.372V166.888H223.872ZM245.256 166.888H245.756V166.388H245.256V166.888ZM245.256 169.3V169.8H245.756V169.3H245.256ZM240.936 169.3V168.8H240.436V169.3H240.936ZM240.936 175.312V175.812H241.436V175.312H240.936ZM230.748 176.572L231.082 176.944L231.082 176.944L230.748 176.572ZM237.372 183.916L237.034 183.547L237.029 183.552L237.372 183.916ZM238.74 180.856V180.356H238.259L238.24 180.837L238.74 180.856ZM241.44 180.856H241.94V180.356H241.44V180.856ZM241.44 190.36V190.86H241.94V190.36H241.44ZM238.632 190.36H238.132V190.86H238.632V190.36ZM238.632 185.572H239.132V184.13L238.239 185.262L238.632 185.572ZM228.372 185.356L228.729 185.006L228.729 185.006L228.372 185.356ZM228.444 174.988L228.788 175.351L228.791 175.348L228.444 174.988ZM238.128 172.936V173.436H238.628V172.936H238.128ZM238.128 169.3H238.628V168.8H238.128V169.3ZM223.872 169.3H223.372V169.8H223.872V169.3ZM223.872 167.388H245.256V166.388H223.872V167.388ZM244.756 166.888V169.3H245.756V166.888H244.756ZM245.256 168.8H240.936V169.8H245.256V168.8ZM240.436 169.3V175.312H241.436V169.3H240.436ZM240.936 174.812H234.6V175.812H240.936V174.812ZM234.6 174.812C232.882 174.812 231.466 175.255 230.414 176.2L231.082 176.944C231.902 176.209 233.054 175.812 234.6 175.812V174.812ZM230.414 176.2C229.351 177.154 228.844 178.477 228.844 180.1H229.844C229.844 178.699 230.273 177.67 231.082 176.944L230.414 176.2ZM228.844 180.1C228.844 181.751 229.291 183.111 230.241 184.116L230.967 183.428C230.237 182.657 229.844 181.569 229.844 180.1H228.844ZM230.241 184.116C231.19 185.119 232.458 185.604 233.988 185.604V184.604C232.686 184.604 231.698 184.201 230.967 183.428L230.241 184.116ZM233.988 185.604C235.501 185.604 236.762 185.178 237.715 184.28L237.029 183.552C236.302 184.238 235.307 184.604 233.988 184.604V185.604ZM237.71 184.285C238.679 183.396 239.187 182.247 239.24 180.875L238.24 180.837C238.197 181.961 237.793 182.852 237.034 183.547L237.71 184.285ZM238.74 181.356H241.44V180.356H238.74V181.356ZM240.94 180.856V190.36H241.94V180.856H240.94ZM241.44 189.86H238.632V190.86H241.44V189.86ZM239.132 190.36V185.572H238.132V190.36H239.132ZM238.239 185.262C237.385 186.346 235.942 186.944 233.772 186.944V187.944C236.114 187.944 237.911 187.294 239.025 185.882L238.239 185.262ZM233.772 186.944C231.653 186.944 229.989 186.288 228.729 185.006L228.015 185.706C229.491 187.208 231.427 187.944 233.772 187.944V186.944ZM228.729 185.006C227.457 183.712 226.82 182.123 226.82 180.208H225.82C225.82 182.373 226.551 184.216 228.015 185.706L228.729 185.006ZM226.82 180.208C226.82 178.195 227.482 176.591 228.788 175.351L228.1 174.625C226.574 176.073 225.82 177.949 225.82 180.208H226.82ZM228.791 175.348C230.089 174.094 231.93 173.436 234.384 173.436V172.436C231.75 172.436 229.631 173.146 228.097 174.628L228.791 175.348ZM234.384 173.436H238.128V172.436H234.384V173.436ZM238.628 172.936V169.3H237.628V172.936H238.628ZM238.128 168.8H223.872V169.8H238.128V168.8ZM224.372 169.3V166.888H223.372V169.3H224.372ZM238.088 163.18L238.442 162.826L238.436 162.821L238.43 162.815L238.088 163.18ZM238.088 160.408L238.442 160.762L238.448 160.756L238.453 160.75L238.088 160.408ZM240.86 160.408L240.507 160.762L240.507 160.762L240.86 160.408ZM240.86 163.18L240.518 162.815L240.518 162.815L240.86 163.18ZM238.43 162.815C238.153 162.555 238.012 162.233 238.012 161.812H237.012C237.012 162.495 237.256 163.085 237.746 163.545L238.43 162.815ZM238.012 161.812C238.012 161.39 238.153 161.05 238.442 160.762L237.735 160.054C237.255 160.534 237.012 161.13 237.012 161.812H238.012ZM238.453 160.75C238.714 160.472 239.035 160.332 239.456 160.332V159.332C238.774 159.332 238.183 159.576 237.724 160.066L238.453 160.75ZM239.456 160.332C239.878 160.332 240.218 160.473 240.507 160.762L241.214 160.054C240.734 159.575 240.139 159.332 239.456 159.332V160.332ZM240.507 160.762C240.795 161.05 240.936 161.39 240.936 161.812H241.936C241.936 161.13 241.693 160.534 241.214 160.054L240.507 160.762ZM240.936 161.812C240.936 162.233 240.796 162.555 240.518 162.815L241.202 163.545C241.693 163.085 241.936 162.495 241.936 161.812H240.936ZM240.518 162.815C240.232 163.084 239.888 163.22 239.456 163.22V164.22C240.129 164.22 240.721 163.996 241.202 163.545L240.518 162.815ZM239.456 163.22C239.025 163.22 238.7 163.084 238.442 162.826L237.735 163.534C238.197 163.996 238.784 164.22 239.456 164.22V163.22ZM266.417 166.888H266.917V166.388H266.417V166.888ZM266.417 169.3V169.8H266.917V169.3H266.417ZM262.241 169.3V168.8H261.741V169.3H262.241ZM262.241 190V190.5H262.741V190H262.241ZM259.433 190H258.933V190.5H259.433V190ZM259.433 176.176H259.933V175.676H259.433V176.176ZM250.937 186.004L250.554 186.325L250.558 186.33L250.937 186.004ZM255.653 187.516H256.153V186.926L255.571 187.023L255.653 187.516ZM255.653 189.928L255.715 190.424L256.153 190.369V189.928H255.653ZM248.885 187.696L248.515 188.032L248.515 188.032L248.885 187.696ZM249.065 175.96L249.413 176.319L249.416 176.316L249.065 175.96ZM259.433 173.728V174.228H259.933V173.728H259.433ZM259.433 169.3H259.933V168.8H259.433V169.3ZM243.665 169.3H243.165V169.8H243.665V169.3ZM243.665 166.888V166.388H243.165V166.888H243.665ZM265.917 166.888V169.3H266.917V166.888H265.917ZM266.417 168.8H262.241V169.8H266.417V168.8ZM261.741 169.3V190H262.741V169.3H261.741ZM262.241 189.5H259.433V190.5H262.241V189.5ZM259.933 190V176.176H258.933V190H259.933ZM259.433 175.676H256.013V176.676H259.433V175.676ZM256.013 175.676C253.826 175.676 252.093 176.156 250.903 177.205C249.702 178.264 249.141 179.825 249.141 181.792H250.141C250.141 180.015 250.642 178.768 251.565 177.955C252.499 177.132 253.952 176.676 256.013 176.676V175.676ZM249.141 181.792C249.141 183.647 249.593 185.178 250.554 186.325L251.32 185.683C250.553 184.766 250.141 183.489 250.141 181.792H249.141ZM250.558 186.33C251.564 187.499 253.015 188.052 254.825 188.052V187.052C253.227 187.052 252.086 186.573 251.316 185.678L250.558 186.33ZM254.825 188.052C255.228 188.052 255.544 188.041 255.735 188.009L255.571 187.023C255.474 187.039 255.238 187.052 254.825 187.052V188.052ZM255.153 187.516V189.928H256.153V187.516H255.153ZM255.591 189.432C255.225 189.478 254.885 189.5 254.573 189.5V190.5C254.933 190.5 255.313 190.474 255.715 190.424L255.591 189.432ZM254.573 189.5C252.29 189.5 250.537 188.775 249.256 187.36L248.515 188.032C250.017 189.689 252.056 190.5 254.573 190.5V189.5ZM249.256 187.36C247.961 185.932 247.297 184.078 247.297 181.756H246.297C246.297 184.282 247.025 186.388 248.515 188.032L249.256 187.36ZM247.297 181.756C247.297 179.471 248.012 177.675 249.413 176.319L248.717 175.601C247.094 177.173 246.297 179.241 246.297 181.756H247.297ZM249.416 176.316C250.804 174.95 252.867 174.228 255.689 174.228V173.228C252.703 173.228 250.35 173.994 248.714 175.604L249.416 176.316ZM255.689 174.228H259.433V173.228H255.689V174.228ZM259.933 173.728V169.3H258.933V173.728H259.933ZM259.433 168.8H243.665V169.8H259.433V168.8ZM244.165 169.3V166.888H243.165V169.3H244.165ZM243.665 167.388H266.417V166.388H243.665V167.388ZM302.743 169.3H303.243V168.8H302.743V169.3ZM284.095 169.3V168.8H283.595V169.3H284.095ZM283.123 178.012L282.723 177.712L282.123 178.512H283.123V178.012ZM290.179 178.012V178.512H290.568L290.664 178.135L290.179 178.012ZM292.591 174.376L292.89 174.777L292.891 174.776L292.591 174.376ZM299.359 173.26H299.859V172.891L299.506 172.782L299.359 173.26ZM299.359 175.744L299.19 176.214L299.859 176.455V175.744H299.359ZM294.067 176.644L294.41 177.008L294.415 177.003L294.067 176.644ZM294.067 183.16L293.713 183.514L293.718 183.518L294.067 183.16ZM309.727 166.888H310.227V166.388H309.727V166.888ZM309.727 169.3V169.8H310.227V169.3H309.727ZM305.551 169.3V168.8H305.051V169.3H305.551ZM305.551 190V190.5H306.051V190H305.551ZM302.743 190H302.243V190.5H302.743V190ZM302.743 184.024H303.243V182.425L302.332 183.739L302.743 184.024ZM292.231 185.032L291.91 185.415L291.91 185.415L292.231 185.032ZM289.999 180.46L290.498 180.423L290.463 179.96H289.999V180.46ZM278.911 180.136L278.986 179.642L277.862 179.47L278.496 180.415L278.911 180.136ZM285.535 190V190.5H286.473L285.95 189.721L285.535 190ZM282.115 190L281.698 190.276L281.847 190.5H282.115V190ZM275.383 179.848H274.883V179.999L274.966 180.124L275.383 179.848ZM275.383 177.616V177.116H274.883V177.616H275.383ZM280.531 176.824L280.162 176.487L280.161 176.488L280.531 176.824ZM281.287 169.3H281.787V168.8H281.287V169.3ZM273.583 169.3H273.083V169.8H273.583V169.3ZM273.583 166.888V166.388H273.083V166.888H273.583ZM303.243 178.732V169.3H302.243V178.732H303.243ZM302.743 168.8H284.095V169.8H302.743V168.8ZM283.595 169.3V174.448H284.595V169.3H283.595ZM283.595 174.448C283.595 175.894 283.285 176.963 282.723 177.712L283.523 178.312C284.257 177.333 284.595 176.026 284.595 174.448H283.595ZM283.123 178.512H290.179V177.512H283.123V178.512ZM290.664 178.135C291.02 176.732 291.76 175.619 292.89 174.777L292.292 173.975C290.974 174.957 290.106 176.268 289.694 177.889L290.664 178.135ZM292.891 174.776C294.042 173.913 295.433 173.472 297.091 173.472V172.472C295.245 172.472 293.636 172.967 292.291 173.976L292.891 174.776ZM297.091 173.472C297.946 173.472 298.649 173.565 299.212 173.738L299.506 172.782C298.821 172.571 298.012 172.472 297.091 172.472V173.472ZM298.859 173.26V175.744H299.859V173.26H298.859ZM299.528 175.274C298.861 175.033 298.093 174.92 297.235 174.92V175.92C298.009 175.92 298.657 176.023 299.19 176.214L299.528 175.274ZM297.235 174.92C295.845 174.92 294.66 175.37 293.719 176.285L294.415 177.003C295.154 176.286 296.081 175.92 297.235 175.92V174.92ZM293.724 176.28C292.769 177.181 292.307 178.376 292.307 179.812H293.307C293.307 178.608 293.685 177.691 294.41 177.008L293.724 176.28ZM292.307 179.812C292.307 181.312 292.764 182.564 293.713 183.514L294.421 182.806C293.69 182.076 293.307 181.096 293.307 179.812H292.307ZM293.718 183.518C294.681 184.455 295.877 184.92 297.271 184.92V183.92C296.121 183.92 295.181 183.545 294.416 182.802L293.718 183.518ZM297.271 184.92C299.076 184.92 300.553 184.308 301.644 183.057L300.89 182.399C300.013 183.404 298.826 183.92 297.271 183.92V184.92ZM301.644 183.057C302.709 181.835 303.243 180.385 303.243 178.732H302.243C302.243 180.151 301.793 181.365 300.89 182.399L301.644 183.057ZM309.227 166.888V169.3H310.227V166.888H309.227ZM309.727 168.8H305.551V169.8H309.727V168.8ZM305.051 169.3V190H306.051V169.3H305.051ZM305.551 189.5H302.743V190.5H305.551V189.5ZM303.243 190V184.024H302.243V190H303.243ZM302.332 183.739C301.196 185.378 299.445 186.224 296.983 186.224V187.224C299.705 187.224 301.794 186.27 303.154 184.309L302.332 183.739ZM296.983 186.224C295.272 186.224 293.803 185.698 292.552 184.649L291.91 185.415C293.347 186.622 295.046 187.224 296.983 187.224V186.224ZM292.552 184.649C291.322 183.617 290.633 182.223 290.498 180.423L289.5 180.497C289.653 182.537 290.452 184.191 291.91 185.415L292.552 184.649ZM289.999 179.96H285.031V180.96H289.999V179.96ZM285.031 179.96C282.375 179.96 280.365 179.852 278.986 179.642L278.836 180.63C280.289 180.852 282.359 180.96 285.031 180.96V179.96ZM278.496 180.415L285.12 190.279L285.95 189.721L279.326 179.857L278.496 180.415ZM285.535 189.5H282.115V190.5H285.535V189.5ZM282.532 189.724L275.8 179.572L274.966 180.124L281.698 190.276L282.532 189.724ZM275.883 179.848V177.616H274.883V179.848H275.883ZM275.383 178.116H277.759V177.116H275.383V178.116ZM277.759 178.116C279.152 178.116 280.269 177.855 280.901 177.16L280.161 176.488C279.833 176.849 279.102 177.116 277.759 177.116V178.116ZM280.9 177.161C281.525 176.477 281.787 175.464 281.787 174.232H280.787C280.787 175.352 280.545 176.067 280.162 176.487L280.9 177.161ZM281.787 174.232V169.3H280.787V174.232H281.787ZM281.287 168.8H273.583V169.8H281.287V168.8ZM274.083 169.3V166.888H273.083V169.3H274.083ZM273.583 167.388H309.727V166.388H273.583V167.388ZM308.142 169.3H307.642V169.8H308.142V169.3ZM308.142 166.888V166.388H307.642V166.888H308.142ZM319.302 166.888H319.802V166.388H319.302V166.888ZM319.302 169.3V169.8H319.802V169.3H319.302ZM315.126 169.3V168.8H314.626V169.3H315.126ZM315.126 190V190.5H315.626V190H315.126ZM312.318 190H311.818V190.5H312.318V190ZM312.318 169.3H312.818V168.8H312.318V169.3ZM308.642 169.3V166.888H307.642V169.3H308.642ZM308.142 167.388H319.302V166.388H308.142V167.388ZM318.802 166.888V169.3H319.802V166.888H318.802ZM319.302 168.8H315.126V169.8H319.302V168.8ZM314.626 169.3V190H315.626V169.3H314.626ZM315.126 189.5H312.318V190.5H315.126V189.5ZM312.818 190V169.3H311.818V190H312.818ZM312.318 168.8H308.142V169.8H312.318V168.8ZM363.172 169.3H363.672V168.8H363.172V169.3ZM356.44 169.3V168.8H355.513L356.022 169.575L356.44 169.3ZM351.976 178.552L351.832 178.073L351.381 178.209L351.49 178.667L351.976 178.552ZM353.956 181.828L353.631 182.208L353.636 182.212L353.956 181.828ZM361.624 181.72L361.955 182.095L361.96 182.09L361.624 181.72ZM348.664 166.888V166.388H348.164V166.888H348.664ZM370.12 166.888H370.62V166.388H370.12V166.888ZM370.12 169.3V169.8H370.62V169.3H370.12ZM365.944 169.3V168.8H365.444V169.3H365.944ZM365.944 190V190.5H366.444V190H365.944ZM363.172 190H362.672V190.5H363.172V190ZM363.172 183.016H363.672V181.498L362.77 182.719L363.172 183.016ZM351.22 182.836L351.593 182.503L351.25 182.119L350.876 182.473L351.22 182.836ZM337.468 184.636L337.205 185.061L337.21 185.064L337.468 184.636ZM334.084 180.1L334.562 179.952L334.428 179.521L333.986 179.61L334.084 180.1ZM323.032 180.136L323.107 179.642L321.983 179.47L322.617 180.415L323.032 180.136ZM329.656 190V190.5H330.594L330.071 189.721L329.656 190ZM326.236 190L325.819 190.276L325.968 190.5H326.236V190ZM319.504 179.848H319.004V179.999L319.087 180.124L319.504 179.848ZM319.504 177.616V177.116H319.004V177.616H319.504ZM324.652 176.824L324.283 176.487L324.282 176.488L324.652 176.824ZM325.408 169.3H325.908V168.8H325.408V169.3ZM317.704 169.3H317.204V169.8H317.704V169.3ZM317.704 166.888V166.388H317.204V166.888H317.704ZM332.932 166.888H333.432V166.388H332.932V166.888ZM332.932 169.3V169.8H333.432V169.3H332.932ZM328.216 169.3V168.8H327.716V169.3H328.216ZM327.244 178.012L326.844 177.712L326.244 178.512H327.244V178.012ZM333.832 177.652L333.751 177.159L333.75 177.159L333.832 177.652ZM338.08 176.572L337.915 176.1L337.915 176.1L338.08 176.572ZM341.464 174.628L341.802 174.996L341.808 174.991L341.464 174.628ZM342.184 169.804L341.786 170.107L341.791 170.113L341.795 170.119L342.184 169.804ZM338.584 169.768L338.957 170.102L338.965 170.092L338.584 169.768ZM338.44 173.548V174.048H339.264L338.884 173.317L338.44 173.548ZM335.668 173.548L335.218 173.765L335.354 174.048H335.668V173.548ZM336.64 168.04L336.98 168.407L336.984 168.402L336.64 168.04ZM344.164 168.148L343.797 168.488L343.802 168.492L344.164 168.148ZM336.856 179.38L336.743 178.893L336.239 179.01L336.373 179.509L336.856 179.38ZM339.052 182.548L339.338 182.138L339.338 182.138L339.052 182.548ZM349.888 180.892L350.237 181.25L350.506 180.988L350.33 180.657L349.888 180.892ZM348.664 176.788L348.59 176.294L348.103 176.367L348.169 176.855L348.664 176.788ZM353.02 175.204L352.717 174.806L352.712 174.81L353.02 175.204ZM353.416 169.3L353.799 168.979L353.649 168.8H353.416V169.3ZM348.664 169.3H348.164V169.8H348.664V169.3ZM363.672 177.976V169.3H362.672V177.976H363.672ZM363.172 168.8H356.44V169.8H363.172V168.8ZM356.022 169.575C356.558 170.39 356.84 171.405 356.84 172.648H357.84C357.84 171.251 357.522 170.034 356.858 169.025L356.022 169.575ZM356.84 172.648C356.84 173.962 356.433 175.045 355.629 175.93C354.816 176.825 353.566 177.549 351.832 178.073L352.121 179.031C353.962 178.475 355.394 177.675 356.369 176.602C357.353 175.519 357.84 174.19 357.84 172.648H356.84ZM351.49 178.667C351.825 180.088 352.54 181.273 353.631 182.208L354.281 181.448C353.356 180.655 352.751 179.656 352.463 178.437L351.49 178.667ZM353.636 182.212C354.741 183.133 356.069 183.588 357.592 183.588V182.588C356.283 182.588 355.187 182.203 354.276 181.444L353.636 182.212ZM357.592 183.588C359.344 183.588 360.814 183.103 361.955 182.095L361.293 181.345C360.37 182.161 359.152 182.588 357.592 182.588V183.588ZM361.96 182.09C363.11 181.048 363.672 179.658 363.672 177.976H362.672C362.672 179.414 362.203 180.52 361.288 181.35L361.96 182.09ZM348.664 167.388H370.12V166.388H348.664V167.388ZM369.62 166.888V169.3H370.62V166.888H369.62ZM370.12 168.8H365.944V169.8H370.12V168.8ZM365.444 169.3V190H366.444V169.3H365.444ZM365.944 189.5H363.172V190.5H365.944V189.5ZM363.672 190V183.016H362.672V190H363.672ZM362.77 182.719C361.667 184.211 359.897 185 357.34 185V186C360.112 186 362.229 185.133 363.574 183.313L362.77 182.719ZM357.34 185C354.979 185 353.077 184.167 351.593 182.503L350.847 183.169C352.531 185.057 354.709 186 357.34 186V185ZM350.876 182.473C348.666 184.569 346.041 185.612 342.976 185.612V186.612C346.295 186.612 349.167 185.471 351.564 183.199L350.876 182.473ZM342.976 185.612C341.02 185.612 339.275 185.142 337.726 184.208L337.21 185.064C338.925 186.098 340.852 186.612 342.976 186.612V185.612ZM337.731 184.211C336.212 183.273 335.154 181.865 334.562 179.952L333.606 180.248C334.262 182.367 335.46 183.983 337.205 185.061L337.731 184.211ZM333.986 179.61C332.828 179.841 331.411 179.96 329.728 179.96V180.96C331.453 180.96 332.94 180.839 334.182 180.59L333.986 179.61ZM329.728 179.96H329.152V180.96H329.728V179.96ZM329.152 179.96C326.496 179.96 324.486 179.852 323.107 179.642L322.957 180.63C324.41 180.852 326.48 180.96 329.152 180.96V179.96ZM322.617 180.415L329.241 190.279L330.071 189.721L323.447 179.857L322.617 180.415ZM329.656 189.5H326.236V190.5H329.656V189.5ZM326.653 189.724L319.921 179.572L319.087 180.124L325.819 190.276L326.653 189.724ZM320.004 179.848V177.616H319.004V179.848H320.004ZM319.504 178.116H321.88V177.116H319.504V178.116ZM321.88 178.116C323.273 178.116 324.39 177.855 325.022 177.16L324.282 176.488C323.954 176.849 323.223 177.116 321.88 177.116V178.116ZM325.021 177.161C325.646 176.477 325.908 175.464 325.908 174.232H324.908C324.908 175.352 324.666 176.067 324.283 176.487L325.021 177.161ZM325.908 174.232V169.3H324.908V174.232H325.908ZM325.408 168.8H317.704V169.8H325.408V168.8ZM318.204 169.3V166.888H317.204V169.3H318.204ZM317.704 167.388H332.932V166.388H317.704V167.388ZM332.432 166.888V169.3H333.432V166.888H332.432ZM332.932 168.8H328.216V169.8H332.932V168.8ZM327.716 169.3V174.448H328.716V169.3H327.716ZM327.716 174.448C327.716 175.894 327.406 176.963 326.844 177.712L327.644 178.312C328.378 177.333 328.716 176.026 328.716 174.448H327.716ZM327.244 178.512H329.692V177.512H327.244V178.512ZM329.692 178.512C331.042 178.512 332.45 178.389 333.914 178.145L333.75 177.159C332.334 177.395 330.982 177.512 329.692 177.512V178.512ZM333.913 178.145C335.405 177.901 336.849 177.534 338.246 177.044L337.915 176.1C336.575 176.57 335.187 176.923 333.751 177.159L333.913 178.145ZM338.246 177.044C339.665 176.546 340.855 175.866 341.802 174.996L341.126 174.26C340.297 175.022 339.231 175.638 337.915 176.1L338.246 177.044ZM341.808 174.991C342.778 174.073 343.296 172.999 343.296 171.784H342.296C342.296 172.681 341.926 173.503 341.12 174.265L341.808 174.991ZM343.296 171.784C343.296 170.884 343.07 170.103 342.573 169.489L341.795 170.119C342.114 170.513 342.296 171.052 342.296 171.784H343.296ZM342.582 169.501C342.077 168.838 341.307 168.548 340.384 168.548V169.548C341.093 169.548 341.523 169.762 341.786 170.107L342.582 169.501ZM340.384 168.548C339.486 168.548 338.73 168.825 338.203 169.444L338.965 170.092C339.254 169.751 339.698 169.548 340.384 169.548V168.548ZM338.211 169.435C337.707 169.998 337.472 170.712 337.472 171.532H338.472C338.472 170.912 338.645 170.45 338.957 170.101L338.211 169.435ZM337.472 171.532C337.472 172.348 337.644 173.1 337.996 173.779L338.884 173.317C338.612 172.795 338.472 172.204 338.472 171.532H337.472ZM338.44 173.048H335.668V174.048H338.44V173.048ZM336.119 173.331C335.846 172.765 335.7 172.074 335.7 171.244H334.7C334.7 172.19 334.866 173.035 335.218 173.765L336.119 173.331ZM335.7 171.244C335.7 170.143 336.116 169.206 336.98 168.407L336.301 167.673C335.244 168.65 334.7 169.849 334.7 171.244H335.7ZM336.984 168.402C337.837 167.593 338.954 167.172 340.384 167.172V166.172C338.742 166.172 337.363 166.663 336.296 167.677L336.984 168.402ZM340.384 167.172C341.883 167.172 342.999 167.626 343.797 168.488L344.531 167.808C343.506 166.702 342.101 166.172 340.384 166.172V167.172ZM343.802 168.492C344.617 169.351 345.032 170.424 345.032 171.748H346.032C346.032 170.192 345.535 168.865 344.527 167.804L343.802 168.492ZM345.032 171.748C345.032 173.472 344.374 174.908 343.033 176.089C341.674 177.284 339.594 178.23 336.743 178.893L336.969 179.867C339.902 179.186 342.161 178.188 343.693 176.839C345.244 175.476 346.032 173.768 346.032 171.748H345.032ZM336.373 179.509C336.763 180.963 337.562 182.121 338.767 182.958L339.338 182.138C338.334 181.439 337.67 180.485 337.339 179.251L336.373 179.509ZM338.767 182.958C339.966 183.793 341.389 184.2 343.012 184.2V183.2C341.563 183.2 340.346 182.839 339.338 182.138L338.767 182.958ZM343.012 184.2C345.807 184.2 348.224 183.212 350.237 181.25L349.539 180.534C347.712 182.316 345.545 183.2 343.012 183.2V184.2ZM350.33 180.657C349.764 179.594 349.37 178.286 349.16 176.721L348.169 176.855C348.39 178.506 348.812 179.934 349.447 181.127L350.33 180.657ZM348.738 177.282C350.7 176.988 352.248 176.441 353.328 175.598L352.712 174.81C351.824 175.503 350.468 176.012 348.59 176.294L348.738 177.282ZM353.323 175.602C354.424 174.763 355.032 173.728 355.032 172.504H354.032C354.032 173.344 353.632 174.109 352.717 174.806L353.323 175.602ZM355.032 172.504C355.032 171.148 354.625 169.964 353.799 168.979L353.033 169.621C353.695 170.412 354.032 171.364 354.032 172.504H355.032ZM353.416 168.8H348.664V169.8H353.416V168.8ZM349.164 169.3V166.888H348.164V169.3H349.164ZM404.365 169.3H404.865V168.8H404.365V169.3ZM387.841 169.3V168.8H387.341V169.3H387.841ZM386.869 178.012L386.469 177.712L385.869 178.512H386.869V178.012ZM393.817 178.012V178.512H394.202L394.3 178.14L393.817 178.012ZM396.301 174.412L396.586 174.823L396.587 174.822L396.301 174.412ZM401.521 173.188H402.021V172.842L401.697 172.72L401.521 173.188ZM401.521 175.564L401.423 176.054L402.021 176.174V175.564H401.521ZM397.633 176.716L397.976 177.08L397.976 177.08L397.633 176.716ZM403.213 183.052L402.865 182.693L402.86 182.698L403.213 183.052ZM420.457 169.3V169.8H420.957V169.3H420.457ZM407.209 169.3V168.8H406.709V169.3H407.209ZM407.209 174.448H406.709V175.692L407.57 174.794L407.209 174.448ZM416.209 174.52L415.859 174.877L415.859 174.877L416.209 174.52ZM415.993 184.24L415.656 183.871L415.656 183.871L415.993 184.24ZM410.053 186.04H409.553V186.464L409.971 186.533L410.053 186.04ZM410.053 183.628L410.151 183.138L409.553 183.018V183.628H410.053ZM413.941 182.512L414.284 182.876L414.284 182.876L413.941 182.512ZM414.049 176.248L413.685 176.59L413.69 176.596L413.696 176.602L414.049 176.248ZM408.361 176.176L408.703 176.541L408.709 176.535L408.361 176.176ZM407.209 190V190.5H407.709V190H407.209ZM404.365 190H403.865V190.5H404.365V190ZM404.365 184.816H404.865V183.57L404.004 184.47L404.365 184.816ZM395.509 184.852L395.17 185.22L395.178 185.227L395.509 184.852ZM393.565 180.46L394.064 180.434L394.039 179.96H393.565V180.46ZM382.657 180.136L382.732 179.642L381.608 179.47L382.242 180.415L382.657 180.136ZM389.281 190V190.5H390.219L389.696 189.721L389.281 190ZM385.861 190L385.444 190.276L385.593 190.5H385.861V190ZM379.129 179.848H378.629V179.999L378.712 180.124L379.129 179.848ZM379.129 177.616V177.116H378.629V177.616H379.129ZM384.277 176.824L383.908 176.487L383.907 176.488L384.277 176.824ZM385.033 169.3H385.533V168.8H385.033V169.3ZM377.329 169.3H376.829V169.8H377.329V169.3ZM377.329 166.888V166.388H376.829V166.888H377.329ZM420.457 166.888H420.957V166.388H420.457V166.888ZM404.865 180.28V169.3H403.865V180.28H404.865ZM404.365 168.8H387.841V169.8H404.365V168.8ZM387.341 169.3V174.448H388.341V169.3H387.341ZM387.341 174.448C387.341 175.894 387.031 176.963 386.469 177.712L387.269 178.312C388.003 177.333 388.341 176.026 388.341 174.448H387.341ZM386.869 178.512H393.817V177.512H386.869V178.512ZM394.3 178.14C394.679 176.713 395.44 175.616 396.586 174.823L396.016 174.001C394.666 174.936 393.771 176.239 393.334 177.884L394.3 178.14ZM396.587 174.822C397.77 173.997 399.132 173.58 400.693 173.58V172.58C398.942 172.58 397.377 173.051 396.015 174.002L396.587 174.822ZM400.693 173.58C401.031 173.58 401.237 173.615 401.346 173.656L401.697 172.72C401.421 172.617 401.075 172.58 400.693 172.58V173.58ZM401.021 173.188V175.564H402.021V173.188H401.021ZM401.619 175.074C401.444 175.039 401.168 175.028 400.837 175.028V176.028C401.178 176.028 401.359 176.041 401.423 176.054L401.619 175.074ZM400.837 175.028C399.43 175.028 398.234 175.462 397.29 176.352L397.976 177.08C398.712 176.386 399.652 176.028 400.837 176.028V175.028ZM397.29 176.352C396.331 177.256 395.873 178.478 395.873 179.956H396.873C396.873 178.698 397.255 177.76 397.976 177.08L397.29 176.352ZM395.873 179.956C395.873 181.294 396.297 182.432 397.166 183.328L397.884 182.632C397.217 181.944 396.873 181.066 396.873 179.956H395.873ZM397.166 183.328C398.039 184.228 399.17 184.668 400.513 184.668V183.668C399.408 183.668 398.547 183.316 397.884 182.632L397.166 183.328ZM400.513 184.668C401.701 184.668 402.728 184.244 403.567 183.406L402.86 182.698C402.21 183.348 401.437 183.668 400.513 183.668V184.668ZM403.561 183.411C404.43 182.57 404.865 181.514 404.865 180.28H403.865C403.865 181.254 403.532 182.046 402.865 182.693L403.561 183.411ZM420.457 168.8H407.209V169.8H420.457V168.8ZM406.709 169.3V174.448H407.709V169.3H406.709ZM407.57 174.794C408.573 173.748 409.843 173.22 411.421 173.22V172.22C409.591 172.22 408.053 172.844 406.848 174.102L407.57 174.794ZM411.421 173.22C413.279 173.22 414.743 173.782 415.859 174.877L416.559 174.163C415.228 172.858 413.499 172.22 411.421 172.22V173.22ZM415.859 174.877C416.974 175.97 417.545 177.407 417.545 179.236H418.545C418.545 177.177 417.892 175.47 416.559 174.163L415.859 174.877ZM417.545 179.236C417.545 181.203 416.906 182.73 415.656 183.871L416.33 184.609C417.816 183.254 418.545 181.445 418.545 179.236H417.545ZM415.656 183.871C414.39 185.026 412.81 185.612 410.881 185.612V186.612C413.032 186.612 414.86 185.95 416.33 184.609L415.656 183.871ZM410.881 185.612C410.647 185.612 410.399 185.591 410.135 185.547L409.971 186.533C410.283 186.585 410.587 186.612 410.881 186.612V185.612ZM410.553 186.04V183.628H409.553V186.04H410.553ZM409.955 184.118C410.227 184.173 410.5 184.2 410.773 184.2V183.2C410.567 183.2 410.36 183.179 410.151 183.138L409.955 184.118ZM410.773 184.2C412.158 184.2 413.342 183.765 414.284 182.876L413.598 182.148C412.861 182.843 411.932 183.2 410.773 183.2V184.2ZM414.284 182.876C415.245 181.97 415.701 180.735 415.701 179.236H414.701C414.701 180.521 414.318 181.47 413.598 182.148L414.284 182.876ZM415.701 179.236C415.701 177.898 415.277 176.768 414.403 175.894L413.696 176.602C414.358 177.264 414.701 178.126 414.701 179.236H415.701ZM414.414 175.906C413.563 175 412.44 174.56 411.097 174.56V175.56C412.202 175.56 413.048 175.912 413.685 176.59L414.414 175.906ZM411.097 174.56C409.909 174.56 408.873 174.984 408.013 175.817L408.709 176.535C409.385 175.88 410.173 175.56 411.097 175.56V174.56ZM408.019 175.811C407.145 176.631 406.709 177.677 406.709 178.912H407.709C407.709 177.939 408.041 177.161 408.703 176.541L408.019 175.811ZM406.709 178.912V190H407.709V178.912H406.709ZM407.209 189.5H404.365V190.5H407.209V189.5ZM404.865 190V184.816H403.865V190H404.865ZM404.004 184.47C403.055 185.462 401.8 185.972 400.189 185.972V186.972C402.034 186.972 403.563 186.378 404.726 185.162L404.004 184.47ZM400.189 185.972C398.394 185.972 396.958 185.464 395.84 184.477L395.178 185.227C396.508 186.4 398.192 186.972 400.189 186.972V185.972ZM395.848 184.484C394.756 183.479 394.154 182.144 394.064 180.434L393.066 180.486C393.168 182.424 393.862 184.017 395.171 185.22L395.848 184.484ZM393.565 179.96H388.777V180.96H393.565V179.96ZM388.777 179.96C386.121 179.96 384.111 179.852 382.732 179.642L382.582 180.63C384.035 180.852 386.105 180.96 388.777 180.96V179.96ZM382.242 180.415L388.866 190.279L389.696 189.721L383.072 179.857L382.242 180.415ZM389.281 189.5H385.861V190.5H389.281V189.5ZM386.278 189.724L379.546 179.572L378.712 180.124L385.444 190.276L386.278 189.724ZM379.629 179.848V177.616H378.629V179.848H379.629ZM379.129 178.116H381.505V177.116H379.129V178.116ZM381.505 178.116C382.898 178.116 384.015 177.855 384.647 177.16L383.907 176.488C383.579 176.849 382.848 177.116 381.505 177.116V178.116ZM384.646 177.161C385.271 176.477 385.533 175.464 385.533 174.232H384.533C384.533 175.352 384.291 176.067 383.908 176.487L384.646 177.161ZM385.533 174.232V169.3H384.533V174.232H385.533ZM385.033 168.8H377.329V169.8H385.033V168.8ZM377.829 169.3V166.888H376.829V169.3H377.829ZM377.329 167.388H420.457V166.388H377.329V167.388ZM419.957 166.888V169.3H420.957V166.888H419.957ZM425.76 166.888L425.342 167.163L425.49 167.388H425.76V166.888ZM430.008 166.888H430.508V166.388H430.008V166.888ZM430.008 169.3V169.8H430.508V169.3H430.008ZM425.832 169.3V168.8H425.332V169.3H425.832ZM425.832 190V190.5H426.332V190H425.832ZM423.06 190H422.56V190.5H423.06V190ZM423.06 169.3H423.56V168.8H423.06V169.3ZM418.884 169.3H418.384V169.8H418.884V169.3ZM418.884 166.888V166.388H418.384V166.888H418.884ZM422.664 166.888V167.388H423.59L423.082 166.614L422.664 166.888ZM419.712 162.388L419.293 162.662L419.294 162.662L419.712 162.388ZM414.636 160.732H414.136V161.342L414.734 161.222L414.636 160.732ZM414.636 158.284L414.554 157.791L414.136 157.86V158.284H414.636ZM419.712 158.86L419.451 159.287L419.46 159.292L419.712 158.86ZM422.088 161.308L421.666 161.577L421.67 161.583L422.088 161.308ZM425.76 167.388H430.008V166.388H425.76V167.388ZM429.508 166.888V169.3H430.508V166.888H429.508ZM430.008 168.8H425.832V169.8H430.008V168.8ZM425.332 169.3V190H426.332V169.3H425.332ZM425.832 189.5H423.06V190.5H425.832V189.5ZM423.56 190V169.3H422.56V190H423.56ZM423.06 168.8H418.884V169.8H423.06V168.8ZM419.384 169.3V166.888H418.384V169.3H419.384ZM418.884 167.388H422.664V166.388H418.884V167.388ZM423.082 166.614L420.13 162.114L419.294 162.662L422.246 167.162L423.082 166.614ZM420.13 162.114C419.232 160.74 417.99 160.016 416.436 160.016V161.016C417.618 161.016 418.56 161.54 419.293 162.662L420.13 162.114ZM416.436 160.016C415.91 160.016 415.275 160.094 414.538 160.242L414.734 161.222C415.437 161.082 416.001 161.016 416.436 161.016V160.016ZM415.136 160.732V158.284H414.136V160.732H415.136ZM414.718 158.777C415.576 158.634 416.191 158.568 416.58 158.568V157.568C416.105 157.568 415.423 157.646 414.554 157.791L414.718 158.777ZM416.58 158.568C417.731 158.568 418.681 158.816 419.451 159.287L419.973 158.433C419.015 157.848 417.876 157.568 416.58 157.568V158.568ZM419.46 159.292C420.236 159.745 420.975 160.494 421.666 161.577L422.509 161.039C421.76 159.866 420.916 158.983 419.964 158.428L419.46 159.292ZM421.67 161.583L425.342 167.163L426.177 166.613L422.505 161.033L421.67 161.583ZM430.319 179.956H429.819V180.124L429.92 180.258L430.319 179.956ZM430.319 177.616V177.116H429.819V177.616H430.319ZM437.123 169.3H437.623V168.8H437.123V169.3ZM428.411 169.3H427.911V169.8H428.411V169.3ZM428.411 166.888V166.388H427.911V166.888H428.411ZM443.531 166.888H444.031V166.388H443.531V166.888ZM443.531 169.3V169.8H444.031V169.3H443.531ZM439.931 169.3V168.8H439.431V169.3H439.931ZM438.347 178.444L438.683 178.814L438.688 178.81L438.347 178.444ZM434.099 179.956V180.456L434.113 180.456L434.099 179.956ZM433.703 179.956V179.456H432.695L433.305 180.259L433.703 179.956ZM441.335 190V190.5H442.343L441.733 189.697L441.335 190ZM437.915 190L437.516 190.302L437.666 190.5H437.915V190ZM430.819 179.956V177.616H429.819V179.956H430.819ZM430.319 178.116H432.731V177.116H430.319V178.116ZM432.731 178.116C434.247 178.116 435.476 177.82 436.334 177.145C437.215 176.452 437.623 175.425 437.623 174.16H436.623C436.623 175.199 436.299 175.9 435.716 176.359C435.11 176.836 434.143 177.116 432.731 177.116V178.116ZM437.623 174.16V169.3H436.623V174.16H437.623ZM437.123 168.8H428.411V169.8H437.123V168.8ZM428.911 169.3V166.888H427.911V169.3H428.911ZM428.411 167.388H443.531V166.388H428.411V167.388ZM443.031 166.888V169.3H444.031V166.888H443.031ZM443.531 168.8H439.931V169.8H443.531V168.8ZM439.431 169.3V174.412H440.431V169.3H439.431ZM439.431 174.412C439.431 176.005 438.942 177.206 438.006 178.078L438.688 178.81C439.864 177.714 440.431 176.227 440.431 174.412H439.431ZM438.011 178.074C437.064 178.935 435.772 179.411 434.086 179.456L434.113 180.456C435.978 180.405 437.519 179.873 438.683 178.814L438.011 178.074ZM434.099 179.456H433.703V180.456H434.099V179.456ZM433.305 180.259L440.937 190.303L441.733 189.697L434.101 179.653L433.305 180.259ZM441.335 189.5H437.915V190.5H441.335V189.5ZM438.314 189.698L430.718 179.654L429.92 180.258L437.516 190.302L438.314 189.698ZM467.367 174.952V175.452H467.867V174.952H467.367ZM457.215 178.264L456.799 178.541L456.806 178.551L457.215 178.264ZM458.403 179.308L458.189 179.76L458.376 179.849L458.572 179.779L458.403 179.308ZM466.431 180.208L466.095 180.578L466.1 180.582L466.431 180.208ZM467.619 185.608V186.108H467.934L468.07 185.824L467.619 185.608ZM464.847 185.608L464.445 185.311L463.858 186.108H464.847V185.608ZM464.451 181.864L464.122 182.24L464.13 182.248L464.139 182.254L464.451 181.864ZM458.151 182.152L458.46 182.546L458.46 182.546L458.151 182.152ZM458.367 187.624L458.069 188.025L458.075 188.03L458.367 187.624ZM467.583 188.092H468.083V187.432L467.448 187.611L467.583 188.092ZM467.583 190.504L467.703 190.989L468.083 190.896V190.504H467.583ZM456.315 189.172L455.993 189.554L455.993 189.554L456.315 189.172ZM456.279 180.388L456.578 180.789L457.15 180.362L456.554 179.97L456.279 180.388ZM455.091 173.548L455.395 173.945L455.395 173.945L455.091 173.548ZM464.595 172.612V173.112H465.095V172.612H464.595ZM464.595 169.3H465.095V168.8H464.595V169.3ZM450.735 169.3H450.235V169.8H450.735V169.3ZM450.735 166.888V166.388H450.235V166.888H450.735ZM471.435 166.888H471.935V166.388H471.435V166.888ZM471.435 169.3V169.8H471.935V169.3H471.435ZM467.367 169.3V168.8H466.867V169.3H467.367ZM467.367 174.452H458.727V175.452H467.367V174.452ZM458.727 174.452C458.002 174.452 457.365 174.596 456.902 174.967C456.419 175.356 456.211 175.922 456.211 176.572H457.211C457.211 176.142 457.34 175.898 457.529 175.747C457.738 175.578 458.109 175.452 458.727 175.452V174.452ZM456.211 176.572C456.211 177.292 456.407 177.953 456.799 178.541L457.631 177.987C457.352 177.567 457.211 177.1 457.211 176.572H456.211ZM456.806 178.551C457.183 179.09 457.643 179.501 458.189 179.76L458.617 178.856C458.252 178.683 457.919 178.398 457.625 177.977L456.806 178.551ZM458.572 179.779C459.515 179.442 460.62 179.268 461.895 179.268V178.268C460.531 178.268 459.308 178.454 458.235 178.837L458.572 179.779ZM461.895 179.268C463.786 179.268 465.161 179.729 466.095 180.578L466.768 179.838C465.59 178.767 463.94 178.268 461.895 178.268V179.268ZM466.1 180.582C467.057 181.431 467.515 182.426 467.515 183.592H468.515C468.515 182.118 467.918 180.857 466.763 179.834L466.1 180.582ZM467.515 183.592C467.515 184.33 467.392 184.924 467.168 185.392L468.07 185.824C468.375 185.188 468.515 184.437 468.515 183.592H467.515ZM467.619 185.108H464.847V186.108H467.619V185.108ZM465.25 185.905C465.67 185.334 465.851 184.593 465.851 183.736H464.851C464.851 184.463 464.697 184.97 464.445 185.311L465.25 185.905ZM465.851 183.736C465.851 182.816 465.482 182.048 464.764 181.474L464.139 182.254C464.62 182.64 464.851 183.12 464.851 183.736H465.851ZM464.781 181.488C464.077 180.872 463.073 180.608 461.859 180.608V181.608C462.949 181.608 463.674 181.848 464.122 182.24L464.781 181.488ZM461.859 180.608C460.208 180.608 458.848 180.97 457.843 181.758L458.46 182.546C459.23 181.942 460.343 181.608 461.859 181.608V180.608ZM457.843 181.758C456.854 182.534 456.319 183.511 456.319 184.672H457.319C457.319 183.865 457.673 183.162 458.46 182.546L457.843 181.758ZM456.319 184.672C456.319 186.043 456.921 187.171 458.069 188.025L458.666 187.223C457.75 186.541 457.319 185.701 457.319 184.672H456.319ZM458.075 188.03C459.232 188.864 460.929 189.24 463.083 189.24V188.24C461.013 188.24 459.567 187.872 458.66 187.218L458.075 188.03ZM463.083 189.24C464.597 189.24 466.143 189.017 467.719 188.573L467.448 187.611C465.952 188.031 464.498 188.24 463.083 188.24V189.24ZM467.083 188.092V190.504H468.083V188.092H467.083ZM467.464 190.019C465.841 190.418 464.31 190.616 462.867 190.616V191.616C464.401 191.616 466.013 191.406 467.703 190.989L467.464 190.019ZM462.867 190.616C460.106 190.616 458.053 189.984 456.638 188.79L455.993 189.554C457.65 190.952 459.965 191.616 462.867 191.616V190.616ZM456.638 188.79C455.194 187.572 454.511 186.192 454.511 184.636H453.511C453.511 186.536 454.365 188.18 455.993 189.554L456.638 188.79ZM454.511 184.636C454.511 183.108 455.177 181.834 456.578 180.789L455.98 179.987C454.357 181.198 453.511 182.756 453.511 184.636H454.511ZM456.554 179.97C455.068 178.994 454.367 177.75 454.367 176.212H453.367C453.367 178.13 454.275 179.67 456.005 180.806L456.554 179.97ZM454.367 176.212C454.367 175.194 454.719 174.462 455.395 173.945L454.788 173.151C453.832 173.882 453.367 174.926 453.367 176.212H454.367ZM455.395 173.945C456.103 173.404 457.044 173.112 458.259 173.112V172.112C456.883 172.112 455.711 172.444 454.788 173.151L455.395 173.945ZM458.259 173.112H464.595V172.112H458.259V173.112ZM465.095 172.612V169.3H464.095V172.612H465.095ZM464.595 168.8H450.735V169.8H464.595V168.8ZM451.235 169.3V166.888H450.235V169.3H451.235ZM450.735 167.388H471.435V166.388H450.735V167.388ZM470.935 166.888V169.3H471.935V166.888H470.935ZM471.435 168.8H467.367V169.8H471.435V168.8ZM466.867 169.3V174.952H467.867V169.3H466.867ZM463.81 161.056L463.389 161.326L463.39 161.327L463.81 161.056ZM467.734 167.14V167.64H468.651L468.154 166.869L467.734 167.14ZM463.954 167.14L463.654 167.54L463.787 167.64H463.954V167.14ZM460.57 164.944L460.346 165.391L460.346 165.391L460.57 164.944ZM455.566 164.584H455.066V165.278L455.724 165.058L455.566 164.584ZM455.566 162.064L455.408 161.59L455.066 161.704V162.064H455.566ZM460.21 162.388L459.981 162.833L459.992 162.838L460.21 162.388ZM462.982 164.332L463.314 163.958L463.309 163.954L462.982 164.332ZM465.214 166.312L464.882 166.686L465.608 166.005L465.214 166.312ZM461.902 162.064L462.296 161.757L462.295 161.755L461.902 162.064ZM455.566 160.3H455.066V160.94L455.687 160.785L455.566 160.3ZM455.566 157.852L455.408 157.378L455.066 157.492V157.852H455.566ZM463.39 161.327L467.314 167.411L468.154 166.869L464.23 160.785L463.39 161.327ZM467.734 166.64H463.954V167.64H467.734V166.64ZM464.254 166.74C462.899 165.724 461.744 164.972 460.793 164.497L460.346 165.391C461.22 165.828 462.321 166.54 463.654 167.54L464.254 166.74ZM460.793 164.497C459.811 164.006 458.762 163.76 457.654 163.76V164.76C458.609 164.76 459.505 164.97 460.346 165.391L460.793 164.497ZM457.654 163.76C456.861 163.76 456.111 163.875 455.408 164.11L455.724 165.058C456.317 164.861 456.959 164.76 457.654 164.76V163.76ZM456.066 164.584V162.064H455.066V164.584H456.066ZM455.724 162.538C456.24 162.366 456.834 162.276 457.51 162.276V161.276C456.746 161.276 456.043 161.378 455.408 161.59L455.724 162.538ZM457.51 162.276C458.449 162.276 459.268 162.466 459.981 162.832L460.439 161.944C459.567 161.494 458.587 161.276 457.51 161.276V162.276ZM459.992 162.838C460.729 163.195 461.615 163.812 462.655 164.71L463.309 163.954C462.236 163.028 461.275 162.349 460.428 161.938L459.992 162.838ZM462.65 164.706L464.882 166.686L465.546 165.938L463.314 163.958L462.65 164.706ZM465.608 166.005L462.296 161.757L461.507 162.371L464.819 166.619L465.608 166.005ZM462.295 161.755C461.14 160.285 459.576 159.548 457.654 159.548V160.548C459.283 160.548 460.552 161.155 461.509 162.373L462.295 161.755ZM457.654 159.548C456.895 159.548 456.158 159.637 455.445 159.815L455.687 160.785C456.318 160.627 456.973 160.548 457.654 160.548V159.548ZM456.066 160.3V157.852H455.066V160.3H456.066ZM455.724 158.326C456.073 158.21 456.733 158.136 457.762 158.136V157.136C456.727 157.136 455.923 157.206 455.408 157.378L455.724 158.326ZM457.762 158.136C460.149 158.136 462.011 159.18 463.389 161.326L464.231 160.786C462.681 158.372 460.511 157.136 457.762 157.136V158.136Z" fill="#0186C6" mask="url(#path-18-outside-1_84_2450)"/>
<mask id="path-20-outside-2_84_2450" maskUnits="userSpaceOnUse" x="233" y="293" width="125" height="74" fill="black">
<rect fill="white" x="233" y="293" width="125" height="74"/>
<path d="M247.379 359V313.976L236.123 318.848V308.852L251.159 301.208H259.307V359H247.379ZM270.037 363.62L294.397 296.588H304.141L279.697 363.62H270.037ZM332.001 359.672C330.153 359.672 328.109 359.588 325.869 359.42C323.685 359.308 321.529 359.14 319.401 358.916C317.273 358.636 315.369 358.328 313.689 357.992V348.92C315.761 349.088 317.833 349.256 319.905 349.424C322.033 349.592 324.021 349.732 325.869 349.844C327.773 349.9 329.397 349.928 330.741 349.928C333.261 349.928 335.305 349.816 336.873 349.592C338.441 349.312 339.645 348.864 340.485 348.248C341.381 347.632 341.997 346.764 342.333 345.644C342.725 344.524 342.921 343.096 342.921 341.36C342.921 339.512 342.725 338.028 342.333 336.908C341.941 335.732 341.269 334.892 340.317 334.388C339.365 333.828 338.077 333.464 336.453 333.296C334.829 333.072 332.757 332.96 330.237 332.96C328.837 332.96 327.213 333.016 325.365 333.128C323.517 333.184 321.641 333.296 319.737 333.464C317.833 333.576 316.041 333.744 314.361 333.968V301.208H350.649V311.036H325.029V323.972C326.037 323.86 327.213 323.748 328.557 323.636C329.957 323.524 331.329 323.44 332.673 323.384C334.073 323.328 335.305 323.3 336.369 323.3C340.177 323.3 343.285 323.664 345.693 324.392C348.101 325.12 349.977 326.24 351.321 327.752C352.665 329.208 353.589 331 354.093 333.128C354.653 335.2 354.933 337.608 354.933 340.352C354.933 343.768 354.597 346.708 353.925 349.172C353.309 351.636 352.161 353.652 350.481 355.22C348.857 356.732 346.533 357.852 343.509 358.58C340.485 359.308 336.649 359.672 332.001 359.672Z"/>
</mask>
<path d="M247.379 359V313.976L236.123 318.848V308.852L251.159 301.208H259.307V359H247.379ZM270.037 363.62L294.397 296.588H304.141L279.697 363.62H270.037ZM332.001 359.672C330.153 359.672 328.109 359.588 325.869 359.42C323.685 359.308 321.529 359.14 319.401 358.916C317.273 358.636 315.369 358.328 313.689 357.992V348.92C315.761 349.088 317.833 349.256 319.905 349.424C322.033 349.592 324.021 349.732 325.869 349.844C327.773 349.9 329.397 349.928 330.741 349.928C333.261 349.928 335.305 349.816 336.873 349.592C338.441 349.312 339.645 348.864 340.485 348.248C341.381 347.632 341.997 346.764 342.333 345.644C342.725 344.524 342.921 343.096 342.921 341.36C342.921 339.512 342.725 338.028 342.333 336.908C341.941 335.732 341.269 334.892 340.317 334.388C339.365 333.828 338.077 333.464 336.453 333.296C334.829 333.072 332.757 332.96 330.237 332.96C328.837 332.96 327.213 333.016 325.365 333.128C323.517 333.184 321.641 333.296 319.737 333.464C317.833 333.576 316.041 333.744 314.361 333.968V301.208H350.649V311.036H325.029V323.972C326.037 323.86 327.213 323.748 328.557 323.636C329.957 323.524 331.329 323.44 332.673 323.384C334.073 323.328 335.305 323.3 336.369 323.3C340.177 323.3 343.285 323.664 345.693 324.392C348.101 325.12 349.977 326.24 351.321 327.752C352.665 329.208 353.589 331 354.093 333.128C354.653 335.2 354.933 337.608 354.933 340.352C354.933 343.768 354.597 346.708 353.925 349.172C353.309 351.636 352.161 353.652 350.481 355.22C348.857 356.732 346.533 357.852 343.509 358.58C340.485 359.308 336.649 359.672 332.001 359.672Z" fill="white"/>
<path d="M247.379 359H244.379V362H247.379V359ZM247.379 313.976H250.379V309.409L246.187 311.223L247.379 313.976ZM236.123 318.848H233.123V323.415L237.314 321.601L236.123 318.848ZM236.123 308.852L234.763 306.178L233.123 307.012V308.852H236.123ZM251.159 301.208V298.208H250.44L249.799 298.534L251.159 301.208ZM259.307 301.208H262.307V298.208H259.307V301.208ZM259.307 359V362H262.307V359H259.307ZM250.379 359V313.976H244.379V359H250.379ZM246.187 311.223L234.931 316.095L237.314 321.601L248.57 316.729L246.187 311.223ZM239.123 318.848V308.852H233.123V318.848H239.123ZM237.482 311.526L252.518 303.882L249.799 298.534L234.763 306.178L237.482 311.526ZM251.159 304.208H259.307V298.208H251.159V304.208ZM256.307 301.208V359H262.307V301.208H256.307ZM259.307 356H247.379V362H259.307V356ZM270.037 363.62L267.217 362.595L265.755 366.62H270.037V363.62ZM294.397 296.588V293.588H292.295L291.577 295.563L294.397 296.588ZM304.141 296.588L306.959 297.616L308.428 293.588H304.141V296.588ZM279.697 363.62V366.62H281.796L282.515 364.648L279.697 363.62ZM272.857 364.645L297.217 297.613L291.577 295.563L267.217 362.595L272.857 364.645ZM294.397 299.588H304.141V293.588H294.397V299.588ZM301.323 295.56L276.879 362.592L282.515 364.648L306.959 297.616L301.323 295.56ZM279.697 360.62H270.037V366.62H279.697V360.62ZM325.869 359.42L326.094 356.428L326.058 356.426L326.023 356.424L325.869 359.42ZM319.401 358.916L319.01 361.89L319.049 361.895L319.087 361.9L319.401 358.916ZM313.689 357.992H310.689V360.451L313.101 360.934L313.689 357.992ZM313.689 348.92L313.932 345.93L310.689 345.667V348.92H313.689ZM319.905 349.424L319.663 352.414L319.669 352.415L319.905 349.424ZM325.869 349.844L325.688 352.839L325.735 352.841L325.781 352.843L325.869 349.844ZM336.873 349.592L337.298 352.562L337.349 352.554L337.401 352.545L336.873 349.592ZM340.485 348.248L338.786 345.776L338.748 345.802L338.711 345.829L340.485 348.248ZM342.333 345.644L339.502 344.653L339.479 344.717L339.46 344.782L342.333 345.644ZM342.333 336.908L339.487 337.857L339.494 337.878L339.502 337.899L342.333 336.908ZM340.317 334.388L338.796 336.974L338.854 337.008L338.914 337.039L340.317 334.388ZM336.453 333.296L336.044 336.268L336.094 336.275L336.145 336.28L336.453 333.296ZM325.365 333.128L325.456 336.127L325.502 336.125L325.547 336.123L325.365 333.128ZM319.737 333.464L319.914 336.459L319.957 336.456L320.001 336.452L319.737 333.464ZM314.361 333.968H311.361V337.395L314.758 336.942L314.361 333.968ZM314.361 301.208V298.208H311.361V301.208H314.361ZM350.649 301.208H353.649V298.208H350.649V301.208ZM350.649 311.036V314.036H353.649V311.036H350.649ZM325.029 311.036V308.036H322.029V311.036H325.029ZM325.029 323.972H322.029V327.324L325.361 326.954L325.029 323.972ZM328.557 323.636L328.318 320.646L328.308 320.646L328.557 323.636ZM332.673 323.384L332.554 320.386L332.549 320.387L332.673 323.384ZM345.693 324.392L346.562 321.52L346.562 321.52L345.693 324.392ZM351.321 327.752L349.079 329.745L349.098 329.766L349.117 329.787L351.321 327.752ZM354.093 333.128L351.174 333.819L351.185 333.865L351.197 333.911L354.093 333.128ZM353.925 349.172L351.031 348.383L351.023 348.413L351.015 348.444L353.925 349.172ZM350.481 355.22L352.526 357.416L352.528 357.413L350.481 355.22ZM343.509 358.58L344.212 361.497L344.212 361.497L343.509 358.58ZM332.001 356.672C330.242 356.672 328.274 356.592 326.094 356.428L325.645 362.412C327.944 362.584 330.065 362.672 332.001 362.672V356.672ZM326.023 356.424C323.891 356.315 321.789 356.151 319.715 355.932L319.087 361.9C321.27 362.129 323.479 362.301 325.716 362.416L326.023 356.424ZM319.793 355.942C317.715 355.668 315.879 355.37 314.278 355.05L313.101 360.934C314.86 361.286 316.832 361.604 319.01 361.89L319.793 355.942ZM316.689 357.992V348.92H310.689V357.992H316.689ZM313.447 351.91C315.519 352.078 317.591 352.246 319.663 352.414L320.148 346.434C318.076 346.266 316.004 346.098 313.932 345.93L313.447 351.91ZM319.669 352.415C321.813 352.584 323.819 352.725 325.688 352.839L326.051 346.849C324.224 346.739 322.254 346.6 320.142 346.433L319.669 352.415ZM325.781 352.843C327.704 352.899 329.359 352.928 330.741 352.928V346.928C329.436 346.928 327.843 346.901 325.958 346.845L325.781 352.843ZM330.741 352.928C333.331 352.928 335.532 352.814 337.298 352.562L336.449 346.622C335.079 346.818 333.192 346.928 330.741 346.928V352.928ZM337.401 352.545C339.203 352.223 340.906 351.66 342.26 350.667L338.711 345.829C338.384 346.068 337.68 346.401 336.346 346.639L337.401 352.545ZM342.185 350.72C343.688 349.687 344.69 348.228 345.207 346.506L339.46 344.782C339.305 345.3 339.075 345.577 338.786 345.776L342.185 350.72ZM345.165 346.635C345.707 345.086 345.921 343.292 345.921 341.36H339.921C339.921 342.9 339.744 343.962 339.502 344.653L345.165 346.635ZM345.921 341.36C345.921 339.341 345.713 337.482 345.165 335.917L339.502 337.899C339.738 338.574 339.921 339.683 339.921 341.36H345.921ZM345.179 335.959C344.583 334.17 343.458 332.656 341.721 331.737L338.914 337.039C339.081 337.128 339.3 337.294 339.487 337.857L345.179 335.959ZM341.838 331.802C340.382 330.945 338.627 330.505 336.762 330.312L336.145 336.28C337.528 336.423 338.349 336.711 338.796 336.974L341.838 331.802ZM336.863 330.324C335.052 330.074 332.83 329.96 330.237 329.96V335.96C332.685 335.96 334.607 336.07 336.044 336.268L336.863 330.324ZM330.237 329.96C328.761 329.96 327.074 330.019 325.184 330.133L325.547 336.123C327.352 336.013 328.914 335.96 330.237 335.96V329.96ZM325.275 330.129C323.367 330.187 321.433 330.303 319.474 330.476L320.001 336.452C321.85 336.289 323.668 336.181 325.456 336.127L325.275 330.129ZM319.561 330.469C317.593 330.585 315.726 330.759 313.965 330.994L314.758 336.942C316.356 336.729 318.074 336.567 319.914 336.459L319.561 330.469ZM317.361 333.968V301.208H311.361V333.968H317.361ZM314.361 304.208H350.649V298.208H314.361V304.208ZM347.649 301.208V311.036H353.649V301.208H347.649ZM350.649 308.036H325.029V314.036H350.649V308.036ZM322.029 311.036V323.972H328.029V311.036H322.029ZM325.361 326.954C326.334 326.845 327.482 326.736 328.807 326.626L328.308 320.646C326.945 320.76 325.741 320.875 324.698 320.99L325.361 326.954ZM328.797 326.626C330.16 326.517 331.494 326.436 332.798 326.381L332.549 320.387C331.165 320.444 329.755 320.531 328.318 320.646L328.797 326.626ZM332.793 326.382C334.165 326.327 335.356 326.3 336.369 326.3V320.3C335.255 320.3 333.982 320.329 332.554 320.386L332.793 326.382ZM336.369 326.3C340.018 326.3 342.804 326.652 344.825 327.264L346.562 321.52C343.767 320.676 340.337 320.3 336.369 320.3V326.3ZM344.825 327.264C346.831 327.87 348.183 328.737 349.079 329.745L353.564 325.759C351.772 323.743 349.371 322.37 346.562 321.52L344.825 327.264ZM349.117 329.787C350.076 330.826 350.776 332.14 351.174 333.819L357.013 332.437C356.402 329.86 355.255 327.59 353.526 325.717L349.117 329.787ZM351.197 333.911C351.672 335.668 351.933 337.803 351.933 340.352H357.933C357.933 337.413 357.635 334.732 356.99 332.345L351.197 333.911ZM351.933 340.352C351.933 343.585 351.614 346.246 351.031 348.383L356.82 349.961C357.581 347.17 357.933 343.951 357.933 340.352H351.933ZM351.015 348.444C350.524 350.408 349.647 351.895 348.434 353.027L352.528 357.413C354.675 355.409 356.095 352.864 356.836 349.9L351.015 348.444ZM348.437 353.024C347.313 354.071 345.52 355.01 342.807 355.663L344.212 361.497C347.546 360.694 350.402 359.393 352.526 357.416L348.437 353.024ZM342.807 355.663C340.096 356.316 336.517 356.672 332.001 356.672V362.672C336.782 362.672 340.875 362.3 344.212 361.497L342.807 355.663Z" fill="#FF0000" mask="url(#path-20-outside-2_84_2450)"/>
<path d="M129.41 396.5H465.592C480.656 396.5 492.5 406.73 492.5 418.684V446.316C492.5 458.27 480.656 468.5 465.592 468.5H129.41C114.346 468.5 102.5 458.27 102.5 446.316V418.684C102.5 406.731 114.346 396.5 129.41 396.5Z" fill="#FFF2F2" stroke="#FF0000" stroke-width="3" stroke-linecap="square"/>
<path d="M288.317 418.32V421H283.717V444H280.557V436.8C279.331 438.053 277.731 438.68 275.757 438.68C273.917 438.68 272.344 438.067 271.037 436.84C269.731 435.613 269.077 434.027 269.077 432.08C269.077 430.027 269.731 428.4 271.037 427.2C272.344 425.973 273.944 425.36 275.837 425.36C276.504 425.36 277.144 425.427 277.757 425.56V428.16C277.331 428.027 276.824 427.96 276.237 427.96C275.091 427.96 274.117 428.347 273.317 429.12C272.544 429.893 272.157 430.893 272.157 432.12C272.157 433.347 272.531 434.333 273.277 435.08C274.051 435.8 275.051 436.16 276.277 436.16C277.451 436.16 278.451 435.76 279.277 434.96C280.131 434.133 280.557 433.067 280.557 431.76V421H268.197V426.68C268.197 428.573 267.597 430.053 266.397 431.12C265.224 432.187 263.651 432.76 261.677 432.84L261.197 432.88L269.997 444H266.117L257.517 432.84V430.24H260.197C263.451 430.24 265.077 428.947 265.077 426.36V421H255.397V418.32H288.317ZM288.689 432.84V430.24H291.369C294.623 430.24 296.249 428.96 296.249 426.4V421H286.569V418.32H303.369V421H299.369V426.68C299.369 428.573 298.783 430.067 297.609 431.16C296.436 432.227 294.863 432.787 292.889 432.84H292.449L300.929 444H297.129L288.689 432.84ZM301.608 421V418.32H314.008V421H309.368V444H306.248V421H301.608ZM327.993 437.08L319.513 428.84C318.74 429.827 318.353 431.067 318.353 432.56C318.353 434.213 318.873 435.573 319.913 436.64C320.98 437.68 322.34 438.2 323.993 438.2C325.593 438.2 326.927 437.827 327.993 437.08ZM338.633 418.32V421H333.993V444H330.873V437.48C330.153 438.44 329.167 439.227 327.913 439.84C326.66 440.453 325.26 440.76 323.713 440.76C321.393 440.76 319.407 440 317.753 438.48C316.127 436.933 315.313 434.947 315.313 432.52C315.313 430.093 316.127 428.107 317.753 426.56C319.407 424.987 321.513 424.2 324.073 424.2C325.14 424.2 326.247 424.333 327.393 424.6V427.36C326.327 427.013 325.287 426.84 324.273 426.84C323.047 426.84 322.007 427.067 321.153 427.52L329.513 435.72C330.42 434.573 330.873 433.253 330.873 431.76V421H312.233V418.32H338.633Z" fill="#FF0000"/>
</svg>
