<svg width="201" height="46" viewBox="0 0 201 46" fill="none" xmlns="http://www.w3.org/2000/svg">
<path fill-rule="evenodd" clip-rule="evenodd" d="M9.59773 0H190.604C195.884 0 200.202 4.31769 200.202 9.59649V35.5685C200.202 40.8494 195.884 45.1671 190.604 45.1671H9.59773C4.3181 45.1671 0 40.8494 0 35.5685V9.59649C0 4.31769 4.3181 0 9.59773 0Z" fill="#05A310"/>
<path d="M53.0017 21.676H59.1897V14.9H53.7577V18.904C53.7577 20.08 53.5057 21.004 53.0017 21.676ZM64.5937 13.024V14.9H61.3737V31H59.1897V23.58H54.4857C52.4137 23.58 50.827 23.496 49.7257 23.328L54.8777 31H52.2177L46.9817 23.104V21.368H48.8297C49.8937 21.368 50.6123 21.1627 50.9857 20.752C51.3777 20.3227 51.5737 19.6507 51.5737 18.736V14.9H45.5817V13.024H64.5937ZM58.0071 10.14C57.7084 9.86 57.5591 9.50533 57.5591 9.076C57.5591 8.64667 57.7084 8.28267 58.0071 7.984C58.2871 7.68533 58.6418 7.536 59.0711 7.536C59.5004 7.536 59.8644 7.68533 60.1631 7.984C60.4618 8.28267 60.6111 8.64667 60.6111 9.076C60.6111 9.50533 60.4618 9.86 60.1631 10.14C59.8644 10.42 59.5004 10.56 59.0711 10.56C58.6418 10.56 58.2871 10.42 58.0071 10.14ZM72.4551 21.284V13.024H77.8871V14.9H74.6391V31H72.4551V23.132H66.9671V26.968H65.0071L64.3351 25.4C63.8311 24.28 63.5791 23.4493 63.5791 22.908C63.5791 22.516 63.6818 22.18 63.8871 21.9C64.1111 21.62 64.4004 21.4427 64.7551 21.368V16.608C64.7551 15.9733 64.6618 15.516 64.4751 15.236C64.2884 14.9373 63.9524 14.788 63.4671 14.788C62.8698 14.788 62.3471 14.9093 61.8991 15.152V13.332C62.4591 13.052 63.1124 12.912 63.8591 12.912C65.9311 12.912 66.9671 14.0227 66.9671 16.244V21.284H72.4551ZM75.5263 14.9V13.024H84.2063V14.9H80.9583V31H78.7743V14.9H75.5263ZM99.1478 13.024V14.9H95.8998V31H93.7158V26.352C92.7452 27.752 91.2518 28.452 89.2358 28.452C87.7425 28.452 86.4545 27.976 85.3718 27.024C84.3078 26.0533 83.7758 24.7467 83.7758 23.104C83.7758 21.5733 84.2892 20.304 85.3158 19.296C86.3612 18.2693 87.6958 17.756 89.3198 17.756C90.0105 17.756 90.5985 17.8307 91.0838 17.98V19.912C90.6172 19.744 90.0665 19.66 89.4318 19.66C88.4425 19.66 87.6212 19.9773 86.9678 20.612C86.3145 21.228 85.9878 22.0493 85.9878 23.076C85.9878 24.1587 86.3145 25.0267 86.9678 25.68C87.6398 26.3333 88.4705 26.66 89.4598 26.66C90.7665 26.66 91.8025 26.2213 92.5678 25.344C93.3332 24.4667 93.7158 23.4307 93.7158 22.236V14.9H81.8438V13.024H99.1478ZM96.802 13.024H111.754V14.9H108.534V31H106.322V21.788H101.366C101.03 21.788 100.797 21.872 100.666 22.04C100.535 22.208 100.47 22.488 100.47 22.88C100.47 23.5333 100.591 24.224 100.834 24.952H98.986C98.4633 23.9067 98.202 22.936 98.202 22.04C98.202 20.64 99.014 19.94 100.638 19.94H106.322V14.9H96.802V13.024ZM109.409 14.9V13.024H118.089V14.9H114.841V31H112.657V14.9H109.409ZM121.442 13.024H136.394V14.9H133.174V31H130.962V21.788H126.006C125.67 21.788 125.437 21.872 125.306 22.04C125.175 22.208 125.11 22.488 125.11 22.88C125.11 23.5333 125.231 24.224 125.474 24.952H123.626C123.103 23.9067 122.842 22.936 122.842 22.04C122.842 20.64 123.654 19.94 125.278 19.94H130.962V14.9H121.442V13.024ZM146.985 19.296H140.265C139.219 19.296 138.697 19.716 138.697 20.556C138.697 21.0413 138.827 21.48 139.089 21.872C139.35 22.2453 139.658 22.516 140.013 22.684C140.797 22.404 141.702 22.264 142.729 22.264C144.259 22.264 145.435 22.6373 146.257 23.384C147.078 24.112 147.489 24.9893 147.489 26.016C147.489 26.632 147.386 27.1547 147.181 27.584H145.025C145.286 27.2293 145.417 26.744 145.417 26.128C145.417 25.5307 145.183 25.0453 144.717 24.672C144.269 24.28 143.597 24.084 142.701 24.084C141.469 24.084 140.507 24.3547 139.817 24.896C139.126 25.4373 138.781 26.0907 138.781 26.856C138.781 27.7893 139.182 28.5547 139.985 29.152C140.787 29.7307 142.01 30.02 143.653 30.02C144.791 30.02 145.958 29.852 147.153 29.516V31.392C145.865 31.7093 144.642 31.868 143.485 31.868C141.282 31.868 139.583 31.364 138.389 30.356C137.194 29.348 136.597 28.172 136.597 26.828C136.597 25.5027 137.185 24.4013 138.361 23.524C137.11 22.7027 136.485 21.62 136.485 20.276C136.485 19.38 136.802 18.6893 137.437 18.204C138.071 17.7187 138.893 17.476 139.901 17.476H144.829V14.9H134.049V13.024H150.149V14.9H146.985V19.296ZM153.18 10.616V13.024H156.428V14.9H153.208V31H151.024V14.9H147.776V13.024H150.968V10.672C150.968 9.75733 150.716 9.05733 150.212 8.572C149.727 8.08667 149.083 7.844 148.28 7.844C147.478 7.844 146.843 8.08667 146.376 8.572C145.91 9.03867 145.676 9.73867 145.676 10.672V11.176H143.492V10.616C143.492 9.048 143.95 7.872 144.864 7.088C145.76 6.304 146.899 5.912 148.28 5.912C149.68 5.912 150.847 6.304 151.78 7.088C152.714 7.872 153.18 9.048 153.18 10.616ZM155.168 7.76C155.467 7.46133 155.831 7.312 156.26 7.312C156.69 7.312 157.054 7.46133 157.352 7.76C157.651 8.05867 157.8 8.42267 157.8 8.852C157.8 9.28133 157.651 9.636 157.352 9.916C157.054 10.196 156.69 10.336 156.26 10.336C155.831 10.336 155.467 10.196 155.168 9.916C154.888 9.636 154.748 9.28133 154.748 8.852C154.748 8.42267 154.888 8.05867 155.168 7.76Z" fill="white"/>
</svg>
