<svg width="201" height="46" viewBox="0 0 201 46" fill="none" xmlns="http://www.w3.org/2000/svg">
<path fill-rule="evenodd" clip-rule="evenodd" d="M9.59773 0H190.604C195.884 0 200.202 4.31769 200.202 9.59649V35.5685C200.202 40.8494 195.884 45.1671 190.604 45.1671H9.59773C4.3181 45.1671 0 40.8494 0 35.5685V9.59649C0 4.31769 4.3181 0 9.59773 0Z" fill="#05A310"/>
<path d="M25.4055 28.24C24.6055 28.24 23.8855 28.1133 23.2455 27.86C22.6055 27.6067 22.0989 27.2333 21.7255 26.74C21.3522 26.2467 21.1655 25.6533 21.1655 24.96C21.1655 24.24 21.3522 23.62 21.7255 23.1C22.1122 22.5667 22.7189 22.16 23.5455 21.88C24.3722 21.5867 25.4655 21.44 26.8255 21.44H33.8455V22.84H26.6855C26.0055 22.84 25.4255 22.88 24.9455 22.96C24.4789 23.04 24.0789 23.1733 23.7455 23.36C23.4522 23.5333 23.2322 23.7467 23.0855 24C22.9522 24.24 22.8855 24.5533 22.8855 24.94C22.8855 25.5533 23.1389 26.02 23.6455 26.34C24.1522 26.6467 24.7922 26.8 25.5655 26.8C26.1522 26.8 26.6522 26.7133 27.0655 26.54C27.4922 26.3533 27.8189 26.04 28.0455 25.6C28.2855 25.1467 28.4055 24.5267 28.4055 23.74V18.36H24.9655V21.96L23.3855 22.28V16.92H33.8455V18.36H30.1055V23.48C30.1055 24.3733 30.0255 25.0733 29.8655 25.58C29.7189 26.0867 29.5055 26.5133 29.2255 26.86C28.8122 27.3667 28.2789 27.7267 27.6255 27.94C26.9855 28.14 26.2455 28.24 25.4055 28.24ZM35.2666 28V16.92H45.9666V18.36H42.5666V28H40.8466V18.36H36.9866V28H35.2666ZM49.8212 28.24C49.0212 28.24 48.3012 28.1133 47.6612 27.86C47.0212 27.6067 46.5145 27.2333 46.1412 26.74C45.7678 26.2467 45.5812 25.6533 45.5812 24.96C45.5812 24.24 45.7678 23.62 46.1412 23.1C46.5278 22.5667 47.1345 22.16 47.9612 21.88C48.7878 21.5867 49.8812 21.44 51.2412 21.44H54.1412C55.3012 21.44 56.3345 21.5867 57.2412 21.88C58.1478 22.16 58.8545 22.6333 59.3612 23.3C59.8812 23.9667 60.1412 24.88 60.1412 26.04C60.1412 26.9333 59.9745 27.68 59.6412 28.28C59.3078 28.8933 58.8345 29.4267 58.2212 29.88C57.7812 30.1867 57.2812 30.4333 56.7212 30.62C56.1745 30.8067 55.5412 30.9333 54.8212 31C54.1012 31.08 53.2612 31.12 52.3012 31.12H50.0412C49.4812 31.12 49.0478 31.16 48.7412 31.24C48.4345 31.32 48.1678 31.4333 47.9412 31.58C47.7278 31.7267 47.5612 31.9333 47.4412 32.2C47.3212 32.4667 47.2612 32.82 47.2612 33.26C47.2612 33.46 47.2678 33.6467 47.2812 33.82C47.2945 34.0067 47.3078 34.18 47.3212 34.34L45.6812 34.42C45.6412 34.18 45.6078 33.9133 45.5812 33.62C45.5545 33.34 45.5412 33.0867 45.5412 32.86C45.5412 32.2733 45.6478 31.7733 45.8612 31.36C46.0745 30.96 46.3478 30.6333 46.6812 30.38C46.9212 30.2067 47.1678 30.0667 47.4212 29.96C47.6878 29.8667 47.9878 29.7933 48.3212 29.74C48.6678 29.7 49.0612 29.68 49.5012 29.68H51.6812C52.8678 29.68 53.8412 29.6267 54.6012 29.52C55.3612 29.4267 55.9745 29.2733 56.4412 29.06C56.9078 28.86 57.2945 28.5933 57.6012 28.26C57.8678 27.9667 58.0678 27.6267 58.2012 27.24C58.3478 26.84 58.4212 26.3933 58.4212 25.9C58.4212 25.2467 58.2878 24.72 58.0212 24.32C57.7678 23.92 57.4212 23.6133 56.9812 23.4C56.5545 23.1867 56.0745 23.04 55.5412 22.96C55.0212 22.88 54.4878 22.84 53.9412 22.84H51.1012C50.4212 22.84 49.8412 22.88 49.3612 22.96C48.8945 23.04 48.4945 23.1733 48.1612 23.36C47.8678 23.5333 47.6478 23.7467 47.5012 24C47.3678 24.24 47.3012 24.5533 47.3012 24.94C47.3012 25.5533 47.5545 26.02 48.0612 26.34C48.5678 26.6467 49.2078 26.8 49.9812 26.8C50.5678 26.8 51.0678 26.7133 51.4812 26.54C51.9078 26.3533 52.2345 26.04 52.4612 25.6C52.7012 25.1467 52.8212 24.5267 52.8212 23.74V18.36H49.3812V21.96L47.8012 22.28V16.92H58.2612V18.36H54.5212V23.48C54.5212 24.3733 54.4412 25.0733 54.2812 25.58C54.1345 26.0867 53.9212 26.5133 53.6412 26.86C53.2278 27.3667 52.6945 27.7267 52.0412 27.94C51.4012 28.14 50.6612 28.24 49.8212 28.24ZM53.3012 14.44C52.9145 14.44 52.5945 14.32 52.3412 14.08C52.0878 13.8267 51.9612 13.5 51.9612 13.1C51.9612 12.7133 52.0878 12.3933 52.3412 12.14C52.5945 11.8867 52.9145 11.76 53.3012 11.76C53.6878 11.76 54.0078 11.8867 54.2612 12.14C54.5145 12.3933 54.6412 12.7133 54.6412 13.1C54.6412 13.5 54.5145 13.8267 54.2612 14.08C54.0078 14.32 53.6878 14.44 53.3012 14.44ZM65.5251 28.24C64.7251 28.24 64.0051 28.1133 63.3651 27.86C62.7251 27.6067 62.2184 27.2333 61.8451 26.74C61.4717 26.2467 61.2851 25.6533 61.2851 24.96C61.2851 24.24 61.4717 23.62 61.8451 23.1C62.2317 22.5667 62.8384 22.16 63.6651 21.88C64.4917 21.5867 65.5851 21.44 66.9451 21.44H69.8451C71.0051 21.44 72.0384 21.5867 72.9451 21.88C73.8517 22.16 74.5584 22.6333 75.0651 23.3C75.5851 23.9667 75.8451 24.88 75.8451 26.04C75.8451 26.9333 75.6784 27.68 75.3451 28.28C75.0117 28.8933 74.5384 29.4267 73.9251 29.88C73.4851 30.1867 72.9851 30.4333 72.4251 30.62C71.8784 30.8067 71.2451 30.9333 70.5251 31C69.8051 31.08 68.9651 31.12 68.0051 31.12H65.7451C65.1851 31.12 64.7517 31.16 64.4451 31.24C64.1384 31.32 63.8717 31.4333 63.6451 31.58C63.4317 31.7267 63.2651 31.9333 63.1451 32.2C63.0251 32.4667 62.9651 32.82 62.9651 33.26C62.9651 33.46 62.9717 33.6467 62.9851 33.82C62.9984 34.0067 63.0117 34.18 63.0251 34.34L61.3851 34.42C61.3451 34.18 61.3117 33.9133 61.2851 33.62C61.2584 33.34 61.2451 33.0867 61.2451 32.86C61.2451 32.2733 61.3517 31.7733 61.5651 31.36C61.7784 30.96 62.0517 30.6333 62.3851 30.38C62.6251 30.2067 62.8717 30.0667 63.1251 29.96C63.3917 29.8667 63.6917 29.7933 64.0251 29.74C64.3717 29.7 64.7651 29.68 65.2051 29.68H67.3851C68.5717 29.68 69.5451 29.6267 70.3051 29.52C71.0651 29.4267 71.6784 29.2733 72.1451 29.06C72.6117 28.86 72.9984 28.5933 73.3051 28.26C73.5717 27.9667 73.7717 27.6267 73.9051 27.24C74.0517 26.84 74.1251 26.3933 74.1251 25.9C74.1251 25.2467 73.9917 24.72 73.7251 24.32C73.4717 23.92 73.1251 23.6133 72.6851 23.4C72.2584 23.1867 71.7784 23.04 71.2451 22.96C70.7251 22.88 70.1917 22.84 69.6451 22.84H66.8051C66.1251 22.84 65.5451 22.88 65.0651 22.96C64.5984 23.04 64.1984 23.1733 63.8651 23.36C63.5717 23.5333 63.3517 23.7467 63.2051 24C63.0717 24.24 63.0051 24.5533 63.0051 24.94C63.0051 25.5533 63.2584 26.02 63.7651 26.34C64.2717 26.6467 64.9117 26.8 65.6851 26.8C66.2717 26.8 66.7717 26.7133 67.1851 26.54C67.6117 26.3533 67.9384 26.04 68.1651 25.6C68.4051 25.1467 68.5251 24.5267 68.5251 23.74V18.36H65.0851V21.96L63.5051 22.28V16.92H73.9651V18.36H70.2251V23.48C70.2251 24.3733 70.1451 25.0733 69.9851 25.58C69.8384 26.0867 69.6251 26.5133 69.3451 26.86C68.9317 27.3667 68.3984 27.7267 67.7451 27.94C67.1051 28.14 66.3651 28.24 65.5251 28.24ZM73.049 11.14C73.7957 11.14 74.529 11.2267 75.249 11.4C75.969 11.5733 76.6157 11.9067 77.189 12.4C77.6957 12.8267 78.1157 13.32 78.449 13.88C78.7957 14.44 79.0557 15.1267 79.229 15.94C79.4023 16.7533 79.489 17.7667 79.489 18.98V28H77.769V19.16C77.769 18.1467 77.6957 17.2733 77.549 16.54C77.4023 15.8067 77.189 15.1867 76.909 14.68C76.629 14.16 76.2757 13.7467 75.849 13.44C75.4757 13.16 75.0557 12.96 74.589 12.84C74.109 12.7067 73.609 12.64 73.089 12.64C71.889 12.64 70.9423 12.8867 70.249 13.38C69.5423 13.8733 69.189 14.6467 69.189 15.7C69.189 16.0467 69.229 16.3867 69.309 16.72C69.389 17.0533 69.5023 17.38 69.649 17.7H67.909C67.7756 17.42 67.669 17.0867 67.589 16.7C67.509 16.3133 67.469 15.9533 67.469 15.62C67.469 14.5533 67.7356 13.6933 68.269 13.04C68.789 12.3867 69.4756 11.9067 70.329 11.6C71.1823 11.2933 72.089 11.14 73.049 11.14ZM87.5234 28V16.92H89.2434V26.56H96.2234V16.92H97.9434V28H87.5234ZM85.2434 28.22C84.75 28.22 84.3167 28.14 83.9434 27.98C83.5834 27.8067 83.2767 27.5733 83.0234 27.28C82.8767 27.08 82.7367 26.8533 82.6034 26.6C82.4834 26.3467 82.3834 26.0133 82.3034 25.6C82.2367 25.1867 82.2034 24.64 82.2034 23.96V16.92H83.9234V23.54C83.9234 24.1533 83.95 24.7133 84.0034 25.22C84.0567 25.7133 84.2167 26.0933 84.4834 26.36C84.6167 26.4933 84.77 26.6 84.9434 26.68C85.13 26.7467 85.35 26.78 85.6034 26.78C85.99 26.78 86.35 26.68 86.6834 26.48C87.03 26.28 87.35 25.9533 87.6434 25.5L87.6034 27.22C87.35 27.4733 87.03 27.7067 86.6434 27.92C86.2567 28.12 85.79 28.22 85.2434 28.22ZM110.501 16.68C111.501 16.68 112.321 16.94 112.961 17.46C113.601 17.9667 114.075 18.68 114.381 19.6C114.688 20.5067 114.841 21.56 114.841 22.76C114.841 23.6933 114.741 24.4933 114.541 25.16C114.341 25.8267 114.021 26.3733 113.581 26.8C113.275 27.1067 112.921 27.3467 112.521 27.52C112.121 27.6933 111.648 27.82 111.101 27.9C110.568 27.9667 109.915 28 109.141 28H100.661V16.92H102.381V26.56H106.901V20.9C106.901 20.0733 106.975 19.42 107.121 18.94C107.281 18.4467 107.508 18.0333 107.801 17.7C108.108 17.3667 108.475 17.1133 108.901 16.94C109.328 16.7667 109.861 16.68 110.501 16.68ZM110.461 18.12C110.235 18.12 110.015 18.16 109.801 18.24C109.588 18.3067 109.408 18.42 109.261 18.58C109.048 18.82 108.888 19.12 108.781 19.48C108.675 19.8267 108.621 20.4133 108.621 21.24V26.56H109.561C110.468 26.56 111.175 26.4333 111.681 26.18C112.188 25.9267 112.548 25.5133 112.761 24.94C112.975 24.3667 113.081 23.6067 113.081 22.66C113.081 21.8067 112.988 21.04 112.801 20.36C112.628 19.68 112.348 19.14 111.961 18.74C111.588 18.3267 111.088 18.12 110.461 18.12ZM113.689 11.14C114.409 11.14 115.062 11.26 115.649 11.5C116.249 11.7267 116.776 12.0733 117.229 12.54C117.536 12.8467 117.802 13.2333 118.029 13.7C118.256 14.1533 118.429 14.7467 118.549 15.48C118.682 16.2 118.749 17.1133 118.749 18.22V28H117.029V18.58C117.029 17.62 116.982 16.8267 116.889 16.2C116.809 15.5733 116.689 15.06 116.529 14.66C116.369 14.2467 116.176 13.9067 115.949 13.64C115.669 13.2933 115.336 13.04 114.949 12.88C114.549 12.72 114.116 12.64 113.649 12.64C113.076 12.64 112.589 12.7533 112.189 12.98C111.789 13.1933 111.489 13.5 111.289 13.9C111.076 14.2867 110.969 14.74 110.969 15.26C110.969 15.6333 111.022 16.04 111.129 16.48C111.236 16.9067 111.402 17.3133 111.629 17.7H109.809C109.636 17.3 109.502 16.9 109.409 16.5C109.302 16.1 109.249 15.6933 109.249 15.28C109.249 14.56 109.369 13.94 109.609 13.42C109.849 12.9 110.176 12.4733 110.589 12.14C111.002 11.8067 111.476 11.56 112.009 11.4C112.542 11.2267 113.102 11.14 113.689 11.14ZM124.684 28.24C123.977 28.24 123.33 28.0667 122.744 27.72C122.157 27.3733 121.69 26.8267 121.344 26.08C121.01 25.32 120.844 24.3467 120.844 23.16C120.844 22.08 121.004 21.1333 121.324 20.32C121.644 19.5067 122.084 18.8333 122.644 18.3C123.204 17.7533 123.844 17.3467 124.564 17.08C125.297 16.8133 126.07 16.68 126.884 16.68C127.524 16.68 128.177 16.7667 128.844 16.94C129.51 17.1133 130.097 17.4533 130.604 17.96C130.977 18.32 131.264 18.7333 131.464 19.2C131.677 19.6667 131.824 20.2067 131.904 20.82C131.997 21.4333 132.044 22.1467 132.044 22.96C132.044 23.4267 132.064 23.8533 132.104 24.24C132.157 24.6267 132.244 24.9733 132.364 25.28C132.484 25.5867 132.65 25.86 132.864 26.1C133.064 26.3133 133.304 26.48 133.584 26.6C133.864 26.7067 134.197 26.76 134.584 26.76C135.024 26.76 135.424 26.6533 135.784 26.44C136.144 26.2267 136.43 25.8667 136.644 25.36C136.857 24.8533 136.964 24.1533 136.964 23.26C136.964 22.38 136.857 21.5667 136.644 20.82C136.43 20.0733 136.13 19.3933 135.744 18.78C135.37 18.1533 134.944 17.58 134.464 17.06L136.024 16C136.85 17.0533 137.504 18.16 137.984 19.32C138.464 20.48 138.704 21.7467 138.704 23.12C138.704 24.2533 138.537 25.2 138.204 25.96C137.884 26.72 137.41 27.2933 136.784 27.68C136.157 28.0533 135.377 28.24 134.444 28.24C133.87 28.24 133.344 28.16 132.864 28C132.397 27.8267 131.99 27.5733 131.644 27.24C131.217 26.84 130.89 26.2867 130.664 25.58C130.437 24.8733 130.317 24.0133 130.304 23C130.304 22.52 130.277 22.0267 130.224 21.52C130.17 21.0133 130.064 20.5333 129.904 20.08C129.744 19.6133 129.49 19.22 129.144 18.9C128.877 18.66 128.557 18.48 128.184 18.36C127.81 18.2267 127.35 18.16 126.804 18.16C125.884 18.16 125.097 18.3867 124.444 18.84C123.79 19.28 123.29 19.8933 122.944 20.68C122.597 21.4533 122.424 22.3467 122.424 23.36C122.424 24.2133 122.524 24.9 122.724 25.42C122.937 25.94 123.217 26.3133 123.564 26.54C123.924 26.7667 124.324 26.88 124.764 26.88C125.124 26.88 125.43 26.8067 125.684 26.66C125.95 26.5 126.15 26.2733 126.284 25.98C126.43 25.6867 126.504 25.3267 126.504 24.9C126.504 24.2333 126.33 23.7267 125.984 23.38C125.637 23.02 125.19 22.84 124.644 22.84C124.11 22.84 123.61 22.98 123.144 23.26C122.677 23.54 122.25 23.8933 121.864 24.32L121.564 23.04C121.964 22.5733 122.457 22.1933 123.044 21.9C123.644 21.5933 124.27 21.44 124.924 21.44C125.884 21.44 126.657 21.7333 127.244 22.32C127.844 22.9067 128.144 23.7 128.144 24.7C128.144 25.4333 128.004 26.0667 127.724 26.6C127.444 27.1333 127.044 27.54 126.524 27.82C126.017 28.1 125.404 28.24 124.684 28.24ZM129.844 14.44C129.457 14.44 129.137 14.32 128.884 14.08C128.63 13.8267 128.504 13.5 128.504 13.1C128.504 12.7133 128.63 12.3933 128.884 12.14C129.137 11.8867 129.457 11.76 129.844 11.76C130.23 11.76 130.55 11.8867 130.804 12.14C131.057 12.3933 131.184 12.7133 131.184 13.1C131.184 13.5 131.057 13.8267 130.804 14.08C130.55 14.32 130.23 14.44 129.844 14.44ZM144.137 28.24C143.431 28.24 142.784 28.0667 142.197 27.72C141.611 27.36 141.144 26.8067 140.797 26.06C140.464 25.3133 140.297 24.34 140.297 23.14C140.297 21.82 140.584 20.68 141.157 19.72C141.744 18.7467 142.564 18 143.617 17.48C144.671 16.9467 145.904 16.68 147.317 16.68C147.957 16.68 148.564 16.7333 149.137 16.84C149.711 16.9333 150.264 17.08 150.797 17.28C151.331 17.48 151.844 17.74 152.337 18.06L153.057 18.68C153.897 19.36 154.537 20.18 154.977 21.14C155.431 22.1 155.657 23.1267 155.657 24.22C155.657 25.1133 155.524 25.86 155.257 26.46C155.004 27.0467 154.631 27.4933 154.137 27.8C153.657 28.0933 153.084 28.24 152.417 28.24C151.644 28.24 151.011 28.0667 150.517 27.72C150.037 27.3733 149.677 26.9067 149.437 26.32C149.211 25.72 149.097 25.04 149.097 24.28C149.097 23.4933 149.177 22.78 149.337 22.14C149.511 21.4867 149.744 20.8933 150.037 20.36C150.344 19.8133 150.697 19.3133 151.097 18.86L151.957 18.04C152.491 17.6 153.071 17.2667 153.697 17.04C154.324 16.8 154.997 16.68 155.717 16.68C156.971 16.68 157.991 16.9467 158.777 17.48C159.564 18 160.144 18.6933 160.517 19.56C160.891 20.4267 161.077 21.3733 161.077 22.4C161.077 23.32 160.984 24.14 160.797 24.86C160.624 25.5667 160.397 26.2 160.117 26.76C159.851 27.3067 159.564 27.8 159.257 28.24L157.817 27.36C158.244 26.76 158.597 26.08 158.877 25.32C159.171 24.5467 159.317 23.6 159.317 22.48C159.317 21.6 159.171 20.84 158.877 20.2C158.584 19.5467 158.157 19.0467 157.597 18.7C157.051 18.34 156.377 18.16 155.577 18.16C154.964 18.16 154.431 18.24 153.977 18.4C153.537 18.56 153.084 18.8333 152.617 19.22C152.191 19.66 151.837 20.14 151.557 20.66C151.291 21.18 151.091 21.74 150.957 22.34C150.837 22.9267 150.777 23.5533 150.777 24.22C150.777 25.14 150.917 25.8133 151.197 26.24C151.477 26.6667 151.864 26.88 152.357 26.88C152.771 26.88 153.091 26.7533 153.317 26.5C153.557 26.2467 153.724 25.9267 153.817 25.54C153.911 25.1533 153.957 24.76 153.957 24.36C153.957 23.2933 153.751 22.34 153.337 21.5C152.937 20.66 152.351 19.94 151.577 19.34C150.951 18.9 150.264 18.5933 149.517 18.42C148.771 18.2467 147.971 18.16 147.117 18.16C146.131 18.16 145.271 18.34 144.537 18.7C143.804 19.06 143.217 19.5533 142.777 20.18C142.351 20.8067 142.071 21.5267 141.937 22.34C141.924 22.54 141.911 22.7333 141.897 22.92C141.884 23.0933 141.877 23.2333 141.877 23.34C141.877 24.2067 141.977 24.9 142.177 25.42C142.391 25.94 142.677 26.3133 143.037 26.54C143.397 26.7667 143.797 26.88 144.237 26.88C144.597 26.88 144.904 26.8067 145.157 26.66C145.411 26.5 145.604 26.2733 145.737 25.98C145.884 25.6867 145.957 25.3267 145.957 24.9C145.957 24.2333 145.784 23.7267 145.437 23.38C145.091 23.02 144.644 22.84 144.097 22.84C143.564 22.84 143.064 22.98 142.597 23.26C142.131 23.54 141.704 23.8933 141.317 24.32L141.017 23.04C141.417 22.5733 141.911 22.1933 142.497 21.9C143.097 21.5933 143.724 21.44 144.377 21.44C145.337 21.44 146.111 21.7333 146.697 22.32C147.297 22.9067 147.597 23.7 147.597 24.7C147.597 25.4333 147.457 26.0667 147.177 26.6C146.897 27.1333 146.497 27.54 145.977 27.82C145.471 28.1 144.857 28.24 144.137 28.24ZM166.541 28.24C165.834 28.24 165.187 28.0667 164.601 27.72C164.014 27.3733 163.547 26.8267 163.201 26.08C162.867 25.32 162.701 24.3467 162.701 23.16C162.701 22.08 162.861 21.1333 163.181 20.32C163.501 19.5067 163.941 18.8333 164.501 18.3C165.061 17.7533 165.701 17.3467 166.421 17.08C167.154 16.8133 167.927 16.68 168.741 16.68C169.381 16.68 170.034 16.7667 170.701 16.94C171.367 17.1133 171.954 17.4533 172.461 17.96C172.834 18.32 173.121 18.7333 173.321 19.2C173.534 19.6667 173.681 20.2067 173.761 20.82C173.854 21.4333 173.901 22.1467 173.901 22.96C173.901 23.4267 173.921 23.8533 173.961 24.24C174.014 24.6267 174.101 24.9733 174.221 25.28C174.341 25.5867 174.507 25.86 174.721 26.1C174.921 26.3133 175.161 26.48 175.441 26.6C175.721 26.7067 176.054 26.76 176.441 26.76C176.881 26.76 177.281 26.6533 177.641 26.44C178.001 26.2267 178.287 25.8667 178.501 25.36C178.714 24.8533 178.821 24.1533 178.821 23.26C178.821 22.38 178.714 21.5667 178.501 20.82C178.287 20.0733 177.987 19.3933 177.601 18.78C177.227 18.1533 176.801 17.58 176.321 17.06L177.881 16C178.707 17.0533 179.361 18.16 179.841 19.32C180.321 20.48 180.561 21.7467 180.561 23.12C180.561 24.2533 180.394 25.2 180.061 25.96C179.741 26.72 179.267 27.2933 178.641 27.68C178.014 28.0533 177.234 28.24 176.301 28.24C175.727 28.24 175.201 28.16 174.721 28C174.254 27.8267 173.847 27.5733 173.501 27.24C173.074 26.84 172.747 26.2867 172.521 25.58C172.294 24.8733 172.174 24.0133 172.161 23C172.161 22.52 172.134 22.0267 172.081 21.52C172.027 21.0133 171.921 20.5333 171.761 20.08C171.601 19.6133 171.347 19.22 171.001 18.9C170.734 18.66 170.414 18.48 170.041 18.36C169.667 18.2267 169.207 18.16 168.661 18.16C167.741 18.16 166.954 18.3867 166.301 18.84C165.647 19.28 165.147 19.8933 164.801 20.68C164.454 21.4533 164.281 22.3467 164.281 23.36C164.281 24.2133 164.381 24.9 164.581 25.42C164.794 25.94 165.074 26.3133 165.421 26.54C165.781 26.7667 166.181 26.88 166.621 26.88C166.981 26.88 167.287 26.8067 167.541 26.66C167.807 26.5 168.007 26.2733 168.141 25.98C168.287 25.6867 168.361 25.3267 168.361 24.9C168.361 24.2333 168.187 23.7267 167.841 23.38C167.494 23.02 167.047 22.84 166.501 22.84C165.967 22.84 165.467 22.98 165.001 23.26C164.534 23.54 164.107 23.8933 163.721 24.32L163.421 23.04C163.821 22.5733 164.314 22.1933 164.901 21.9C165.501 21.5933 166.127 21.44 166.781 21.44C167.741 21.44 168.514 21.7333 169.101 22.32C169.701 22.9067 170.001 23.7 170.001 24.7C170.001 25.4333 169.861 26.0667 169.581 26.6C169.301 27.1333 168.901 27.54 168.381 27.82C167.874 28.1 167.261 28.24 166.541 28.24Z" fill="white"/>
</svg>
