<svg width="201" height="46" viewBox="0 0 201 46" fill="none" xmlns="http://www.w3.org/2000/svg">
<path fill-rule="evenodd" clip-rule="evenodd" d="M9.59773 0H190.604C195.884 0 200.202 4.31769 200.202 9.59649V35.5685C200.202 40.8494 195.884 45.1671 190.604 45.1671H9.59773C4.3181 45.1671 0 40.8494 0 35.5685V9.59649C0 4.31769 4.3181 0 9.59773 0Z" fill="#05A310"/>
<path d="M58.9407 32.28C56.4954 32.28 54.6007 31.6827 53.2567 30.488C51.9127 29.2933 51.2407 27.4547 51.2407 24.972V13.072H54.1527V24.86C54.1527 26.4467 54.5447 27.66 55.3287 28.5C56.1314 29.34 57.3354 29.76 58.9407 29.76C60.5274 29.76 61.7127 29.34 62.4967 28.5C63.2994 27.66 63.7007 26.4467 63.7007 24.86V13.072H66.6127V24.972C66.6127 27.4547 65.9407 29.2933 64.5967 30.488C63.2527 31.6827 61.3674 32.28 58.9407 32.28ZM78.5226 17.132C79.2506 17.132 79.9132 17.2347 80.5106 17.44C81.1266 17.6267 81.6492 17.9347 82.0786 18.364C82.5079 18.7933 82.8439 19.3533 83.0866 20.044C83.3292 20.716 83.4506 21.528 83.4506 22.48V32H80.5666V22.788C80.5666 21.7053 80.3239 20.8933 79.8386 20.352C79.3719 19.8107 78.6346 19.54 77.6266 19.54C76.8799 19.54 76.1426 19.6707 75.4146 19.932C74.7052 20.1747 74.0799 20.4827 73.5386 20.856V32H70.6546V17.384H73.2026L73.4266 18.7C74.1172 18.2333 74.9012 17.86 75.7786 17.58C76.6559 17.2813 77.5706 17.132 78.5226 17.132ZM90.1946 32H87.3106V12.26L90.1946 11.476V32ZM94.3937 17.384H97.2777V32H94.3937V17.384ZM97.3337 14.892H94.3377V12.064L97.3337 11.28V14.892ZM113.825 32H112.453C111.8 32 111.24 31.888 110.773 31.664C110.325 31.4213 109.896 31.02 109.485 30.46L106.069 25.672C105.976 25.5227 105.882 25.4293 105.789 25.392C105.696 25.3547 105.565 25.336 105.397 25.336H104.221V32H101.337V12.26L104.221 11.476V22.928H105.845L110.605 17.384H114.105L108.309 23.992L111.781 28.864C111.986 29.1813 112.192 29.3867 112.397 29.48C112.602 29.5547 112.901 29.592 113.293 29.592H114.637L113.825 32ZM123.098 32.28C120.652 32.28 118.767 31.6453 117.442 30.376C116.135 29.1067 115.482 27.2773 115.482 24.888C115.482 23.7493 115.64 22.704 115.958 21.752C116.275 20.8 116.742 19.9787 117.358 19.288C117.974 18.5973 118.73 18.0653 119.626 17.692C120.522 17.3187 121.539 17.132 122.678 17.132C123.76 17.132 124.694 17.3 125.478 17.636C126.262 17.972 126.906 18.448 127.41 19.064C127.914 19.6613 128.287 20.3707 128.53 21.192C128.772 21.9947 128.894 22.872 128.894 23.824C128.894 24.1413 128.875 24.4587 128.838 24.776C128.819 25.0933 128.791 25.3827 128.754 25.644H118.478C118.534 26.9507 118.954 27.9867 119.738 28.752C120.54 29.5173 121.763 29.9 123.406 29.9C124.078 29.9 124.806 29.8347 125.59 29.704C126.374 29.5733 127.064 29.4053 127.662 29.2L127.97 31.412C127.26 31.6733 126.486 31.8787 125.646 32.028C124.824 32.196 123.975 32.28 123.098 32.28ZM122.538 19.344C121.287 19.344 120.316 19.736 119.626 20.52C118.935 21.2853 118.562 22.284 118.506 23.516H126.01V23.208C126.01 22.816 125.963 22.396 125.87 21.948C125.776 21.5 125.599 21.0893 125.338 20.716C125.095 20.324 124.75 19.9973 124.302 19.736C123.854 19.4747 123.266 19.344 122.538 19.344ZM134.906 32H132.022V12.26L134.906 11.476V32ZM142.969 38.692L140.337 37.992L143.277 31.44L137.145 17.384H140.365L144.677 27.94H144.761L148.681 17.384H151.817L142.969 38.692Z" fill="white"/>
</svg>
