<svg width="201" height="48" viewBox="0 0 201 48" fill="none" xmlns="http://www.w3.org/2000/svg">
<path fill-rule="evenodd" clip-rule="evenodd" d="M9.59773 2.16699H190.604C195.884 2.16699 200.202 6.48468 200.202 11.7635V37.7355C200.202 43.0164 195.884 47.3341 190.604 47.3341H9.59773C4.3181 47.3341 0 43.0164 0 37.7355V11.7635C0 6.48468 4.3181 2.16699 9.59773 2.16699Z" fill="#05A310"/>
<path d="M48.4791 36.487C45.6845 36.487 43.5191 35.8043 41.9831 34.439C40.4471 33.0737 39.6791 30.9723 39.6791 28.135V14.535H43.0071V28.007C43.0071 29.8203 43.4551 31.207 44.3511 32.167C45.2685 33.127 46.6445 33.607 48.4791 33.607C50.2925 33.607 51.6471 33.127 52.5431 32.167C53.4605 31.207 53.9191 29.8203 53.9191 28.007V14.535H57.2471V28.135C57.2471 30.9723 56.4791 33.0737 54.9431 34.439C53.4071 35.8043 51.2525 36.487 48.4791 36.487ZM70.8584 19.175C71.6904 19.175 72.4477 19.2923 73.1304 19.527C73.8344 19.7403 74.4317 20.0923 74.9224 20.583C75.413 21.0737 75.797 21.7137 76.0744 22.503C76.3517 23.271 76.4904 24.199 76.4904 25.287V36.167H73.1944V25.639C73.1944 24.4017 72.917 23.4737 72.3624 22.855C71.829 22.2363 70.9864 21.927 69.8344 21.927C68.981 21.927 68.1384 22.0763 67.3064 22.375C66.4957 22.6523 65.781 23.0043 65.1624 23.431V36.167H61.8664V19.463H64.7784L65.0344 20.967C65.8237 20.4337 66.7197 20.007 67.7224 19.687C68.725 19.3457 69.7704 19.175 70.8584 19.175ZM84.2939 31.079C84.2939 31.8897 84.4432 32.4657 84.7419 32.807C85.0619 33.127 85.6165 33.287 86.4059 33.287H94.8859L93.8939 36.167H85.2219C83.7072 36.167 82.6192 35.815 81.9579 35.111C81.2965 34.407 80.9659 33.3297 80.9659 31.879V14.535H84.2939V31.079ZM97.9031 19.463H101.199V36.167H97.9031V19.463ZM101.263 16.615H97.8391V13.383L101.263 12.487V16.615ZM120.11 36.167H118.542C117.795 36.167 117.155 36.039 116.622 35.783C116.11 35.5057 115.619 35.047 115.15 34.407L111.246 28.935C111.139 28.7643 111.033 28.6577 110.926 28.615C110.819 28.5723 110.67 28.551 110.478 28.551H109.134V36.167H105.838V13.607L109.134 12.711V25.799H110.99L116.43 19.463H120.43L113.806 27.015L117.774 32.583C118.009 32.9457 118.243 33.1803 118.478 33.287C118.713 33.3723 119.054 33.415 119.502 33.415H121.038L120.11 36.167ZM130.708 36.487C127.913 36.487 125.758 35.7617 124.244 34.311C122.75 32.8603 122.004 30.7697 122.004 28.039C122.004 26.7377 122.185 25.543 122.548 24.455C122.91 23.367 123.444 22.4283 124.148 21.639C124.852 20.8497 125.716 20.2417 126.74 19.815C127.764 19.3883 128.926 19.175 130.228 19.175C131.465 19.175 132.532 19.367 133.428 19.751C134.324 20.135 135.06 20.679 135.636 21.383C136.212 22.0657 136.638 22.8763 136.916 23.815C137.193 24.7323 137.332 25.735 137.332 26.823C137.332 27.1857 137.31 27.5483 137.268 27.911C137.246 28.2737 137.214 28.6043 137.172 28.903H125.428C125.492 30.3963 125.972 31.5803 126.868 32.455C127.785 33.3297 129.182 33.767 131.06 33.767C131.828 33.767 132.66 33.6923 133.556 33.543C134.452 33.3937 135.241 33.2017 135.924 32.967L136.276 35.495C135.465 35.7937 134.58 36.0283 133.62 36.199C132.681 36.391 131.71 36.487 130.708 36.487ZM130.068 21.703C128.638 21.703 127.529 22.151 126.74 23.047C125.95 23.9217 125.524 25.063 125.46 26.471H134.036V26.119C134.036 25.671 133.982 25.191 133.876 24.679C133.769 24.167 133.566 23.6977 133.268 23.271C132.99 22.823 132.596 22.4497 132.084 22.151C131.572 21.8523 130.9 21.703 130.068 21.703ZM144.203 36.167H140.907V13.607L144.203 12.711V36.167ZM153.418 43.815L150.41 43.015L153.77 35.527L146.762 19.463H150.442L155.37 31.527H155.466L159.946 19.463H163.53L153.418 43.815Z" fill="white"/>
</svg>
